<svg width="236" height="153" viewBox="0 0 236 153" fill="none" xmlns="http://www.w3.org/2000/svg">
<rect width="236" height="153" fill="white"/>
<g clip-path="url(#clip0)">
<path d="M69.3201 97.1466C68.6594 97.2059 68.1111 97.2356 67.6754 97.2356C67.5601 97.2554 67.4418 97.2471 67.3303 97.2111C67.2188 97.1752 67.1175 97.1127 67.0348 97.029C66.952 96.9453 66.8904 96.8428 66.8549 96.7299C66.8193 96.6171 66.8111 96.4974 66.8307 96.3806V94.9407C66.8197 94.8181 66.8327 94.6945 66.8689 94.577C66.9051 94.4595 66.9639 94.3503 67.0419 94.2558C67.1821 94.1123 67.4087 94.0421 67.7201 94.0421H69.3201V94.6661H67.8974C67.8613 94.6607 67.8244 94.6638 67.7896 94.6753C67.7549 94.6868 67.7233 94.7064 67.6974 94.7325C67.6715 94.7586 67.652 94.7904 67.6404 94.8255C67.6288 94.8605 67.6255 94.8979 67.6307 94.9345V96.3744C67.6291 96.4047 67.6336 96.4349 67.644 96.4633C67.6543 96.4918 67.6702 96.5178 67.6908 96.5398C67.7113 96.5596 67.7355 96.5751 67.7619 96.5853C67.7884 96.5955 67.8167 96.6001 67.845 96.5991H68.05H68.2812L68.5232 96.5897C68.6049 96.5897 68.7097 96.5803 68.8315 96.571L69.314 96.5398L69.3201 97.1466Z" fill="#595959"/>
<path d="M75.4337 95.4587C75.2337 95.4618 75.0366 95.5081 74.8557 95.5944V97.1904H74.085V94.8066H74.774L74.8187 95.0983C75.0348 94.8894 75.3199 94.7693 75.6187 94.7614H75.8191V95.4587H75.4337Z" fill="#595959"/>
<path d="M82.7462 97.1467C82.229 97.2028 81.7094 97.2325 81.1893 97.2356C81.1003 97.2416 81.0111 97.2282 80.9276 97.1965C80.8442 97.1647 80.7684 97.1153 80.7053 97.0515C80.6423 96.9876 80.5934 96.9109 80.562 96.8264C80.5307 96.742 80.5175 96.6517 80.5234 96.5616V95.4821C80.5144 95.3853 80.5266 95.2877 80.5591 95.1962C80.5916 95.1047 80.6436 95.0216 80.7114 94.9528C80.7793 94.884 80.8613 94.8311 80.9516 94.798C81.0419 94.765 81.1383 94.7524 81.234 94.7613H82.1234C82.2191 94.7524 82.3155 94.765 82.4058 94.798C82.4961 94.8311 82.5781 94.884 82.646 94.9528C82.7138 95.0216 82.7658 95.1047 82.7983 95.1962C82.8309 95.2877 82.843 95.3853 82.834 95.4821V96.3136H81.3003V96.493C81.3 96.5138 81.3037 96.5344 81.3114 96.5537C81.3191 96.573 81.3305 96.5906 81.345 96.6053C81.3592 96.6204 81.3765 96.6323 81.3956 96.6401C81.4148 96.6479 81.4353 96.6514 81.456 96.6506C81.7504 96.6506 82.1789 96.6287 82.7462 96.5835V97.1467ZM81.4791 95.3245C81.4548 95.3202 81.4298 95.3218 81.4063 95.3292C81.3827 95.3367 81.3613 95.3498 81.3438 95.3674C81.3263 95.3849 81.3132 95.4065 81.3056 95.4303C81.298 95.454 81.2962 95.4793 81.3003 95.5039V95.752H82.0556V95.5039C82.0596 95.4794 82.0578 95.4544 82.0503 95.4307C82.0428 95.4071 82.0298 95.3856 82.0125 95.3681C81.9952 95.3506 81.974 95.3375 81.9506 95.3299C81.9273 95.3223 81.9025 95.3205 81.8783 95.3245H81.4791Z" fill="#595959"/>
<path d="M87.7892 94.8518C88.2763 94.7946 88.7662 94.7644 89.2566 94.7613C89.3458 94.7554 89.4352 94.7687 89.5189 94.8006C89.6025 94.8324 89.6785 94.882 89.7417 94.9459C89.8049 95.0099 89.8539 95.0868 89.8853 95.1714C89.9168 95.2561 89.93 95.3466 89.9241 95.4369V97.1904H89.2351L89.1904 96.9657C89.0588 97.0558 88.9142 97.1247 88.7618 97.1701C88.6416 97.2091 88.5166 97.2312 88.3903 97.2356H88.2362C88.1472 97.2416 88.0579 97.2282 87.9743 97.1965C87.8908 97.1647 87.8149 97.1153 87.7517 97.0515C87.6886 96.9878 87.6396 96.9111 87.608 96.8266C87.5765 96.7421 87.5631 96.6518 87.5688 96.5617V96.3589C87.5628 96.2686 87.5761 96.1781 87.6075 96.0934C87.639 96.0088 87.6879 95.9319 87.7511 95.8679C87.8143 95.804 87.8903 95.7544 87.974 95.7226C88.0576 95.6907 88.147 95.6774 88.2362 95.6833H89.1472V95.5039C89.1472 95.4626 89.131 95.4229 89.1021 95.3936C89.0731 95.3644 89.0339 95.3479 88.9931 95.3479C88.8004 95.3479 88.5877 95.3573 88.3549 95.3744C88.1221 95.3916 87.9356 95.4072 87.7923 95.415L87.7892 94.8518ZM88.6123 96.6053C88.7934 96.6015 88.9729 96.5715 89.1457 96.5164V96.2465H88.5013C88.4807 96.2456 88.4601 96.2492 88.441 96.257C88.4219 96.2648 88.4046 96.2767 88.3903 96.2918C88.3759 96.3065 88.3645 96.3241 88.3568 96.3434C88.3491 96.3626 88.3453 96.3833 88.3456 96.4041V96.4493C88.3453 96.4701 88.3491 96.4908 88.3568 96.5101C88.3645 96.5294 88.3759 96.5469 88.3903 96.5617C88.4051 96.576 88.4225 96.5873 88.4415 96.5948C88.4606 96.6023 88.4809 96.6059 88.5013 96.6053H88.6123Z" fill="#595959"/>
<path d="M96.4146 97.1903C96.134 97.2206 95.852 97.2357 95.5699 97.2356C95.4808 97.2415 95.3915 97.2282 95.308 97.1965C95.2245 97.1647 95.1486 97.1153 95.0854 97.0515C95.0222 96.9877 94.9732 96.911 94.9417 96.8266C94.9101 96.7421 94.8967 96.6518 94.9024 96.5616V95.4134H94.6357V94.8066H94.9086L94.998 94.2668H95.6793V94.8066H96.2358V95.4134H95.6793V96.4493C95.679 96.4701 95.6828 96.4908 95.6904 96.51C95.6981 96.5293 95.7095 96.5469 95.724 96.5616C95.7387 96.576 95.7561 96.5873 95.7752 96.5948C95.7942 96.6023 95.8146 96.6058 95.835 96.6053H96.413L96.4146 97.1903Z" fill="#595959"/>
<path d="M102.153 94.897V97.1903H101.375V95.5039H101.042V94.897H102.153ZM101.375 93.9969H102.153V94.6209H101.375V93.9969Z" fill="#595959"/>
<path d="M108.616 94.8066H109.439L108.549 97.1904H107.662L106.778 94.8066H107.6L108.112 96.4259L108.616 94.8066Z" fill="#595959"/>
<path d="M116.239 97.1467C115.722 97.2029 115.203 97.2326 114.684 97.2356C114.595 97.2418 114.505 97.2286 114.422 97.197C114.338 97.1653 114.262 97.1159 114.199 97.0521C114.135 96.9883 114.086 96.9115 114.055 96.8269C114.024 96.7423 114.01 96.6518 114.016 96.5616V95.4821C114.008 95.3853 114.02 95.2878 114.053 95.1964C114.086 95.1051 114.138 95.0221 114.206 94.9534C114.274 94.8847 114.356 94.8318 114.446 94.7987C114.536 94.7655 114.633 94.7527 114.728 94.7613H115.616C115.712 94.7527 115.808 94.7655 115.899 94.7987C115.989 94.8318 116.071 94.8847 116.139 94.9534C116.207 95.0221 116.259 95.1051 116.292 95.1964C116.324 95.2878 116.337 95.3853 116.328 95.4821V96.3136H114.793V96.493C114.793 96.5344 114.809 96.5741 114.838 96.6033C114.867 96.6326 114.906 96.649 114.947 96.649C115.24 96.649 115.67 96.6267 116.236 96.5819L116.239 97.1467ZM114.972 95.3245C114.948 95.3205 114.923 95.3223 114.9 95.3299C114.876 95.3375 114.855 95.3506 114.838 95.3681C114.82 95.3856 114.807 95.4071 114.8 95.4307C114.792 95.4544 114.791 95.4795 114.795 95.5039V95.752H115.55V95.5039C115.554 95.4795 115.552 95.4544 115.545 95.4307C115.537 95.4071 115.524 95.3856 115.507 95.3681C115.49 95.3506 115.468 95.3375 115.445 95.3299C115.422 95.3223 115.397 95.3205 115.373 95.3245H114.972Z" fill="#595959"/>
<path d="M127.063 94.8518C127.55 94.7946 128.039 94.7644 128.529 94.7613C128.618 94.7551 128.708 94.7683 128.791 94.8C128.875 94.8318 128.951 94.8813 129.015 94.9453C129.078 95.0094 129.127 95.0863 129.158 95.1711C129.189 95.2559 129.202 95.3465 129.196 95.4368V97.1904H128.512L128.467 96.9657C128.336 97.056 128.191 97.1249 128.039 97.1701C127.919 97.2092 127.793 97.2313 127.667 97.2356H127.513C127.424 97.2416 127.335 97.2282 127.251 97.1965C127.168 97.1647 127.092 97.1153 127.029 97.0515C126.966 96.9876 126.917 96.9109 126.886 96.8265C126.854 96.742 126.841 96.6517 126.847 96.5616V96.3588C126.841 96.2687 126.854 96.1782 126.885 96.0935C126.917 96.0089 126.965 95.932 127.028 95.868C127.092 95.804 127.167 95.7544 127.251 95.7225C127.335 95.6907 127.424 95.6773 127.513 95.6833H128.424V95.5039C128.425 95.4832 128.421 95.4627 128.414 95.4434C128.406 95.4241 128.395 95.4065 128.381 95.3916C128.366 95.3768 128.349 95.3651 128.329 95.3573C128.31 95.3495 128.289 95.3458 128.268 95.3464C128.076 95.3464 127.863 95.3557 127.632 95.3729C127.401 95.39 127.211 95.4056 127.069 95.4134L127.063 94.8518ZM127.885 96.6053C128.066 96.6016 128.245 96.5716 128.418 96.5164V96.2465H127.774C127.753 96.2456 127.732 96.2492 127.713 96.257C127.694 96.2648 127.677 96.2766 127.663 96.2918C127.648 96.3065 127.637 96.3241 127.629 96.3433C127.621 96.3626 127.618 96.3833 127.618 96.4041V96.4493C127.618 96.4701 127.621 96.4908 127.629 96.5101C127.637 96.5293 127.648 96.5469 127.663 96.5616C127.677 96.576 127.695 96.5873 127.714 96.5948C127.733 96.6023 127.753 96.6059 127.774 96.6053H127.885Z" fill="#595959"/>
<path d="M135.575 97.0109C135.327 97.0662 135.074 97.0965 134.82 97.1014H134.666C134.577 97.1069 134.488 97.0932 134.404 97.0611C134.321 97.0291 134.245 96.9796 134.182 96.9157C134.119 96.8518 134.07 96.7752 134.038 96.6907C134.007 96.6063 133.993 96.516 133.999 96.4259V95.5257C133.99 95.4291 134.003 95.3317 134.036 95.2406C134.069 95.1494 134.121 95.0666 134.189 94.9981C134.257 94.9296 134.339 94.8769 134.429 94.8438C134.519 94.8107 134.615 94.798 134.711 94.8065H136.355V97.3261C136.361 97.4163 136.348 97.5067 136.317 97.5913C136.285 97.6759 136.236 97.7527 136.173 97.8165C136.11 97.8804 136.034 97.9298 135.95 97.9614C135.866 97.9931 135.777 98.0062 135.688 98C135.168 97.997 134.649 97.9673 134.133 97.9111V97.3261C134.698 97.3708 135.127 97.3931 135.421 97.3931C135.462 97.3931 135.501 97.3767 135.53 97.3475C135.559 97.3182 135.575 97.2785 135.575 97.2371V97.0109ZM135.042 96.493C135.221 96.4939 135.399 96.4793 135.575 96.4493V95.4134H134.959C134.935 95.4093 134.91 95.4111 134.886 95.4188C134.863 95.4265 134.841 95.4397 134.824 95.4574C134.807 95.4752 134.794 95.4969 134.786 95.5207C134.779 95.5445 134.777 95.5698 134.782 95.5944V96.3292C134.781 96.3502 134.785 96.3712 134.792 96.3907C134.8 96.4103 134.812 96.4281 134.826 96.4431C134.841 96.4574 134.858 96.4687 134.877 96.4762C134.896 96.4837 134.917 96.4873 134.937 96.4867L135.042 96.493Z" fill="#595959"/>
<path d="M143.421 97.1466C142.904 97.2028 142.385 97.2325 141.865 97.2356C141.776 97.2418 141.687 97.2286 141.603 97.197C141.52 97.1653 141.444 97.1159 141.38 97.0521C141.317 96.9882 141.268 96.9114 141.237 96.8268C141.205 96.7422 141.192 96.6518 141.198 96.5616V95.4821C141.189 95.3854 141.202 95.288 141.235 95.1968C141.267 95.1056 141.319 95.0227 141.387 94.954C141.455 94.8853 141.537 94.8325 141.627 94.7992C141.717 94.7659 141.813 94.753 141.908 94.7613H142.798C142.894 94.7524 142.99 94.765 143.08 94.798C143.171 94.8311 143.253 94.884 143.32 94.9528C143.388 95.0216 143.44 95.1047 143.473 95.1962C143.505 95.2877 143.517 95.3853 143.508 95.4821V96.3136H141.976V96.493C141.976 96.5343 141.993 96.574 142.021 96.6033C142.05 96.6325 142.09 96.649 142.13 96.649C142.423 96.649 142.853 96.6266 143.419 96.5819L143.421 97.1466ZM142.154 95.3245C142.129 95.3204 142.105 95.3223 142.081 95.3299C142.058 95.3375 142.037 95.3506 142.019 95.3681C142.002 95.3856 141.989 95.4071 141.982 95.4307C141.974 95.4543 141.972 95.4794 141.976 95.5039V95.752H142.732V95.5039C142.736 95.4794 142.734 95.4543 142.726 95.4307C142.719 95.4071 142.706 95.3856 142.689 95.3681C142.671 95.3506 142.65 95.3375 142.627 95.3299C142.603 95.3223 142.578 95.3204 142.554 95.3245H142.154Z" fill="#595959"/>
<path d="M149.665 95.4134C149.484 95.4179 149.305 95.4484 149.132 95.5039V97.1903H148.361V94.8066H149.05L149.095 95.0312C149.227 94.9422 149.372 94.8733 149.524 94.8269C149.644 94.7876 149.769 94.7655 149.895 94.7613H150.092C150.182 94.7551 150.271 94.7683 150.355 94.8C150.439 94.8318 150.515 94.8813 150.578 94.9453C150.641 95.0094 150.69 95.0863 150.722 95.1711C150.753 95.2559 150.766 95.3465 150.76 95.4368V97.1903H149.989V95.571C149.99 95.5501 149.986 95.5293 149.979 95.5099C149.971 95.4906 149.959 95.4731 149.944 95.4587C149.93 95.444 149.912 95.4325 149.893 95.4247C149.874 95.4169 149.854 95.4131 149.833 95.4134H149.665Z" fill="#595959"/>
<path d="M157.69 97.1466C157.203 97.202 156.713 97.2316 156.223 97.2356C156.134 97.2415 156.044 97.2282 155.961 97.1964C155.877 97.1647 155.801 97.1153 155.738 97.0515C155.675 96.9877 155.626 96.911 155.594 96.8265C155.563 96.7421 155.549 96.6517 155.555 96.5616V95.5257C155.547 95.4291 155.56 95.3317 155.593 95.2406C155.625 95.1494 155.678 95.0666 155.746 94.9981C155.813 94.9296 155.895 94.8769 155.985 94.8438C156.076 94.8107 156.172 94.798 156.267 94.8065H157.69V95.4134H156.511C156.487 95.4093 156.462 95.4111 156.438 95.4188C156.415 95.4265 156.393 95.4397 156.376 95.4574C156.359 95.4752 156.346 95.4969 156.338 95.5207C156.331 95.5445 156.329 95.5698 156.334 95.5944V96.4711C156.334 96.5125 156.35 96.5522 156.379 96.5815C156.408 96.6107 156.447 96.6271 156.488 96.6271C156.754 96.6271 157.155 96.6037 157.689 96.5601L157.69 97.1466Z" fill="#595959"/>
<path d="M163.113 98C162.92 97.9977 162.727 97.9831 162.535 97.9563V97.3713H162.934C162.976 97.3773 163.019 97.3717 163.058 97.3549C163.096 97.3381 163.13 97.3109 163.155 97.2761C163.171 97.2332 163.177 97.1871 163.174 97.1413C163.171 97.0954 163.157 97.0509 163.135 97.0109L162.224 94.8066H163.041L163.597 96.3354L164.06 94.8066H164.89L164.001 97.2808C163.935 97.4852 163.821 97.67 163.668 97.819C163.512 97.9471 163.314 98.0116 163.113 98Z" fill="#595959"/>
<path d="M54 76.7021C54 68.6833 59.9916 63.2075 67.7189 63.2075C73.4006 63.2075 76.6854 66.337 78.509 69.5835L73.7906 71.9298C72.7116 69.8175 70.3886 68.1358 67.7219 68.1358C63.0452 68.1358 59.6448 71.7738 59.6448 76.7021C59.6448 81.6303 63.0452 85.2684 67.7219 85.2684C70.3886 85.2684 72.707 83.6256 73.7906 81.4743L78.5059 83.7816C76.6562 87.0297 73.4037 90.1966 67.7158 90.1966C59.9916 90.1966 54 84.7208 54 76.7021Z" fill="black"/>
<path d="M80.5518 76.7021C80.5518 68.8393 86.2335 63.2075 94.0009 63.2075C101.808 63.2075 107.49 68.8393 107.49 76.7021C107.49 84.5648 101.808 90.1966 94.0009 90.1966C86.2335 90.1966 80.5518 84.5648 80.5518 76.7021ZM101.847 76.7021C101.847 71.8128 98.7547 68.1358 94.0009 68.1358C89.247 68.1358 86.1934 71.8128 86.1934 76.7021C86.1934 81.5523 89.247 85.2684 94.0009 85.2684C98.7547 85.2684 101.845 81.5523 101.845 76.7021H101.847Z" fill="black"/>
<path d="M111.353 89.727V62.8284H116.84V84.8378H127.741V89.727H111.353Z" fill="black"/>
<path d="M130.328 76.7021C130.328 68.8393 136.01 63.2075 143.779 63.2075C151.585 63.2075 157.266 68.8393 157.266 76.7021C157.266 84.5648 151.585 90.1966 143.779 90.1966C136.01 90.1966 130.328 84.5648 130.328 76.7021ZM151.625 76.7021C151.625 71.8128 148.531 68.1358 143.779 68.1358C139.026 68.1358 135.971 71.8128 135.971 76.7021C135.971 81.5523 139.025 85.2684 143.779 85.2684C148.533 85.2684 151.625 81.5523 151.625 76.7021Z" fill="black"/>
<path d="M175.701 89.727L170.638 80.4571H166.618V89.727H161.131V63.6381H173.19C178.56 63.6381 181.846 67.1966 181.846 72.0484C181.846 76.663 178.985 79.1279 176.203 79.7925L182 89.727H175.701ZM176.242 72.0484C176.242 69.8565 174.58 68.5273 172.377 68.5273H166.618V75.5679H172.377C174.58 75.5679 176.242 74.2387 176.242 72.0484Z" fill="black"/>
<path d="M116.822 55H111.379V60.5086H116.822V55Z" fill="#D80013"/>
<path d="M122.264 55H116.821V60.5086H122.264V55Z" fill="#E98407"/>
<path d="M127.706 55H122.264V60.5086H127.706V55Z" fill="#CCD900"/>
<path d="M127.706 60.5086H122.264V66.0172H127.706V60.5086Z" fill="#65BA41"/>
<path d="M127.706 66.0172H122.264V71.5257H127.706V66.0172Z" fill="#5BBFC0"/>
<path d="M127.706 71.5258H122.264V77.0343H127.706V71.5258Z" fill="#3257A9"/>
<path d="M127.706 77.0344H122.264V82.5429H127.706V77.0344Z" fill="#6543A1"/>
</g>
<defs>
<clipPath id="clip0">
<rect width="128" height="43" fill="white" transform="translate(54 55)"/>
</clipPath>
</defs>
</svg>
