<?xml version="1.0" encoding="utf-8"?>
<!-- Generator: Adobe Illustrator 16.0.0, SVG Export Plug-In . SVG Version: 6.00 Build 0)  -->
<!DOCTYPE svg PUBLIC "-//W3C//DTD SVG 1.1//EN" "http://www.w3.org/Graphics/SVG/1.1/DTD/svg11.dtd">
<svg version="1.1" id="Слой_1" xmlns="http://www.w3.org/2000/svg" xmlns:xlink="http://www.w3.org/1999/xlink" x="0px" y="0px"
	 width="11.779px" height="11.801px" viewBox="0 0 11.779 11.801" enable-background="new 0 0 11.779 11.801" xml:space="preserve">
<g>
	<g>
		<defs>
			<rect id="SVGID_1_" width="11.779" height="11.801"/>
		</defs>
		<clipPath id="SVGID_2_">
			<use xlink:href="#SVGID_1_"  overflow="visible"/>
		</clipPath>
		<path clip-path="url(#SVGID_2_)" d="M3.363,2.918L1.734,2.921c0,0-1.289,0.059-1.287,1.305V4.26C0.177,4.446,0,4.757,0,5.107
			c0,0.355,0.18,0.666,0.45,0.852C0.453,6.11,0.502,7.38,1.688,7.377c0,0,0.491,0.019,0.45,0.804l0.003,3.1c0,0-0.078,0.5,0.421,0.5
			c0,0,1.458-0.212,0.732-1.699C3.84,9.515,3.062,9.187,3.372,8.262c0,0,0.419-0.583,0.419-0.914l0.02-3.959
			C3.811,3.389,3.889,2.918,3.363,2.918L3.363,2.918z M3.363,2.918"/>
		<path clip-path="url(#SVGID_2_)" d="M10.829,3.717l-0.006-3.616c0-0.474-0.401,0.052-0.401,0.052
			C8.531,3.102,4.619,2.87,4.619,2.87c-0.463,0-0.387,0.396-0.387,0.396l0.006,3.415c0,0.396,0.412,0.393,0.412,0.393
			c4.375-0.009,5.867,2.757,5.867,2.757s0.346,0.427,0.323-0.021L10.832,6.2c0.444-0.238,0.749-0.703,0.749-1.243
			S11.273,3.954,10.829,3.717L10.829,3.717z M6.523,3.234c0,0,2.571-0.364,3.817-2.295C10.341,0.939,9.858,3.2,6.523,3.234
			L6.523,3.234z M11.309,5.36c0,0,0.13-0.615-0.363-1.34C10.945,4.021,11.61,4.408,11.309,5.36L11.309,5.36z M11.309,5.36"/>
	</g>
</g>
</svg>
