<svg xmlns="http://www.w3.org/2000/svg" viewBox="0 0 7.35 10.11"><defs><style>.cls-1{fill:#becd16;}</style></defs><title>adverting2</title><g id="Слой_2" data-name="Слой 2"><g id="Слой_1-2" data-name="Слой 1"><path class="cls-1" d="M6.6,3.81V.2c0-.47-.4.05-.4.05C4.3,3.2.39,3,.39,3c-.46,0-.39.4-.39.4V6.78a.4.4,0,0,0,.41.39c4.37,0,5.87,2.76,5.87,2.76s.35.43.32,0V6.3a1.4,1.4,0,0,0,0-2.48ZM2.3,3.33A6,6,0,0,0,6.11,1S5.63,3.3,2.3,3.33ZM7.08,5.46a1.87,1.87,0,0,0-.36-1.34,1.1,1.1,0,0,1,.36,1.34Z"/></g></g></svg>