<?xml version="1.0" encoding="utf-8"?>
<!-- Generator: Adobe Illustrator 21.1.0, SVG Export Plug-In . SVG Version: 6.00 Build 0)  -->
<svg version="1.1" id="Слой_1" xmlns="http://www.w3.org/2000/svg" xmlns:xlink="http://www.w3.org/1999/xlink" x="0px" y="0px"
	 viewBox="0 0 16.9 12.7" style="enable-background:new 0 0 16.9 12.7;" xml:space="preserve">
<style type="text/css">
	.st0{fill:none;}
</style>
<title>airplane_2</title>
<rect class="st0" width="16.9" height="12.7"/>
<path d="M16.7,0L0.3,5.9C0.1,6-0.1,6.2,0,6.5c0,0.1,0.1,0.1,0.1,0.2l2.5,1.7l11.1-5.9l-9.4,7v2.9c0,0.1,0.1,0.2,0.3,0.2
	c0,0,0.1,0,0.1,0l2.1-1.4l2,1.4c0.2,0.1,0.4,0.1,0.6-0.1c0,0,0,0,0,0l7.5-12.2c0-0.1,0-0.1,0-0.2C16.8,0,16.7,0,16.7,0z"/>
</svg>
