<svg width="236" height="153" viewBox="0 0 236 153" fill="none" xmlns="http://www.w3.org/2000/svg">
<rect width="236" height="153" fill="white"/>
<g clip-path="url(#clip0)">
<path d="M143.876 94.0615H93.0794C93.041 93.9319 93.0218 60.8855 93.0594 60.4598C93.3446 60.2255 93.6282 59.9897 93.9149 59.7583C94.2384 59.497 94.5664 59.2401 94.8907 58.9796C95.147 58.7737 95.3996 58.5648 95.656 58.3596C95.9123 58.1544 96.1893 57.9383 96.4553 57.7265C96.8719 57.3946 97.2883 57.0616 97.7044 56.7273C98.056 56.445 98.4067 56.1614 98.7563 55.8766C99.2571 55.4706 99.758 55.0645 100.259 54.6584C100.48 54.478 100.711 54.3048 100.934 54.1236C101.184 53.9205 101.427 53.7095 101.677 53.5064C101.979 53.2627 102.284 53.0254 102.586 52.7831C102.843 52.5786 103.095 52.3698 103.352 52.1645C103.658 51.9186 103.966 51.6748 104.273 51.4303C104.662 51.1203 105.054 50.8124 105.441 50.4988C105.855 50.1626 106.262 49.8176 106.676 49.48C107.005 49.2151 107.341 48.9618 107.673 48.6977C107.906 48.5114 108.13 48.3134 108.362 48.1257C108.621 47.9154 108.886 47.7123 109.147 47.5035C109.504 47.2168 109.858 46.9271 110.214 46.6411C110.442 46.4578 110.675 46.2773 110.902 46.0954C111.157 45.8887 111.405 45.674 111.661 45.4688C111.995 45.201 112.336 44.9412 112.67 44.6734C112.891 44.4944 113.113 44.3095 113.335 44.1254C113.443 44.0366 113.556 43.9566 113.669 43.8678C114.203 43.4377 114.734 43.0047 115.269 42.5739C115.688 42.2355 116.109 41.9001 116.53 41.5631C116.915 41.256 117.302 40.9511 117.685 40.6411C117.945 40.4315 118.202 40.2161 118.461 39.9978C118.504 40.0192 118.545 40.0435 118.584 40.0706C118.785 40.2314 118.984 40.3944 119.184 40.5567L119.935 41.1665C120.117 41.3121 120.299 41.4588 120.482 41.6068C120.767 41.8331 121.053 42.0565 121.336 42.285C121.573 42.4771 121.802 42.678 122.038 42.8672C122.274 43.0564 122.536 43.2587 122.783 43.4567C123.144 43.7477 123.501 44.0388 123.863 44.3299C124.128 44.5424 124.397 44.7491 124.662 44.9623C125.16 45.3633 125.654 45.7686 126.151 46.1696C126.548 46.4898 126.947 46.8056 127.344 47.1251C127.678 47.3936 128.009 47.6643 128.341 47.9343C128.674 48.2043 128.986 48.4597 129.311 48.7188C129.816 49.1212 130.323 49.5193 130.826 49.9217C131.055 50.1051 131.275 50.2979 131.504 50.482C131.754 50.6844 132.009 50.8816 132.26 51.0831C132.621 51.3742 132.98 51.6653 133.34 51.9564C133.587 52.1543 133.839 52.3465 134.084 52.5466C134.329 52.7467 134.558 52.9468 134.8 53.1411C135.134 53.4089 135.475 53.668 135.81 53.9343C136.025 54.1061 136.234 54.2851 136.448 54.459C136.566 54.5551 136.689 54.6453 136.808 54.7414C137.177 55.039 137.546 55.3396 137.916 55.6365C138.303 55.9487 138.695 56.2572 139.082 56.5694C139.611 56.9968 140.14 57.425 140.668 57.8538C140.972 58.1005 141.275 58.3509 141.581 58.5961C142.08 58.9949 142.583 59.3893 143.081 59.7888C143.329 59.9861 143.57 60.1913 143.816 60.3892C143.838 60.4038 143.855 60.4239 143.867 60.4473C143.878 60.4707 143.882 60.4966 143.88 60.5224C143.88 60.5624 143.88 60.6039 143.88 60.6446V94.0615H143.876ZM98.4365 89.1683H138.49V63.2877C138.487 63.2528 138.487 63.2178 138.49 63.1829C138.499 63.1344 138.493 63.0845 138.473 63.0392C138.453 62.994 138.42 62.9554 138.379 62.9282C138.148 62.7397 137.918 62.5491 137.685 62.3621C137.476 62.1932 137.262 62.0302 137.053 61.8614C136.515 61.4248 135.979 60.9881 135.442 60.5573C135.327 60.4649 135.207 60.3812 135.093 60.2881C134.871 60.1076 134.654 59.9198 134.428 59.7408C134.099 59.4767 133.763 59.2205 133.434 58.9556C133.187 58.7577 132.95 58.5488 132.705 58.3494C132.46 58.15 132.226 57.9732 131.989 57.7818C131.497 57.3837 131.008 56.9813 130.516 56.584C130.092 56.2419 129.665 55.9036 129.24 55.5652C128.66 55.0994 128.08 54.633 127.501 54.1658C127.21 53.9307 126.921 53.692 126.629 53.457C126.337 53.2219 126.022 52.9781 125.721 52.7351C125.471 52.532 125.228 52.321 124.978 52.1172C124.728 51.9135 124.461 51.7104 124.208 51.5045C123.866 51.2287 123.525 50.9507 123.183 50.6749C122.781 50.3518 122.377 50.0316 121.976 49.7078C121.479 49.3068 120.985 48.9014 120.488 48.5005C120.224 48.2872 119.954 48.0798 119.69 47.8674C119.342 47.5879 118.997 47.3056 118.65 47.0254C118.593 46.9795 118.528 46.941 118.464 46.8973C118.233 47.0858 118.016 47.2612 117.799 47.4402C117.379 47.7778 116.956 48.1119 116.536 48.4503C116.053 48.8396 115.576 49.2333 115.09 49.6226C114.795 49.8577 114.5 50.0862 114.208 50.3219C113.753 50.6894 113.301 51.062 112.844 51.4295C112.434 51.7599 112.019 52.0845 111.609 52.4163C111.107 52.8209 110.609 53.2285 110.108 53.6345C109.753 53.9227 109.398 54.2099 109.043 54.4961C108.636 54.8236 108.229 55.1496 107.822 55.4742C107.693 55.5768 107.559 55.6736 107.432 55.7769C107.205 55.961 106.983 56.151 106.754 56.3336C106.43 56.5934 106.099 56.843 105.775 57.1072C105.515 57.3161 105.262 57.5344 105.003 57.7447C104.789 57.9186 104.57 58.0845 104.356 58.2577C103.85 58.666 103.347 59.0779 102.841 59.4861C102.417 59.8274 101.989 60.1651 101.565 60.5049C101.218 60.7844 100.874 61.0674 100.531 61.3469C100.12 61.6773 99.707 62.0018 99.2956 62.3344C99.074 62.5141 98.8523 62.7041 98.6233 62.8729C98.5624 62.9107 98.5128 62.9638 98.4797 63.0267C98.4466 63.0896 98.4312 63.1602 98.435 63.231C98.4394 71.8093 98.4409 80.3879 98.4394 88.9667L98.4365 89.1683Z" fill="black"/>
<path d="M107.213 101.004V103.333C107.08 103.376 106.158 103.389 105.965 103.354V95.9405C106.03 95.9405 106.092 95.9303 106.154 95.9303C107.412 95.9254 108.67 95.9211 109.928 95.9172C112.089 95.9119 114.251 95.908 116.413 95.9056C116.673 95.8932 116.932 95.9461 117.166 96.0591C117.535 96.2527 117.732 96.5561 117.831 96.9404C117.893 97.2426 117.918 97.5513 117.904 97.8595C117.904 98.3252 117.912 98.791 117.904 99.256C117.893 99.4707 117.869 99.6846 117.831 99.8964C117.784 100.144 117.667 100.373 117.493 100.557C117.316 100.762 117.076 100.856 116.816 100.909C116.692 100.934 116.563 100.944 116.406 100.965L117.923 103.33C117.882 103.337 117.84 103.343 117.799 103.346C117.379 103.346 116.96 103.346 116.543 103.346C116.503 103.35 116.462 103.341 116.426 103.322C116.391 103.303 116.362 103.274 116.343 103.238C116.088 102.827 115.826 102.421 115.567 102.012C115.377 101.711 115.186 101.411 115 101.108C114.933 100.997 114.852 100.928 114.714 100.962C114.667 100.969 114.62 100.971 114.573 100.968L108.212 100.98C107.934 100.98 107.656 100.98 107.379 100.985C107.331 100.992 107.285 100.998 107.213 101.004ZM107.213 99.507H107.442C108.823 99.5007 110.205 99.4947 111.586 99.4888C113.08 99.4845 114.574 99.4818 116.068 99.4808C116.127 99.4821 116.186 99.4804 116.245 99.4757C116.331 99.4723 116.414 99.4412 116.48 99.387C116.547 99.3329 116.594 99.2588 116.614 99.1759C116.635 99.1153 116.649 99.0522 116.654 98.9882C116.654 98.6105 116.67 98.2313 116.649 97.8551C116.633 97.5546 116.471 97.4228 116.168 97.4039C116.115 97.4039 116.061 97.4039 116.008 97.4039C115.524 97.4039 115.04 97.409 114.556 97.4098L109.844 97.4178C109.029 97.4178 108.214 97.4197 107.399 97.4236C107.337 97.4236 107.275 97.4287 107.213 97.4323L107.213 99.507Z" fill="black"/>
<path d="M104.971 103.363H103.715V100.981L94.2594 101.013V103.358C94.1272 103.403 93.3109 103.416 93.0214 103.379C93.0214 103.327 93.0118 103.271 93.0118 103.215C93.0088 102.656 93.0066 102.099 93.0051 101.541C93.0051 100.304 92.9977 99.0625 92.9992 97.8232C93.0034 97.6197 93.0187 97.4166 93.045 97.2148C93.0804 96.9538 93.1773 96.7046 93.3279 96.4871C93.4005 96.3818 93.4919 96.2903 93.5976 96.2171C93.8595 96.0347 94.1745 95.9412 94.4951 95.9508C96.1729 95.9508 97.8505 95.9474 99.5279 95.9406C100.804 95.9362 102.079 95.9282 103.355 95.9238C103.473 95.9238 103.591 95.9347 103.708 95.9427C104.011 95.9696 104.295 96.101 104.509 96.3139C104.691 96.4813 104.782 96.7068 104.844 96.939C104.926 97.2427 104.966 97.5556 104.965 97.8697C104.965 99.6272 104.965 101.385 104.969 103.142L104.971 103.363ZM103.69 99.4846V97.9054C103.692 97.888 103.692 97.8705 103.69 97.853C103.66 97.6107 103.529 97.4724 103.281 97.4455C103.146 97.4361 103.01 97.4344 102.875 97.4404C101.759 97.4433 100.643 97.4467 99.5264 97.4506C97.9727 97.4535 96.4192 97.4554 94.8659 97.4564C94.8186 97.4564 94.7714 97.4564 94.7241 97.4564C94.4412 97.4724 94.2919 97.6107 94.2609 97.8865C94.2542 97.9445 94.2507 98.0028 94.2506 98.0611C94.2506 98.4978 94.2506 98.9344 94.2506 99.371C94.2535 99.4198 94.259 99.4684 94.2668 99.5166L103.69 99.4846Z" fill="black"/>
<path d="M130.875 101.821V103.305C130.81 103.305 130.752 103.313 130.695 103.313L126.124 103.322L121.553 103.331C121.183 103.331 120.82 103.337 120.454 103.338C120.365 103.338 120.278 103.332 120.189 103.326C119.636 103.291 119.215 102.957 119.044 102.414C118.961 102.147 118.919 101.87 118.919 101.59C118.919 100.915 118.917 100.24 118.912 99.5652C118.912 98.9544 118.91 98.3436 118.907 97.7328C118.907 97.6105 118.918 97.489 118.923 97.3689C118.941 97.066 119.027 96.7709 119.176 96.5051C119.249 96.372 119.352 96.257 119.477 96.1689C119.745 95.9688 120.049 95.9077 120.376 95.907C120.765 95.907 121.155 95.9004 121.545 95.8997C124.214 95.8939 126.884 95.8888 129.553 95.8844H130.723C130.763 95.8844 130.805 95.8888 130.871 95.8917C130.88 96.3734 130.871 96.8523 130.875 97.3471C130.806 97.3471 130.749 97.3566 130.692 97.3566L127.91 97.3631C126.912 97.3631 125.914 97.3648 124.915 97.3682C123.788 97.3716 122.66 97.3767 121.532 97.3835C121.266 97.3835 121 97.3886 120.735 97.3915C120.688 97.391 120.64 97.3941 120.594 97.401C120.319 97.4475 120.193 97.5836 120.176 97.8594C120.168 97.9875 120.17 98.1156 120.171 98.2437C120.171 99.2091 120.171 100.175 120.171 101.141C120.169 101.24 120.173 101.339 120.184 101.438C120.225 101.723 120.377 101.856 120.672 101.865C120.879 101.871 121.086 101.865 121.292 101.865C121.942 101.86 122.591 101.852 123.24 101.85C124.25 101.845 125.261 101.844 126.269 101.841L130.645 101.828L130.875 101.821Z" fill="black"/>
<path d="M143.833 103.272H142.62C142.617 102.779 142.62 102.287 142.62 101.795C142.62 101.303 142.62 100.82 142.62 100.323H133.145V103.301C132.729 103.319 132.332 103.306 131.915 103.309V95.9019C132.033 95.8685 132.81 95.8568 133.129 95.8881C133.143 96.8647 133.123 97.845 133.142 98.8507C136.295 98.8507 139.439 98.8368 142.602 98.8223V95.859H143.833V103.272Z" fill="black"/>
<path d="M143.985 104.835V105.854H137.292C137.292 106.209 137.285 106.548 137.299 106.903H143.964C144.003 107.043 144.012 107.648 143.982 107.925H137.301V108.953H143.985V109.978H136.502V104.835H143.985Z" fill="black"/>
<path d="M101.161 104.836H108.614C108.652 104.957 108.66 105.637 108.622 105.855H101.943V106.907C102.386 106.912 102.83 106.907 103.273 106.907H108.634V107.925H101.947V108.954H108.637V109.961C108.505 109.996 101.508 110.012 101.167 109.978C101.129 109.852 101.124 105.02 101.161 104.836Z" fill="black"/>
<path d="M93.0127 109.993V108.974C93.094 108.97 93.1605 108.966 93.2343 108.966H99.1838C99.2724 108.967 99.3609 108.964 99.449 108.956C99.6123 108.938 99.7009 108.863 99.7142 108.703C99.729 108.535 99.729 108.366 99.7142 108.197C99.6965 108.018 99.6034 107.944 99.4187 107.933C99.3449 107.928 99.2769 107.933 99.206 107.933H93.9967C93.92 107.935 93.8432 107.932 93.7669 107.925C93.5921 107.906 93.428 107.832 93.2993 107.714C93.1706 107.596 93.0843 107.44 93.0533 107.27C93.0275 107.168 93.0129 107.064 93.0098 106.959C93.0098 106.546 93.0098 106.134 93.0268 105.722C93.043 105.469 93.1517 105.232 93.3326 105.052C93.4255 104.954 93.5493 104.889 93.6842 104.868C93.7947 104.849 93.9066 104.838 94.0188 104.838C96.1153 104.835 98.2119 104.833 100.309 104.833H100.494V105.859C100.42 105.859 100.347 105.864 100.273 105.864H94.301C94.2367 105.864 94.171 105.864 94.1067 105.864C93.9405 105.873 93.8216 105.964 93.8068 106.127C93.7887 106.301 93.7887 106.475 93.8068 106.649C93.8297 106.841 93.9213 106.906 94.1178 106.915C94.1821 106.915 94.2478 106.915 94.3128 106.915H99.5037C99.598 106.913 99.6924 106.919 99.7859 106.931C100.171 106.992 100.349 107.26 100.455 107.595C100.466 107.634 100.474 107.674 100.477 107.715C100.52 108.22 100.541 108.727 100.46 109.229C100.445 109.363 100.397 109.491 100.322 109.604C100.247 109.716 100.146 109.81 100.027 109.876C99.9156 109.927 99.7988 109.965 99.6788 109.988C99.6262 109.996 99.5729 109.998 99.5199 109.993H93.0105H93.0127Z" fill="black"/>
<path d="M110.066 108.342V109.986H109.291V104.838H115.805C115.863 104.838 115.922 104.838 115.981 104.844C116.333 104.872 116.552 105.063 116.671 105.383C116.742 105.556 116.779 105.74 116.781 105.926C116.776 106.397 116.781 106.869 116.775 107.34C116.767 107.532 116.716 107.72 116.627 107.89C116.578 108.007 116.498 108.108 116.396 108.183C116.294 108.259 116.173 108.306 116.046 108.321C115.989 108.328 115.932 108.342 115.851 108.358L116.788 109.992H115.902C115.839 109.992 115.81 109.955 115.784 109.904C115.728 109.796 115.666 109.686 115.605 109.582C115.403 109.219 115.198 108.863 115 108.5C114.976 108.448 114.937 108.404 114.887 108.375C114.836 108.346 114.778 108.334 114.72 108.339C113.239 108.345 111.756 108.339 110.274 108.339L110.066 108.342ZM110.079 107.329H115.493C115.54 107.329 115.588 107.329 115.635 107.329C115.868 107.319 115.976 107.233 115.988 107.003C116.003 106.73 116.001 106.456 115.988 106.183C115.98 105.985 115.86 105.878 115.66 105.863C115.601 105.859 115.542 105.859 115.483 105.859H110.077L110.079 107.329Z" fill="black"/>
<path d="M135.86 108.967V109.981C135.804 109.985 135.753 109.993 135.702 109.993C133.559 109.993 131.413 109.988 129.269 109.997C128.838 109.997 128.48 109.691 128.403 109.234C128.378 109.09 128.364 108.944 128.363 108.798C128.363 107.861 128.357 106.924 128.363 105.987C128.368 105.824 128.389 105.663 128.425 105.504C128.464 105.312 128.571 105.141 128.726 105.019C128.882 104.897 129.076 104.833 129.274 104.838C131.413 104.848 133.551 104.843 135.689 104.843C135.742 104.843 135.793 104.848 135.856 104.852V105.856H129.673C129.599 105.856 129.531 105.856 129.461 105.856C129.392 105.854 129.325 105.876 129.272 105.918C129.218 105.961 129.183 106.021 129.171 106.088C129.154 106.155 129.146 106.225 129.146 106.294C129.146 107.034 129.146 107.773 129.146 108.512C129.144 108.547 129.144 108.582 129.146 108.617C129.172 108.874 129.254 108.951 129.515 108.959C129.589 108.959 129.669 108.959 129.746 108.959H135.856L135.86 108.967Z" fill="black"/>
<path d="M121.795 108.98C121.807 108.955 121.822 108.931 121.837 108.908C122.059 108.626 122.272 108.344 122.493 108.065C122.697 107.809 122.909 107.56 123.111 107.303C123.372 106.973 123.623 106.636 123.883 106.305C124.077 106.058 124.28 105.817 124.474 105.57C124.638 105.365 124.8 105.159 124.957 104.948C124.983 104.907 125.02 104.873 125.064 104.851C125.108 104.829 125.157 104.82 125.207 104.824C125.46 104.833 125.714 104.824 125.968 104.824H126.147C126.042 104.974 125.96 105.098 125.871 105.217C125.584 105.608 125.297 105.997 125.006 106.382C124.813 106.638 124.613 106.891 124.418 107.144C124.379 107.195 124.345 107.251 124.311 107.303C124.079 107.619 123.848 107.935 123.615 108.249C123.35 108.605 123.081 108.957 122.815 109.312C122.664 109.512 122.516 109.715 122.372 109.918C122.359 109.941 122.34 109.959 122.317 109.972C122.295 109.985 122.269 109.992 122.242 109.991C121.936 109.991 121.628 109.991 121.321 109.991C121.292 109.991 121.264 109.984 121.239 109.97C121.213 109.956 121.193 109.935 121.179 109.911C120.887 109.516 120.593 109.125 120.301 108.731C120.041 108.379 119.784 108.024 119.525 107.672C119.34 107.424 119.147 107.183 118.962 106.935C118.705 106.588 118.453 106.238 118.196 105.891C118.012 105.643 117.821 105.399 117.635 105.153C117.566 105.061 117.503 104.964 117.438 104.871C117.461 104.854 117.47 104.841 117.48 104.841C117.792 104.841 118.105 104.838 118.418 104.835C118.456 104.838 118.493 104.851 118.525 104.872C118.557 104.894 118.584 104.922 118.602 104.955C118.86 105.287 119.112 105.624 119.372 105.954C119.564 106.196 119.768 106.43 119.963 106.672C120.221 106.997 120.472 107.327 120.729 107.652C120.917 107.89 121.111 108.123 121.299 108.361C121.415 108.507 121.525 108.659 121.64 108.806C121.676 108.863 121.727 108.91 121.795 108.98Z" fill="black"/>
<path d="M126.942 104.839C126.992 104.835 127.032 104.828 127.072 104.828C127.283 104.828 127.494 104.828 127.717 104.828V109.975C127.657 109.975 127.605 109.984 127.553 109.984C127.354 109.984 127.154 109.984 126.942 109.984V104.839Z" fill="black"/>
</g>
<defs>
<clipPath id="clip0">
<rect width="51" height="70" fill="white" transform="translate(93 40)"/>
</clipPath>
</defs>
</svg>
