<svg width="236" height="153" viewBox="0 0 236 153" fill="none" xmlns="http://www.w3.org/2000/svg">
<rect width="236" height="153" fill="white"/>
<path fill-rule="evenodd" clip-rule="evenodd" d="M155.129 80.5851C155.129 78.2706 158.636 78.5208 160.202 79.0213V81.3983C158.699 82.4617 155.129 83.0247 155.129 80.5851ZM166.465 80.9604V77.5825C166.465 70.7642 164.586 67.7617 157.196 67.7617C154.566 67.7617 151.747 68.4498 150.307 68.9502V74.2047C152.06 73.5166 154.19 72.8285 156.507 72.8285C159.012 72.8285 160.202 73.7668 160.202 75.0178V75.6434C155.818 74.7051 148.678 75.143 148.678 81.0855C148.678 87.4659 156.82 87.6536 161.016 84.4008C162.519 86.7153 166.089 86.7153 168.406 85.777V81.8987C167.53 82.274 166.465 82.0864 166.465 80.9604ZM142.917 86.0272V73.5166H147.614V68.3872H142.917V67.5115C142.917 64.3838 146.612 64.5089 148.365 65.5723V60.443C142.979 58.5664 136.654 59.7549 136.654 67.5115V68.3872H133.71V73.5166H136.654V86.0272H142.917ZM119.556 80.5851C119.556 78.2706 123.063 78.5208 124.629 79.0213V81.3983C123.189 82.4617 119.556 83.0247 119.556 80.5851ZM130.892 80.9604V76.957C130.892 66.6983 122.562 66.3855 114.734 68.9502V74.2047C116.738 73.3915 124.629 71.2647 124.629 75.0804V75.7059C120.245 74.7676 113.106 75.2055 113.106 81.1481C113.106 87.5285 121.247 87.7162 125.443 84.4634C126.946 86.7779 130.516 86.7779 132.834 85.8396V81.9613C131.957 82.274 130.892 82.0864 130.892 80.9604ZM104.776 77.2072C104.776 78.5208 104.338 79.897 103.273 80.7102C101.394 82.2115 98.3879 81.3983 97.3859 79.2715V75.2055C98.3879 73.2038 101.144 72.3281 103.022 73.5791C104.275 74.3298 104.776 75.7685 104.776 77.2072ZM91.123 59.7549V86.0272H96.697V83.6502C98.8263 87.1532 104.463 87.4034 107.594 85.1515C110.099 83.4 111.289 80.2098 111.289 77.2072C111.289 75.0178 110.726 72.8285 109.473 71.077C106.843 67.3864 100.643 66.5106 97.4485 69.7634V59.7549H91.123Z" fill="#363B46"/>
<path fill-rule="evenodd" clip-rule="evenodd" d="M67.0749 68.5749C68.9538 69.1379 70.7074 69.8885 72.2731 70.8894C70.77 72.203 68.9538 73.2664 67.0749 73.9545V68.5749ZM61 89.5302L86.3645 93.9715C87.9302 85.214 84.7988 76.2064 78.0975 70.2638C81.5421 65.5723 82.9199 59.6923 81.8552 54L61 57.6281V62.0694C63.0667 62.0694 65.1335 62.3196 67.0749 62.7574L78.0349 60.8183C77.5965 63.4455 76.5318 65.8851 74.9661 67.9494C70.9579 65.3221 66.1355 63.8209 61 63.8209C61 68.8877 61 73.8919 61 78.9587C66.6365 78.9587 71.7094 76.7694 75.5298 73.2038C79.4754 76.7068 82.1684 81.6485 82.732 87.1532L67.0749 84.4008V80.3974C65.1335 80.8979 63.1294 81.2106 61 81.2106V89.5302V89.5302Z" fill="#363B46"/>
<path d="M182.999 54H176.736V93.9715H182.999V54Z" fill="#73C3BC"/>
</svg>
