<svg xmlns="http://www.w3.org/2000/svg" xmlns:xlink="http://www.w3.org/1999/xlink" viewBox="0 0 218.16 156.06"><defs><style>.cls-1{fill:none;}.cls-2{isolation:isolate;}.cls-3{clip-path:url(#clip-path);}.cls-4{fill:#c2c2c2;}.cls-5{mix-blend-mode:multiply;}</style><clipPath id="clip-path" transform="translate(113.84 27.27)"><rect class="cls-1" x="-5.63" y="-5.81" width="266.42" height="153.21"/></clipPath></defs><title>bg_particles1</title><g class="cls-2"><g id="Слой_2" data-name="Слой 2"><g class="cls-3"><polygon class="cls-4" points="123.58 151.72 125.09 131.94 125.28 131.96 123.77 151.73 123.58 151.72"/><polygon class="cls-4" points="107.8 140.22 107.72 140.05 125.15 131.87 125.22 132.04 107.8 140.22"/><polygon class="cls-4" points="125.22 107.97 123.2 66.8 123.39 66.83 125.41 108 125.22 107.97"/><polygon class="cls-4" points="157.73 98 123.23 66.87 123.37 66.75 157.87 97.88 157.73 98"/><rect class="cls-4" x="10.72" y="75.6" width="34" height="0.19" transform="translate(92.73 38.83) rotate(-17.17)"/><polygon class="cls-4" points="157.71 97.92 165.82 56.62 166 56.65 157.89 97.96 157.71 97.92"/><rect class="cls-4" x="54.91" y="28.95" width="0.19" height="21.16" transform="translate(105.04 44.04) rotate(-16.07)"/><rect class="cls-4" x="38.34" y="60.08" width="25.2" height="0.19" transform="translate(86.46 96.5) rotate(-56.34)"/><polygon class="cls-4" points="171.81 77.05 171.72 76.88 198.04 62.6 198.13 62.77 171.81 77.05"/><rect class="cls-4" x="51.05" y="23.61" width="32.28" height="0.19" transform="translate(109.79 52.5) rotate(-20.66)"/><rect class="cls-4" x="83.18" y="17.98" width="0.19" height="17.48" transform="translate(111.37 36.74) rotate(-6.41)"/><polygon class="cls-4" points="165.82 56.66 162.26 33.03 162.44 32.99 166 56.61 165.82 56.66"/><polygon class="cls-4" points="162.36 33.1 162.33 32.92 175.38 27.43 175.41 27.61 162.36 33.1"/><polygon class="cls-4" points="165.82 56.6 175.3 27.49 175.48 27.55 166 56.66 165.82 56.6"/><polygon class="cls-4" points="125.24 132.03 125.14 131.87 140.24 122.36 140.34 122.52 125.24 132.03"/><rect class="cls-4" x="-11.81" y="91.51" width="28.38" height="0.19" transform="translate(44.38 61.98) rotate(-50.13)"/><polygon class="cls-4" points="115.62 103.86 123.21 66.77 123.38 66.85 115.79 103.93 115.62 103.86"/><rect class="cls-4" x="-8.77" y="85.83" width="18.77" height="0.19" transform="translate(29.22 102.31) rotate(-82.31)"/><rect class="cls-4" x="5.26" y="92.31" width="0.19" height="15.27" transform="translate(37.35 69.6) rotate(-51.79)"/><rect class="cls-4" x="6.52" y="75.84" width="0.19" height="29.61" transform="translate(85.16 34.16) rotate(-18.68)"/><rect class="cls-4" x="0.2" y="67.06" width="56.13" height="0.19" transform="translate(73.26 118.31) rotate(-86.3)"/><rect class="cls-4" x="25.16" y="89.57" width="24.6" height="0.19" transform="translate(77.72 53.46) rotate(-26.54)"/><polygon class="cls-4" points="157.71 97.98 143.82 66.46 144 66.38 157.88 97.9 157.71 97.98"/><rect class="cls-4" x="24.67" y="25.02" width="41.87" height="0.19" transform="translate(108.75 64.26) rotate(-42.03)"/><rect class="cls-4" x="-13.36" y="71.82" width="68.14" height="0.19" transform="translate(59.72 99.34) rotate(-74.05)"/><polygon class="cls-4" points="123.39 66.83 143.27 66.28 143.34 66.44 123.47 67 123.39 66.83"/><polygon class="cls-4" points="130.45 61.41 170.71 76.4 170.71 76.58 130.39 61.55 130.45 61.41"/><polygon class="cls-4" points="113.04 54.85 128 60.36 128 60.54 112.98 54.99 113.04 54.85"/><rect class="cls-4" x="72.6" y="6.46" width="0.19" height="33.57" transform="translate(117.81 83.73) rotate(-43.53)"/><polygon class="cls-4" points="171.67 76.95 174.88 38.34 175.06 38.36 171.86 76.97 171.67 76.95"/><rect class="cls-4" x="30.01" y="37.19" width="54.31" height="0.19" transform="translate(111.43 31.25) rotate(-3.91)"/><polygon class="cls-4" points="198.01 62.74 175.31 27.57 175.47 27.47 198.16 62.63 198.01 62.74"/><polygon class="cls-4" points="107.67 140.14 107.03 129.78 107.21 129.76 107.86 140.13 107.67 140.14"/><polygon class="cls-4" points="123.59 151.77 107.68 140.17 107.84 140.09 123.76 151.68 123.59 151.77"/><rect class="cls-4" x="-11.78" y="103.6" width="5.34" height="0.19" transform="translate(66.27 34.24) rotate(-26.7)"/><polygon class="cls-4" points="125.25 108.05 125.38 107.92 140.36 122.37 140.23 122.51 125.25 108.05"/><rect class="cls-4" x="-1.26" y="89.6" width="50.33" height="0.19" transform="translate(94.71 34.72) rotate(-12.69)"/><rect class="cls-4" x="46.12" y="70.3" width="0.19" height="14.23" transform="translate(91.73 45.86) rotate(-18.43)"/><rect class="cls-4" x="35.32" y="66.84" width="35.76" height="0.19" transform="matrix(0.26, -0.96, 0.96, 0.26, 88.41, 127.78)"/><polygon class="cls-4" points="175.33 27.59 175.45 27.45 196.19 45.24 196.07 45.38 175.33 27.59"/><rect class="cls-4" x="61.08" y="-3.36" width="26.5" height="0.19" transform="translate(117.39 46.96) rotate(-15.45)"/><rect class="cls-4" x="72.06" y="5.53" width="25.29" height="0.19" transform="translate(176.92 114.99) rotate(-79.05)"/><polygon class="cls-4" points="196.16 45.4 196.11 45.22 217.06 38.55 217.12 38.73 196.16 45.4"/><polygon class="cls-4" points="200.88 20.55 201 20.41 217.14 38.56 217.03 38.71 200.88 20.55"/><polygon class="cls-4" points="198.02 62.62 217.02 38.57 217.15 38.7 198.15 62.75 198.02 62.62"/><polygon class="cls-4" points="162.31 33.09 162.39 32.93 175.01 38.27 174.93 38.43 162.31 33.09"/><rect class="cls-4" x="20.61" y="101.33" width="0.19" height="29.48" transform="translate(44.9 66.76) rotate(-39.38)"/><polygon class="cls-4" points="123.73 151.8 123.62 151.65 143.84 154.67 143.94 154.82 123.73 151.8"/><rect class="cls-4" x="28.16" y="95.07" width="0.19" height="32.5" transform="translate(101.68 31.09) rotate(-6.36)"/><path class="cls-4" d="M28.25,39.12A1.82,1.82,0,1,1,30,41,1.82,1.82,0,0,1,28.25,39.12Zm4.16.06A2.33,2.33,0,1,0,30,41.48,2.33,2.33,0,0,0,32.41,39.18Z" transform="translate(113.84 27.27)"/><circle class="cls-4" cx="30.07" cy="39.15" r="1.55" transform="translate(104.31 95.9) rotate(-89.13)"/><circle class="cls-4" cx="48.51" cy="5.74" r="1.55" transform="translate(155.88 81.43) rotate(-89.14)"/><path class="cls-4" d="M50.85,5.77a2.33,2.33,0,1,0-2.37,2.3A2.33,2.33,0,0,0,50.85,5.77Zm-4.16-.06a1.82,1.82,0,1,1,1.8,1.85A1.82,1.82,0,0,1,46.69,5.71Z" transform="translate(113.84 27.27)"/><circle class="cls-4" cx="48.46" cy="84.17" r="1.19" transform="translate(77.4 158.62) rotate(-89.13)"/><path class="cls-4" d="M50.26,84.2A1.79,1.79,0,1,0,48.44,86,1.79,1.79,0,0,0,50.26,84.2Zm-3.19,0a1.4,1.4,0,1,1,1.38,1.42A1.4,1.4,0,0,1,47.06,84.15Z" transform="translate(113.84 27.27)"/><circle class="cls-4" cx="11.71" cy="80.72" r="1.19" transform="translate(44.66 118.47) rotate(-89.13)"/><path class="cls-4" d="M13.5,80.74a1.79,1.79,0,1,0-1.82,1.77A1.79,1.79,0,0,0,13.5,80.74Zm-3.19,0a1.4,1.4,0,1,1,1.38,1.42A1.4,1.4,0,0,1,10.31,80.69Z" transform="translate(113.84 27.27)"/><circle class="cls-4" cx="-6.07" cy="112.86" r="1.19" transform="translate(-4.99 132.37) rotate(-89.14)"/><path class="cls-4" d="M-4.28,112.89A1.79,1.79,0,0,0-6,111.07a1.79,1.79,0,0,0-1.82,1.77,1.79,1.79,0,0,0,1.77,1.82A1.79,1.79,0,0,0-4.28,112.89Zm-3.19,0a1.4,1.4,0,0,1,1.42-1.38,1.4,1.4,0,0,1,1.38,1.42,1.4,1.4,0,0,1-1.42,1.38A1.4,1.4,0,0,1-7.47,112.84Z" transform="translate(113.84 27.27)"/><circle class="cls-4" cx="61.13" cy="11.08" r="1.19" transform="translate(162.97 99.31) rotate(-89.13)"/><path class="cls-4" d="M62.93,11.1a1.79,1.79,0,1,0-1.82,1.77A1.79,1.79,0,0,0,62.93,11.1Zm-3.19,0a1.4,1.4,0,1,1,1.38,1.42A1.4,1.4,0,0,1,59.73,11.05Z" transform="translate(113.84 27.27)"/><circle class="cls-4" cx="57.93" cy="49.69" r="0.88" transform="translate(121.19 134.12) rotate(-89.12)"/><path class="cls-4" d="M59.25,49.71A1.32,1.32,0,1,0,57.91,51,1.32,1.32,0,0,0,59.25,49.71Zm-2.35,0a1,1,0,1,1,1,1A1,1,0,0,1,56.9,49.67Z" transform="translate(113.84 27.27)"/><circle class="cls-4" cx="9.55" cy="39.68" r="0.88" transform="translate(83.57 75.9) rotate(-89.14)"/><path class="cls-4" d="M10.87,39.7A1.32,1.32,0,1,0,9.53,41,1.32,1.32,0,0,0,10.87,39.7Zm-2.35,0a1,1,0,1,1,1,1A1,1,0,0,1,8.52,39.66Z" transform="translate(113.84 27.27)"/><circle class="cls-4" cx="1.87" cy="76.75" r="0.88" transform="translate(38.93 104.69) rotate(-89.11)"/><path class="cls-4" d="M3.19,76.77a1.32,1.32,0,1,0-1.34,1.3A1.32,1.32,0,0,0,3.19,76.77Zm-2.35,0a1,1,0,1,1,1,1A1,1,0,0,1,.84,76.73Z" transform="translate(113.84 27.27)"/><circle class="cls-4" cx="29.95" cy="127.47" r="0.88" transform="translate(15.87 182.73) rotate(-89.12)"/><path class="cls-4" d="M31.27,127.49a1.32,1.32,0,1,0-1.34,1.3A1.32,1.32,0,0,0,31.27,127.49Zm-2.35,0a1,1,0,1,1,1,1A1,1,0,0,1,28.92,127.45Z" transform="translate(113.84 27.27)"/><path class="cls-4" d="M12.27,104.69a.92.92,0,1,0-.93.9A.92.92,0,0,0,12.27,104.69Z" transform="translate(113.84 27.27)"/><path class="cls-4" d="M53,29.38a.92.92,0,1,0-.93.9A.92.92,0,0,0,53,29.38Z" transform="translate(113.84 27.27)"/><path class="cls-4" d="M44.8,70.68a.92.92,0,1,0-.93.9A.92.92,0,0,0,44.8,70.68Z" transform="translate(113.84 27.27)"/><path class="cls-4" d="M10.76,124.46a.92.92,0,1,0-.93.9A.92.92,0,0,0,10.76,124.46Z" transform="translate(113.84 27.27)"/><circle class="cls-4" cx="-0.64" cy="95.22" r="0.88" transform="translate(17.99 120.42) rotate(-89.14)"/><path class="cls-4" d="M.68,95.24A1.32,1.32,0,0,0-.62,93.9,1.32,1.32,0,0,0-2,95.2a1.32,1.32,0,0,0,1.3,1.34A1.32,1.32,0,0,0,.68,95.24Zm-2.35,0a1,1,0,0,1,1-1,1,1,0,0,1,1,1,1,1,0,0,1-1,1A1,1,0,0,1-1.67,95.21Z" transform="translate(113.84 27.27)"/><circle class="cls-4" cx="61.3" cy="0.3" r="1.19" transform="translate(173.91 88.86) rotate(-89.13)"/><path class="cls-4" d="M63.09.32a1.79,1.79,0,1,0-1.82,1.77A1.79,1.79,0,0,0,63.09.32ZM59.9.28A1.4,1.4,0,1,1,61.28,1.7,1.4,1.4,0,0,1,59.9.28Z" transform="translate(113.84 27.27)"/><circle class="cls-4" cx="82.3" cy="18.04" r="1.19" transform="translate(176.87 127.33) rotate(-89.14)"/><circle class="cls-4" cx="103.13" cy="11.37" r="1.19" transform="translate(204.06 141.59) rotate(-89.14)"/><path class="cls-4" d="M84.09,18.06a1.79,1.79,0,1,0-1.82,1.77A1.79,1.79,0,0,0,84.09,18.06ZM80.9,18a1.4,1.4,0,1,1,1.38,1.42A1.4,1.4,0,0,1,80.9,18Z" transform="translate(113.84 27.27)"/><circle class="cls-4" cx="26.89" cy="95.64" r="1.19" transform="translate(44.69 148.36) rotate(-89.14)"/><path class="cls-4" d="M28.68,95.66a1.79,1.79,0,1,0-1.82,1.77A1.79,1.79,0,0,0,28.68,95.66Zm-3.19,0A1.4,1.4,0,1,1,26.87,97,1.4,1.4,0,0,1,25.49,95.62Z" transform="translate(113.84 27.27)"/><circle class="cls-4" cx="84.25" cy="35.41" r="1.19" transform="translate(161.42 146.4) rotate(-89.14)"/><path class="cls-4" d="M86,35.44a1.79,1.79,0,1,0-1.82,1.77A1.79,1.79,0,0,0,86,35.44Zm-3.19,0a1.4,1.4,0,1,1,1.38,1.42A1.4,1.4,0,0,1,82.85,35.39Z" transform="translate(113.84 27.27)"/><g class="cls-5"><polygon class="cls-4" points="151.78 37.34 133.25 44.39 133.18 44.22 151.71 37.16 151.78 37.34"/><rect class="cls-4" x="26.7" y="13.55" width="0.19" height="19.25" transform="translate(105.69 56.26) rotate(-50.31)"/><rect class="cls-4" x="-41.57" y="32.44" width="39.96" height="0.19" transform="translate(104.23 22.65) rotate(-15.69)"/><polygon class="cls-4" points="88.64 29.33 73.09 65.24 72.92 65.17 88.46 29.26 88.64 29.33"/><rect class="cls-4" x="-13.92" y="-2.43" width="0.19" height="34" transform="translate(100.38 21.76) rotate(-42.45)"/><polygon class="cls-4" points="88.57 29.38 47.75 39.64 47.7 39.46 88.53 29.2 88.57 29.38"/><rect class="cls-4" x="-68.74" y="5.21" width="21.16" height="0.19" transform="translate(95.88 -9.79) rotate(-41.29)"/><polygon class="cls-4" points="88.53 29.38 63.61 25.68 63.63 25.5 88.56 29.2 88.53 29.38"/><polygon class="cls-4" points="63.68 25.52 63.56 25.67 39.43 7.94 39.54 7.79 63.68 25.52"/><rect class="cls-4" x="-77.77" y="-15.12" width="0.19" height="32.28" transform="translate(89.33 -28.34) rotate(-46.06)"/><polygon class="cls-4" points="39.54 7.94 24.65 17.11 24.55 16.95 39.44 7.78 39.54 7.94"/><polygon class="cls-4" points="47.78 39.62 27.93 52.91 27.81 52.77 47.66 39.48 47.78 39.62"/><polygon class="cls-4" points="27.95 52.78 27.79 52.89 17.27 43.43 17.42 43.32 27.95 52.78"/><rect class="cls-4" x="-96.61" y="14.1" width="30.62" height="0.19" transform="translate(111.43 17.24) rotate(-7.17)"/><rect class="cls-4" x="11.76" y="3.3" width="0.19" height="17.85" transform="translate(109 42.89) rotate(-57.35)"/><polygon class="cls-4" points="111.87 64.93 73.01 65.3 73 65.11 111.87 64.74 111.87 64.93"/><polygon class="cls-4" points="129.5 61.06 111.9 64.92 111.84 64.75 129.44 60.88 129.5 61.06"/><polygon class="cls-4" points="129.2 60.92 124.27 66.02 124.12 65.92 129.04 60.81 129.2 60.92"/><polygon class="cls-4" points="129.44 60.7 129.26 60.65 133.11 44.29 133.29 44.33 129.44 60.7"/><rect class="cls-4" x="-6.1" y="27.21" width="29.61" height="0.19" transform="translate(97.34 40.93) rotate(-43.89)"/><rect class="cls-4" x="-49.84" y="17.62" width="56.13" height="0.19" transform="translate(105.82 20.52) rotate(-21.52)"/><polygon class="cls-4" points="118.23 34.62 118.11 34.76 98.79 19.54 98.91 19.39 118.23 34.62"/><rect class="cls-4" x="-53.81" y="14.92" width="34.44" height="0.19" transform="translate(89.92 4.83) rotate(-49)"/><rect class="cls-4" x="-67.29" y="-0.99" width="0.19" height="41.87" transform="translate(54.03 -22.49) rotate(-67.42)"/><rect class="cls-4" x="-48.33" y="22.43" width="68.14" height="0.19" transform="translate(110.02 25.27) rotate(-9.27)"/><polygon class="cls-4" points="39.58 7.9 27.41 39.18 27.23 39.11 39.4 7.83 39.58 7.9"/><rect class="cls-4" x="-87.74" y="5" width="38.75" height="0.19" transform="translate(107.74 3.69) rotate(-20.47)"/><polygon class="cls-4" points="66.03 55.24 65.87 55.33 39.41 7.91 39.57 7.82 66.03 55.24"/><polygon class="cls-4" points="39.57 7.91 17.43 43.42 17.27 43.33 39.41 7.81 39.57 7.91"/><polygon class="cls-4" points="148.08 56.66 144.76 64.25 144.62 64.21 147.99 56.5 148.08 56.66"/><polygon class="cls-4" points="151.82 37.3 148.11 56.64 147.96 56.52 151.67 37.19 151.82 37.3"/><polygon class="cls-4" points="151.96 37.26 165.38 55.91 165.22 56.03 151.77 37.29 151.96 37.26"/><rect class="cls-4" x="-9.42" y="17.18" width="20.82" height="0.19" transform="translate(98.15 39.93) rotate(-71.25)"/><polygon class="cls-4" points="129.42 60.62 129.27 60.73 98.77 19.52 98.92 19.41 129.42 60.62"/><rect class="cls-4" x="-27.25" y="-2.99" width="14.23" height="0.19" transform="translate(110.27 12.57) rotate(-43.65)"/><polygon class="cls-4" points="98.86 19.56 63.64 25.68 63.6 25.5 98.83 19.38 98.86 19.56"/><polygon class="cls-4" points="17.44 43.4 17.26 43.35 24.51 17.01 24.69 17.05 17.44 43.4"/><polygon class="cls-4" points="17.42 43.31 17.27 43.44 0.02 23.32 0.16 23.2 17.42 43.31"/><rect class="cls-4" x="-114.13" y="-7.22" width="25.29" height="0.19" transform="translate(112.46 2.04) rotate(-14.27)"/><polygon class="cls-4" points="24.67 16.97 24.53 17.09 9.57 0.98 9.71 0.85 24.67 16.97"/><polygon class="cls-4" points="0.18 23.28 0 23.24 9.55 0.9 9.73 0.94 0.18 23.28"/><polygon class="cls-4" points="39.46 7.95 9.61 1.01 9.67 0.83 39.52 7.77 39.46 7.95"/><polygon class="cls-4" points="27.96 52.84 27.78 52.83 27.23 39.14 27.41 39.15 27.96 52.84"/><rect class="cls-4" x="10.96" y="3.62" width="29.48" height="0.19" transform="translate(125.16 52.61) rotate(-64.59)"/><polygon class="cls-4" points="151.79 37.17 151.7 37.33 145.82 17.75 145.91 17.59 151.79 37.17"/><rect class="cls-4" x="1.93" y="-1.19" width="32.5" height="0.19" transform="translate(117.1 36.63) rotate(-31.57)"/><circle class="cls-4" cx="-47.88" cy="28.01" r="1.55" transform="translate(98.02 10.02) rotate(-24.35)"/><path class="cls-4" d="M-48.85,25.88A2.33,2.33,0,0,0-50,29a2.33,2.33,0,0,0,3.09,1.16A2.33,2.33,0,0,0-45.76,27,2.33,2.33,0,0,0-48.85,25.88Zm1.71,3.79a1.82,1.82,0,0,1-2.41-.91,1.82,1.82,0,0,1,.91-2.41,1.82,1.82,0,0,1,2.41.91A1.82,1.82,0,0,1-47.13,29.67Z" transform="translate(113.84 27.27)"/><circle class="cls-4" cx="-85.97" cy="25.57" r="1.55" transform="translate(95.65 -5.9) rotate(-24.35)"/><path class="cls-4" d="M-86.93,23.44a2.33,2.33,0,0,0-1.16,3.09A2.33,2.33,0,0,0-85,27.69a2.33,2.33,0,0,0,1.16-3.09A2.34,2.34,0,0,0-86.93,23.44Zm1.71,3.79a1.82,1.82,0,0,1-2.41-.91,1.82,1.82,0,0,1,.91-2.41,1.82,1.82,0,0,1,2.41.91A1.82,1.82,0,0,1-85.21,27.23Z" transform="translate(113.84 27.27)"/><circle class="cls-4" cx="-14.99" cy="-7.81" r="1.19" transform="translate(115.72 20.39) rotate(-24.37)"/><path class="cls-4" d="M-15.73-9.44a1.79,1.79,0,0,0-.89,2.37,1.79,1.79,0,0,0,2.37.89,1.79,1.79,0,0,0,.89-2.37A1.79,1.79,0,0,0-15.73-9.44Zm1.32,2.91a1.4,1.4,0,0,1-1.85-.7,1.4,1.4,0,0,1,.7-1.85,1.4,1.4,0,0,1,1.85.7A1.4,1.4,0,0,1-14.41-6.53Z" transform="translate(113.84 27.27)"/><circle class="cls-4" cx="-2.45" cy="26.91" r="1.19" transform="translate(102.53 28.65) rotate(-24.32)"/><path class="cls-4" d="M-3.19,25.28a1.79,1.79,0,0,0-.89,2.37,1.79,1.79,0,0,0,2.37.89,1.79,1.79,0,0,0,.89-2.37A1.79,1.79,0,0,0-3.19,25.28Zm1.32,2.91a1.4,1.4,0,0,1-1.85-.7A1.4,1.4,0,0,1-3,25.64a1.4,1.4,0,0,1,1.85.7A1.4,1.4,0,0,1-1.88,28.19Z" transform="translate(113.84 27.27)"/><circle class="cls-4" cx="34.2" cy="29.31" r="1.19" transform="translate(104.79 43.98) rotate(-24.35)"/><path class="cls-4" d="M33.46,27.68a1.79,1.79,0,1,0,2.37.89A1.79,1.79,0,0,0,33.46,27.68Zm1.32,2.91a1.4,1.4,0,1,1,.7-1.85A1.4,1.4,0,0,1,34.78,30.59Z" transform="translate(113.84 27.27)"/><circle class="cls-4" cx="-86.51" cy="11.87" r="1.19" transform="translate(101.23 -7.37) rotate(-24.37)"/><path class="cls-4" d="M-87.25,10.24a1.79,1.79,0,0,0-.89,2.37,1.79,1.79,0,0,0,2.37.89,1.79,1.79,0,0,0,.89-2.37A1.79,1.79,0,0,0-87.25,10.24Zm1.32,2.91a1.4,1.4,0,0,1-1.85-.7,1.4,1.4,0,0,1,.7-1.85,1.4,1.4,0,0,1,1.85.7A1.4,1.4,0,0,1-85.94,13.15Z" transform="translate(113.84 27.27)"/><circle class="cls-4" cx="-50.22" cy="-1.68" r="0.88" transform="translate(110.06 6.43) rotate(-24.34)"/><path class="cls-4" d="M-50.76-2.88a1.32,1.32,0,0,0-.66,1.75,1.32,1.32,0,0,0,1.75.66A1.32,1.32,0,0,0-49-2.23,1.32,1.32,0,0,0-50.76-2.88Zm1,2.14a1,1,0,0,1-1.36-.51,1,1,0,0,1,.51-1.36,1,1,0,0,1,1.36.51A1,1,0,0,1-49.79-.74Z" transform="translate(113.84 27.27)"/><circle class="cls-4" cx="-40.83" cy="37.93" r="0.88" transform="translate(94.56 13.81) rotate(-24.35)"/><path class="cls-4" d="M-41.37,36.73A1.32,1.32,0,0,0-42,38.48a1.32,1.32,0,0,0,1.75.66,1.32,1.32,0,0,0,.66-1.75A1.32,1.32,0,0,0-41.37,36.73Zm1,2.14a1,1,0,0,1-1.36-.51A1,1,0,0,1-41.25,37a1,1,0,0,1,1.37.51A1,1,0,0,1-40.4,38.87Z" transform="translate(113.84 27.27)"/><circle class="cls-4" cx="-1.85" cy="37.51" r="0.88" transform="translate(98.22 29.84) rotate(-24.32)"/><path class="cls-4" d="M-2.39,36.31a1.32,1.32,0,0,0-.66,1.75,1.32,1.32,0,0,0,1.75.66A1.32,1.32,0,0,0-.65,37,1.32,1.32,0,0,0-2.39,36.31Zm1,2.14a1,1,0,0,1-1.36-.51,1,1,0,0,1,.51-1.37,1,1,0,0,1,1.36.51A1,1,0,0,1-1.42,38.45Z" transform="translate(113.84 27.27)"/><circle class="cls-4" cx="32.07" cy="-9.5" r="0.88" transform="translate(120.6 39.64) rotate(-24.32)"/><path class="cls-4" d="M31.53-10.71A1.32,1.32,0,0,0,30.87-9a1.32,1.32,0,0,0,1.75.66A1.32,1.32,0,0,0,33.28-10,1.32,1.32,0,0,0,31.53-10.71Zm1,2.14a1,1,0,0,1-1.36-.51,1,1,0,0,1,.51-1.36A1,1,0,0,1,33-9.93,1,1,0,0,1,32.5-8.56Z" transform="translate(113.84 27.27)"/><path class="cls-4" d="M19,16.2a.92.92,0,1,0,1.21.46A.92.92,0,0,0,19,16.2Z" transform="translate(113.84 27.27)"/><path class="cls-4" d="M-66.49,11.44a.92.92,0,0,0-.46,1.21.92.92,0,0,0,1.21.46.92.92,0,0,0,.46-1.21A.92.92,0,0,0-66.49,11.44Z" transform="translate(113.84 27.27)"/><path class="cls-4" d="M-104.58-27.19A.92.92,0,0,0-105-26a.92.92,0,0,0,1.21.46.92.92,0,0,0,.46-1.21A.92.92,0,0,0-104.58-27.19Z" transform="translate(113.84 27.27)"/><path class="cls-4" d="M-25.63,1.26a.92.92,0,0,0-.46,1.21.92.92,0,0,0,1.21.46.91.91,0,0,0,.46-1.21A.92.92,0,0,0-25.63,1.26Z" transform="translate(113.84 27.27)"/><path class="cls-4" d="M37.53,9.14a.92.92,0,1,0,1.21.46A.92.92,0,0,0,37.53,9.14Z" transform="translate(113.84 27.27)"/><circle class="cls-4" cx="15.41" cy="33.62" r="0.88" transform="translate(101.35 36.61) rotate(-24.34)"/><path class="cls-4" d="M14.87,32.41a1.32,1.32,0,1,0,1.75.66A1.32,1.32,0,0,0,14.87,32.41Zm1,2.14a1,1,0,1,1,.51-1.37A1,1,0,0,1,15.84,34.56Z" transform="translate(113.84 27.27)"/><circle class="cls-4" cx="-96.34" cy="16.32" r="1.19" transform="translate(98.55 -10.98) rotate(-24.34)"/><path class="cls-4" d="M-97.07,14.68A1.79,1.79,0,0,0-98,17.06a1.79,1.79,0,0,0,2.37.89,1.79,1.79,0,0,0,.89-2.37A1.79,1.79,0,0,0-97.07,14.68Zm1.32,2.91a1.4,1.4,0,0,1-1.85-.7,1.4,1.4,0,0,1,.7-1.85,1.4,1.4,0,0,1,1.85.7A1.4,1.4,0,0,1-95.76,17.59Z" transform="translate(113.84 27.27)"/><circle class="cls-4" cx="-89.23" cy="-10.24" r="1.19" transform="translate(110.11 -10.46) rotate(-24.37)"/><path class="cls-4" d="M-90-11.87a1.79,1.79,0,0,0-.89,2.37,1.79,1.79,0,0,0,2.37.89A1.79,1.79,0,0,0-87.6-11,1.79,1.79,0,0,0-90-11.87ZM-88.66-9a1.4,1.4,0,0,1-1.85-.7,1.4,1.4,0,0,1,.7-1.85,1.4,1.4,0,0,1,1.85.7A1.4,1.4,0,0,1-88.66-9Z" transform="translate(113.84 27.27)"/><circle class="cls-4" cx="4.58" cy="6.83" r="1.19" transform="translate(111.43 29.77) rotate(-24.34)"/><path class="cls-4" d="M3.84,5.19a1.79,1.79,0,1,0,2.37.89A1.79,1.79,0,0,0,3.84,5.19ZM5.16,8.1a1.4,1.4,0,1,1,.7-1.85A1.4,1.4,0,0,1,5.16,8.1Z" transform="translate(113.84 27.27)"/><circle class="cls-4" cx="-74.35" cy="-19.41" r="1.19" transform="translate(115.23 -5.1) rotate(-24.34)"/><path class="cls-4" d="M-75.09-21A1.79,1.79,0,0,0-76-18.67a1.79,1.79,0,0,0,2.37.89,1.79,1.79,0,0,0,.89-2.37A1.79,1.79,0,0,0-75.09-21Zm1.32,2.91a1.4,1.4,0,0,1-1.85-.7,1.4,1.4,0,0,1,.7-1.85,1.4,1.4,0,0,1,1.85.7A1.4,1.4,0,0,1-73.77-18.13Z" transform="translate(113.84 27.27)"/></g></g></g></g></svg>