<svg width="236" height="153" viewBox="0 0 236 153" fill="none" xmlns="http://www.w3.org/2000/svg">
<rect width="236" height="153" fill="white"/>
<g clip-path="url(#clip0)">
<path d="M83.107 71.8485C81.9115 73.92 79.2638 74.6297 77.1932 73.4338C77.1638 73.4168 77.1346 73.3995 77.1056 73.3818L51.8347 57.9821C49.7299 56.6994 49.0333 53.9706 50.2656 51.8353C51.4611 49.7639 54.1088 49.0542 56.1795 50.2501C56.2089 50.2671 56.2381 50.2844 56.2671 50.3021L81.5379 65.7018C83.6427 66.9845 84.3393 69.7133 83.107 71.8485Z" fill="#14D999"/>
<path d="M83.107 67.1529C81.9115 65.0815 79.2638 64.3717 77.1932 65.5677C77.1638 65.5847 77.1346 65.602 77.1056 65.6197L51.8347 81.0194C49.7299 82.3021 49.0333 85.0309 50.2656 87.1661C51.4611 89.2376 54.1088 89.9473 56.1795 88.7514C56.2089 88.7344 56.2381 88.717 56.2671 88.6994L81.5379 73.2996C83.6427 72.017 84.3393 69.2882 83.107 67.1529Z" fill="#14D999"/>
<path d="M83.107 87.1661C81.9115 89.2376 79.2638 89.9473 77.1932 88.7513C77.1638 88.7344 77.1346 88.717 77.1056 88.6994L51.8347 73.2996C49.7299 72.017 49.0333 69.2881 50.2656 67.1529C51.4611 65.0815 54.1088 64.3717 56.1795 65.5677C56.2089 65.5847 56.2381 65.602 56.2671 65.6196L81.5379 81.0194C83.6427 82.302 84.3393 85.0309 83.107 87.1661Z" fill="#14D999"/>
<path d="M83.1066 82.4705C81.9178 80.4107 79.2849 79.7049 77.2259 80.8942C77.1897 80.9151 77.1537 80.9365 77.1181 80.9585L64.5678 88.7037C62.4669 90.0002 61.7775 92.733 63.0117 94.8717C64.2005 96.9315 66.8334 97.6372 68.8924 96.448C68.9286 96.4271 68.9646 96.4056 69.0002 96.3837L81.5505 88.6385C83.6514 87.3419 84.3408 84.6091 83.1066 82.4705Z" fill="#14D999"/>
<path d="M49.4461 100.311C49.4461 102.736 51.4112 104.702 53.8354 104.702C56.2595 104.702 58.2246 102.736 58.2246 100.311C58.2246 97.8857 56.2595 95.9198 53.8354 95.9198C51.4112 95.9198 49.4461 97.8857 49.4461 100.311Z" fill="#565656"/>
<path d="M100.624 83.2731V69.6752C100.624 69.0262 101.15 68.5 101.8 68.5H103.021C104.089 68.5 104.94 68.5826 105.574 68.7479C106.214 68.9132 106.755 69.1921 107.196 69.5846C107.644 69.9908 107.999 70.497 108.26 71.103C108.529 71.7158 108.663 72.3356 108.663 72.9622C108.663 74.1053 108.226 75.0728 107.351 75.8647C108.198 76.154 108.866 76.6601 109.356 77.3831C109.852 78.0993 110.1 78.9325 110.1 79.8828C110.1 81.1292 109.659 82.1828 108.777 83.0435C108.246 83.5738 107.651 83.9422 106.989 84.1488C106.266 84.3485 105.36 84.4483 104.272 84.4483H101.8C101.15 84.4483 100.624 83.9221 100.624 83.2731ZM103.032 75.3483H103.786C104.682 75.3483 105.338 75.1503 105.754 74.7543C106.171 74.3584 106.38 73.7748 106.38 73.0035C106.38 72.2529 106.166 71.6831 105.739 71.2941C105.312 70.905 104.692 70.7104 103.879 70.7104H103.032V75.3483ZM103.032 82.1862H104.52C105.608 82.1862 106.407 81.9728 106.917 81.5458C107.454 81.0844 107.723 80.4991 107.723 79.7898C107.723 79.1012 107.465 78.5228 106.948 78.0545C106.445 77.5932 105.546 77.3625 104.251 77.3625H103.032V82.1862ZM114.807 75.5497V83.2863C114.807 83.9281 114.286 84.4483 113.644 84.4483C113.002 84.4483 112.482 83.9281 112.482 83.2863V75.5497C112.482 74.9079 113.002 74.3877 113.644 74.3877C114.286 74.3877 114.807 74.9079 114.807 75.5497ZM112.13 70.2043C112.13 69.798 112.278 69.4468 112.575 69.1507C112.871 68.8546 113.226 68.7066 113.639 68.7066C114.059 68.7066 114.417 68.8546 114.714 69.1507C115.01 69.44 115.158 69.7946 115.158 70.2146C115.158 70.6347 115.01 70.9928 114.714 71.2889C114.424 71.585 114.069 71.733 113.649 71.733C113.229 71.733 112.871 71.585 112.575 71.2889C112.278 70.9928 112.13 70.6313 112.13 70.2043ZM119.937 76.5568V83.2863C119.937 83.9281 119.417 84.4483 118.775 84.4483C118.133 84.4483 117.612 83.9281 117.612 83.2863V76.5568H117C116.401 76.5568 115.915 76.0712 115.915 75.4722C115.915 74.8732 116.401 74.3877 117 74.3877H117.612V71.8622C117.612 71.2204 118.133 70.7001 118.775 70.7001C119.417 70.7001 119.937 71.2204 119.937 71.8622V74.3877H120.661C121.26 74.3877 121.746 74.8732 121.746 75.4722C121.746 76.0712 121.26 76.5568 120.661 76.5568H119.937ZM124.277 74.1526C124.919 74.1526 125.44 74.6729 125.44 75.3146V75.3173C125.888 74.849 126.27 74.5323 126.587 74.367C126.924 74.1948 127.348 74.1088 127.858 74.1088C128.995 74.1088 129.893 74.6046 130.555 75.5962C131.285 74.6046 132.274 74.1088 133.52 74.1088C135.787 74.1088 136.92 75.4825 136.92 78.2301V83.2811C136.92 83.9257 136.397 84.4483 135.752 84.4483C135.108 84.4483 134.585 83.9257 134.585 83.2811V78.8602C134.585 77.8961 134.468 77.2144 134.233 76.815C133.992 76.4087 133.596 76.2056 133.045 76.2056C132.404 76.2056 131.938 76.4466 131.645 76.9286C131.352 77.4107 131.206 78.1854 131.206 79.2527V83.2811C131.206 83.9257 130.683 84.4483 130.038 84.4483C129.393 84.4483 128.871 83.9257 128.871 83.2811V78.8912C128.871 77.1008 128.354 76.2056 127.321 76.2056C126.666 76.2056 126.189 76.4501 125.889 76.939C125.59 77.4279 125.44 78.1991 125.44 79.2527V83.2863C125.44 83.9281 124.919 84.4483 124.277 84.4483C123.635 84.4483 123.115 83.9281 123.115 83.2863V75.3146C123.115 74.6729 123.635 74.1526 124.277 74.1526ZM148.23 73.9176C148.875 73.9176 149.398 74.4401 149.398 75.0848V83.5162C149.398 84.1608 148.875 84.6834 148.23 84.6834C147.585 84.6834 147.062 84.1608 147.062 83.5162V83.3947C146.105 84.2899 145.075 84.7375 143.973 84.7375C142.581 84.7375 141.431 84.2349 140.521 83.2295C139.619 82.2034 139.168 80.9226 139.168 79.387C139.168 77.8789 139.619 76.6222 140.521 75.6168C141.424 74.6114 142.554 74.1088 143.911 74.1088C145.082 74.1088 146.132 74.5908 147.062 75.5549V75.0848C147.062 74.4401 147.585 73.9176 148.23 73.9176ZM141.544 79.387C141.544 80.3511 141.803 81.1361 142.319 81.7421C142.85 82.3549 143.518 82.6614 144.324 82.6614C145.185 82.6614 145.881 82.3653 146.411 81.7731C146.942 81.1602 147.207 80.3821 147.207 79.4386C147.207 78.4952 146.942 77.7171 146.411 77.1042C145.881 76.5051 145.192 76.2056 144.345 76.2056C143.546 76.2056 142.877 76.5086 142.34 77.1146C141.81 77.7274 141.544 78.4849 141.544 79.387ZM154.446 68.1643V77.6414L157.377 74.7292C157.598 74.5105 157.896 74.3877 158.206 74.3877H159.282C159.63 74.3877 159.913 74.67 159.913 75.0184C159.913 75.1894 159.843 75.353 159.72 75.4718L156.471 78.6123L160.24 83.3015C160.484 83.6051 160.436 84.0489 160.132 84.2929C160.007 84.3935 159.851 84.4483 159.69 84.4483H158.717C158.356 84.4483 158.015 84.2822 157.792 83.9979L154.818 80.203L154.446 80.5749V83.2863C154.446 83.9281 153.925 84.4483 153.283 84.4483C152.641 84.4483 152.121 83.9281 152.121 83.2863V68.1643C152.121 67.5225 152.641 67.0023 153.283 67.0023C153.925 67.0023 154.446 67.5225 154.446 68.1643ZM170.726 79.9654H164.061C164.123 80.7918 164.392 81.4494 164.867 81.9383C165.342 82.4203 165.952 82.6614 166.696 82.6614C167.275 82.6614 167.753 82.5236 168.132 82.2482C168.278 82.1402 168.485 81.9195 168.752 81.5861C169.145 81.0955 169.836 80.9606 170.385 81.2669L170.467 81.3129C170.921 81.5659 171.084 82.1386 170.831 82.5921C170.811 82.6263 170.79 82.6592 170.767 82.6908C170.627 82.8809 170.507 83.0312 170.406 83.1417C170.068 83.5101 169.706 83.8131 169.321 84.0506C168.935 84.2882 168.518 84.4621 168.07 84.5723C167.622 84.6824 167.137 84.7375 166.613 84.7375C165.111 84.7375 163.906 84.2555 162.997 83.2914C162.087 82.3205 161.633 81.0328 161.633 79.4283C161.633 77.8376 162.073 76.5499 162.955 75.5652C163.844 74.5942 165.022 74.1088 166.489 74.1088C167.97 74.1088 169.141 74.5805 170.003 75.5239C170.857 76.4604 171.284 77.7584 171.284 79.418C171.278 79.722 171.03 79.9654 170.726 79.9654ZM168.887 78.0649C168.563 76.8253 167.781 76.2056 166.541 76.2056C166.258 76.2056 165.993 76.2486 165.745 76.3347C165.497 76.4208 165.272 76.5447 165.068 76.7066C164.865 76.8684 164.691 77.0629 164.547 77.2902C164.402 77.5174 164.292 77.7756 164.216 78.0649H168.887ZM174.766 73.9176C175.408 73.9176 175.929 74.4378 175.929 75.0796V75.2863C176.356 74.8387 176.735 74.5323 177.065 74.367C177.403 74.1948 177.803 74.1088 178.264 74.1088C178.456 74.1088 178.698 74.1526 178.991 74.2402V74.2402C179.568 74.4126 179.896 75.0198 179.723 75.5965C179.705 75.6568 179.682 75.7155 179.654 75.7718C179.383 76.3144 178.763 76.5864 178.179 76.4187C178.045 76.3799 177.928 76.3605 177.83 76.3605C176.563 76.3605 175.929 77.3177 175.929 79.2321V83.2863C175.929 83.9281 175.408 84.4483 174.766 84.4483C174.124 84.4483 173.604 83.9281 173.604 83.2863V75.0796C173.604 74.4378 174.124 73.9176 174.766 73.9176ZM186.195 76.6136L185.908 76.7666C185.54 76.9623 185.087 76.8927 184.795 76.5954C184.533 76.3286 184.304 76.1953 184.108 76.1953C183.894 76.1953 183.712 76.2659 183.56 76.407C183.409 76.5482 183.333 76.7289 183.333 76.9493C183.333 77.3349 183.781 77.7171 184.676 78.0958C185.909 78.6261 186.739 79.115 187.166 79.5626C187.594 80.0102 187.807 80.6127 187.807 81.3702C187.807 82.3412 187.449 83.1537 186.732 83.8079C186.037 84.4277 185.196 84.7375 184.211 84.7375C183.025 84.7375 182.044 84.2518 181.27 83.2802C180.939 82.8651 181.007 82.2603 181.423 81.9295C181.483 81.8818 181.548 81.8414 181.617 81.8092C182.153 81.5609 182.789 81.7122 183.156 82.175C183.19 82.2177 183.218 82.249 183.24 82.2689C183.522 82.5305 183.86 82.6614 184.252 82.6614C185.038 82.6614 185.43 82.3033 185.43 81.5871C185.43 81.174 185.127 80.7883 184.521 80.4303C184.287 80.3132 184.053 80.1996 183.818 80.0894C183.584 79.9792 183.347 79.8656 183.105 79.7485C182.43 79.418 181.955 79.0875 181.679 78.7569C181.328 78.3369 181.152 77.7963 181.152 77.1352C181.152 76.2607 181.452 75.5376 182.051 74.9661C182.665 74.3945 183.409 74.1088 184.283 74.1088C185.027 74.1088 185.741 74.4673 186.426 75.1845V75.1845C186.772 75.5475 186.759 76.1226 186.395 76.4689C186.336 76.526 186.268 76.5747 186.195 76.6136Z" fill="black"/>
</g>
<defs>
<clipPath id="clip0">
<rect width="139" height="56" fill="white" transform="translate(49 49)"/>
</clipPath>
</defs>
</svg>
