<svg width="40" height="40" viewBox="0 0 40 40" fill="none" xmlns="http://www.w3.org/2000/svg">
<circle cx="20" cy="20" r="19.5" stroke="black"/>
<circle cx="20" cy="20" r="17" fill="#161616"/>
<path d="M21.7972 16.9778C21.7629 16.9458 21.7273 16.9458 21.661 16.9458C21.6266 16.9458 21.5568 16.9458 21.5248 16.9778L17.5361 20.9665C17.4662 21.0352 17.4662 21.1383 17.5361 21.207L18.7622 22.4674C18.8321 22.535 18.9339 22.535 19.0003 22.4674L22.9914 18.4775C23.0233 18.4444 23.0233 18.4088 23.0233 18.3413C23.0233 18.2738 23.0233 18.2406 22.9914 18.2051L21.7972 16.9778Z" fill="white"/>
<path d="M20.5012 12C16.3407 12 13 15.3407 13 19.5012C13 23.6593 16.3407 27 20.5012 27C24.6605 27 28 23.6593 28 19.5012C28 15.3407 24.6605 12 20.5012 12ZM24.8311 18.5807L19.5807 23.8311C19.5132 23.8998 19.4445 23.9329 19.3426 23.9329H16.4094C16.2045 23.9329 16.0682 23.7967 16.0682 23.5918V20.6586C16.0682 20.5567 16.1038 20.4892 16.1713 20.4205L21.4228 15.1689C21.4915 15.1002 21.5567 15.0659 21.661 15.0659C21.7628 15.0659 21.8304 15.1002 21.8991 15.1689L24.8323 18.1021C24.901 18.1696 24.9329 18.2384 24.9329 18.339C24.9318 18.4433 24.8998 18.512 24.8311 18.5807Z" fill="white"/>
</svg>
