<?xml version="1.0" encoding="utf-8"?>
<!-- Generator: Adobe Illustrator 21.1.0, SVG Export Plug-In . SVG Version: 6.00 Build 0)  -->
<svg version="1.1" id="Слой_1" xmlns="http://www.w3.org/2000/svg" xmlns:xlink="http://www.w3.org/1999/xlink" x="0px" y="0px"
	 viewBox="0 0 37.9 37.9" style="enable-background:new 0 0 37.9 37.9;" xml:space="preserve">
<style type="text/css">
	.st0{fill:none;stroke:#000000;stroke-miterlimit:10;}
	.st1{fill:#BECD16;}
</style>
<title>brief_hov</title>
<circle class="st0" cx="18.9" cy="18.9" r="18.4"/>
<circle cx="18.9" cy="18.9" r="15"/>
<path class="st1" d="M20,16.8c0,0-0.1,0-0.1,0c0,0-0.1,0-0.1,0l-3.4,3.4c-0.1,0.1-0.1,0.1,0,0.2c0,0,0,0,0,0l1,1.1
	c0.1,0.1,0.1,0.1,0.2,0c0,0,0,0,0,0l3.4-3.4c0,0,0-0.1,0-0.1s0-0.1,0-0.1L20,16.8z"/>
<path class="st1" d="M18.9,12.6c-3.5,0-6.3,2.8-6.3,6.3s2.8,6.3,6.3,6.3s6.3-2.8,6.3-6.3l0,0C25.3,15.5,22.5,12.6,18.9,12.6
	C19,12.6,19,12.6,18.9,12.6z M22.6,18.2l-4.4,4.4c-0.1,0.1-0.1,0.1-0.2,0.1h-2.5c-0.1,0-0.3-0.1-0.3-0.2c0,0,0,0,0,0v-2.5
	c0-0.1,0-0.1,0.1-0.2l4.4-4.4c0.1-0.1,0.1-0.1,0.2-0.1c0.1,0,0.1,0,0.2,0.1l2.5,2.5c0.1,0.1,0.1,0.1,0.1,0.2
	C22.7,18,22.7,18.1,22.6,18.2L22.6,18.2z"/>
</svg>
