<svg width="15" height="15" viewBox="0 0 15 15" fill="none" xmlns="http://www.w3.org/2000/svg">
<path d="M8.79718 4.97791C8.76282 4.94592 8.72728 4.94592 8.66094 4.94592C8.62659 4.94592 8.55669 4.94592 8.52471 4.97791L4.536 8.96661C4.46611 9.03532 4.46611 9.13839 4.536 9.2071L5.76211 10.4676C5.83201 10.5351 5.93389 10.5351 6.00023 10.4676L9.9913 6.47767C10.0233 6.4445 10.0233 6.40896 10.0233 6.34144C10.0233 6.27391 10.0233 6.24074 9.9913 6.2052L8.79718 4.97791Z" fill="white"/>
<path d="M7.50118 0C3.3407 0 0 3.3407 0 7.50118C0 11.6593 3.3407 15 7.50118 15C11.6605 15 15 11.6593 15 7.50118C15 3.3407 11.6605 0 7.50118 0ZM11.8311 6.58071L6.58071 11.8311C6.51319 11.8998 6.44448 11.9329 6.3426 11.9329H3.40941C3.20447 11.9329 3.06824 11.7967 3.06824 11.5918V8.65858C3.06824 8.55671 3.10378 8.48918 3.1713 8.42047L8.42284 3.16893C8.49155 3.10022 8.5567 3.06587 8.66095 3.06587C8.76283 3.06587 8.83036 3.10022 8.89907 3.16893L11.8323 6.10212C11.901 6.16964 11.9329 6.23835 11.9329 6.33905C11.9318 6.44329 11.8998 6.512 11.8311 6.58071Z" fill="white"/>
</svg>
