<svg width="452" height="186" viewBox="0 0 452 186" fill="none" xmlns="http://www.w3.org/2000/svg">
<circle cx="18.5" cy="18.5" r="18" stroke="black"/>
<g clip-path="url(#clip0)">
<path d="M27.2509 12.9971C26.2798 12.9971 25.4918 13.782 25.4918 14.7493C25.4918 14.992 25.5413 15.2237 25.6304 15.4332L21.9453 19.1039C21.735 19.0152 21.5037 18.9659 21.2588 18.9659C21.0139 18.9659 20.7825 19.0152 20.5722 19.1039L18.3716 16.9118C18.4607 16.7023 18.5089 16.4707 18.5089 16.2279C18.5089 15.2594 17.7209 14.4757 16.7499 14.4757C15.7788 14.4757 14.9921 15.2594 14.9921 16.2279C14.9921 16.4707 15.0428 16.7023 15.1319 16.9118L11.4468 20.5826C11.2353 20.4939 11.0027 20.4434 10.759 20.4434C9.78798 20.4434 9 21.2283 9 22.1956C9 23.1641 9.78798 23.9478 10.759 23.9478C11.7301 23.9478 12.5181 23.1629 12.5181 22.1956C12.5181 21.9528 12.4698 21.7224 12.3808 21.5117L16.0658 17.8409C16.2749 17.9296 16.5062 17.9802 16.7511 17.9802C16.996 17.9802 17.2261 17.9296 17.4377 17.8409L19.6383 20.033C19.5492 20.2425 19.4998 20.4742 19.4998 20.7169C19.4998 21.6842 20.2877 22.4691 21.2588 22.4691C22.2298 22.4691 23.0178 21.6842 23.0178 20.7169C23.0178 20.4742 22.9696 20.2425 22.8793 20.033L26.5643 16.3623C26.7746 16.451 27.0059 16.5015 27.2509 16.5015C28.2219 16.5015 29.0099 15.7166 29.0099 14.7493C29.0099 13.782 28.2219 12.9971 27.2509 12.9971Z" fill="black"/>
</g>
<circle cx="207.5" cy="167.5" r="18" fill="white" stroke="black"/>
<path d="M213.802 168.35C213.626 167.11 212.836 165.098 210.286 165.098C208.354 165.098 206.594 166.571 205.98 167.265C205.452 167.806 204.133 169.199 203.957 169.355C203.691 169.585 203.34 169.973 202.988 169.973C202.636 169.973 202.374 169.355 202.635 168.505C202.987 167.651 203.867 166.261 204.309 165.797C204.923 164.867 205.362 164.248 205.362 163.243C205.362 161.54 203.959 161 203.164 161C202.022 161 201.056 161.774 200.79 162.005L200 162.704L201.584 164.018C202.198 163.474 202.812 162.934 203.078 163.088C203.516 163.243 203.078 163.863 202.812 164.248C202.55 164.558 200.262 167.265 200.262 169.12C200.262 170.128 200.703 170.899 201.408 171.442C202.112 171.906 202.901 171.982 203.691 171.827C204.657 171.597 205.362 170.743 206.417 169.663C207.473 168.504 208.876 167.03 210.023 167.03C211.426 167.03 211.426 167.805 211.603 168.424C208.263 168.889 206.855 171.286 206.855 172.601C206.855 173.916 208.087 174.999 209.672 174.999C211.075 174.999 213.45 173.994 213.802 170.282H216V168.348H213.802V168.35ZM209.758 173.066C209.496 173.066 209.143 172.832 209.143 172.526C209.143 172.062 209.758 170.822 211.693 170.358C211.341 172.448 210.375 173.066 209.758 173.066Z" fill="black"/>
<circle cx="433.5" cy="46.5" r="18" fill="white" stroke="black"/>
<line x1="33.3093" y1="29.6072" x2="193.309" y2="155.607" stroke="#8D8D8D"/>
<line x1="419.239" y1="58.4392" x2="226.239" y2="163.439" stroke="#8D8D8D"/>
<g clip-path="url(#clip1)">
<path d="M442.882 46.2149L438.033 41.3658C437.882 41.215 437.615 41.215 437.465 41.3658L436.413 42.4171C436.256 42.5741 436.256 42.8286 436.413 42.9856L439.927 46.499L436.414 50.0129C436.257 50.1699 436.257 50.4245 436.414 50.5815L437.465 51.6328C437.54 51.7082 437.643 51.7508 437.749 51.7508C437.856 51.7508 437.958 51.7082 438.033 51.6328L442.882 46.7839C443.039 46.6266 443.039 46.3719 442.882 46.2149Z" fill="black"/>
<path d="M430.586 50.0129L427.073 46.4993L430.587 42.986C430.662 42.9106 430.705 42.8084 430.705 42.7017C430.705 42.5951 430.662 42.4928 430.587 42.4174L429.536 41.3661C429.46 41.2907 429.358 41.2483 429.251 41.2483C429.145 41.2483 429.042 41.2907 428.967 41.3661L424.118 46.2148C423.961 46.3718 423.961 46.6264 424.118 46.7836L428.967 51.6325C429.042 51.7079 429.144 51.7505 429.251 51.7505C429.358 51.7505 429.46 51.7079 429.535 51.6325L430.587 50.5812C430.744 50.4244 430.744 50.1699 430.586 50.0129Z" fill="black"/>
<path d="M436.257 39.7343C436.206 39.6406 436.12 39.571 436.018 39.5409L435.166 39.2893C434.953 39.2262 434.729 39.3483 434.666 39.5612L430.71 52.9597C430.68 53.0621 430.692 53.172 430.742 53.2655C430.793 53.3594 430.88 53.4288 430.982 53.4591L431.834 53.7106C431.872 53.7219 431.91 53.7273 431.948 53.7273C432.121 53.7273 432.282 53.6139 432.333 53.4388L436.29 40.0401C436.32 39.9377 436.308 39.8278 436.257 39.7343Z" fill="black"/>
</g>
<defs>
<clipPath id="clip0">
<rect width="20" height="11" fill="white" transform="translate(9 13)"/>
</clipPath>
<clipPath id="clip1">
<rect width="19" height="19" fill="white" transform="translate(424 37)"/>
</clipPath>
</defs>
</svg>
