<svg width="40" height="40" viewBox="0 0 40 40" fill="none" xmlns="http://www.w3.org/2000/svg">
<circle cx="20" cy="20" r="19.5" stroke="black"/>
<circle cx="20" cy="20" r="17" fill="#161616"/>
<path d="M25.7873 14.0225C24.3737 12.7186 22.4955 12 20.4995 12C18.5045 12 16.6263 12.7174 15.2116 14.0225C13.7865 15.337 13 17.0893 13 18.9572C13 20.739 13.7167 22.4181 15.021 23.7102C14.9981 23.7704 14.9793 23.8329 14.9668 23.899L14.5376 26.2896C14.4866 26.5728 14.5564 26.7428 14.622 26.8348C14.698 26.941 14.8126 27 14.9428 27C15.0408 27 15.146 26.967 15.2564 26.9021L17.7524 25.433C18.616 25.7492 19.5442 25.9144 20.5005 25.9144C22.4965 25.9144 24.3747 25.197 25.7884 23.8931C27.2145 22.5786 28 20.8251 28 18.9572C28 17.0893 27.2135 15.337 25.7873 14.0225ZM17.0201 20.411C16.4013 20.411 15.8992 19.8422 15.8992 19.1425C15.8992 18.4427 16.4013 17.8728 17.0201 17.8728C17.6368 17.8728 18.1389 18.4427 18.1389 19.1425C18.1389 19.8422 17.6368 20.411 17.0201 20.411ZM20.4807 20.411C19.863 20.411 19.3619 19.8422 19.3619 19.1425C19.3619 18.4427 19.863 17.8728 20.4807 17.8728C21.0995 17.8728 21.6016 18.4427 21.6016 19.1425C21.6016 19.8422 21.0995 20.411 20.4807 20.411ZM23.9445 20.411C23.3257 20.411 22.8236 19.8422 22.8236 19.1425C22.8236 18.4427 23.3257 17.8728 23.9445 17.8728C24.5623 17.8728 25.0633 18.4427 25.0633 19.1425C25.0633 19.8422 24.5612 20.411 23.9445 20.411Z" fill="white"/>
</svg>
