<svg id="Слой_1" data-name="Слой 1" xmlns="http://www.w3.org/2000/svg" viewBox="0 0 14.4 12.71"><defs><style>.cls-1{fill:#a3a3a3;}</style></defs><title>chat_2</title><path class="cls-1" d="M14.24,4.28A8,8,0,0,0,9.17,2.56,8,8,0,0,0,4.09,4.28,5.38,5.38,0,0,0,2,8.46a5.34,5.34,0,0,0,1.94,4,.86.86,0,0,0-.05.16l-.41,2a.53.53,0,0,0,.08.46.39.39,0,0,0,.31.14.66.66,0,0,0,.3-.08l2.4-1.24a8.58,8.58,0,0,0,2.64.41,8,8,0,0,0,5.08-1.71,5.38,5.38,0,0,0,2.12-4.18,5.38,5.38,0,0,0-2.12-4.18ZM5.83,9.69A1.08,1.08,0,1,1,6.9,8.62,1.08,1.08,0,0,1,5.83,9.69Zm3.32,0a1.08,1.08,0,1,1,1.08-1.07A1.08,1.08,0,0,1,9.15,9.69Zm3.32,0a1.08,1.08,0,1,1,1.07-1.07,1.08,1.08,0,0,1-1.07,1.07Z" transform="translate(-1.97 -2.56)"/></svg>