<svg xmlns="http://www.w3.org/2000/svg" viewBox="0 0 14.41 12.66"><title>chat_2-hov</title><g id="Слой_2" data-name="Слой 2"><g id="Слой_1-2" data-name="Слой 1"><path d="M12.24,1.72A8,8,0,0,0,7.17,0,8,8,0,0,0,2.09,1.72,5.38,5.38,0,0,0,0,5.9a5.34,5.34,0,0,0,1.94,4,.86.86,0,0,0,0,.16l-.41,2a.53.53,0,0,0,.08.46.39.39,0,0,0,.31.14.66.66,0,0,0,.3-.08l2.4-1.24a8.58,8.58,0,0,0,2.64.41A8,8,0,0,0,12.29,10a5.38,5.38,0,0,0,2.12-4.18,5.38,5.38,0,0,0-2.12-4.18ZM3.83,7.13A1.08,1.08,0,1,1,4.9,6s0,0,0,0A1.08,1.08,0,0,1,3.83,7.13Zm3.32,0A1.08,1.08,0,1,1,8.23,6.05h0A1.08,1.08,0,0,1,7.15,7.13Zm3.32,0A1.08,1.08,0,1,1,11.54,6s0,0,0,0A1.08,1.08,0,0,1,10.47,7.13Z"/></g></g></svg>