<svg width="236" height="153" viewBox="0 0 236 153" fill="none" xmlns="http://www.w3.org/2000/svg">
<rect width="236" height="153" fill="white"/>
<g clip-path="url(#clip0)">
<path d="M49.1262 78.0222C50.4452 78.0222 51.5529 78.7372 52.1071 79.9828H58.2787C57.5164 75.5598 54.1639 72.5945 49.2318 72.5945C43.5082 72.5945 40 76.5395 40 82.1241C40 87.7086 43.5082 91.6585 49.2318 91.6585C54.1639 91.6585 57.514 88.6926 58.2787 84.2709H52.1071C51.5529 85.5152 50.4452 86.2315 49.1262 86.2315C47.1482 86.2315 45.9342 84.6164 45.9342 82.1265C45.9342 79.6366 47.1482 78.0222 49.1262 78.0222Z" fill="black"/>
<path d="M70.8096 76.4874C68.5672 76.4874 67.0902 77.5737 66.2461 78.8707V71.9321H60.3906V91.5256H66.2443V83.6092C66.2443 82.1792 67.0377 81.3055 68.328 81.3055C69.5938 81.3055 70.4116 82.1792 70.4116 83.6092V91.5256H76.2409V82.8678C76.2427 78.9994 74.2396 76.4874 70.8096 76.4874Z" fill="black"/>
<path d="M84.6325 76.5922H78.7764V91.5255H84.6325V76.5922Z" fill="black"/>
<path d="M81.7299 69.5758C79.6462 69.5758 78.3535 70.8728 78.3535 72.5167C78.3535 74.1317 79.6462 75.403 81.7299 75.403C83.7879 75.403 85.08 74.1317 85.08 72.5167C85.08 70.8728 83.7879 69.5758 81.7299 69.5758Z" fill="black"/>
<path d="M93.125 71.9321H87.2695V91.5256H93.125V71.9321Z" fill="black"/>
<path d="M101.619 71.9321H95.7637V91.5256H101.619V71.9321Z" fill="black"/>
<path d="M143.824 72.7795H135.646V91.5274H141.501V85.5685H143.82C148.515 85.5685 150.915 82.6822 150.915 79.2138C150.919 75.4275 148.516 72.7795 143.824 72.7795ZM143.165 80.9348H141.503V77.4928H143.165C144.483 77.4928 144.984 78.1808 144.984 79.2138C144.984 80.2468 144.483 80.9348 143.165 80.9348Z" fill="black"/>
<path d="M158.622 71.9321H152.767V91.5256H158.622V71.9321Z" fill="black"/>
<path d="M170.733 76.5921V78.6317C170.02 77.2838 168.596 76.4077 166.618 76.4077C163.189 76.4077 160.472 79.2407 160.472 84.0594C160.472 88.8782 163.189 91.7118 166.618 91.7118C168.596 91.7118 170.02 90.8381 170.733 89.4878V91.5261H176.562V76.5921H170.733ZM168.57 86.5745C167.356 86.5745 166.407 85.7008 166.407 84.0588C166.407 82.4169 167.356 81.5438 168.57 81.5438C169.783 81.5438 170.733 82.4175 170.733 84.0588C170.733 85.7002 169.78 86.5745 168.567 86.5745H168.57Z" fill="black"/>
<path d="M189.537 76.5922L186.926 84.1649L184.13 76.5922H177.615L183.813 90.7842L180.068 98.6749H186.478L196 76.5922H189.537Z" fill="black"/>
<path d="M42.4464 96.6525H41.8867V100.957H43.9472V100.499H42.4464V96.6525Z" fill="black"/>
<path d="M55.7148 96.6034C54.5094 96.6034 53.5615 97.5114 53.5615 98.8017C53.5615 100.092 54.5094 101 55.7148 101C56.9202 101 57.8674 100.092 57.8674 98.8017C57.8674 97.5114 56.9263 96.6034 55.7148 96.6034ZM55.7148 100.512C54.8109 100.512 54.134 99.8512 54.134 98.8017C54.134 97.7522 54.8109 97.0911 55.7148 97.0911C56.6187 97.0911 57.2955 97.7454 57.2955 98.8017C57.2955 99.8579 56.6187 100.512 55.7148 100.512Z" fill="black"/>
<path d="M70.4899 99.3758C70.4899 100.166 70.0718 100.506 69.4383 100.506C68.8048 100.506 68.38 100.166 68.38 99.3758V96.6525H67.8203V99.3697C67.8203 100.487 68.546 101 69.4316 101C70.3172 101 71.0496 100.487 71.0496 99.3697V96.6525H70.4899V99.3758Z" fill="black"/>
<path d="M84.0231 100.067L81.7716 96.6463H81.2119V100.956H81.7716V97.5298L84.0231 100.956H84.5828V96.6463H84.0231V100.067Z" fill="black"/>
<path d="M96.5041 99.0952H98.213C98.1269 99.9468 97.549 100.49 96.7061 100.49C95.8022 100.49 95.1253 99.8359 95.1253 98.8048C95.1253 97.7737 95.8022 97.1126 96.7061 97.1126C97.3091 97.1126 97.7766 97.403 98.0104 97.9029H98.6817C98.3619 97.0758 97.6118 96.6065 96.7073 96.6065C95.5019 96.6065 94.5547 97.5145 94.5547 98.8048C94.5547 100.095 95.5013 100.995 96.7067 100.995C97.8663 100.995 98.7122 100.137 98.8105 99.0676V98.6388H96.5041V99.0952Z" fill="black"/>
<path d="M108.775 100.956H111.082V100.493H109.336V99.0119H110.897V98.5481H109.336V97.1095H111.082V96.6463H108.775V100.956Z" fill="black"/>
<path d="M134.58 97.0973V96.6525H131.862V97.1408H133.916L131.837 100.512V100.957H134.593V100.469H132.502L134.58 97.0973Z" fill="black"/>
<path d="M146.527 96.6034C145.321 96.6034 144.374 97.5114 144.374 98.8017C144.374 100.092 145.321 101 146.527 101C147.732 101 148.679 100.092 148.679 98.8017C148.679 97.5114 147.738 96.6034 146.527 96.6034ZM146.527 100.512C145.623 100.512 144.946 99.8512 144.946 98.8017C144.946 97.7522 145.623 97.0911 146.527 97.0911C147.431 97.0911 148.107 97.7454 148.107 98.8017C148.107 99.8579 147.431 100.512 146.527 100.512Z" fill="black"/>
<path d="M161.456 100.067L159.205 96.6463H158.645V100.956H159.205V97.5298L161.456 100.956H162.015V96.6463H161.456V100.067Z" fill="black"/>
<path d="M172.196 100.956H174.503V100.493H172.756V99.0119H174.318V98.5481H172.756V97.1095H174.503V96.6463H172.196V100.956Z" fill="black"/>
<path d="M116.744 55.0173C117.15 55.017 117.551 55.1136 117.913 55.2993C118.275 55.485 118.587 55.7544 118.825 56.0852H119.264C119.791 56.0836 120.296 55.8727 120.669 55.4984C121.042 55.1242 121.252 54.6171 121.254 54.0879V52.9973C121.252 52.4681 121.042 51.961 120.669 51.5868C120.296 51.2126 119.791 51.0016 119.264 51H114.137C113.61 51.0016 113.105 51.2126 112.732 51.5868C112.359 51.961 112.149 52.4681 112.147 52.9973V54.0885C112.149 54.6177 112.359 55.1248 112.732 55.499C113.105 55.8733 113.61 56.0842 114.137 56.0858H114.663C114.901 55.7549 115.213 55.4855 115.575 55.2997C115.937 55.1139 116.338 55.0171 116.744 55.0173ZM114.393 54.8096C114.131 54.8096 113.88 54.7053 113.694 54.5195C113.508 54.3336 113.404 54.0815 113.403 53.8183V53.2706C113.403 53.0069 113.507 52.7539 113.693 52.5675C113.879 52.381 114.131 52.2762 114.393 52.2762H119.006C119.269 52.2764 119.521 52.3812 119.706 52.5677C119.892 52.7541 119.996 53.007 119.996 53.2706V53.8183C119.996 54.0819 119.892 54.3348 119.706 54.5212C119.521 54.7077 119.269 54.8125 119.006 54.8127L114.393 54.8096Z" fill="black"/>
<path d="M121.778 85.7701H117.994C117.74 85.8109 117.481 85.8438 117.216 85.8687C116.954 85.8932 116.691 85.9061 116.435 85.9061C115.959 85.9068 115.484 85.8612 115.017 85.7701H111.676C111.118 85.7714 110.583 85.9943 110.188 86.3903C109.793 86.7862 109.57 87.3229 109.568 87.8832V89.0473C109.57 89.6076 109.792 90.1444 110.187 90.5406C110.582 90.9367 111.116 91.16 111.675 91.1616H121.778C122.336 91.1602 122.871 90.937 123.266 90.5408C123.661 90.1446 123.883 89.6077 123.885 89.0473V87.8832C123.883 87.323 123.66 86.7864 123.266 86.3905C122.871 85.9946 122.336 85.7715 121.778 85.7701ZM122.662 88.8022C122.658 89.1643 122.511 89.5099 122.253 89.7637C121.996 90.0174 121.649 90.1585 121.289 90.1562H112.118C111.758 90.1584 111.411 90.0172 111.154 89.7635C110.896 89.5098 110.749 89.1642 110.745 88.8022V88.2594C110.749 87.8974 110.896 87.5518 111.154 87.2981C111.411 87.0444 111.758 86.9032 112.118 86.9054H121.289C121.649 86.9032 121.996 87.0444 122.253 87.2981C122.511 87.5518 122.657 87.8974 122.662 88.2594V88.8022Z" fill="black"/>
<path d="M117.146 60.1442C117.579 60.0752 117.988 59.8958 118.333 59.623C118.678 59.3502 118.948 58.9933 119.116 58.5861C119.285 58.179 119.346 57.7354 119.295 57.2975C119.244 56.8597 119.082 56.4423 118.825 56.0852H114.662C114.412 56.4319 114.252 56.8356 114.196 57.2599C114.14 57.6842 114.191 58.1158 114.342 58.5157C114.494 58.9156 114.743 59.2712 115.066 59.5505C115.389 59.8297 115.776 60.0239 116.193 60.1154C116.3 60.1099 116.407 60.1056 116.512 60.1056C116.724 60.1064 116.935 60.1193 117.146 60.1442ZM115.326 57.5967C115.326 57.3158 115.409 57.0412 115.565 56.8077C115.72 56.5741 115.941 56.3921 116.2 56.2846C116.458 56.1771 116.743 56.149 117.017 56.2038C117.291 56.2586 117.544 56.3938 117.741 56.5925C117.939 56.7911 118.074 57.0441 118.129 57.3196C118.183 57.5951 118.155 57.8807 118.048 58.1402C117.941 58.3997 117.76 58.6215 117.527 58.7775C117.294 58.9336 117.021 59.0169 116.741 59.0169C116.366 59.0162 116.007 58.8663 115.742 58.6C115.477 58.3338 115.329 57.9729 115.329 57.5967H115.326Z" fill="black"/>
<path d="M116.743 55.0173C116.336 55.0169 115.936 55.1135 115.574 55.2992C115.212 55.4848 114.899 55.7543 114.661 56.0852H118.824C118.586 55.7544 118.274 55.485 117.912 55.2993C117.55 55.1136 117.149 55.017 116.743 55.0173Z" fill="black"/>
<path d="M129.117 69.7437C129.113 69.4713 129.009 69.2101 128.825 69.0099C128.641 68.8097 128.39 68.6846 128.12 68.6586L126.236 68.4748C126.201 68.4713 126.166 68.4697 126.13 68.4699C125.841 68.4699 125.564 68.5838 125.358 68.7872C125.151 68.9907 125.033 69.2672 125.028 69.5574C124.999 71.2423 124.638 71.7177 123.982 72.5803C123.441 73.2923 122.746 74.2052 122.077 75.9372C121.062 74.8485 119.871 73.5582 118.708 72.2863C121.18 70.2736 122.224 68.1023 121.981 65.5241C121.701 62.5686 119.752 60.4389 117.148 60.1418C117.014 60.1629 116.879 60.1736 116.744 60.1736C116.559 60.1732 116.375 60.1527 116.194 60.1124C116.117 60.1167 116.039 60.1216 115.962 60.1289C111.999 60.5069 110.186 64.1566 110.492 67.3989C110.632 68.8871 111.224 70.387 112.209 71.7857C110.073 73.764 109.087 76.2687 109.353 79.0858C109.683 82.5823 111.937 85.1598 115.018 85.7639H117.994C119.971 85.4496 121.577 84.6789 122.86 83.4254C123.226 83.793 123.54 84.0962 123.93 84.4669C124.135 84.6617 124.407 84.7702 124.689 84.7702C124.723 84.7704 124.758 84.7687 124.793 84.7653L127.837 84.4755C128.044 84.4558 128.242 84.3775 128.407 84.2497C128.572 84.1218 128.697 83.9497 128.769 83.7532C128.84 83.5567 128.855 83.3439 128.81 83.1395C128.766 82.9351 128.665 82.7474 128.519 82.5982C127.909 81.9721 127.299 81.3165 126.707 80.6824C126.189 80.1255 125.693 79.5918 125.205 79.0894C125.852 76.5811 126.683 75.5359 127.422 74.6071C128.315 73.4902 129.158 72.4296 129.117 69.7437ZM124.592 79.2616C125.145 79.8253 125.709 80.4312 126.301 81.0684C126.893 81.7056 127.504 82.363 128.121 82.9928C128.195 83.0671 128.247 83.161 128.269 83.2635C128.292 83.366 128.285 83.4729 128.249 83.5716C128.213 83.6702 128.15 83.7566 128.067 83.8204C127.984 83.8843 127.884 83.923 127.78 83.932L124.736 84.2218C124.719 84.2227 124.701 84.2227 124.684 84.2218C124.543 84.2222 124.407 84.1681 124.304 84.0705C123.782 83.573 123.416 83.2128 122.848 82.6381C121.444 84.2071 119.575 85.0845 117.159 85.3155C116.915 85.3387 116.671 85.3504 116.427 85.3504C112.931 85.3504 110.245 82.7532 109.896 79.0343C109.628 76.2007 110.655 73.791 112.948 71.866C111.838 70.4335 111.178 68.8804 111.035 67.3481C110.654 63.3191 113.249 60.9444 116.009 60.6809C116.177 60.665 116.343 60.657 116.508 60.657C119.171 60.657 121.146 62.6341 121.427 65.5762C121.671 68.1403 120.573 70.2062 117.893 72.2189C119.423 73.8945 121.046 75.6499 122.288 76.9757C123.013 74.7621 123.783 73.7487 124.417 72.9161C125.095 72.0234 125.544 71.4334 125.576 69.5672C125.578 69.4222 125.637 69.2839 125.74 69.182C125.842 69.0802 125.981 69.0231 126.126 69.0231C126.143 69.0222 126.161 69.0222 126.178 69.0231L128.062 69.2069C128.197 69.2194 128.323 69.2817 128.415 69.3818C128.508 69.4819 128.56 69.6128 128.561 69.7492C128.599 72.2372 127.851 73.1771 126.985 74.2658C126.187 75.2786 125.279 76.4194 124.592 79.2616Z" fill="black"/>
<path d="M115.858 69.9575C117.394 68.6635 118.238 67.557 118.093 66.032C118.015 65.208 117.551 63.8129 116.309 63.8129C116.25 63.8128 116.191 63.8157 116.133 63.8215C114.794 63.9496 114.324 65.3857 114.453 66.7532C114.583 68.0876 115.173 69.0911 115.858 69.9575ZM115.278 64.9807C115.488 64.6045 115.776 64.4115 116.185 64.3723C116.227 64.3686 116.268 64.3662 116.307 64.3662C117.368 64.3662 117.537 66.0143 117.543 66.0847C117.641 67.1263 117.21 67.984 115.942 69.1481C115.468 68.4589 115.092 67.6716 115.001 66.7023C114.939 66.0351 115.04 65.4083 115.278 64.9807Z" fill="black"/>
<path d="M116.433 85.9061C116.689 85.9061 116.952 85.8932 117.214 85.8687C117.476 85.8442 117.739 85.8075 117.992 85.7701H115.016C115.483 85.8612 115.957 85.9068 116.433 85.9061Z" fill="black"/>
<path d="M117.146 60.1442C116.934 60.1194 116.722 60.1067 116.51 60.1062C116.404 60.1062 116.297 60.1105 116.19 60.116C116.371 60.1563 116.555 60.1769 116.74 60.1773C116.876 60.1769 117.011 60.1658 117.146 60.1442Z" fill="black"/>
<path d="M128.566 69.7516C128.565 69.6153 128.513 69.4844 128.42 69.3842C128.328 69.2841 128.202 69.2218 128.067 69.2094L126.183 69.0256C126.165 69.0247 126.148 69.0247 126.13 69.0256C125.986 69.0256 125.847 69.0827 125.745 69.1845C125.642 69.2863 125.583 69.4247 125.581 69.5697C125.549 71.4359 125.101 72.0259 124.421 72.9185C123.788 73.7512 123.018 74.7645 122.293 76.9781C121.052 75.6535 119.429 73.897 117.898 72.2213C120.584 70.2087 121.674 68.1427 121.432 65.5787C121.153 62.6378 119.174 60.6595 116.513 60.6595C116.348 60.6595 116.182 60.6674 116.014 60.6834C113.254 60.9468 110.659 63.3216 111.039 67.3505C111.184 68.8822 111.843 70.436 112.953 71.8684C110.659 73.7934 109.633 76.2031 109.901 79.0367C110.253 82.7557 112.939 85.3528 116.432 85.3528C116.671 85.3528 116.916 85.3412 117.164 85.3179C119.58 85.0869 121.447 84.2096 122.853 82.6405C123.421 83.217 123.787 83.5755 124.309 84.073C124.412 84.1705 124.548 84.2247 124.689 84.2243C124.706 84.2252 124.723 84.2252 124.741 84.2243L127.785 83.9345C127.889 83.9254 127.989 83.8867 128.072 83.8229C128.155 83.759 128.218 83.6727 128.254 83.574C128.29 83.4754 128.297 83.3685 128.274 83.266C128.251 83.1634 128.2 83.0695 128.126 82.9952C127.509 82.3654 126.897 81.7086 126.306 81.0708C125.714 80.433 125.146 79.8277 124.597 79.264C125.281 76.4218 126.189 75.2816 126.993 74.2707C127.856 73.1789 128.603 72.2397 128.566 69.7516ZM123.989 79.4319C125.164 80.6101 126.425 82.0431 127.733 83.3794L124.688 83.6692C124.072 83.0829 123.669 82.6852 122.819 81.8158C121.293 83.7942 119.279 84.5582 117.111 84.7647C116.881 84.7867 116.654 84.7977 116.434 84.7977C112.982 84.7977 110.752 82.1767 110.453 78.9828C110.161 75.887 111.57 73.6139 113.688 71.9854L113.677 71.8843C112.512 70.5015 111.741 68.911 111.589 67.296C111.328 64.539 112.787 61.5454 116.066 61.2305C116.216 61.2158 116.366 61.2091 116.513 61.2091C118.771 61.2091 120.623 62.8774 120.883 65.6265C121.109 68.0159 120.09 70.0151 117.124 72.0963L117.133 72.1974C119.013 74.2597 121.131 76.5523 122.544 78.0473C124.126 72.3812 126.062 73.5821 126.131 69.5746L128.016 69.7584C128.083 74.3204 125.433 73.0423 123.988 79.4338L123.989 79.4319Z" fill="black"/>
<path d="M119.301 78.7102C118.03 77.4383 116.472 75.8784 114.952 74.2468C113.793 75.4373 113.275 76.7851 113.415 78.2611C113.621 80.4447 115.073 81.9696 116.945 81.9696C117.057 81.9696 117.171 81.9641 117.287 81.9537C118.611 81.8275 119.911 81.1309 120.721 80.1408C120.325 79.7346 119.842 79.2518 119.301 78.7102ZM117.235 81.4023C117.138 81.4121 117.04 81.4164 116.945 81.4164C115.369 81.4164 114.142 80.0973 113.964 78.2084C113.855 77.059 114.182 76.0224 114.961 75.0635C116.355 76.5431 117.754 77.9431 118.915 79.1072C119.295 79.4877 119.648 79.8424 119.959 80.1555C119.212 80.8598 118.255 81.2979 117.235 81.4023Z" fill="black"/>
<path d="M114.977 73.4601C113.997 74.335 112.64 75.9231 112.866 78.3132C113.098 80.759 114.764 82.5229 116.945 82.5229C117.075 82.5229 117.206 82.5167 117.339 82.5045C119.037 82.3427 120.615 81.3575 121.441 80.0899C120.129 78.7212 117.447 76.1449 114.977 73.4601ZM117.287 81.9537C117.172 81.9641 117.057 81.9696 116.945 81.9696C115.073 81.9696 113.621 80.4447 113.415 78.2611C113.275 76.7851 113.792 75.4373 114.952 74.2468C116.472 75.8784 118.03 77.4383 119.301 78.7102C119.842 79.2518 120.325 79.7358 120.721 80.1408C119.914 81.1309 118.61 81.8275 117.287 81.9537Z" fill="black"/>
<path d="M115.783 70.735C117.649 69.2321 118.823 67.8983 118.642 65.98C118.52 64.667 117.769 63.2597 116.309 63.2597C116.235 63.2597 116.159 63.2634 116.081 63.2707C114.442 63.427 113.739 65.0555 113.904 66.8053C114.057 68.4209 114.819 69.604 115.783 70.735ZM116.133 63.8215C116.191 63.8157 116.25 63.8128 116.309 63.813C117.551 63.813 118.017 65.208 118.093 66.0321C118.237 67.557 117.394 68.6666 115.857 69.9575C115.173 69.0912 114.579 68.0876 114.454 66.7532C114.324 65.3857 114.794 63.9496 116.133 63.8215Z" fill="black"/>
</g>
<defs>
<clipPath id="clip0">
<rect width="156" height="50" fill="white" transform="translate(40 51)"/>
</clipPath>
</defs>
</svg>
