<svg width="19" height="19" viewBox="0 0 19 19" fill="none" xmlns="http://www.w3.org/2000/svg">
<g clip-path="url(#clip0)">
<path d="M18.8822 9.21489L14.0331 4.36578C13.8823 4.21499 13.6155 4.21499 13.4647 4.36578L12.4134 5.41706C12.2564 5.57408 12.2564 5.82861 12.4134 5.98563L15.9272 9.49897L12.4136 13.0129C12.2566 13.1699 12.2566 13.4245 12.4136 13.5815L13.4649 14.6328C13.5403 14.7082 13.6426 14.7508 13.7492 14.7508C13.8555 14.7508 13.9581 14.7082 14.0335 14.6328L18.8822 9.78386C19.0392 9.62664 19.0392 9.37191 18.8822 9.21489Z" fill="white"/>
<path d="M6.58609 13.0129L3.07295 9.49931L6.5867 5.98596C6.66209 5.91057 6.70451 5.80844 6.70451 5.70168C6.70451 5.59512 6.66229 5.49279 6.5867 5.41739L5.53541 4.36611C5.46001 4.29071 5.35768 4.24829 5.25112 4.24829C5.14457 4.24829 5.04223 4.29071 4.96684 4.36611L0.117521 9.21482C-0.0394991 9.37184 -0.0394991 9.62637 0.117521 9.78359L4.96664 14.6325C5.04203 14.7079 5.14437 14.7505 5.25092 14.7505C5.35748 14.7505 5.45981 14.7079 5.53521 14.6325L6.5865 13.5812C6.74352 13.4244 6.74352 13.1699 6.58609 13.0129Z" fill="white"/>
<path d="M12.2574 2.73427C12.2063 2.64058 12.1203 2.57102 12.0182 2.54086L11.1659 2.28935C10.9532 2.22622 10.7292 2.34826 10.6665 2.56117L6.71004 15.9597C6.67988 16.0621 6.69154 16.172 6.74241 16.2655C6.79327 16.3594 6.87952 16.4288 6.98166 16.4591L7.83391 16.7106C7.87191 16.7219 7.91031 16.7273 7.9479 16.7273C8.12141 16.7273 8.28165 16.6139 8.33332 16.4388L12.2898 3.04007C12.3199 2.93773 12.3085 2.82776 12.2574 2.73427Z" fill="white"/>
</g>
<defs>
<clipPath id="clip0">
<rect width="19" height="19" fill="white"/>
</clipPath>
</defs>
</svg>
