<svg width="45" height="45" viewBox="0 0 45 45" fill="none" xmlns="http://www.w3.org/2000/svg">
<circle cx="22.5" cy="22.5" r="18" fill="black" stroke="black"/>
<g clip-path="url(#clip0)">
<path d="M31.8822 22.2149L27.0331 17.3658C26.8823 17.215 26.6155 17.215 26.4647 17.3658L25.4134 18.4171C25.2564 18.5741 25.2564 18.8286 25.4134 18.9856L28.9272 22.499L25.4136 26.0129C25.2566 26.1699 25.2566 26.4245 25.4136 26.5815L26.4649 27.6328C26.5403 27.7082 26.6426 27.7508 26.7492 27.7508C26.8555 27.7508 26.9581 27.7082 27.0335 27.6328L31.8822 22.7839C32.0392 22.6266 32.0392 22.3719 31.8822 22.2149Z" fill="white"/>
<path d="M19.5861 26.0129L16.073 22.4993L19.5867 18.986C19.6621 18.9106 19.7045 18.8084 19.7045 18.7017C19.7045 18.5951 19.6623 18.4928 19.5867 18.4174L18.5354 17.3661C18.46 17.2907 18.3577 17.2483 18.2511 17.2483C18.1446 17.2483 18.0422 17.2907 17.9668 17.3661L13.1175 22.2148C12.9605 22.3718 12.9605 22.6264 13.1175 22.7836L17.9666 27.6325C18.042 27.7079 18.1444 27.7505 18.2509 27.7505C18.3575 27.7505 18.4598 27.7079 18.5352 27.6325L19.5865 26.5812C19.7435 26.4244 19.7435 26.1699 19.5861 26.0129Z" fill="white"/>
<path d="M25.2574 15.7343C25.2063 15.6406 25.1203 15.571 25.0182 15.5409L24.1659 15.2893C23.9532 15.2262 23.7292 15.3483 23.6665 15.5612L19.71 28.9597C19.6799 29.0621 19.6915 29.172 19.7424 29.2655C19.7933 29.3594 19.8795 29.4288 19.9817 29.4591L20.8339 29.7106C20.8719 29.7219 20.9103 29.7273 20.9479 29.7273C21.1214 29.7273 21.2816 29.6139 21.3333 29.4388L25.2898 16.0401C25.3199 15.9377 25.3085 15.8278 25.2574 15.7343Z" fill="white"/>
</g>
<circle cx="22.5" cy="22.5" r="22" stroke="black"/>
<defs>
<clipPath id="clip0">
<rect width="19" height="19" fill="white" transform="translate(13 13)"/>
</clipPath>
</defs>
</svg>
