<svg width="37" height="37" viewBox="0 0 37 37" fill="none" xmlns="http://www.w3.org/2000/svg">
<circle cx="18.5" cy="18.5" r="18" fill="black" stroke="black"/>
<g clip-path="url(#clip0)">
<path d="M27.8822 18.2149L23.0331 13.3658C22.8823 13.215 22.6155 13.215 22.4647 13.3658L21.4134 14.4171C21.2564 14.5741 21.2564 14.8286 21.4134 14.9856L24.9272 18.499L21.4136 22.0129C21.2566 22.1699 21.2566 22.4245 21.4136 22.5815L22.4649 23.6328C22.5403 23.7082 22.6426 23.7508 22.7492 23.7508C22.8555 23.7508 22.9581 23.7082 23.0335 23.6328L27.8822 18.7839C28.0392 18.6266 28.0392 18.3719 27.8822 18.2149Z" fill="white"/>
<path d="M15.5861 22.0129L12.073 18.4993L15.5867 14.986C15.6621 14.9106 15.7045 14.8084 15.7045 14.7017C15.7045 14.5951 15.6623 14.4928 15.5867 14.4174L14.5354 13.3661C14.46 13.2907 14.3577 13.2483 14.2511 13.2483C14.1446 13.2483 14.0422 13.2907 13.9668 13.3661L9.11752 18.2148C8.9605 18.3718 8.9605 18.6264 9.11752 18.7836L13.9666 23.6325C14.042 23.7079 14.1444 23.7505 14.2509 23.7505C14.3575 23.7505 14.4598 23.7079 14.5352 23.6325L15.5865 22.5812C15.7435 22.4244 15.7435 22.1699 15.5861 22.0129Z" fill="white"/>
<path d="M21.2574 11.7343C21.2063 11.6406 21.1203 11.571 21.0182 11.5409L20.1659 11.2893C19.9532 11.2262 19.7292 11.3483 19.6665 11.5612L15.71 24.9597C15.6799 25.0621 15.6915 25.172 15.7424 25.2655C15.7933 25.3594 15.8795 25.4288 15.9817 25.4591L16.8339 25.7106C16.8719 25.7219 16.9103 25.7273 16.9479 25.7273C17.1214 25.7273 17.2816 25.6139 17.3333 25.4388L21.2898 12.0401C21.3199 11.9377 21.3085 11.8278 21.2574 11.7343Z" fill="white"/>
</g>
<defs>
<clipPath id="clip0">
<rect width="19" height="19" fill="white" transform="translate(9 9)"/>
</clipPath>
</defs>
</svg>
