<svg width="59" height="366" viewBox="0 0 59 366" fill="none" xmlns="http://www.w3.org/2000/svg">
<path d="M0.0234362 27.6094C0.0234356 41.4375 7.99219 51.0859 20.5703 52.4141L20.5703 40.9297C13.8906 39.6797 9.78906 34.6406 9.78906 27.6484C9.78906 18.625 17.2109 12.9609 29.2422 12.9609C41.1172 12.9609 48.5781 18.7031 48.5781 27.6094C48.5781 34.4844 44.0469 39.7969 37.1328 40.8906L37.1328 52.375C49.75 51.4766 58.3437 41.1641 58.3437 27.6094C58.3437 11.2812 47.3672 0.929686 29.2031 0.929685C11 0.929685 0.0234369 11.2031 0.0234362 27.6094Z" fill="#F7DD00"/>
<path d="M48.1484 71.5156L48.1484 81.5547C48.1484 87.4141 44.6328 91.0859 39.1641 91.0859C33.5781 91.0859 30.1797 87.6094 30.1797 81.6719L30.1797 71.5156L48.1484 71.5156ZM21.625 71.5156L21.625 80.9687L0.999996 91.4766L0.999995 104.836L23.3828 92.9609C25.9219 99.4453 32.1719 103.195 39.3984 103.195C50.5312 103.195 57.3672 95.7734 57.3672 82.8047L57.3672 59.7187L0.999997 59.7187L0.999997 71.5156L21.625 71.5156ZM10.7656 148.312L10.7656 122.766L24.9844 122.766L24.9844 146.867L34.0469 146.867L34.0469 122.766L47.6406 122.766L47.6406 148.312L57.3672 148.312L57.3672 110.969L0.999995 110.969L0.999993 148.312L10.7656 148.312ZM0.999991 193.742L0.999991 206.281L57.3672 186.672L57.3672 172.805L0.999993 153.234L0.999993 165.344L14.6719 169.641L14.6719 189.445L0.999991 193.742ZM46.5859 179.406L46.5859 179.68L23.5 186.906L23.5 172.18L46.5859 179.406ZM0.99999 229.68L47.6406 229.68L47.6406 246.008L57.3672 246.008L57.3672 201.594L47.6406 201.594L47.6406 217.883L0.99999 217.883L0.99999 229.68ZM0.999988 264.328L57.3672 264.328L57.3672 252.531L0.999989 252.531L0.999988 264.328ZM0.999987 303.273L57.3672 322.219L57.3672 309.367L13.1484 296.477L13.1484 296.203L57.3672 283.312L57.3672 270.109L0.999987 289.055L0.999987 303.273ZM10.7656 365.344L10.7656 339.797L24.9844 339.797L24.9844 363.898L34.0469 363.898L34.0469 339.797L47.6406 339.797L47.6406 365.344L57.3672 365.344L57.3672 328L0.999986 328L0.999984 365.344L10.7656 365.344Z" fill="black"/>
</svg>
