<svg width="52" height="320" viewBox="0 0 52 320" fill="none" xmlns="http://www.w3.org/2000/svg">
<path d="M51.8545 296.092C51.8545 283.992 44.8818 275.55 33.876 274.388L33.876 284.437C39.7207 285.53 43.3096 289.939 43.3096 296.058C43.3096 303.953 36.8154 308.909 26.2881 308.909C15.8975 308.909 9.36914 303.885 9.36914 296.092C9.36914 290.076 13.334 285.428 19.3838 284.471L19.3838 274.422C8.34375 275.208 0.824217 284.231 0.824218 296.092C0.824218 310.379 10.4287 319.437 26.3223 319.437C42.25 319.437 51.8545 310.447 51.8545 296.092Z" fill="#F7DD00"/>
<path d="M9.74511 257.674L9.74511 248.89C9.74511 243.763 12.8213 240.55 17.6064 240.55C22.4941 240.55 25.4678 243.592 25.4678 248.787L25.4678 257.674L9.74511 257.674ZM32.9531 257.674L32.9531 249.402L51 240.208L51 228.519L31.415 238.909C29.1934 233.235 23.7246 229.954 17.4014 229.954C7.66015 229.954 1.67871 236.448 1.67871 247.796L1.67871 267.996L51 267.996L51 257.674L32.9531 257.674ZM42.4551 190.477L42.4551 212.83L30.0137 212.83L30.0137 191.741L22.084 191.741L22.084 212.83L10.1894 212.83L10.1894 190.477L1.67871 190.477L1.67871 223.152L51 223.152L51 190.477L42.4551 190.477ZM51 150.726L51 139.754L1.6787 156.912L1.6787 169.046L51 186.17L51 175.574L39.0371 171.814L39.0371 154.485L51 150.726ZM11.1123 163.27L11.1123 163.03L31.3125 156.707L31.3125 169.593L11.1123 163.27ZM51 119.28L10.1894 119.28L10.1894 104.993L1.6787 104.993L1.6787 143.855L10.1894 143.855L10.1894 129.603L51 129.603L51 119.28ZM51 88.9629L1.6787 88.9629L1.6787 99.2852L51 99.2852L51 88.9629ZM51 54.8857L1.6787 38.3086L1.6787 49.5537L40.3701 60.833L40.3701 61.0723L1.6787 72.3516L1.6787 83.9043L51 67.3271L51 54.8857ZM42.4551 0.574216L42.4551 22.9277L30.0137 22.9277L30.0137 1.83887L22.084 1.83887L22.084 22.9277L10.1894 22.9277L10.1894 0.574218L1.6787 0.574218L1.6787 33.25L51 33.25L51 0.574216L42.4551 0.574216Z" fill="black"/>
</svg>
