<svg width="464" height="222" viewBox="0 0 464 222" fill="none" xmlns="http://www.w3.org/2000/svg">
<path d="M11.2305 58.3729V220.429H80.5225C129.6 220.429 158.574 190.106 158.574 138.222C158.574 86.3368 129.712 58.3729 80.5225 58.3729H11.2305ZM58.8477 96.2196H73.7842C96.582 96.2196 110.059 110.931 110.059 138.222C110.059 168.095 97.5928 182.582 73.7842 182.582H58.8477V96.2196Z" fill="#FF6900"/>
<path d="M226 164.638L361.01 164.638L361.01 211.024L402.147 211.024L402.147 66.4932L361.01 66.4932L361.01 112.88L226 112.88L226 164.638Z" fill="#95B53F"/>
<path d="M226.424 221.808C270.11 221.808 301.668 194.068 301.893 153.639H256.297C254.837 172.394 242.933 184.41 226.536 184.41C206.771 184.41 194.529 167.115 194.529 137.804C194.529 108.829 206.883 91.5342 226.424 91.5342C242.933 91.5342 254.949 103.775 256.072 122.193H301.668C301.556 81.9883 269.212 54.1367 226.424 54.1367C176.897 54.1367 146.014 84.459 146.014 137.916C146.014 191.373 176.785 221.808 226.424 221.808Z" fill="#F7DD00"/>
</svg>
