<svg width="16" height="14" viewBox="0 0 16 14" fill="none" xmlns="http://www.w3.org/2000/svg">
<path d="M13.802 7.35C13.6262 6.1105 12.836 4.09751 10.2864 4.09751C8.35442 4.09751 6.59386 5.571 5.97953 6.26519C5.45202 6.80566 4.13325 8.1989 3.95741 8.35456C3.69146 8.58467 3.33979 8.97334 2.98812 8.97334C2.63645 8.97334 2.37379 8.35456 2.63535 7.5047C2.98702 6.65097 3.8673 5.26064 4.30909 4.79655C4.92342 3.8674 5.36191 3.24765 5.36191 2.24309C5.36191 0.54047 3.95851 0 3.16395 0C2.02212 0 1.05612 0.774448 0.790164 1.00456L0 1.70359L1.58363 3.01754C2.19795 2.47417 2.81228 1.9337 3.07823 2.0884C3.51563 2.24309 3.07823 2.86285 2.81228 3.24765C2.54963 3.55801 0.261556 6.26519 0.261556 8.11961C0.261556 9.12804 0.703345 9.89862 1.40779 10.442C2.11223 10.9061 2.9013 10.9825 3.69146 10.8268C4.65746 10.5967 5.36191 9.74296 6.41692 8.66298C7.47304 7.50373 8.87643 6.03025 10.0227 6.03025C11.4261 6.03025 11.4261 6.8047 11.603 7.42445C8.2632 7.88854 6.85542 10.2863 6.85542 11.6012C6.85542 12.9162 8.08737 13.999 9.67209 13.999C11.0755 13.999 13.4504 12.9945 13.802 9.28177H16V7.34807H13.802V7.35ZM9.75781 12.0663C9.49626 12.0663 9.14349 11.8323 9.14349 11.5258C9.14349 11.0617 9.75781 9.82224 11.6931 9.35815C11.3414 11.4475 10.3754 12.0663 9.75781 12.0663Z" fill="black"/>
</svg>
