<svg width="37" height="37" viewBox="0 0 37 37" fill="none" xmlns="http://www.w3.org/2000/svg">
<circle cx="18.5" cy="18.5" r="18" fill="black" stroke="black"/>
<path d="M24.802 19.35C24.6262 18.1105 23.836 16.0975 21.2864 16.0975C19.3544 16.0975 17.5939 17.571 16.9795 18.2652C16.452 18.8057 15.1333 20.1989 14.9574 20.3546C14.6915 20.5847 14.3398 20.9733 13.9881 20.9733C13.6364 20.9733 13.3738 20.3546 13.6353 19.5047C13.987 18.651 14.8673 17.2606 15.3091 16.7965C15.9234 15.8674 16.3619 15.2477 16.3619 14.2431C16.3619 12.5405 14.9585 12 14.164 12C13.0221 12 12.0561 12.7744 11.7902 13.0046L11 13.7036L12.5836 15.0175C13.198 14.4742 13.8123 13.9337 14.0782 14.0884C14.5156 14.2431 14.0782 14.8628 13.8123 15.2477C13.5496 15.558 11.2616 18.2652 11.2616 20.1196C11.2616 21.128 11.7033 21.8986 12.4078 22.442C13.1122 22.9061 13.9013 22.9825 14.6915 22.8268C15.6575 22.5967 16.3619 21.743 17.4169 20.663C18.473 19.5037 19.8764 18.0302 21.0227 18.0302C22.4261 18.0302 22.4261 18.8047 22.603 19.4244C19.2632 19.8885 17.8554 22.2863 17.8554 23.6012C17.8554 24.9162 19.0874 25.999 20.6721 25.999C22.0755 25.999 24.4504 24.9945 24.802 21.2818H27V19.3481H24.802V19.35ZM20.7578 24.0663C20.4963 24.0663 20.1435 23.8323 20.1435 23.5258C20.1435 23.0617 20.7578 21.8222 22.6931 21.3582C22.3414 23.4475 21.3754 24.0663 20.7578 24.0663Z" fill="white"/>
</svg>
