<svg width="45" height="45" viewBox="0 0 45 45" fill="none" xmlns="http://www.w3.org/2000/svg">
<circle cx="22.5" cy="22.5" r="18" fill="black" stroke="black"/>
<path d="M28.802 23.35C28.6262 22.1105 27.836 20.0975 25.2864 20.0975C23.3544 20.0975 21.5939 21.571 20.9795 22.2652C20.452 22.8057 19.1333 24.1989 18.9574 24.3546C18.6915 24.5847 18.3398 24.9733 17.9881 24.9733C17.6364 24.9733 17.3738 24.3546 17.6353 23.5047C17.987 22.651 18.8673 21.2606 19.3091 20.7965C19.9234 19.8674 20.3619 19.2477 20.3619 18.2431C20.3619 16.5405 18.9585 16 18.164 16C17.0221 16 16.0561 16.7744 15.7902 17.0046L15 17.7036L16.5836 19.0175C17.198 18.4742 17.8123 17.9337 18.0782 18.0884C18.5156 18.2431 18.0782 18.8628 17.8123 19.2477C17.5496 19.558 15.2616 22.2652 15.2616 24.1196C15.2616 25.128 15.7033 25.8986 16.4078 26.442C17.1122 26.9061 17.9013 26.9825 18.6915 26.8268C19.6575 26.5967 20.3619 25.743 21.4169 24.663C22.473 23.5037 23.8764 22.0302 25.0227 22.0302C26.4261 22.0302 26.4261 22.8047 26.603 23.4244C23.2632 23.8885 21.8554 26.2863 21.8554 27.6012C21.8554 28.9162 23.0874 29.999 24.6721 29.999C26.0755 29.999 28.4504 28.9945 28.802 25.2818H31V23.3481H28.802V23.35ZM24.7578 28.0663C24.4963 28.0663 24.1435 27.8323 24.1435 27.5258C24.1435 27.0617 24.7578 25.8222 26.6931 25.3582C26.3414 27.4475 25.3754 28.0663 24.7578 28.0663Z" fill="white"/>
<circle cx="22.5" cy="22.5" r="22" stroke="black"/>
</svg>
