<svg width="22" height="14" viewBox="0 0 22 14" fill="none" xmlns="http://www.w3.org/2000/svg">
<path d="M11 0C6.20215 0 2.04355 2.79387 0 6.875C2.04355 10.9561 6.20215 13.75 11 13.75C15.7977 13.75 19.9564 10.9561 22 6.875C19.9564 2.79387 15.7977 0 11 0ZM16.4237 3.64598C17.7163 4.47043 18.8116 5.57472 19.6343 6.875C18.8116 8.17528 17.7162 9.27957 16.4237 10.104C14.7996 11.1399 12.9241 11.6875 11 11.6875C9.07586 11.6875 7.20036 11.1399 5.57627 10.104C4.28377 9.27953 3.1885 8.17523 2.36577 6.875C3.18845 5.57468 4.28377 4.47038 5.57627 3.64598C5.66045 3.59227 5.74548 3.54024 5.83103 3.48915C5.61709 4.07627 5.5 4.70993 5.5 5.37109C5.5 8.4086 7.96245 10.8711 11 10.8711C14.0375 10.8711 16.5 8.4086 16.5 5.37109C16.5 4.70993 16.3829 4.07627 16.169 3.48911C16.2544 3.5402 16.3396 3.59227 16.4237 3.64598ZM11 4.68359C11 5.8227 10.0766 6.74609 8.9375 6.74609C7.7984 6.74609 6.875 5.8227 6.875 4.68359C6.875 3.54449 7.7984 2.62109 8.9375 2.62109C10.0766 2.62109 11 3.54449 11 4.68359Z" fill="white"/>
</svg>
