<svg id="Слой_1" data-name="Слой 1" xmlns="http://www.w3.org/2000/svg" viewBox="0 0 18 11.25" preserveAspectRatio="xMinYMin meet"><defs><style>.cls-1{fill:#a3a3a3;}</style></defs><title>eye_2</title><path class="cls-1" d="M9,0A10.08,10.08,0,0,0,0,5.63a10,10,0,0,0,18,0A10.08,10.08,0,0,0,9,0Zm4.44,3a8.58,8.58,0,0,1,2.63,2.64,8.58,8.58,0,0,1-2.63,2.64,8.24,8.24,0,0,1-8.88,0A8.55,8.55,0,0,1,1.94,5.63,8.55,8.55,0,0,1,4.56,3l.21-.13a4.5,4.5,0,1,0,8.46,0l.21.13ZM9,3.83A1.69,1.69,0,1,1,7.31,2.14,1.69,1.69,0,0,1,9,3.83Z"/></svg>