<svg width="236" height="153" viewBox="0 0 236 153" fill="none" xmlns="http://www.w3.org/2000/svg">
<rect width="236" height="153" fill="white"/>
<g clip-path="url(#clip0)">
<path d="M78 64.8192H100.801L97.9498 73.0678H88.3862V77.6597H96.2687L93.3065 85.4862H88.3862V97.9999H78V64.8192Z" fill="black"/>
<path d="M79.2091 55.1437V61.2479H78.085V55.1437H79.2091Z" fill="black"/>
<path d="M84.8058 55.1437L88.8495 59.6806V55.1437H89.9636V61.2479H88.8283L84.7834 56.684V61.2479H83.6816V55.1437H84.8058Z" fill="black"/>
<path d="M100.484 55.1437V56.1541H97.8939V61.2479H96.7732V56.1586H94.1797V55.1482L100.484 55.1437Z" fill="black"/>
<path d="M110.155 55.1437V56.1541H105.824V57.6271H109.726V58.6376H105.824V60.2217H110.321V61.2479H104.7V55.1437H110.155Z" fill="black"/>
<path d="M118.284 55.1437C119.684 55.1437 120.764 56.0823 120.764 57.5014C120.777 57.9304 120.664 58.3539 120.438 58.719C120.213 59.0841 119.885 59.3747 119.496 59.5548L120.455 61.2389H119.232L118.46 59.8355H115.826V61.2479H114.705V55.1437H118.284ZM115.827 58.8082H118.236C119.073 58.8082 119.647 58.3232 119.647 57.5059C119.647 56.6885 119.073 56.1698 118.236 56.1698H115.827V58.8082Z" fill="black"/>
<path d="M126.149 55.1437V61.2479H125.028V55.1437H126.149Z" fill="black"/>
<path d="M133.896 61.3995C132.011 61.3995 130.491 60.1297 130.491 58.1975C130.491 56.2653 132.011 55 133.896 55C135.781 55 137.301 56.2698 137.301 58.2009C137.301 60.1319 135.78 61.3995 133.896 61.3995ZM133.896 60.4283C135.186 60.4283 136.188 59.5998 136.188 58.1975C136.188 56.7952 135.186 55.9711 133.896 55.9711C132.606 55.9711 131.614 56.7963 131.614 58.2009C131.614 59.6054 132.618 60.4317 133.896 60.4317V60.4283Z" fill="black"/>
<path d="M145.231 55.1437C146.631 55.1437 147.71 56.0823 147.71 57.5014C147.723 57.9303 147.61 58.3536 147.385 58.7187C147.16 59.0838 146.832 59.3746 146.444 59.5548L147.402 61.2389H146.179L145.408 59.8265H142.774V61.2479H141.653V55.1437H145.231ZM142.774 58.8082H145.187C146.024 58.8082 146.598 58.3232 146.598 57.5059C146.598 56.6885 146.024 56.1698 145.187 56.1698H142.774V58.8082Z" fill="black"/>
<path d="M157.251 56.6672C156.523 56.1923 155.807 55.9936 154.816 55.9936C153.46 55.9936 153.118 56.3798 153.118 56.8109C153.118 57.26 153.504 57.3959 154.078 57.4621L155.972 57.6867C157.229 57.8416 158.001 58.3928 158.001 59.4639C158.001 60.7999 156.733 61.4073 154.904 61.4073C153.681 61.4073 152.755 61.1536 151.818 60.48L152.347 59.6031C153.196 60.1768 154.001 60.4205 155.07 60.4205C156.17 60.4205 156.92 60.1106 156.92 59.4819C156.92 59.0328 156.623 58.797 155.972 58.7308L153.967 58.5062C152.765 58.3625 152.017 57.9101 152.017 56.8222C152.017 55.5737 153.284 55 154.816 55C155.917 55 156.854 55.1763 157.791 55.8387L157.251 56.6672Z" fill="black"/>
<path d="M118.917 64.8192H109.284L120.04 97.9999H130.987L118.917 64.8192Z" fill="black"/>
<path d="M107.962 82.9792C107.962 82.1806 108.279 81.4147 108.842 80.85C109.406 80.2853 110.171 79.9681 110.968 79.9681C111.097 79.9726 111.227 79.9857 111.354 80.0074L110.031 75.9252L107.036 85.1584H108.901C108.605 84.8783 108.369 84.5406 108.207 84.1659C108.046 83.7912 107.962 83.3873 107.962 82.9792Z" fill="black"/>
<path d="M115.511 92.8625L113.021 85.1685C112.465 85.6986 111.726 85.9934 110.959 85.9915C110.192 85.9896 109.454 85.6912 108.901 85.1584H107.036L110.03 75.9297L106.433 64.8148H104.088L91.9717 98H102.872L104.51 92.9849H115.552L115.511 92.8625Z" fill="black"/>
<path d="M133.144 64.8192H122.104L133.238 97.9999H134.318L138.815 83.7695L133.144 64.8192Z" fill="black"/>
<path d="M157.999 64.8192H146.958L146.479 66.3731L136.888 97.9999H146.345L157.999 64.8192Z" fill="black"/>
</g>
<defs>
<clipPath id="clip0">
<rect width="80" height="43" fill="white" transform="translate(78 55)"/>
</clipPath>
</defs>
</svg>
