<svg width="236" height="153" viewBox="0 0 236 153" fill="none" xmlns="http://www.w3.org/2000/svg">
<rect width="236" height="153" fill="white"/>
<g clip-path="url(#clip0)">
<path d="M57.2529 86.8482V54.4431H59.7879V86.8482H57.2529Z" fill="black"/>
<path d="M93.2486 83.557C93.2486 85.7089 92.2982 87.1647 90.2702 87.1647C88.8127 87.1647 88.0522 86.4684 87.0381 84.8229L70.0545 57.4177C69.8643 57.1012 69.4841 56.6581 68.977 56.6581C68.8503 56.6581 68.2799 56.7847 68.2799 57.6076V86.8482H65.7451V57.3546C65.7451 54.1269 68.2801 54.0634 68.7869 54.0634C70.5613 54.0634 71.3218 55.1392 72.0188 56.2155L89.066 83.7471C89.3196 84.1266 89.5097 84.5697 90.0801 84.5697C90.7139 84.5697 90.7139 84.0633 90.7139 83.7471V54.4431H93.2488V83.557H93.2486Z" fill="black"/>
<path d="M99.0156 86.8482V54.4431H101.551V86.8482H99.0156Z" fill="black"/>
<path d="M108.965 86.8482C106.113 86.8482 105.606 85.0761 105.606 84.2532C105.606 83.4304 106.113 82.4178 106.747 81.7848L128.294 58.5572C128.547 58.304 128.801 57.6078 128.801 57.3546C128.801 56.7218 128.23 56.6583 127.977 56.6583H106.747V54.4431H128.611C130.195 54.4431 131.526 55.3924 131.526 56.9748C131.526 58.1139 130.892 58.9368 130.385 59.5063L108.712 83.1139C108.458 83.3671 108.268 83.7468 108.268 84.0633C108.268 84.5064 108.458 84.633 108.775 84.633H130.829V86.8482H108.965Z" fill="black"/>
<path d="M136.089 86.8482V69.1266H138.624V86.8482H136.089Z" fill="black"/>
<path d="M171.134 57.5444C174.81 61.2153 175 66.8481 175 70.5822C175 74.3166 174.81 80.0127 171.134 83.6202C167.776 86.9748 162.896 87.1647 159.284 87.1647C155.671 87.1647 150.728 86.9748 147.433 83.6202C143.758 79.9494 143.567 74.3166 143.567 70.5822C143.567 66.8481 143.758 61.1518 147.433 57.5444C150.792 54.1899 155.671 54 159.284 54C162.896 54 167.776 54.1899 171.134 57.5444ZM149.017 81.8481C151.806 84.9495 156.178 84.9495 159.284 84.9495C162.389 84.9495 166.762 84.9495 169.55 81.8481C172.212 78.8102 172.338 74.3166 172.338 70.5824C172.338 66.8481 172.275 62.3544 169.55 59.3166C166.762 56.2152 162.389 56.2152 159.284 56.2152C156.178 56.2152 151.806 56.2152 149.017 59.3166C146.356 62.3544 146.229 66.8481 146.229 70.5824C146.229 74.3799 146.292 78.8733 149.017 81.8481Z" fill="black"/>
<path d="M137.294 66.595C138.063 66.595 138.688 65.9716 138.688 65.2026C138.688 64.4337 138.063 63.8103 137.294 63.8103C136.524 63.8103 135.899 64.4337 135.899 65.2026C135.899 65.9716 136.524 66.595 137.294 66.595Z" fill="#894B53"/>
<path d="M137.293 61.9748C138.063 61.9748 138.687 61.3513 138.687 60.5822C138.687 59.8132 138.063 59.1897 137.293 59.1897C136.523 59.1897 135.898 59.8132 135.898 60.5822C135.898 61.3513 136.523 61.9748 137.293 61.9748Z" fill="#894B53"/>
<path d="M137.293 57.2913C138.063 57.2913 138.687 56.6678 138.687 55.8988C138.687 55.1297 138.063 54.5062 137.293 54.5062C136.523 54.5062 135.898 55.1297 135.898 55.8988C135.898 56.6678 136.523 57.2913 137.293 57.2913Z" fill="#894B53"/>
<path d="M57.9505 91.4682C57.9505 91.0886 58.0139 90.4554 58.5209 90.0758C59.0279 89.6328 59.9784 89.5695 60.6122 89.5695V90.0758C60.1685 90.0758 59.4714 90.1391 59.0913 90.3923C58.7112 90.6455 58.6476 91.1519 58.6476 91.4682H60.6124V91.9745H58.6476V97.1645H57.9505V91.9745H57V91.4682H57.9505Z" fill="black"/>
<path d="M68.0899 96.9746C67.8364 97.1645 67.3927 97.1645 67.0125 97.1645H65.0479C64.2876 97.1645 63.7806 97.1012 63.2735 96.7847C62.7031 96.4052 62.7031 95.8355 62.7031 95.4557V91.4684H63.4003V95.266C63.4003 95.8357 63.5271 96.152 63.6538 96.2788C63.9707 96.5953 64.4775 96.6583 65.0481 96.6583H67.0127C67.2028 96.6583 67.393 96.5951 67.4563 96.5318C67.5831 96.4054 67.5831 96.2788 67.5831 96.1522V91.4686H68.2803V96.2788C68.4066 96.4682 68.4066 96.7847 68.0899 96.9746Z" fill="black"/>
<path d="M71.3227 93.4304C71.3227 92.8605 71.4494 92.3543 71.9565 91.9115C72.2734 91.6583 72.7802 91.4684 73.7309 91.4684H74.2377V91.9748H73.794C73.4138 91.9748 72.78 92.0381 72.3997 92.3543C72.0828 92.671 72.0194 93.0506 72.0194 93.557V97.1647H71.3223V93.4304H71.3227Z" fill="black"/>
<path d="M76.3281 92.2278C76.3281 92.1014 76.3281 91.8482 76.5183 91.7214C76.7084 91.5317 77.0253 91.5317 77.2154 91.5317H79.8138C80.5109 91.5317 81.0177 91.595 81.4614 91.9746C81.6515 92.1645 82.0318 92.481 82.0318 93.3036V97.2277H81.3346V93.4302C81.3346 92.9239 81.2713 92.6707 81.0177 92.4175C80.7009 92.101 80.3206 92.0379 79.8771 92.0379H77.3422C77.2788 92.0379 77.2154 92.0379 77.152 92.1012C77.0887 92.1645 77.0887 92.2276 77.0887 92.2909V97.2912H76.3915V92.2278H76.3281Z" fill="black"/>
<path d="M84.8848 90.4557V89.6331H85.6453V90.4557H84.8848ZM84.9479 91.4683H85.6451V97.1646H84.9479V91.4683Z" fill="black"/>
<path d="M91.2848 97.1646C90.6511 97.1646 90.0173 97.1646 89.5736 96.8481C89.13 96.5314 89.0668 95.9619 89.0668 95.2659V91.9746H88.0527V91.4682H89.0668V89.6328H89.764V91.4682H91.7285V91.9746H89.764V95.1391C89.764 95.6454 89.7006 96.2782 90.1442 96.5314C90.3344 96.5949 90.5879 96.658 91.4118 96.658H91.7921V97.1644H91.2848V97.1646Z" fill="black"/>
<path d="M99.2704 96.9746C99.0171 97.1645 98.5732 97.1645 98.1931 97.1645H96.2286C95.4683 97.1645 94.9612 97.1012 94.4542 96.7847C93.8838 96.4052 93.8838 95.8355 93.8838 95.4557V91.4684H94.581V95.266C94.581 95.8357 94.7077 96.152 94.8345 96.2788C95.1514 96.5953 95.6582 96.6583 96.2286 96.6583H98.1931C98.3833 96.6583 98.5734 96.5951 98.6368 96.5318C98.7635 96.4054 98.7635 96.2788 98.7635 96.1522V91.4686H99.4607V96.2788C99.6504 96.4682 99.5873 96.7847 99.2704 96.9746Z" fill="black"/>
<path d="M102.565 93.4304C102.565 92.8605 102.691 92.3543 103.198 91.9115C103.515 91.6583 104.022 91.4684 104.973 91.4684H105.48V91.9748H105.036C104.656 91.9748 104.022 92.0381 103.642 92.3543C103.325 92.671 103.262 93.0506 103.262 93.557V97.1647H102.564V93.4304H102.565Z" fill="black"/>
<path d="M109.725 97.1646C109.155 97.1646 108.395 97.038 107.824 96.4683C107.254 95.8987 107.254 95.2024 107.254 94.3164C107.254 93.4938 107.317 92.5443 108.205 91.9746C108.838 91.5316 109.725 91.4683 110.486 91.4683C110.993 91.4683 111.754 91.5316 112.324 91.7847C112.577 91.9113 113.465 92.4177 113.465 93.6202C113.465 93.8101 113.465 94.19 113.148 94.3797C112.958 94.5063 112.577 94.5696 112.387 94.5696H108.014C108.014 94.8861 108.014 95.4556 108.141 95.7088C108.331 96.1518 108.775 96.7215 109.725 96.7215H113.274V97.2279L109.725 97.1646ZM112.387 93.9999C112.704 93.9999 112.704 93.6835 112.704 93.6202C112.704 93.0505 112.45 92.6709 112.197 92.481C111.69 91.9746 110.993 91.9746 110.359 91.9746C109.662 91.9746 108.838 91.9746 108.395 92.6709C108.141 93.0505 108.078 93.4305 108.078 93.9999H112.387Z" fill="black"/>
<path d="M122.273 96.3418C122.273 96.7213 122.147 96.9114 122.083 96.9745C121.893 97.1644 121.449 97.1644 121.259 97.1644H118.407C117.837 97.1644 117.14 97.1644 116.633 96.658C116.126 96.215 116.126 95.5822 116.126 95.1391C116.126 94.6962 116.189 94.2532 116.443 93.9367C116.633 93.6835 117.013 93.4936 117.457 93.4303C117.203 93.4303 116.823 93.3037 116.506 92.9872C116.189 92.6076 116.126 92.1013 116.126 91.6582C116.126 91.2151 116.19 90.519 116.697 90.1392C117.014 89.8861 117.521 89.6962 118.281 89.6962H122.337V90.2025H118.408C118.028 90.2025 117.584 90.266 117.267 90.4557C116.824 90.7722 116.887 91.3419 116.887 91.6584C116.887 91.9749 116.887 92.5443 117.267 92.8608C117.584 93.114 118.154 93.2406 118.661 93.2406H123.858V93.747H122.274V96.3418H122.273ZM121.513 96.5949C121.576 96.5314 121.576 96.405 121.576 96.2785V93.6835H118.154C117.457 93.6835 117.14 94 117.013 94.1899C116.823 94.4428 116.823 94.7595 116.823 95.2024C116.823 95.5191 116.823 95.962 117.077 96.2152C117.394 96.5949 117.964 96.6582 118.407 96.6582H121.006C121.196 96.6582 121.449 96.6582 121.513 96.5949Z" fill="#894B53"/>
<path d="M126.202 89.6328H126.899V97.1646H126.202V89.6328Z" fill="black"/>
<path d="M129.879 90.4557V89.6331H130.639V90.4557H129.879ZM129.879 91.4683H130.576V97.1646H129.879V91.4683Z" fill="black"/>
<path d="M136.025 97.1646C135.264 97.1646 134.377 97.1013 133.807 96.405C133.363 95.8353 133.236 95.0127 133.236 94.1898C133.236 93.3036 133.363 92.6076 134.06 92.0377C134.63 91.5313 135.328 91.468 136.215 91.468H137.989C138.369 91.468 138.75 91.468 139.066 91.6579C139.447 91.8478 139.51 92.2276 139.51 92.4806V96.5312C139.51 97.2274 139.383 97.9237 138.94 98.3666C138.306 98.9365 137.102 98.9996 136.658 98.9996H133.806V98.4932H136.658C136.912 98.4932 137.799 98.4932 138.242 98.1134C138.559 97.8604 138.749 97.4806 138.813 97.1641H136.025V97.1646ZM138.813 92.4177C138.813 92.2278 138.813 92.1645 138.623 92.0379C138.497 91.9746 138.306 91.9746 138.179 91.9746H135.961C135.264 91.9746 134.884 92.1645 134.631 92.3542C134.06 92.7973 134.06 93.6834 134.06 94.2531C134.06 95.7087 134.504 96.1518 134.631 96.2784C135.074 96.658 135.645 96.658 136.025 96.658H138.877V92.4175H138.813V92.4177Z" fill="black"/>
<path d="M142.427 89.6328H143.124V91.4682H145.786C146.483 91.4682 147.053 91.5948 147.433 91.848C147.941 92.2276 148.067 92.7973 148.067 93.3669V97.1646H147.37V93.3038C147.37 93.0507 147.37 92.6078 146.99 92.2911C146.673 91.9746 146.229 91.9746 145.849 91.9746H143.124V97.1646H142.427V89.6328H142.427Z" fill="black"/>
<path d="M153.644 97.1646C153.011 97.1646 152.377 97.1646 151.933 96.8481C151.49 96.5314 151.426 95.9619 151.426 95.2659V91.9746H150.412V91.4682H151.426V89.6328H152.123V91.4682H154.088V91.9746H152.123V95.1391C152.123 95.6454 152.06 96.2782 152.503 96.5314C152.694 96.5949 152.947 96.658 153.771 96.658H154.151V97.1644H153.644V97.1646Z" fill="black"/>
<path d="M156.559 90.4557V89.6331H157.319V90.4557H156.559ZM156.559 91.4683H157.256V97.1646H156.559V91.4683Z" fill="black"/>
<path d="M160.234 92.2278C160.234 92.1014 160.234 91.8482 160.425 91.7214C160.615 91.5317 160.932 91.5317 161.122 91.5317H163.72C164.417 91.5317 164.924 91.595 165.368 91.9746C165.558 92.1645 165.938 92.481 165.938 93.3036V97.2277H165.241V93.4302C165.241 92.9239 165.178 92.6707 164.924 92.4175C164.607 92.101 164.227 92.0379 163.783 92.0379H161.248C161.185 92.0379 161.122 92.0379 161.058 92.1012C160.995 92.1645 160.995 92.2276 160.995 92.2909V97.2912H160.298V92.2278H160.234Z" fill="black"/>
<path d="M171.325 97.1646C170.564 97.1646 169.677 97.1013 169.107 96.405C168.663 95.8353 168.536 95.0127 168.536 94.1898C168.536 93.3036 168.663 92.6076 169.36 92.0377C169.93 91.5313 170.627 91.468 171.515 91.468H173.289C173.669 91.468 174.05 91.468 174.366 91.6579C174.746 91.8478 174.81 92.2276 174.81 92.4806V96.5312C174.81 97.2274 174.683 97.9237 174.239 98.3666C173.606 98.9365 172.402 98.9996 171.958 98.9996H169.106V98.4932H171.958C172.211 98.4932 173.099 98.4932 173.542 98.1134C173.859 97.8604 174.049 97.4806 174.113 97.1641H171.325V97.1646ZM174.113 92.4177C174.113 92.2278 174.113 92.1645 173.923 92.0379C173.796 91.9746 173.606 91.9746 173.479 91.9746H171.261C170.564 91.9746 170.184 92.1645 169.931 92.3542C169.36 92.7973 169.36 93.6834 169.36 94.2531C169.36 95.7087 169.804 96.1518 169.931 96.2784C170.374 96.658 170.945 96.658 171.325 96.658H174.177V92.4175H174.113V92.4177Z" fill="black"/>
</g>
<defs>
<clipPath id="clip0">
<rect width="118" height="45" fill="white" transform="translate(57 54)"/>
</clipPath>
</defs>
</svg>
