<svg width="16" height="15" viewBox="0 0 16 15" fill="none" xmlns="http://www.w3.org/2000/svg">
<path d="M13.4983 0H1.50165C0.6723 0 0 0.6723 0 1.50165V13.4983C0 14.3277 0.6723 15 1.50165 15H13.4997C14.3291 15 15.0014 14.3277 15.0014 13.4983V1.50165C15 0.6723 14.3277 0 13.4983 0ZM7.50138 4.50083C9.15044 4.50083 10.4992 5.84818 10.4992 7.5C10.4992 9.15182 9.15044 10.5006 7.50138 10.5006C5.8468 10.5006 4.50083 9.15182 4.50083 7.5C4.50083 5.84818 5.8468 4.50083 7.50138 4.50083ZM1.875 13.4983C1.65182 13.4983 1.50165 13.3496 1.50165 13.125V6.74917H3.07632C2.99917 6.97649 2.99917 7.27544 2.99917 7.49862C2.99917 9.97566 5.02296 12.0008 7.50138 12.0008C9.97704 12.0008 12.0008 9.97566 12.0008 7.49862C12.0008 7.27544 12.0008 6.97511 11.9251 6.7478H13.4997V13.125C13.4997 13.3482 13.3496 13.4983 13.1264 13.4983H1.875ZM13.4983 3.37665C13.4983 3.59983 13.3482 3.75 13.125 3.75H11.6233C11.4002 3.75 11.25 3.60121 11.25 3.37665V1.87362C11.25 1.65044 11.4002 1.50028 11.6233 1.50028H13.125C13.3482 1.50028 13.4983 1.64906 13.4983 1.87362V3.37665Z" fill="black"/>
</svg>
