<svg width="231" height="59" viewBox="0 0 231 59" fill="none" xmlns="http://www.w3.org/2000/svg">
<path d="M1.25483 39.2793V0.293686H18.7092C20.4929 0.293686 22.0217 0.675921 23.5505 1.31294C25.0794 1.94996 26.3534 2.96916 27.3727 3.9884C28.3919 5.13503 29.2837 6.40907 29.9207 7.81052C30.5578 9.21196 30.8126 10.7408 30.8126 12.1423C30.8126 13.6711 30.5578 15.2 29.9207 16.6014C29.2837 18.0029 28.5193 19.2769 27.5001 20.4235C26.4808 21.5702 25.2068 22.462 23.8054 23.099C22.4039 23.736 20.7477 24.1183 18.964 24.1183H3.2933V39.1519H1.25483V39.2793ZM3.2933 22.462H18.964C20.4928 22.462 21.8943 22.2072 23.0409 21.5702C24.1876 20.9332 25.2068 20.1687 26.0986 19.2769C26.9904 18.2576 27.6275 17.2384 28.0097 15.9644C28.5193 14.6904 28.6467 13.5437 28.6467 12.1423C28.6467 10.8682 28.3919 9.5942 27.8823 8.32016C27.3727 7.04612 26.6082 6.02689 25.7164 5.13506C24.8246 4.24323 23.678 3.47879 22.5313 2.84177C21.2573 2.33215 19.9832 1.94996 18.5818 1.94996H3.2933V22.462Z" fill="#000204" stroke="#000204" stroke-width="0.5669" stroke-miterlimit="10"/>
<path d="M51.8343 0.293686H53.6179L71.8367 39.2793H69.6708L63.4281 25.7745H42.1516L35.9088 39.2793H33.6155L51.8343 0.293686ZM62.791 24.2457L52.8535 2.84177L42.7886 24.2457H62.791Z" fill="#000204" stroke="#000204" stroke-width="0.5669" stroke-miterlimit="10"/>
<path d="M78.7165 39.2793V0.293686H96.1708C97.9545 0.293686 99.4834 0.675921 101.012 1.31294C102.541 1.94996 103.815 2.96916 104.834 3.9884C105.854 5.13503 106.745 6.40907 107.382 7.81052C108.019 9.21196 108.274 10.7408 108.274 12.1423C108.274 13.6711 108.019 15.2 107.382 16.6014C106.745 18.0029 105.981 19.2769 104.962 20.4235C103.942 21.5702 102.668 22.462 101.267 23.099C99.8655 23.736 98.2093 24.1183 96.4257 24.1183H80.7549V39.1519H78.7165V39.2793ZM80.7549 22.462H96.4257C97.9545 22.462 99.3559 22.2072 100.503 21.5702C101.649 20.9332 102.668 20.1687 103.56 19.2769C104.452 18.2576 105.089 17.2384 105.471 15.9644C105.981 14.6904 106.108 13.5437 106.108 12.1423C106.108 10.8682 105.854 9.5942 105.344 8.32016C104.834 7.04612 104.07 6.02689 103.178 5.13506C102.286 4.24323 101.14 3.47879 99.9929 2.84177C98.8463 2.20475 97.4449 1.94996 96.0434 1.94996H80.7549V22.462Z" fill="#000204" stroke="#000204" stroke-width="0.5669" stroke-miterlimit="10"/>
<path d="M129.296 0.293686H131.08L149.298 39.2793H147.132L140.89 25.7745H119.613L113.37 39.2793H110.95L129.296 0.293686ZM140.253 24.2457L130.315 2.84177L120.25 24.2457H140.253Z" fill="#000204" stroke="#000204" stroke-width="0.5669" stroke-miterlimit="10"/>
<path d="M154.012 0.293686L169.683 22.462L185.481 0.293686H187.774L170.83 24.373V39.2793H168.791V24.2457L151.719 0.293686H154.012Z" fill="#000204" stroke="#000204" stroke-width="0.5669" stroke-miterlimit="10"/>
<path d="M208.286 0.293686H210.07L228.289 39.2793H226.123L219.88 25.7745H198.604L192.361 39.2793H189.94L208.286 0.293686ZM219.116 24.2457L209.178 2.84177L199.113 24.2457H219.116Z" fill="#000204" stroke="#000204" stroke-width="0.5669" stroke-miterlimit="10"/>
<path d="M5.71394 47.8154H6.98799L8.38944 51.3827L9.79089 47.8154H11.0649L9.28126 52.2745L11.0649 56.6063L14.6322 47.688H16.0337L11.7019 58.1351H10.5553L8.51685 53.2937L6.47838 58.1351H5.33175L1 47.688H2.40145L5.96877 56.6063L7.75242 52.2745L5.71394 47.8154Z" fill="black"/>
<path d="M38.9664 56.9885V58.1351H31.9592V47.688H38.839V48.8346H33.2332V52.1471H38.0746V53.2938H33.2332V56.861H38.9664V56.9885Z" fill="black"/>
<path d="M63.428 55.4596C63.428 55.8418 63.3006 56.2241 63.1732 56.6063C63.0458 56.9885 62.791 57.2433 62.5362 57.4981C62.2814 57.7529 61.8991 57.8803 61.5169 58.0077C61.1347 58.1351 60.7525 58.1351 60.3703 58.1351H55.4015V47.688H60.6251C61.0073 47.688 61.2621 47.8154 61.6443 47.9428C61.8992 48.0702 62.1539 48.325 62.4088 48.5798C62.6636 48.8346 62.791 49.0894 62.9184 49.4716C63.0458 49.8538 63.0458 50.1086 63.0458 50.4908C63.0458 51.0005 62.9184 51.5101 62.6636 51.8923C62.4088 52.2745 62.0265 52.6567 61.5169 52.9116C62.154 53.039 62.5362 53.4212 62.9184 53.9308C63.1732 54.313 63.428 54.8226 63.428 55.4596ZM56.6756 48.8346V52.2745H59.9881C60.2429 52.2745 60.4977 52.2745 60.6251 52.1471C60.8799 52.0197 61.0073 51.8923 61.1347 51.7649C61.2621 51.6375 61.3895 51.3827 61.5169 51.2553C61.6443 51.1279 61.6443 50.8731 61.6443 50.6183C61.6443 50.3634 61.6443 50.1086 61.5169 49.9812C61.3895 49.7264 61.3895 49.599 61.2621 49.4716C61.1347 49.3442 61.0073 49.2168 60.7525 49.0894C60.6251 48.962 60.3703 48.962 60.1155 48.962H56.6756V48.8346ZM62.0266 55.2048C62.0266 54.95 62.0266 54.6952 61.8991 54.5678C61.7717 54.313 61.6443 54.1856 61.5169 53.9308C61.3895 53.8034 61.2621 53.676 61.0073 53.5486C60.7525 53.4212 60.6251 53.4212 60.3703 53.4212H56.6756V56.9885H60.2429C60.4977 56.9885 60.7525 56.9885 60.8799 56.861C61.1347 56.7336 61.2621 56.6063 61.3895 56.4789C61.5169 56.3514 61.6443 56.0966 61.7717 55.9692C62.0265 55.7144 62.0266 55.4596 62.0266 55.2048Z" fill="black"/>
<path d="M101.394 47.688H102.541L106.745 58.1351H105.344L104.07 55.0774H99.7382L98.4641 58.1351H97.0627L101.394 47.688ZM103.815 54.0582L101.904 49.2168L99.993 54.0582H103.815Z" fill="black"/>
<path d="M130.06 56.7337C129.168 57.7529 128.149 58.2625 126.875 58.2625C126.238 58.2625 125.601 58.1351 124.964 57.7529C124.327 57.4981 123.817 57.1159 123.435 56.6063C123.053 56.0966 122.671 55.587 122.416 54.95C122.161 54.313 122.034 53.6759 122.034 53.0389C122.034 52.2745 122.161 51.6375 122.416 51.0005C122.671 50.3635 123.053 49.8538 123.435 49.3442C123.817 48.8346 124.327 48.4524 124.964 48.1976C125.601 47.9428 126.238 47.8154 126.875 47.8154C127.894 47.8154 128.659 48.0702 129.296 48.4524C129.933 48.8346 130.442 49.4716 130.825 50.1086L129.805 50.8731C129.551 50.2361 129.041 49.8538 128.531 49.4716C128.022 49.2168 127.385 49.0894 126.748 49.0894C126.238 49.0894 125.728 49.2168 125.346 49.4716C124.964 49.7264 124.582 49.9813 124.2 50.3635C123.817 50.7457 123.69 51.1279 123.435 51.6375C123.308 52.1471 123.18 52.6567 123.18 53.1663C123.18 53.676 123.308 54.1856 123.435 54.6952C123.563 55.2048 123.817 55.587 124.2 55.9692C124.582 56.3515 124.964 56.6062 125.346 56.861C125.728 57.1159 126.238 57.2433 126.748 57.2433C127.894 57.2433 128.914 56.7336 129.805 55.587V53.9308H127.512V52.9116H130.825V58.1351H130.06V56.7337Z" fill="black"/>
<path d="M154.904 56.9885V58.1351H147.897V47.688H154.777V48.8346H149.171V52.1471H154.012V53.2938H149.171V56.861H154.904V56.9885Z" fill="black"/>
<path d="M172.613 50.2361V58.1351H171.339V47.688H172.358L178.856 55.8418V47.8154H180.13V58.1351H178.983L172.613 50.2361Z" fill="black"/>
<path d="M196.565 52.9116C196.565 52.2745 196.693 51.6375 196.947 51.0005C197.202 50.3635 197.457 49.8538 197.967 49.3442C198.476 48.8346 198.858 48.4524 199.495 48.1976C200.132 47.9428 200.77 47.688 201.534 47.688C202.426 47.688 203.318 47.9428 203.955 48.325C204.592 48.7072 205.101 49.3442 205.483 49.9812L204.464 50.6183C204.337 50.236 204.082 49.9813 203.955 49.7265C203.7 49.4716 203.445 49.3442 203.19 49.2168C202.935 49.0894 202.681 48.962 202.426 48.962C202.171 48.962 201.916 48.8346 201.661 48.8346C201.024 48.8346 200.515 48.962 200.132 49.2168C199.75 49.4716 199.368 49.7264 198.986 50.1086C198.604 50.4909 198.476 50.8731 198.349 51.3827C198.221 51.8923 198.094 52.4019 198.094 52.7841C198.094 53.2938 198.221 53.8034 198.349 54.313C198.476 54.8226 198.731 55.2048 199.113 55.587C199.495 55.9692 199.878 56.224 200.26 56.4789C200.642 56.7337 201.152 56.861 201.661 56.861C201.916 56.861 202.171 56.8611 202.553 56.7337C202.935 56.6063 203.063 56.6062 203.318 56.3514C203.572 56.224 203.827 55.9692 204.082 55.8418C204.337 55.7144 204.464 55.3322 204.592 55.0774L205.738 55.7144C205.611 56.0966 205.356 56.4789 205.101 56.7337C204.846 56.9885 204.464 57.2433 204.082 57.4981C203.7 57.7529 203.318 57.8803 202.935 58.0077C202.553 58.1351 202.044 58.1351 201.661 58.1351C200.897 58.1351 200.26 58.0077 199.75 57.6255C199.241 57.2433 198.604 56.8611 198.221 56.3514C197.839 55.8418 197.457 55.3322 197.202 54.6952C196.693 54.1856 196.565 53.5486 196.565 52.9116Z" fill="black"/>
<path d="M222.301 47.688L225.486 53.1663L228.671 47.688H230.072L226.123 54.313V58.1351H224.849V54.313L220.899 47.688H222.301Z" fill="black"/>
</svg>
