<svg xmlns="http://www.w3.org/2000/svg" viewBox="0 0 150 34.14"><defs><style>.cls-1{stroke:#000;stroke-miterlimit:10;stroke-width:0.85px;}.cls-2{fill:#87bc00;}.cls-3{fill:#cdd800;}.cls-4{fill:#a9ce00;}.cls-5{fill:#69a400;}.cls-6{fill:#b75f00;}.cls-7{fill:#8eb212;}.cls-8{fill:#d65300;}.cls-9{fill:#ff6900;}.cls-10{fill:#ff7d00;}.cls-11{fill:#e8df43;}.cls-12{fill:#d7e90b;}.cls-13{fill:#ffee5e;}.cls-14{fill:#ffae54;}.cls-15{fill:#bcda00;}.cls-16{fill:#ccd100;}.cls-17{fill:#afce00;}.cls-18{fill:#bd8a00;}</style></defs><title>logo2</title><g id="Слой_2" data-name="Слой 2"><g id="Слой_1-2" data-name="Слой 1"><path class="cls-1" d="M37.93,4.58h7.7a6.34,6.34,0,1,1,0,12.67H38.44V25h-.51V4.58Zm7.7,12.23A5.89,5.89,0,1,0,45.63,5H38.44V16.81Z"/><path class="cls-1" d="M69.23,18.15H58l-3,6.86H54.4L63.34,4.29h.54L72.82,25h-.54Zm-11-.44H69L63.6,4.9Z"/><path class="cls-1" d="M75.75,4.58h7.7a6.34,6.34,0,1,1,0,12.67H76.25V25h-.51V4.58Zm7.7,12.23A5.89,5.89,0,1,0,83.44,5H76.25V16.81Z"/><path class="cls-1" d="M107,18.15H95.78l-3,6.86h-.54l8.94-20.72h.54L110.64,25h-.54Zm-11-.44h10.85L101.41,4.9Z"/><path class="cls-1" d="M112.8,4.61l7.83,11.5,7.82-11.5h.6l-8.18,12V25h-.51V16.57l-8.18-12Z"/><path class="cls-1" d="M145.43,18.15H134.17l-3,6.86h-.54l8.94-20.72h.54L149,25h-.54Zm-11-.44h10.85L139.8,4.9Z"/><path d="M40.9,30.59l-1,3.51a3.33,3.33,0,0,1-.42,0,3.15,3.15,0,0,1-.41,0l-1.28-4a1.89,1.89,0,0,1,.3,0,2.08,2.08,0,0,1,.31,0l1.1,3.55,1.06-3.55a2.22,2.22,0,0,1,.37,0,2.38,2.38,0,0,1,.37,0l1.07,3.55,1.09-3.55a1.92,1.92,0,0,1,.3,0,1.79,1.79,0,0,1,.3,0l-1.26,4a3.09,3.09,0,0,1-.83,0Z"/><path d="M53.32,33.77h2.33a.42.42,0,0,1,0,.17.41.41,0,0,1,0,.17H54.12c-.85,0-1.42,0-1.42,0v-4s.56,0,1.42,0h1.49a.41.41,0,0,1,0,.17.39.39,0,0,1,0,.17H53.32v1.45h2.06a.37.37,0,0,1,0,.17.42.42,0,0,1,0,.17H53.32Z"/><path d="M64.42,30.1s.66-.05,1.59-.05c1.13,0,1.57.35,1.57,1v.21c0,.4-.23.68-.75.8.6.12.85.42.85.83v.28c0,.63-.46,1-1.66,1-.93,0-1.59-.05-1.59-.05ZM65,31.87h1c.72,0,1-.21,1-.64V31c0-.42-.25-.63-1-.63H65Zm0,1.93h1c.78,0,1.06-.21,1.06-.66v-.28c0-.44-.28-.66-1.06-.66H65Z"/><path d="M87.25,30.09a3.13,3.13,0,0,1,.42,0,3.09,3.09,0,0,1,.41,0l1.54,4a1.79,1.79,0,0,1-.29,0,2.12,2.12,0,0,1-.31,0L88.61,33h-1.9l-.41,1.06a2.09,2.09,0,0,1-.3,0,1.83,1.83,0,0,1-.3,0Zm-.43,2.6h1.68l-.84-2.2Z"/><path d="M101.47,33.88a5,5,0,0,1-1.64.25c-1.21,0-1.69-.35-1.69-1V31c0-.62.46-1,1.69-1s1.64.35,1.64,1v.08a1.32,1.32,0,0,1-.56,0V31c0-.43-.26-.63-1.09-.63s-1.08.2-1.08.63v2.16c0,.43.28.63,1.08.63a3.14,3.14,0,0,0,1.06-.16V32.32h-1a.4.4,0,0,1,0-.17.36.36,0,0,1,0-.17h.32c.75,0,1.24,0,1.24,0Z"/><path d="M111,33.77h2.33a.41.41,0,0,1,0,.17.4.4,0,0,1,0,.17h-1.52c-.85,0-1.42,0-1.42,0v-4s.56,0,1.42,0h1.49a.41.41,0,0,1,0,.17.39.39,0,0,1,0,.17H111v1.45h2.06a.37.37,0,0,1,0,.17.42.42,0,0,1,0,.17H111Z"/><path d="M122.11,30.09a1.37,1.37,0,0,1,.27,0,1.34,1.34,0,0,1,.26,0l2.36,3.1v-3.1a1.46,1.46,0,0,1,.58,0v4a1.22,1.22,0,0,1-.52,0L122.7,31v3.1a1.7,1.7,0,0,1-.29,0,1.8,1.8,0,0,1-.29,0Z"/><path d="M134.49,31c0-.62.45-1,1.68-1s1.63.35,1.63,1v.08a1.58,1.58,0,0,1-.28,0,1.43,1.43,0,0,1-.27,0V31c0-.43-.25-.63-1.07-.63s-1.06.2-1.06.63v2.16c0,.43.27.63,1.13.63a3.61,3.61,0,0,0,1.46-.25.33.33,0,0,1,0,.17.4.4,0,0,1,0,.18,3.58,3.58,0,0,1-1.46.24c-1.27,0-1.74-.35-1.74-1Z"/><path d="M148.47,32.43v1.66a2,2,0,0,1-.3,0,1.74,1.74,0,0,1-.3,0V32.44l-1.54-2.35a1.93,1.93,0,0,1,.66,0L148.17,32l1.17-1.87a2.45,2.45,0,0,1,.34,0,2.27,2.27,0,0,1,.32,0Z"/><polygon class="cls-2" points="21.07 22.91 23.12 30.11 25.88 24.27 26.3 18.86 21.07 22.91"/><polygon class="cls-3" points="24.34 2.73 21.15 9.71 18.69 1.12 24.34 2.73"/><polygon class="cls-4" points="26.3 18.86 25.57 17.55 21.15 9.62 21.07 22.91 26.3 18.86"/><polygon class="cls-5" points="23.12 30.11 21.07 22.85 17.38 34.09 23.12 30.11"/><polygon class="cls-2" points="26.3 18.86 24.32 9.46 24.34 2.73 21.16 9.68 26.3 18.86"/><polygon class="cls-6" points="8.73 34.11 11.63 24.56 17.38 34.09 8.73 34.11"/><polygon class="cls-7" points="11.63 24.56 17.38 34.09 21.07 22.91 11.63 24.56"/><polygon class="cls-8" points="2.52 29.92 11.63 24.56 8.73 34.11 2.52 29.92"/><polygon class="cls-9" points="5.72 18.57 11.63 24.56 2.52 29.92 5.72 18.57"/><polygon class="cls-10" points="0 23.58 5.72 18.57 2.52 29.92 0 23.58"/><polygon class="cls-11" points="15.14 12.96 11.63 24.56 5.74 18.64 15.14 12.96"/><polygon class="cls-4" points="21.07 22.91 15.14 12.96 11.63 24.56 21.07 22.91"/><polygon class="cls-2" points="21.16 9.68 21.07 22.91 15.03 13.03 21.16 9.68"/><polygon class="cls-12" points="12.78 7.31 18.71 1.14 15.1 13.1 12.78 7.31"/><polygon class="cls-13" points="5.74 18.64 12.78 7.28 15.09 13.01 5.74 18.64"/><polygon class="cls-14" points="3.9 12.53 5.74 18.64 0 23.58 1.74 17.44 3.9 12.53"/><polygon class="cls-15" points="12.78 7.31 3.9 12.53 5.74 18.64 12.78 7.31"/><polygon class="cls-4" points="3.9 12.53 11.02 5.71 14.67 0 12.78 7.31 3.9 12.53"/><polygon class="cls-16" points="14.67 0 18.71 1.14 12.78 7.31 14.67 0"/><polygon class="cls-17" points="15.07 13.04 18.71 1.15 21.16 9.68 15.07 13.04"/><polyline class="cls-18" points="18.4 0.06 20.62 0.65 20.97 1.78 17.22 0.73 18.4 0.06"/></g></g></svg>