<svg width="40" height="40" viewBox="0 0 40 40" fill="none" xmlns="http://www.w3.org/2000/svg">
<circle cx="20" cy="20" r="19.5" stroke="black"/>
<circle cx="20" cy="20" r="17" fill="#161616"/>
<path d="M15.1495 24.8967C15.8342 25.5495 16.6523 26.0809 17.6062 26.445C18.5589 26.8068 19.6211 27 20.7691 27C22.0517 27 23.2366 26.8068 24.3 26.4085C25.2658 26.0573 24.4334 24.2804 23.726 24.5703C22.9448 24.8955 21.9909 25.0664 20.9049 25.0664C20.0499 25.0664 19.2675 24.9332 18.5839 24.6799C17.9004 24.4242 17.3014 24.0636 16.8131 23.5911C16.3249 23.121 15.9331 22.5412 15.6651 21.8755C15.3841 21.1991 15.2483 20.425 15.2483 19.5789C15.2483 18.78 15.3829 18.02 15.652 17.3425C15.9188 16.6661 16.2868 16.0617 16.7738 15.5774C17.2502 15.0825 17.8372 14.683 18.5089 14.4061C19.1793 14.128 19.9379 13.9831 20.7679 13.9831C21.5372 13.9831 22.2458 14.0915 22.8793 14.2859C23.5033 14.478 24.0416 14.7808 24.4929 15.1803C24.9443 15.5786 25.2991 16.0628 25.5564 16.6414C25.8124 17.2223 25.9339 17.8998 25.9339 18.6728C25.9339 19.1206 25.885 19.5436 25.7874 19.9419C25.6897 20.3166 25.5671 20.6548 25.3956 20.9211C25.2372 21.1744 25.055 21.3806 24.8347 21.5244C24.5787 21.6952 24.2 21.7907 23.907 21.6952C23.5391 21.5738 23.6141 21.0648 23.6367 20.7632C23.6736 20.3531 23.7832 19.9654 23.8689 19.5672C24.0035 18.9156 24.15 18.2734 24.2857 17.6335C24.3584 17.2836 24.4441 16.9207 24.5156 16.5695C24.6132 16.1229 24.2726 15.687 23.7951 15.687H23.258C22.9293 15.687 22.6376 15.9049 22.5507 16.2196C22.5137 16.3645 22.4756 16.4859 22.4756 16.4859C22.2077 15.6634 21.2169 15.4336 20.4357 15.4466C19.4104 15.4584 18.4708 15.978 17.786 16.7156C17.7277 16.7875 17.6539 16.8594 17.5943 16.9324C17.2394 17.3555 16.9703 17.8504 16.7869 18.37C16.5916 18.9262 16.494 19.4953 16.494 20.0738C16.494 20.5699 16.5678 21.0412 16.7012 21.4654C16.8477 21.9002 17.0549 22.2738 17.324 22.5884C17.5943 22.9042 17.9361 23.1563 18.3386 23.3378C18.7435 23.5192 19.1924 23.6159 19.6831 23.6159C20.0499 23.6159 20.3904 23.5546 20.6965 23.4462C20.9894 23.3366 21.2586 23.2046 21.4908 23.0479C21.6742 22.9277 21.8445 22.7828 21.979 22.6496C22.0648 22.8064 22.1624 22.9395 22.297 23.0727C22.64 23.4344 23.1639 23.6159 23.8606 23.6159C24.4096 23.6159 24.9466 23.5075 25.4468 23.2895C25.9493 23.0715 26.4007 22.7333 26.7794 22.2985C27.1462 21.8625 27.451 21.3323 27.6701 20.7031C27.8916 20.0727 28 19.3492 28 18.5503C28 17.4627 27.7928 16.4965 27.3891 15.6858C26.9854 14.8763 26.4364 14.1881 25.7529 13.6438C25.0812 13.1005 24.2988 12.7023 23.4319 12.423C22.5757 12.132 21.6849 12 20.7691 12C19.7069 12 18.6935 12.1944 17.7527 12.5679C16.8119 12.9556 15.9819 13.4859 15.2852 14.1504C14.5755 14.8162 14.0146 15.6269 13.6109 16.533C13.2072 17.4391 13 18.4548 13 19.5189C13 20.5935 13.1834 21.6092 13.5621 22.5165C13.9277 23.4332 14.4659 24.2321 15.1495 24.8967ZM21.7587 19.8205C21.6742 20.1469 21.5503 20.4615 21.38 20.7514C21.2097 21.0295 21.0013 21.2592 20.7334 21.4407C20.4881 21.6104 20.1963 21.694 19.8295 21.694C19.5973 21.694 19.4128 21.6445 19.2794 21.5609C19.1317 21.4643 19.0102 21.3429 18.9245 21.1862C18.8268 21.0165 18.7661 20.8362 18.7292 20.6548C18.6935 20.4615 18.6685 20.28 18.6685 20.1233C18.6685 19.7852 18.7173 19.447 18.8149 19.0958C18.9126 18.7577 19.0472 18.4419 19.2294 18.1756C19.4128 17.9104 19.6211 17.6925 19.8784 17.524C20.1094 17.3661 20.3654 17.2942 20.6715 17.2942C20.9156 17.2942 21.1109 17.3295 21.2574 17.4144C21.4039 17.498 21.5265 17.6076 21.6111 17.7408C21.7099 17.8869 21.7718 18.0554 21.8207 18.2357C21.8695 18.4407 21.8933 18.6587 21.8933 18.8637C21.8802 19.1677 21.8433 19.4823 21.7587 19.8205Z" fill="white"/>
</svg>
