<svg width="15" height="15" viewBox="0 0 15 15" fill="none" xmlns="http://www.w3.org/2000/svg">
<path d="M2.14949 12.8967C2.83423 13.5495 3.65235 14.0809 4.60622 14.445C5.55891 14.8068 6.62115 15 7.76913 15C9.05168 15 10.2366 14.8068 11.3 14.4085C12.2658 14.0573 11.4334 12.2804 10.726 12.5703C9.94482 12.8955 8.99095 13.0664 7.90489 13.0664C7.04986 13.0664 6.26747 12.9332 5.58392 12.6799C4.90037 12.4242 4.30137 12.0636 3.81312 11.5911C3.32487 11.121 2.93307 10.5412 2.66513 9.87549C2.38409 9.19914 2.24833 8.42498 2.24833 7.57895C2.24833 6.78005 2.3829 6.02003 2.65203 5.3425C2.91878 4.66614 3.28676 4.06167 3.77382 3.57738C4.25016 3.08248 4.83725 2.68303 5.50889 2.40613C6.17934 2.12804 6.93792 1.98311 7.76794 1.98311C8.53723 1.98311 9.24579 2.09152 9.87933 2.28594C10.5033 2.478 11.0416 2.78083 11.4929 3.18028C11.9443 3.57855 12.2991 4.06284 12.5564 4.6414C12.8124 5.22231 12.9339 5.89984 12.9339 6.67282C12.9339 7.12058 12.885 7.5436 12.7874 7.94187C12.6897 8.31657 12.5671 8.65475 12.3956 8.92105C12.2372 9.17439 12.055 9.3806 11.8347 9.52435C11.5787 9.69521 11.2 9.79065 10.907 9.69521C10.5391 9.57384 10.6141 9.06481 10.6367 8.76316C10.6736 8.3531 10.7832 7.96544 10.8689 7.56716C11.0035 6.91555 11.15 6.27337 11.2857 5.63354C11.3584 5.28358 11.4441 4.92066 11.5156 4.56952C11.6132 4.12294 11.2726 3.68696 10.7951 3.68696H10.258C9.92934 3.68696 9.63758 3.90495 9.55065 4.21956C9.51373 4.36449 9.47563 4.48586 9.47563 4.48586C9.20768 3.66339 8.21689 3.43362 7.43569 3.44658C6.41037 3.45837 5.47078 3.978 4.78604 4.71563C4.72769 4.78751 4.65386 4.85939 4.59432 4.93244C4.23944 5.35546 3.97031 5.85035 3.78692 6.36999C3.59162 6.92616 3.49397 7.49529 3.49397 8.07384C3.49397 8.56991 3.5678 9.04124 3.70118 9.46544C3.84765 9.90024 4.05486 10.2738 4.32399 10.5884C4.59432 10.9042 4.93609 11.1563 5.3386 11.3378C5.74349 11.5192 6.19244 11.6159 6.68307 11.6159C7.04986 11.6159 7.39044 11.5546 7.69649 11.4462C7.98944 11.3366 8.25857 11.2046 8.49079 11.0479C8.67418 10.9277 8.84447 10.7828 8.97904 10.6496C9.06478 10.8064 9.16243 10.9395 9.297 11.0727C9.63996 11.4344 10.1639 11.6159 10.8606 11.6159C11.4096 11.6159 11.9466 11.5075 12.4468 11.2895C12.9493 11.0715 13.4007 10.7333 13.7794 10.2985C14.1462 9.86253 14.451 9.33228 14.6701 8.70306C14.8916 8.07266 15 7.34917 15 6.55027C15 5.46269 14.7928 4.49647 14.3891 3.68578C13.9854 2.87628 13.4364 2.18814 12.7529 1.64375C12.0812 1.10055 11.2988 0.702278 10.4319 0.423017C9.57566 0.131972 8.6849 0 7.76913 0C6.70689 0 5.69347 0.194423 4.7527 0.56795C3.81192 0.955617 2.9819 1.48586 2.28525 2.15043C1.5755 2.81618 1.01461 3.62687 0.610908 4.53299C0.207209 5.43912 0 6.45483 0 7.51885C0 8.59348 0.183392 9.60919 0.562083 10.5165C0.927676 11.4332 1.46594 12.2321 2.14949 12.8967ZM8.75873 7.8205C8.67418 8.1469 8.55033 8.46151 8.38004 8.75137C8.20975 9.02946 8.00135 9.25923 7.73341 9.44069C7.48809 9.61037 7.19633 9.69403 6.82955 9.69403C6.59733 9.69403 6.41275 9.64454 6.27937 9.56088C6.13171 9.46426 6.01024 9.34289 5.9245 9.18617C5.82685 9.0165 5.76612 8.83621 5.7292 8.65475C5.69347 8.46151 5.66847 8.28005 5.66847 8.12333C5.66847 7.78515 5.71729 7.44698 5.81494 7.09584C5.91259 6.75766 6.04716 6.44187 6.22936 6.17557C6.41275 5.91045 6.62115 5.69246 6.87837 5.52396C7.1094 5.36606 7.36543 5.29419 7.67148 5.29419C7.91561 5.29419 8.11091 5.32954 8.25738 5.41438C8.40386 5.49804 8.52652 5.60762 8.61107 5.74077C8.70991 5.88688 8.77183 6.05538 8.82066 6.23566C8.86948 6.44069 8.8933 6.65868 8.8933 6.86371C8.8802 7.16771 8.84328 7.48233 8.75873 7.8205Z" fill="white"/>
</svg>
