<svg width="236" height="153" viewBox="0 0 236 153" fill="none" xmlns="http://www.w3.org/2000/svg">
<rect width="236" height="153" fill="white"/>
<g clip-path="url(#clip0)">
<path d="M65.2772 64.0417H72.2895L76.4771 69.5303L80.5773 64.0445H87.6319V84.383H80.6478V76.3897L76.4574 81.934L72.329 76.3618V84.3691H65.2744L65.2772 64.0417Z" fill="#2D486B"/>
<path d="M85.835 84.3691L94.182 64.0306H102.114L110.405 84.3691H101.812L101.07 81.9619H95.2543L94.4754 84.3691H85.835ZM96.7978 76.3619H99.4701L98.1636 71.6088L96.7978 76.3619Z" fill="#2D486B"/>
<path d="M118.842 84.3692L115.335 79.839V84.358H108.28V64.0196H118.349C120.558 63.978 122.694 64.8002 124.291 66.3069C125.069 67.0091 125.689 67.8633 126.114 68.8152C126.538 69.7671 126.758 70.7958 126.758 71.8359C126.758 72.8761 126.538 73.9048 126.114 74.8567C125.689 75.8086 125.069 76.6628 124.291 77.3649C123.908 77.727 123.491 78.0517 123.044 78.3345L127.491 84.3692H118.842ZM117.615 73.8963C117.87 73.8956 118.122 73.8419 118.355 73.7387C118.588 73.6355 118.796 73.4851 118.967 73.2972C119.338 72.9024 119.545 72.3833 119.545 71.8443C119.545 71.3053 119.338 70.7862 118.967 70.3914C118.797 70.2026 118.589 70.0514 118.356 69.9477C118.123 69.844 117.87 69.7901 117.615 69.7896H115.326V73.8963H117.615Z" fill="#2D486B"/>
<path d="M124.841 84.3691L133.188 64.0306H141.12L149.408 84.3691H140.824L140.082 81.9619H134.263L133.493 84.3691H124.841ZM135.804 76.3619H138.476L137.169 71.6088L135.804 76.3619Z" fill="#2D486B"/>
<path d="M147.596 64.0417H154.608L158.796 69.5303L162.896 64.0445H169.968V84.383H162.955V76.3897L158.768 81.934L154.637 76.3618V84.3691H147.582L147.596 64.0417Z" fill="#2D486B"/>
<path d="M168.153 84.3691L176.503 64.0306H184.435L192.723 84.3691H184.136L183.394 81.9619H177.573L176.799 84.3691H168.153ZM179.13 76.3619H181.805L180.496 71.6088L179.13 76.3619Z" fill="#2D486B"/>
<path d="M201.934 80.2902L198.991 84.3691H190.288L197.625 74.2778L190.288 64.0417H198.782L201.934 68.3518L205.052 64.0417H213.557L206.22 74.2667L213.557 84.3579H204.843L201.934 80.2902Z" fill="#2D486B"/>
<path d="M65.7912 90.4261C65.9133 90.4261 66.0321 90.387 66.1298 90.3147C66.2351 90.2401 66.3156 90.1363 66.3612 90.0165L65.2324 87.5592H65.9407L66.7167 89.4342L67.5068 87.5592H68.1728L67.044 90.0221C66.9351 90.2955 66.755 90.5358 66.522 90.7186C66.3225 90.8626 66.0806 90.938 65.8335 90.9332H65.6839L65.5682 90.9192V90.4261L65.667 90.44L65.7912 90.4261Z" fill="#2D486B"/>
<path d="M69.3414 87.5647H72.0785V90.908H71.4831V88.0718H69.9255V90.9191H69.3301L69.3414 87.5647Z" fill="#2D486B"/>
<path d="M74.5217 87.5647H75.1566L76.4659 90.908H75.8282L75.5093 90.0192H74.1577L73.8388 90.908H73.2236L74.5217 87.5647ZM74.3129 89.5846H75.3513L74.8405 88.1442L74.3129 89.5846Z" fill="#2D486B"/>
<path d="M77.6123 87.5647H78.2077V89.0915L79.7202 87.5647H80.4539L79.0966 88.9048L80.547 90.9191H79.8021L78.6931 89.3116L78.2077 89.788V90.9024H77.6123V87.5647Z" fill="#2D486B"/>
<path d="M83.14 87.484C83.3764 87.4803 83.6107 87.5288 83.8257 87.6261C84.0212 87.7166 84.1952 87.8466 84.3365 88.0077C84.4777 88.1722 84.5868 88.3612 84.6582 88.565C84.8049 89.0066 84.8049 89.4829 84.6582 89.9246C84.5868 90.1284 84.4777 90.3173 84.3365 90.4818C84.1958 90.6429 84.0216 90.7722 83.8257 90.8607C83.6096 90.9526 83.3767 91 83.1414 91C82.9061 91 82.6732 90.9526 82.4571 90.8607C82.2612 90.7722 82.087 90.6429 81.9463 90.4818C81.8051 90.3173 81.696 90.1284 81.6247 89.9246C81.478 89.4829 81.478 89.0066 81.6247 88.565C81.696 88.3612 81.8051 88.1722 81.9463 88.0077C82.0876 87.8466 82.2616 87.7166 82.4571 87.6261C82.6712 87.5291 82.9045 87.4806 83.14 87.484ZM83.14 87.9632C82.9771 87.9605 82.8162 87.9978 82.6716 88.0718C82.545 88.1393 82.4359 88.2346 82.3527 88.3504C82.2669 88.4759 82.2048 88.6155 82.1693 88.7628C82.1298 88.9157 82.1099 89.073 82.11 89.2308C82.1099 89.3896 82.1298 89.5478 82.1693 89.7017C82.2047 89.8481 82.2669 89.9868 82.3527 90.1112C82.4351 90.2277 82.5444 90.3232 82.6716 90.3898C82.8176 90.4613 82.9784 90.4985 83.1414 90.4985C83.3044 90.4985 83.4652 90.4613 83.6112 90.3898C83.7384 90.3232 83.8477 90.2277 83.9301 90.1112C84.0159 89.9868 84.0781 89.8481 84.1135 89.7017C84.153 89.5478 84.1729 89.3896 84.1728 89.2308C84.1729 89.073 84.153 88.9157 84.1135 88.7628C84.0781 88.6155 84.0159 88.4759 83.9301 88.3504C83.8469 88.2346 83.7378 88.1393 83.6112 88.0718C83.4658 87.9975 83.3038 87.9601 83.14 87.9632Z" fill="#2D486B"/>
<path d="M86.1338 87.5648H87.7846C88.0454 87.5522 88.3032 87.6246 88.5182 87.7709C88.6131 87.8451 88.6884 87.9408 88.7375 88.05C88.7867 88.1592 88.8083 88.2786 88.8004 88.3978C88.8043 88.5521 88.7599 88.7038 88.6734 88.8324C88.5829 88.9567 88.4587 89.0533 88.3151 89.111C88.5068 89.1447 88.6778 89.2506 88.792 89.4064C88.9048 89.5754 88.9611 89.7752 88.9528 89.9775C88.9529 90.1034 88.9289 90.2281 88.8823 90.3453C88.8327 90.4605 88.7551 90.5619 88.6565 90.6406C88.5414 90.7316 88.409 90.7989 88.2671 90.8384C88.0838 90.8908 87.8935 90.9153 87.7027 90.9108H86.1422L86.1338 87.5648ZM86.7292 88.9578H87.7027C87.833 88.9627 87.9606 88.9201 88.0611 88.838C88.1092 88.7945 88.1469 88.7408 88.1713 88.6811C88.1957 88.6213 88.2063 88.5568 88.2022 88.4925C88.209 88.4275 88.2011 88.3618 88.1792 88.3002C88.1572 88.2385 88.1217 88.1824 88.0752 88.1359C87.966 88.0618 87.835 88.0255 87.7027 88.0328H86.732L86.7292 88.9578ZM86.7292 90.4289H87.7817C87.8577 90.4341 87.9339 90.4245 88.006 90.4006C88.0782 90.3767 88.1448 90.3389 88.2022 90.2895C88.2534 90.2385 88.2932 90.1774 88.319 90.1102C88.3447 90.043 88.3559 89.9712 88.3517 89.8995C88.3562 89.8286 88.3451 89.7575 88.3193 89.6912C88.2935 89.6249 88.2536 89.5648 88.2022 89.515C88.0842 89.4196 87.934 89.3718 87.7817 89.3813H86.7292V90.4289Z" fill="#2D486B"/>
<path d="M90.3079 87.5647H90.9034V89.0915L92.4159 87.5647H93.1495L91.7922 88.9048L93.2455 90.9191H92.5005L91.3718 89.3171L90.8864 89.7936V90.908H90.291L90.3079 87.5647Z" fill="#2D486B"/>
<path d="M95.2988 87.5647H95.9309L97.2402 90.908H96.6025L96.2836 90.0192H94.9291L94.6103 90.908H93.9951L95.2988 87.5647ZM95.09 89.5846H96.1284L95.6177 88.1442L95.09 89.5846Z" fill="#2D486B"/>
<path d="M101.35 88.9356C101.543 88.9565 101.738 88.9237 101.914 88.8408C101.978 88.7935 102.029 88.7301 102.06 88.6571C102.091 88.5841 102.102 88.5043 102.092 88.4257C102.096 88.3627 102.086 88.2996 102.062 88.2408C102.039 88.1821 102.003 88.1291 101.956 88.0858C101.852 87.9999 101.719 87.9561 101.584 87.9632C101.497 87.9624 101.411 87.9804 101.333 88.0162C101.264 88.0486 101.205 88.0974 101.161 88.1583C101.115 88.2233 101.081 88.296 101.062 88.3728C101.042 88.4595 101.033 88.5485 101.036 88.6375H100.449C100.455 88.4796 100.486 88.3236 100.54 88.175C100.588 88.0404 100.664 87.9171 100.763 87.8128C100.861 87.7074 100.983 87.6255 101.118 87.5732C101.268 87.5119 101.43 87.4816 101.592 87.484C101.736 87.4831 101.878 87.5029 102.016 87.5425C102.142 87.5754 102.261 87.6321 102.365 87.7097C102.465 87.7834 102.546 87.8787 102.602 87.9883C102.661 88.1109 102.69 88.2455 102.687 88.3811C102.691 88.5394 102.648 88.6953 102.563 88.8297C102.474 88.9623 102.341 89.0607 102.188 89.1083C102.374 89.1382 102.54 89.2381 102.653 89.3869C102.771 89.5491 102.831 89.7448 102.825 89.9441C102.828 90.0932 102.796 90.2408 102.732 90.376C102.672 90.5021 102.585 90.6135 102.476 90.702C102.361 90.794 102.23 90.8631 102.089 90.9053C101.93 90.9546 101.764 90.979 101.598 90.9778C101.413 90.9822 101.23 90.953 101.056 90.8914C100.915 90.841 100.787 90.7601 100.681 90.6546C100.579 90.5495 100.503 90.4227 100.458 90.284C100.407 90.1273 100.38 89.9639 100.379 89.7993H100.966C100.949 89.9813 101.001 90.1632 101.113 90.3091C101.173 90.3752 101.249 90.4266 101.333 90.4594C101.417 90.4923 101.508 90.5057 101.598 90.4986C101.768 90.5108 101.936 90.459 102.069 90.3537C102.126 90.2965 102.17 90.2279 102.198 90.1524C102.226 90.0769 102.237 89.9963 102.23 89.9163C102.235 89.8097 102.217 89.7032 102.176 89.6042C102.142 89.53 102.085 89.4685 102.013 89.4287C101.925 89.3857 101.829 89.3619 101.731 89.3591C101.62 89.3591 101.493 89.3591 101.35 89.3591V88.9356Z" fill="#2D486B"/>
<path d="M106.327 87.5647H106.923V89.0915L108.435 87.5647H109.149L107.792 88.9048L109.245 90.9191H108.5L107.397 89.3116L106.911 89.788V90.9024H106.327V87.5647Z" fill="#2D486B"/>
<path d="M111.308 87.5647H111.94L113.25 90.908H112.612L112.293 90.0192H110.939L110.617 90.908H109.996L111.308 87.5647ZM111.099 89.5846H112.135L111.627 88.1442L111.099 89.5846Z" fill="#2D486B"/>
<path d="M114.396 87.5648H115.897C116.098 87.5586 116.299 87.5937 116.486 87.6679C116.623 87.7262 116.743 87.8149 116.839 87.927C116.919 88.0259 116.976 88.141 117.006 88.2641C117.035 88.3751 117.05 88.4893 117.051 88.604C117.05 88.7169 117.035 88.8292 117.006 88.9383C116.977 89.0617 116.92 89.177 116.839 89.2754C116.744 89.3874 116.623 89.4753 116.486 89.5318C116.299 89.6049 116.098 89.6391 115.897 89.6321H114.991V90.9192H114.396V87.5648ZM114.991 89.1529H115.863C115.932 89.1532 116 89.1438 116.066 89.125C116.136 89.1058 116.202 89.0747 116.261 89.0331C116.321 88.9882 116.369 88.9299 116.402 88.8631C116.442 88.7806 116.461 88.6898 116.458 88.5984C116.461 88.5033 116.445 88.4085 116.41 88.3198C116.382 88.2532 116.338 88.1947 116.28 88.1499C116.226 88.1069 116.162 88.0772 116.094 88.0635C116.021 88.0463 115.946 88.0378 115.871 88.0384H114.991V89.1529Z" fill="#2D486B"/>
<path d="M118.068 87.5647H120.82V88.0718H119.739V90.9191H119.146V88.0718H118.068V87.5647Z" fill="#2D486B"/>
<path d="M123.484 87.484C123.72 87.4803 123.954 87.5288 124.169 87.6261C124.365 87.7166 124.539 87.8466 124.68 88.0077C124.821 88.1722 124.931 88.3612 125.002 88.565C125.149 89.0066 125.149 89.4829 125.002 89.9246C124.931 90.1284 124.821 90.3173 124.68 90.4818C124.54 90.6429 124.365 90.7722 124.169 90.8607C123.953 90.9526 123.72 91 123.485 91C123.25 91 123.017 90.9526 122.801 90.8607C122.605 90.7722 122.431 90.6429 122.29 90.4818C122.149 90.3173 122.04 90.1284 121.968 89.9246C121.822 89.4829 121.822 89.0066 121.968 88.565C122.04 88.3612 122.149 88.1722 122.29 88.0077C122.431 87.8466 122.605 87.7166 122.801 87.6261C123.015 87.5291 123.248 87.4806 123.484 87.484ZM123.484 87.9632C123.321 87.9605 123.16 87.9978 123.015 88.0718C122.889 88.1393 122.78 88.2346 122.696 88.3504C122.611 88.4759 122.549 88.6155 122.513 88.7628C122.474 88.9157 122.454 89.073 122.454 89.2308C122.454 89.3896 122.474 89.5478 122.513 89.7017C122.548 89.8481 122.611 89.9868 122.696 90.1112C122.779 90.2277 122.888 90.3232 123.015 90.3898C123.161 90.4613 123.322 90.4985 123.485 90.4985C123.648 90.4985 123.809 90.4613 123.955 90.3898C124.082 90.3232 124.191 90.2277 124.274 90.1112C124.36 89.9868 124.422 89.8481 124.457 89.7017C124.497 89.5478 124.517 89.3896 124.517 89.2308C124.517 89.073 124.497 88.9157 124.457 88.7628C124.422 88.6155 124.36 88.4759 124.274 88.3504C124.191 88.2346 124.082 88.1393 123.955 88.0718C123.809 87.9975 123.648 87.9601 123.484 87.9632Z" fill="#2D486B"/>
<path d="M126.463 87.5647H127.058V88.8992H128.619V87.5647H129.214V90.908H128.619V89.3952H127.072V90.908H126.477L126.463 87.5647Z" fill="#2D486B"/>
<path d="M130.899 90.4261C131.021 90.4261 131.14 90.387 131.237 90.3147C131.343 90.2401 131.423 90.1363 131.469 90.0165L130.34 87.5592H131.048L131.824 89.4342L132.614 87.5592H133.28L132.151 90.0221C132.044 90.2957 131.865 90.5361 131.632 90.7186C131.433 90.8626 131.191 90.938 130.944 90.9332H130.794L130.678 90.9192V90.4261L130.777 90.44L130.899 90.4261Z" fill="#2D486B"/>
<path d="M136.287 87.5647H139.036V88.0718H137.958V90.9191H137.368V88.0718H136.293L136.287 87.5647Z" fill="#2D486B"/>
<path d="M141.163 87.5647H141.795L143.104 90.908H142.467L142.148 90.0192H140.793L140.472 90.9191H139.856L141.163 87.5647ZM140.954 89.5846H141.993L141.482 88.1442H141.468L140.954 89.5846Z" fill="#2D486B"/>
<path d="M146.397 87.5647H147.244L148.181 90.192L149.095 87.5647H149.925V90.908H149.36V88.3197L148.421 90.908H147.93L146.962 88.3309V90.9191H146.397V87.5647Z" fill="#2D486B"/>
<path d="M151.451 87.5647H152.041V90.908H151.445L151.451 87.5647Z" fill="#2D486B"/>
<path d="M153.598 87.5647H154.193V89.0915L155.706 87.5647H156.436L155.082 88.9048L156.532 90.9191H155.79L154.678 89.3116L154.193 89.788V90.9024H153.598V87.5647Z" fill="#2D486B"/>
<path d="M157.685 87.5648H159.186C159.387 87.5586 159.588 87.5937 159.776 87.6679C159.912 87.7262 160.033 87.8149 160.128 87.927C160.208 88.0265 160.266 88.1413 160.298 88.2641C160.324 88.3755 160.339 88.4895 160.34 88.604C160.339 88.7167 160.325 88.8288 160.298 88.9383C160.266 89.0613 160.208 89.1762 160.128 89.2754C160.033 89.3874 159.912 89.4753 159.776 89.5318C159.588 89.6049 159.387 89.6391 159.186 89.6321H158.28V90.9192H157.685V87.5648ZM158.28 89.1529H159.152C159.221 89.153 159.289 89.1436 159.355 89.125C159.425 89.1058 159.491 89.0747 159.55 89.0331C159.61 88.9889 159.659 88.9305 159.691 88.8631C159.731 88.7806 159.75 88.6898 159.747 88.5984C159.751 88.5033 159.734 88.4085 159.699 88.3198C159.671 88.2532 159.627 88.1947 159.57 88.1499C159.515 88.1069 159.451 88.0772 159.383 88.0635C159.31 88.0463 159.235 88.0378 159.16 88.0384H158.28V89.1529Z" fill="#2D486B"/>
<path d="M163.125 87.484C163.36 87.4803 163.594 87.5289 163.808 87.6261C164.004 87.7158 164.178 87.846 164.319 88.0077C164.461 88.1715 164.57 88.3606 164.64 88.565C164.791 89.006 164.791 89.4836 164.64 89.9246C164.57 90.1289 164.461 90.3181 164.319 90.4818C164.178 90.6435 164.004 90.7729 163.808 90.8607C163.592 90.9525 163.36 90.9999 163.125 90.9999C162.89 90.9999 162.658 90.9525 162.442 90.8607C162.241 90.7743 162.062 90.6449 161.917 90.4818C161.775 90.3181 161.667 90.1289 161.598 89.9246C161.448 89.4836 161.448 89.006 161.598 88.565C161.667 88.3607 161.775 88.1715 161.917 88.0077C162.059 87.8459 162.234 87.7158 162.431 87.6261C162.648 87.5269 162.886 87.4783 163.125 87.484ZM163.125 87.9632C162.962 87.9601 162.801 87.9975 162.656 88.0718C162.529 88.1384 162.418 88.2339 162.335 88.3504C162.25 88.4765 162.188 88.616 162.151 88.7628C162.112 88.9157 162.092 89.073 162.092 89.2308C162.092 89.3896 162.112 89.5478 162.151 89.7017C162.188 89.8476 162.25 89.9862 162.335 90.1112C162.418 90.2284 162.528 90.324 162.656 90.3899C162.802 90.4613 162.962 90.4984 163.125 90.4984C163.287 90.4984 163.448 90.4613 163.593 90.3899C163.721 90.3233 163.832 90.2279 163.915 90.1112C164 89.9862 164.062 89.8476 164.098 89.7017C164.138 89.5478 164.158 89.3896 164.158 89.2308C164.158 89.073 164.138 88.9157 164.098 88.7628C164.062 88.616 164 88.4765 163.915 88.3504C163.831 88.2345 163.721 88.1392 163.593 88.0718C163.449 87.9978 163.288 87.9605 163.125 87.9632Z" fill="#2D486B"/>
<path d="M166.116 87.5647H168.464V88.0718H166.714V90.9191H166.119L166.116 87.5647Z" fill="#2D486B"/>
<path d="M171.21 87.484C171.446 87.48 171.679 87.5286 171.893 87.6261C172.089 87.7159 172.263 87.846 172.404 88.0078C172.547 88.1708 172.657 88.3602 172.726 88.565C172.876 89.006 172.876 89.4836 172.726 89.9246C172.657 90.1294 172.547 90.3188 172.404 90.4818C172.264 90.6436 172.089 90.7729 171.893 90.8607C171.677 90.9526 171.445 90.9999 171.21 90.9999C170.975 90.9999 170.743 90.9526 170.527 90.8607C170.331 90.7736 170.156 90.6442 170.017 90.4818C169.873 90.3188 169.764 90.1294 169.695 89.9246C169.544 89.4836 169.544 89.006 169.695 88.565C169.764 88.3602 169.873 88.1708 170.017 88.0078C170.157 87.8454 170.331 87.7151 170.527 87.6261C170.741 87.5286 170.975 87.48 171.21 87.484ZM171.21 87.9632C171.047 87.9601 170.886 87.9975 170.742 88.0718C170.614 88.1385 170.504 88.2339 170.42 88.3505C170.335 88.4765 170.273 88.616 170.237 88.7628C170.197 88.9158 170.177 89.073 170.177 89.2309C170.177 89.3896 170.197 89.5478 170.237 89.7017C170.273 89.8477 170.335 89.9862 170.42 90.1113C170.503 90.2285 170.613 90.3241 170.742 90.3899C170.887 90.4613 171.048 90.4985 171.21 90.4985C171.373 90.4985 171.533 90.4613 171.679 90.3899C171.807 90.3241 171.918 90.2285 172 90.1113C172.085 89.9862 172.147 89.8477 172.184 89.7017C172.223 89.5478 172.243 89.3896 172.243 89.2309C172.243 89.073 172.223 88.9158 172.184 88.7628C172.147 88.616 172.085 88.4765 172 88.3505C171.917 88.2339 171.807 88.1385 171.679 88.0718C171.534 87.9978 171.373 87.9605 171.21 87.9632Z" fill="#2D486B"/>
<path d="M175.316 90.5347C175.121 90.5186 174.93 90.4706 174.752 90.3926C174.597 90.3261 174.456 90.2316 174.337 90.114C174.224 89.9967 174.137 89.8571 174.083 89.7044C174.028 89.5419 174 89.3715 174.001 89.2001C173.999 89.0282 174.025 88.8571 174.077 88.6931C174.128 88.5397 174.212 88.399 174.323 88.2807C174.439 88.1605 174.579 88.0656 174.735 88.0021C174.923 87.9239 175.123 87.8769 175.327 87.8628V87.4393H175.923V87.8628C176.127 87.8769 176.327 87.9239 176.515 88.0021C176.671 88.0662 176.812 88.161 176.93 88.2807C177.039 88.3999 177.122 88.5404 177.173 88.6931C177.284 89.0213 177.284 89.3762 177.173 89.7044C177.118 89.8571 177.032 89.9967 176.919 90.114C176.8 90.2328 176.659 90.3275 176.504 90.3926C176.325 90.4706 176.134 90.5186 175.94 90.5347V90.9192H175.344L175.316 90.5347ZM174.565 89.1918C174.564 89.2978 174.577 89.4036 174.602 89.5066C174.626 89.6011 174.67 89.6894 174.732 89.7657C174.794 89.8454 174.873 89.911 174.963 89.958C175.073 90.0154 175.193 90.0513 175.316 90.0638V88.3169C175.193 88.3308 175.073 88.3666 174.963 88.4228C174.874 88.4707 174.795 88.5361 174.732 88.6151C174.67 88.6923 174.626 88.7816 174.602 88.877C174.576 88.9799 174.564 89.0857 174.565 89.1918ZM176.668 89.1918C176.668 89.0847 176.655 88.978 176.628 88.8742C176.602 88.7786 176.558 88.6888 176.498 88.6095C176.436 88.53 176.357 88.4644 176.267 88.4173C176.155 88.3628 176.035 88.327 175.911 88.3114V90.0638C176.036 90.0509 176.156 90.015 176.267 89.958C176.358 89.9125 176.437 89.8467 176.498 89.7657C176.558 89.6881 176.602 89.6002 176.628 89.5066C176.655 89.4037 176.668 89.2979 176.668 89.1918Z" fill="#2D486B"/>
<path d="M178.566 87.5648H180.068C180.269 87.5586 180.47 87.5937 180.657 87.6679C180.794 87.7262 180.914 87.8149 181.01 87.927C181.09 88.0259 181.147 88.141 181.177 88.2641C181.206 88.3751 181.221 88.4893 181.222 88.604C181.221 88.7169 181.206 88.8292 181.177 88.9383C181.148 89.0617 181.091 89.177 181.01 89.2754C180.915 89.3874 180.794 89.4753 180.657 89.5318C180.47 89.6049 180.269 89.6391 180.068 89.6321H179.162V90.9192H178.566V87.5648ZM179.162 89.1529H180.034C180.102 89.153 180.171 89.1436 180.237 89.125C180.306 89.1067 180.371 89.0755 180.429 89.0331C180.49 88.9891 180.54 88.9307 180.573 88.8631C180.612 88.7803 180.63 88.6896 180.626 88.5984C180.63 88.5035 180.615 88.4087 180.581 88.3198C180.552 88.2537 180.508 88.1954 180.451 88.1499C180.397 88.1069 180.333 88.0772 180.265 88.0635C180.192 88.0463 180.117 88.0378 180.042 88.0384H179.162V89.1529Z" fill="#2D486B"/>
<path d="M184.018 87.484C184.253 87.48 184.487 87.5286 184.701 87.6261C184.898 87.7158 185.073 87.8459 185.214 88.0078C185.356 88.1722 185.465 88.3612 185.536 88.565C185.683 89.0066 185.683 89.483 185.536 89.9246C185.465 90.1284 185.356 90.3174 185.214 90.4818C185.073 90.6436 184.898 90.773 184.701 90.8607C184.486 90.956 184.253 91.0036 184.018 91C183.783 91.003 183.55 90.9555 183.335 90.8607C183.139 90.7722 182.965 90.643 182.824 90.4818C182.683 90.3174 182.574 90.1284 182.503 89.9246C182.356 89.483 182.356 89.0066 182.503 88.565C182.574 88.3612 182.683 88.1722 182.824 88.0078C182.967 87.8516 183.141 87.7264 183.335 87.64C183.548 87.5383 183.781 87.485 184.018 87.484ZM184.018 87.9632C183.855 87.9605 183.694 87.9978 183.549 88.0718C183.423 88.1393 183.314 88.2347 183.231 88.3505C183.145 88.4759 183.083 88.6156 183.047 88.7628C183.007 88.9157 182.986 89.0729 182.985 89.2309C182.986 89.3898 183.007 89.5479 183.047 89.7017C183.083 89.8481 183.145 89.9869 183.231 90.1113C183.313 90.2278 183.422 90.3233 183.549 90.3899C183.757 90.507 184.002 90.5433 184.235 90.4918C184.468 90.4402 184.674 90.3045 184.811 90.1113C184.895 89.9861 184.956 89.8475 184.991 89.7017C185.031 89.5478 185.051 89.3896 185.051 89.2309C185.051 89.073 185.031 88.9158 184.991 88.7628C184.956 88.6161 184.895 88.4766 184.811 88.3505C184.726 88.2351 184.616 88.1399 184.489 88.0718C184.344 87.9975 184.182 87.9602 184.018 87.9632Z" fill="#2D486B"/>
<path d="M187.012 87.5647H187.596V89.0915L189.109 87.5647H189.854L188.499 88.9048L189.95 90.9191H189.208L188.079 89.3171L187.596 89.7936V90.908H187.001L187.012 87.5647Z" fill="#2D486B"/>
<path d="M192.004 87.5647H192.639L193.945 90.908H193.308L192.989 90.0192H191.634L191.315 90.908H190.7L192.004 87.5647ZM191.795 89.5846H192.831L192.323 88.1442L191.795 89.5846Z" fill="#2D486B"/>
<path d="M195.094 87.5648H196.592C196.794 87.5586 196.995 87.5937 197.182 87.6679C197.319 87.7255 197.439 87.8143 197.535 87.927C197.614 88.0265 197.672 88.1413 197.704 88.2641C197.732 88.3754 197.747 88.4894 197.749 88.604C197.747 88.7168 197.732 88.8289 197.704 88.9383C197.671 89.0711 197.607 89.1943 197.516 89.2975C197.425 89.4008 197.311 89.4811 197.182 89.5318C196.994 89.6049 196.794 89.6391 196.592 89.6321H195.689V90.9192H195.094V87.5648ZM195.689 89.1529H196.558C196.628 89.153 196.697 89.1436 196.764 89.125C196.833 89.1052 196.898 89.0742 196.956 89.0331C197.017 88.9883 197.066 88.9301 197.1 88.8631C197.139 88.7803 197.157 88.6896 197.154 88.5984C197.157 88.5033 197.141 88.4085 197.106 88.3198C197.079 88.2526 197.034 88.1938 196.976 88.1499C196.923 88.1069 196.86 88.0773 196.793 88.0635C196.719 88.0463 196.643 88.0379 196.567 88.0384H195.689V89.1529Z" fill="#2D486B"/>
<path d="M198.766 87.5647H201.517V88.0718H200.436V90.9191H199.844V88.0718H198.766V87.5647Z" fill="#2D486B"/>
<path d="M204.183 87.484C204.418 87.4803 204.652 87.5289 204.866 87.6261C205.062 87.7159 205.236 87.846 205.377 88.0078C205.519 88.1715 205.628 88.3607 205.698 88.565C205.849 89.006 205.849 89.4836 205.698 89.9246C205.628 90.1289 205.519 90.3181 205.377 90.4818C205.236 90.6436 205.062 90.7729 204.866 90.8607C204.65 90.9526 204.418 90.9999 204.183 90.9999C203.948 90.9999 203.716 90.9526 203.5 90.8607C203.303 90.773 203.128 90.6436 202.986 90.4818C202.845 90.3181 202.737 90.1289 202.668 89.9246C202.517 89.4836 202.517 89.006 202.668 88.565C202.737 88.3607 202.845 88.1715 202.986 88.0078C203.128 87.8459 203.303 87.7158 203.5 87.6261C203.714 87.5286 203.947 87.48 204.183 87.484ZM204.183 87.9632C204.02 87.9601 203.859 87.9975 203.714 88.0718C203.587 88.1385 203.476 88.2339 203.393 88.3505C203.308 88.4765 203.246 88.616 203.209 88.7628C203.17 88.9158 203.15 89.073 203.15 89.2309C203.15 89.3896 203.17 89.5478 203.209 89.7017C203.246 89.8477 203.308 89.9862 203.393 90.1113C203.476 90.2285 203.586 90.3241 203.714 90.3899C203.86 90.4613 204.02 90.4985 204.183 90.4985C204.345 90.4985 204.506 90.4613 204.651 90.3899C204.779 90.3234 204.89 90.2279 204.973 90.1113C205.058 89.9862 205.12 89.8477 205.156 89.7017C205.196 89.5478 205.216 89.3896 205.216 89.2309C205.216 89.073 205.196 88.9158 205.156 88.7628C205.12 88.616 205.058 88.4765 204.973 88.3505C204.889 88.2345 204.779 88.1392 204.651 88.0718C204.507 87.9978 204.346 87.9605 204.183 87.9632Z" fill="#2D486B"/>
<path d="M207.16 87.5647H207.755V88.8992H209.302V87.5647H209.889V90.908H209.293V89.3952H207.747V90.908H207.151L207.16 87.5647Z" fill="#2D486B"/>
<path d="M211.596 90.4261C211.718 90.4261 211.837 90.387 211.935 90.3147C212.04 90.2394 212.121 90.136 212.169 90.0165L211.04 87.5592H211.748L212.524 89.4342L213.312 87.5592H213.98L212.852 90.0221C212.743 90.2955 212.563 90.5358 212.33 90.7186C212.13 90.8626 211.888 90.938 211.641 90.9332H211.492L211.376 90.9192V90.4261L211.475 90.44L211.596 90.4261Z" fill="#2D486B"/>
<path d="M58.6547 64H29V90.9833H58.6547V64Z" fill="#2E7CD3"/>
<path d="M33.2236 67.8588H39.8691L43.8394 73.0576L47.7251 67.8588H54.427V87.1246H47.7815V79.5603L43.8112 84.8149L39.8973 79.5213V87.1106H33.2236V67.8588Z" fill="white"/>
</g>
<defs>
<clipPath id="clip0">
<rect width="185" height="27" fill="white" transform="translate(29 64)"/>
</clipPath>
</defs>
</svg>
