<svg width="45" height="45" viewBox="0 0 45 45" fill="none" xmlns="http://www.w3.org/2000/svg">
<circle cx="22.5" cy="22.5" r="22" stroke="black"/>
<circle cx="22.5" cy="22.5" r="18.5" fill="#161616"/>
<g clip-path="url(#clip0)">
<path d="M30.2509 16.9971C29.2798 16.9971 28.4918 17.782 28.4918 18.7493C28.4918 18.992 28.5413 19.2237 28.6304 19.4332L24.9453 23.1039C24.735 23.0152 24.5037 22.9659 24.2588 22.9659C24.0139 22.9659 23.7825 23.0152 23.5722 23.1039L21.3716 20.9118C21.4607 20.7023 21.5089 20.4707 21.5089 20.2279C21.5089 19.2594 20.7209 18.4757 19.7499 18.4757C18.7788 18.4757 17.9921 19.2594 17.9921 20.2279C17.9921 20.4707 18.0428 20.7023 18.1319 20.9118L14.4468 24.5826C14.2353 24.4939 14.0027 24.4434 13.759 24.4434C12.788 24.4434 12 25.2283 12 26.1956C12 27.1641 12.788 27.9478 13.759 27.9478C14.7301 27.9478 15.5181 27.1629 15.5181 26.1956C15.5181 25.9528 15.4698 25.7224 15.3808 25.5117L19.0658 21.8409C19.2749 21.9296 19.5062 21.9802 19.7511 21.9802C19.996 21.9802 20.2261 21.9296 20.4377 21.8409L22.6383 24.033C22.5492 24.2425 22.4998 24.4742 22.4998 24.7169C22.4998 25.6842 23.2877 26.4691 24.2588 26.4691C25.2298 26.4691 26.0178 25.6842 26.0178 24.7169C26.0178 24.4742 25.9696 24.2425 25.8793 24.033L29.5643 20.3623C29.7746 20.451 30.0059 20.5015 30.2509 20.5015C31.2219 20.5015 32.0099 19.7166 32.0099 18.7493C32.0099 17.782 31.2219 16.9971 30.2509 16.9971Z" fill="white"/>
</g>
<defs>
<clipPath id="clip0">
<rect width="20" height="11" fill="white" transform="translate(12 17)"/>
</clipPath>
</defs>
</svg>
