<svg width="20" height="11" viewBox="0 0 20 11" fill="none" xmlns="http://www.w3.org/2000/svg">
<path d="M18.2509 -0.00292969C17.2798 -0.00292969 16.4918 0.781992 16.4918 1.74928C16.4918 1.99203 16.5413 2.22369 16.6304 2.43316L12.9453 6.10394C12.735 6.01522 12.5037 5.96593 12.2588 5.96593C12.0139 5.96593 11.7825 6.01522 11.5722 6.10394L9.3716 3.91182C9.46066 3.70235 9.50891 3.47069 9.50891 3.22794C9.50891 2.25942 8.72093 1.47573 7.74988 1.47573C6.77882 1.47573 5.99208 2.25942 5.99208 3.22794C5.99208 3.47069 6.0428 3.70235 6.13187 3.91182L2.44681 7.5826C2.23528 7.49388 2.00272 7.44336 1.75903 7.44336C0.787976 7.44336 0 8.22828 0 9.19557C0 10.1641 0.787976 10.9478 1.75903 10.9478C2.73008 10.9478 3.51806 10.1629 3.51806 9.19557C3.51806 8.95282 3.46982 8.7224 3.38075 8.51169L7.06581 4.84091C7.27486 4.92963 7.50619 4.98015 7.75111 4.98015C7.99604 4.98015 8.22613 4.92963 8.43766 4.84091L10.6383 7.03303C10.5492 7.2425 10.4998 7.47416 10.4998 7.71691C10.4998 8.6842 11.2877 9.46912 12.2588 9.46912C13.2298 9.46912 14.0178 8.6842 14.0178 7.71691C14.0178 7.47416 13.9696 7.2425 13.8793 7.03303L17.5643 3.36225C17.7746 3.45097 18.0059 3.5015 18.2509 3.5015C19.2219 3.5015 20.0099 2.71657 20.0099 1.74928C20.0099 0.781992 19.2219 -0.00292969 18.2509 -0.00292969Z" fill="white"/>
</svg>
