<svg width="37" height="37" viewBox="0 0 37 37" fill="none" xmlns="http://www.w3.org/2000/svg">
<circle cx="18.5" cy="18.5" r="18.5" fill="#161616"/>
<g clip-path="url(#clip0)">
<path d="M26.2509 12.9971C25.2798 12.9971 24.4918 13.782 24.4918 14.7493C24.4918 14.992 24.5413 15.2237 24.6304 15.4332L20.9453 19.1039C20.735 19.0152 20.5037 18.9659 20.2588 18.9659C20.0139 18.9659 19.7825 19.0152 19.5722 19.1039L17.3716 16.9118C17.4607 16.7023 17.5089 16.4707 17.5089 16.2279C17.5089 15.2594 16.7209 14.4757 15.7499 14.4757C14.7788 14.4757 13.9921 15.2594 13.9921 16.2279C13.9921 16.4707 14.0428 16.7023 14.1319 16.9118L10.4468 20.5826C10.2353 20.4939 10.0027 20.4434 9.75903 20.4434C8.78798 20.4434 8 21.2283 8 22.1956C8 23.1641 8.78798 23.9478 9.75903 23.9478C10.7301 23.9478 11.5181 23.1629 11.5181 22.1956C11.5181 21.9528 11.4698 21.7224 11.3808 21.5117L15.0658 17.8409C15.2749 17.9296 15.5062 17.9802 15.7511 17.9802C15.996 17.9802 16.2261 17.9296 16.4377 17.8409L18.6383 20.033C18.5492 20.2425 18.4998 20.4742 18.4998 20.7169C18.4998 21.6842 19.2877 22.4691 20.2588 22.4691C21.2298 22.4691 22.0178 21.6842 22.0178 20.7169C22.0178 20.4742 21.9696 20.2425 21.8793 20.033L25.5643 16.3623C25.7746 16.451 26.0059 16.5015 26.2509 16.5015C27.2219 16.5015 28.0099 15.7166 28.0099 14.7493C28.0099 13.782 27.2219 12.9971 26.2509 12.9971Z" fill="white"/>
</g>
<defs>
<clipPath id="clip0">
<rect width="20" height="11" fill="white" transform="translate(8 13)"/>
</clipPath>
</defs>
</svg>
