<?xml version="1.0" encoding="utf-8"?>
<!-- Generator: Adobe Illustrator 21.1.0, SVG Export Plug-In . SVG Version: 6.00 Build 0)  -->
<svg version="1.1" id="Слой_1" xmlns="http://www.w3.org/2000/svg" xmlns:xlink="http://www.w3.org/1999/xlink" x="0px" y="0px"
	 viewBox="0 0 1920 1080" enable-background="new 0 0 1920 1080" xml:space="preserve">
<path fill="none" stroke="#000000" stroke-miterlimit="10" d="M1559,119c-8.4,20.6-13.5,32.5-62,142c-35.3,79.9-53,119.8-54,122
	c-17.4,38-72,157.6-142,244c-25.4,31.4-184.7,227.9-417,221c-34.3-1-123.5-3.3-210-63c-25-17.2-91.9-63.4-120-146
	c-56.9-167.4,98.7-328.7,106-336c98.1-98.7,222.1-113.9,305-124c24.1-3,139-15.7,300,27c254.7,67.5,263.6,249.4,450.5,252.5
	c44.6,0.7,99.6-23,170-115c74.9-97.9,68.8-216.1-60-299C1715.4-26.4,1607.1,0.5,1559,119z"/>
<path fill="none" stroke="#000000" stroke-miterlimit="10" d="M245,39c7.4,7.2,41.9,55.8,111,153c67.4,94.9,79.5,114.1,93,141
	c32,64.1,55.4,110.9,55,174c-0.8,108.2-71.3,208.3-141,246c-15.1,8.2-56.6,27.7-79,38c-59.8,27.6-64.3,27-83,37
	c-18.9,10.2-87.2,46.8-118,123c-4.4,10.9-41.1,101.7-2,152c59.1,75.9,281.4,47.1,381-80c61.1-78,59.9-172.5,59-238
	c-0.6-43.3-3.4-150.6-72-251c-36.3-53.1-90.9-90.4-200-165c-131.8-90.1-147.4-81.6-195-130C-33.4,150-98.5,1.2-54-48
	C-8.9-97.8,153.2-50.3,245,39z"/>
<path fill="none" stroke="#000000" stroke-miterlimit="10" d="M-0.5,808.5c63,8,355-28,498-67c104.6-28.5,247.2-142.8,239-227
	c-4-41-78.8-211.6-185.5-229.5c-88-14.7-96.1-4.9-263-14C84.9,260-43.4,252.2-51,213c-4.8-24.7,40.2-52.4,86-80
	c70.8-42.6,165.6-84.3,361-117c22.8-3.8,164.5-26.5,342-9c49.2,4.9,92.7,12,108,42c25.8,50.6-44.9,133.7-69,162
	c0,0-182.7,214.6-577,272c-46,6.7-75.7,11.8-135,22c-63.6,10.9-95.6,16.5-105,21C-148.3,577.7-63.8,800.5-0.5,808.5z"/>
</svg>
