<svg width="37" height="49" viewBox="0 0 37 49" fill="none" xmlns="http://www.w3.org/2000/svg">
<path d="M29.6573 32.2816L32.5181 42.5009L36.4279 34.1918L37.0001 26.6467L29.6573 32.2816Z" fill="#98BC24"/>
<path d="M34.2346 3.82051L29.7526 13.6578L26.3196 1.62384L34.2346 3.82051Z" fill="#D0D821"/>
<path d="M37.0001 26.6465L36.0465 24.7363L29.7526 13.562L29.6573 32.2814L37.0001 26.6465Z" fill="#B4CE0D"/>
<path d="M32.518 42.5008L29.6572 32.186L24.5077 48.0403L32.518 42.5008Z" fill="#7DA305"/>
<path d="M37 26.6466L34.2345 13.3711V3.82031L29.8479 13.6576L37 26.6466Z" fill="#98BC24"/>
<path d="M12.3015 48.1358L16.402 34.6693L24.5077 48.0403L12.3015 48.1358Z" fill="#A35F05"/>
<path d="M16.4022 34.6692L24.5078 48.0403L29.6573 32.2816L16.4022 34.6692Z" fill="#99B22F"/>
<path d="M3.52832 42.2143L16.402 34.6693L12.3015 48.1358L3.52832 42.2143Z" fill="#BC540D"/>
<path d="M8.10564 26.1691L16.402 34.6692L3.52832 42.2143L8.10564 26.1691Z" fill="#E56915"/>
<path d="M0 33.2366L8.10567 26.1691L3.52835 42.2143L0 33.2366Z" fill="#FA7C0D"/>
<path d="M21.3607 18.2419L16.402 34.6692L8.10559 26.2646L21.3607 18.2419Z" fill="#E6DF53"/>
<path d="M29.6573 32.2816L21.3609 18.2419L16.4022 34.6692L29.6573 32.2816Z" fill="#B4CE0D"/>
<path d="M29.848 13.6576L29.6573 32.2816L21.1702 18.3375L29.848 13.6576Z" fill="#98BC24"/>
<path d="M18.0231 10.315L26.3195 1.62384L21.2654 18.4332L18.0231 10.315Z" fill="#DCE939"/>
<path d="M8.10559 26.2645L18.0231 10.2192L21.2654 18.3374L8.10559 26.2645Z" fill="#FBEF69"/>
<path d="M5.53093 17.6688L8.10567 26.2644L0 33.2365L2.47938 24.6408L5.53093 17.6688Z" fill="#FFAE5B"/>
<path d="M18.0232 10.3148L5.53094 17.6689L8.10568 26.2646L18.0232 10.3148Z" fill="#C5DA13"/>
<path d="M5.53094 17.6689L15.5438 8.02263L20.6933 0L18.0232 10.3148L5.53094 17.6689Z" fill="#B4CE0D"/>
<path d="M20.6932 0L26.3195 1.62363L18.0231 10.3148L20.6932 0Z" fill="#CDD128"/>
<path d="M21.2654 18.4332L26.3196 1.62384L29.8479 13.6578L21.2654 18.4332Z" fill="#B8CE19"/>
<path d="M25.9382 0.0955811L29.0851 0.955149L29.5619 2.48327L24.2217 1.05066L25.9382 0.0955811Z" fill="#B08A1B"/>
</svg>
