<svg width="239" height="311" viewBox="0 0 239 311" fill="none" xmlns="http://www.w3.org/2000/svg">
<path d="M191.683 208.026L210.118 273.88L235.313 220.335L239 171.714L191.683 208.026Z" fill="#98BC24"/>
<path d="M221.18 24.6197L192.298 88.0121L170.175 10.4641L221.18 24.6197Z" fill="#D0D821"/>
<path d="M239 171.713L232.855 159.403L192.297 87.3944L191.683 208.025L239 171.713Z" fill="#B4CE0D"/>
<path d="M210.118 273.88L191.682 207.41L158.499 309.576L210.118 273.88Z" fill="#7DA305"/>
<path d="M239 171.714L221.179 86.1646V24.6186L192.911 88.011L239 171.714Z" fill="#98BC24"/>
<path d="M79.8403 310.192L106.264 223.412L158.498 309.577L79.8403 310.192Z" fill="#A35F05"/>
<path d="M106.265 223.412L158.499 309.577L191.683 208.026L106.265 223.412Z" fill="#99B22F"/>
<path d="M23.3052 272.034L106.265 223.412L79.8406 310.192L23.3052 272.034Z" fill="#BC540D"/>
<path d="M52.8019 168.636L106.265 223.412L23.3052 272.034L52.8019 168.636Z" fill="#E56915"/>
<path d="M0.568359 214.18L52.8022 168.636L23.3054 272.034L0.568359 214.18Z" fill="#FA7C0D"/>
<path d="M138.219 117.553L106.265 223.412L52.8018 169.252L138.219 117.553Z" fill="#E6DF53"/>
<path d="M191.683 208.026L138.22 117.553L106.265 223.412L191.683 208.026Z" fill="#B4CE0D"/>
<path d="M192.912 88.011L191.683 208.026L136.991 118.169L192.912 88.011Z" fill="#98BC24"/>
<path d="M116.711 66.471L170.174 10.4641L137.604 118.785L116.711 66.471Z" fill="#DCE939"/>
<path d="M52.8018 169.251L116.711 65.8539L137.605 118.168L52.8018 169.251Z" fill="#FBEF69"/>
<path d="M36.2103 113.859L52.8022 169.251L0.568359 214.18L16.5457 158.788L36.2103 113.859Z" fill="#FFAE5B"/>
<path d="M116.712 66.4697L36.2109 113.86L52.8028 169.252L116.712 66.4697Z" fill="#C5DA13"/>
<path d="M36.2109 113.86L100.735 51.6987L133.919 0L116.712 66.4697L36.2109 113.86Z" fill="#B4CE0D"/>
<path d="M133.917 0L170.174 10.4628L116.711 66.4697L133.917 0Z" fill="#CDD128"/>
<path d="M137.604 118.785L170.174 10.4641L192.911 88.0121L137.604 118.785Z" fill="#B8CE19"/>
<path d="M167.717 0.615837L187.996 6.15498L191.068 16.0023L156.655 6.77044L167.717 0.615837Z" fill="#B08A1B"/>
</svg>
