<svg width="95" height="25" viewBox="0 0 95 25" fill="none" xmlns="http://www.w3.org/2000/svg">
<path d="M1.10352 16.8399V1H8.19525C8.91995 1 9.54112 1.1553 10.1623 1.41412C10.7835 1.67295 11.3011 2.08705 11.7152 2.50117C12.1293 2.96705 12.4917 3.48469 12.7505 4.0541C13.0093 4.62351 13.1129 5.24469 13.1129 5.8141C13.1129 6.43527 13.0093 7.05645 12.7505 7.62586C12.4917 8.19527 12.1811 8.71291 11.767 9.17879C11.3529 9.64467 10.8352 10.007 10.2658 10.2658C9.69642 10.5247 9.02348 10.68 8.29878 10.68H1.93175V16.7882H1.10352V16.8399ZM1.93175 10.007H8.29878C8.91995 10.007 9.48936 9.90349 9.95524 9.64467C10.4211 9.38584 10.8352 9.07525 11.1976 8.7129C11.5599 8.29878 11.8188 7.88468 11.974 7.36703C12.1811 6.84939 12.2329 6.38351 12.2329 5.8141C12.2329 5.29646 12.1293 4.77881 11.9223 4.26117C11.7152 3.74352 11.4046 3.32941 11.0423 2.96706C10.6799 2.60471 10.2141 2.29411 9.74818 2.03529C9.23054 1.82823 8.71289 1.67295 8.14348 1.67295H1.93175V10.007Z" fill="#000204" stroke="#000204" stroke-width="0.5669" stroke-miterlimit="10"/>
<path d="M21.6543 1H22.379L29.7813 16.8399H28.9013L26.3648 11.3529H17.7202L15.1837 16.8399H14.252L21.6543 1ZM26.106 10.7317L22.0684 2.03529L17.979 10.7317H26.106Z" fill="#000204" stroke="#000204" stroke-width="0.5669" stroke-miterlimit="10"/>
<path d="M32.5762 16.8399V1H39.6679C40.3926 1 41.0138 1.1553 41.6349 1.41412C42.2561 1.67295 42.7738 2.08705 43.1879 2.50117C43.602 2.96705 43.9643 3.48469 44.2232 4.0541C44.482 4.62351 44.5855 5.24469 44.5855 5.8141C44.5855 6.43527 44.482 7.05645 44.2232 7.62586C43.9643 8.19527 43.6537 8.71291 43.2396 9.17879C42.8255 9.64467 42.3079 10.007 41.7385 10.2658C41.1691 10.5247 40.4961 10.68 39.7714 10.68H33.4044V16.7882H32.5762V16.8399ZM33.4044 10.007H39.7714C40.3926 10.007 40.962 9.90349 41.4279 9.64467C41.8938 9.38584 42.3079 9.07525 42.6702 8.7129C43.0326 8.29878 43.2914 7.88468 43.4467 7.36703C43.6538 6.84939 43.7055 6.38351 43.7055 5.8141C43.7055 5.29646 43.602 4.77881 43.3949 4.26117C43.1879 3.74352 42.8773 3.32941 42.5149 2.96706C42.1526 2.60471 41.6867 2.29411 41.2208 2.03529C40.7549 1.77647 40.1855 1.67295 39.6161 1.67295H33.4044V10.007Z" fill="#000204" stroke="#000204" stroke-width="0.5669" stroke-miterlimit="10"/>
<path d="M53.126 1H53.8506L61.253 16.8399H60.373L57.8365 11.3529H49.1919L46.6554 16.8399H45.6719L53.126 1ZM57.5777 10.7317L53.5401 2.03529L49.4507 10.7317H57.5777Z" fill="#000204" stroke="#000204" stroke-width="0.5669" stroke-miterlimit="10"/>
<path d="M63.1681 1L69.5351 10.007L75.9539 1H76.8857L70.001 10.7835V16.8399H69.1728V10.7317L62.2363 1H63.1681Z" fill="#000204" stroke="#000204" stroke-width="0.5669" stroke-miterlimit="10"/>
<path d="M85.2197 1H85.9444L93.3467 16.8399H92.4667L89.9303 11.3529H81.2856L78.7491 16.8399H77.7656L85.2197 1ZM89.6197 10.7317L85.5821 2.03529L81.4927 10.7317H89.6197Z" fill="#000204" stroke="#000204" stroke-width="0.5669" stroke-miterlimit="10"/>
<path d="M2.91528 20.3081H3.43293L4.00234 21.7575L4.57175 20.3081H5.08939L4.36469 22.1199L5.08939 23.8799L6.53879 20.2564H7.1082L5.34822 24.501H4.88233L4.05411 22.534L3.22587 24.501H2.76L1 20.2564H1.56941L3.01882 23.8799L3.74352 22.1199L2.91528 20.3081Z" fill="black"/>
<path d="M16.4252 24.0352V24.501H13.5781V20.2564H16.3734V20.7222H14.0958V22.0681H16.0628V22.534H14.0958V23.9834H16.4252V24.0352Z" fill="black"/>
<path d="M26.3647 23.414C26.3647 23.5693 26.3129 23.7246 26.2611 23.8799C26.2094 24.0352 26.1059 24.1387 26.0023 24.2422C25.8988 24.3457 25.7435 24.3975 25.5882 24.4493C25.4329 24.501 25.2776 24.501 25.1223 24.501H23.1035V20.2564H25.2259C25.3812 20.2564 25.4847 20.3081 25.64 20.3599C25.7435 20.4116 25.847 20.5152 25.9506 20.6187C26.0541 20.7222 26.1058 20.8258 26.1576 20.9811C26.2094 21.1364 26.2094 21.2399 26.2094 21.3952C26.2094 21.6022 26.1576 21.8093 26.0541 21.9646C25.9506 22.1199 25.7953 22.2752 25.5882 22.3787C25.847 22.4305 26.0023 22.5858 26.1576 22.7928C26.2611 22.9481 26.3647 23.1552 26.3647 23.414ZM23.6212 20.7222V22.1199H24.967C25.0706 22.1199 25.1741 22.1199 25.2259 22.0681C25.3294 22.0164 25.3812 21.9646 25.4329 21.9128C25.4847 21.8611 25.5364 21.7575 25.5882 21.7058C25.64 21.654 25.64 21.5505 25.64 21.4469C25.64 21.3434 25.64 21.2399 25.5882 21.1881C25.5364 21.0846 25.5364 21.0328 25.4847 20.9811C25.4329 20.9293 25.3812 20.8775 25.2776 20.8258C25.2259 20.774 25.1223 20.774 25.0188 20.774H23.6212V20.7222ZM25.7953 23.3105C25.7953 23.2069 25.7953 23.1034 25.7435 23.0516C25.6917 22.9481 25.64 22.8963 25.5882 22.7928C25.5364 22.7411 25.4847 22.6893 25.3812 22.6375C25.2776 22.5858 25.2259 22.5858 25.1223 22.5858H23.6212V24.0352H25.0706C25.1741 24.0352 25.2776 24.0352 25.3294 23.9834C25.4329 23.9316 25.4847 23.8799 25.5365 23.8281C25.5882 23.7763 25.64 23.6728 25.6917 23.6211C25.7953 23.5175 25.7953 23.414 25.7953 23.3105Z" fill="black"/>
<path d="M41.7912 20.2564H42.2571L43.9654 24.501H43.3959L42.8783 23.2587H41.1183L40.6007 24.501H40.0312L41.7912 20.2564ZM42.7748 22.8446L41.9983 20.8775L41.2218 22.8446H42.7748Z" fill="black"/>
<path d="M53.4369 23.9316C53.0746 24.3458 52.6605 24.5528 52.1428 24.5528C51.884 24.5528 51.6252 24.501 51.3664 24.3458C51.1075 24.2422 50.9005 24.0869 50.7452 23.8799C50.5899 23.6728 50.4346 23.4658 50.3311 23.2069C50.2275 22.9481 50.1758 22.6893 50.1758 22.4305C50.1758 22.1199 50.2275 21.8611 50.3311 21.6022C50.4346 21.3434 50.5899 21.1364 50.7452 20.9293C50.9005 20.7222 51.1075 20.567 51.3664 20.4634C51.6252 20.3599 51.884 20.3081 52.1428 20.3081C52.5569 20.3081 52.8675 20.4117 53.1263 20.567C53.3852 20.7223 53.5922 20.9811 53.7475 21.2399L53.3334 21.5505C53.2299 21.2917 53.0228 21.1364 52.8158 20.9811C52.6087 20.8775 52.3499 20.8258 52.0911 20.8258C51.884 20.8258 51.6769 20.8775 51.5216 20.9811C51.3664 21.0846 51.2111 21.1881 51.0558 21.3434C50.9005 21.4987 50.8487 21.654 50.7452 21.8611C50.6934 22.0681 50.6417 22.2752 50.6417 22.4822C50.6417 22.6893 50.6934 22.8964 50.7452 23.1034C50.7969 23.3105 50.9005 23.4658 51.0558 23.6211C51.2111 23.7764 51.3664 23.8799 51.5216 23.9834C51.6769 24.0869 51.884 24.1387 52.0911 24.1387C52.5569 24.1387 52.971 23.9316 53.3334 23.4658V22.7928H52.4016V22.3787H53.7475V24.501H53.4369V23.9316Z" fill="black"/>
<path d="M63.5306 24.0352V24.501H60.6836V20.2564H63.4789V20.7222H61.2012V22.0681H63.1683V22.534H61.2012V23.9834H63.5306V24.0352Z" fill="black"/>
<path d="M70.7266 21.2917V24.501H70.209V20.2564H70.6231L73.2631 23.5693V20.3081H73.7807V24.501H73.3149L70.7266 21.2917Z" fill="black"/>
<path d="M80.459 22.3787C80.459 22.1199 80.5107 21.8611 80.6143 21.6022C80.7178 21.3434 80.8213 21.1364 81.0284 20.9293C81.2354 20.7222 81.3907 20.5669 81.6496 20.4634C81.9084 20.3599 82.1672 20.2564 82.4778 20.2564C82.8401 20.2564 83.2025 20.3599 83.4613 20.5152C83.7201 20.6705 83.9272 20.9293 84.0825 21.1881L83.6684 21.4469C83.6166 21.2916 83.5131 21.1881 83.4613 21.0846C83.3578 20.9811 83.2543 20.9293 83.1507 20.8775C83.0472 20.8258 82.9437 20.774 82.8401 20.774C82.7366 20.774 82.6331 20.7222 82.5296 20.7222C82.2707 20.7222 82.0637 20.774 81.9084 20.8775C81.7531 20.9811 81.5978 21.0846 81.4425 21.2399C81.2872 21.3952 81.2354 21.5505 81.1837 21.7575C81.1319 21.9646 81.0801 22.1716 81.0801 22.3269C81.0801 22.534 81.1319 22.741 81.1837 22.9481C81.2354 23.1552 81.339 23.3105 81.4943 23.4657C81.6496 23.621 81.8049 23.7246 81.9601 23.8281C82.1154 23.9316 82.3225 23.9834 82.5296 23.9834C82.6331 23.9834 82.7366 23.9834 82.8919 23.9316C83.0472 23.8799 83.099 23.8799 83.2025 23.7763C83.306 23.7246 83.4096 23.621 83.5131 23.5693C83.6166 23.5175 83.6684 23.3622 83.7201 23.2587L84.186 23.5175C84.1342 23.6728 84.0307 23.8281 83.9272 23.9316C83.8237 24.0352 83.6684 24.1387 83.5131 24.2422C83.3578 24.3457 83.2025 24.3975 83.0472 24.4493C82.8919 24.501 82.6849 24.501 82.5296 24.501C82.219 24.501 81.9602 24.4493 81.7531 24.294C81.546 24.1387 81.2872 23.9834 81.1319 23.7763C80.9766 23.5693 80.8213 23.3622 80.7178 23.1034C80.5107 22.8963 80.459 22.6375 80.459 22.3787Z" fill="black"/>
<path d="M90.9151 20.2564L92.2092 22.4822L93.5033 20.2564H94.0727L92.468 22.9481V24.501H91.9504V22.9481L90.3457 20.2564H90.9151Z" fill="black"/>
</svg>
