<?xml version="1.0" encoding="utf-8"?>
<!-- Generator: Adobe Illustrator 21.1.0, SVG Export Plug-In . SVG Version: 6.00 Build 0)  -->
<svg version="1.1" id="Слой_1" xmlns="http://www.w3.org/2000/svg" xmlns:xlink="http://www.w3.org/1999/xlink" x="0px" y="0px"
	 viewBox="0 0 37.9 37.9" style="enable-background:new 0 0 37.9 37.9;" xml:space="preserve">
<style type="text/css">
	.st0{fill:none;stroke:#000000;stroke-miterlimit:10;}
	.st1{fill:#BECD16;}
</style>
<title>phone_hov</title>
<circle class="st0" cx="18.9" cy="18.9" r="18.4"/>
<circle cx="18.9" cy="18.9" r="15"/>
<path class="st1" d="M25.4,22.5c0-0.1-0.3-0.3-0.7-0.5l-0.5-0.3l-0.6-0.3l-0.5-0.3L22.9,21c-0.1-0.1-0.2-0.1-0.3-0.2
	c-0.1,0-0.2-0.1-0.3-0.1c-0.2,0-0.3,0.1-0.5,0.3c-0.2,0.2-0.3,0.4-0.5,0.6c-0.2,0.2-0.3,0.4-0.5,0.6c-0.1,0.1-0.3,0.2-0.4,0.3
	c-0.1,0-0.1,0-0.2,0L20,22.3l-0.2-0.1L19.6,22c-1.6-0.9-2.9-2.2-3.8-3.8l-0.1-0.2l-0.1-0.2l-0.1-0.2c0-0.1,0-0.1,0-0.2
	c0-0.2,0.1-0.3,0.3-0.4c0.2-0.2,0.4-0.3,0.6-0.5c0.2-0.2,0.4-0.3,0.6-0.5c0.1-0.1,0.2-0.3,0.3-0.5c0-0.1,0-0.2-0.1-0.3
	c-0.1-0.1-0.1-0.2-0.2-0.3l-0.2-0.2l-0.3-0.5l-0.3-0.6l-0.3-0.5c-0.2-0.4-0.4-0.7-0.5-0.7c-0.1,0-0.1,0-0.2,0c-0.2,0-0.4,0-0.6,0.1
	c-0.2,0-0.4,0.1-0.6,0.2c-0.4,0.3-0.8,0.7-1,1.1c-0.4,0.7-0.5,1.4-0.4,2.2c0,0.2,0.1,0.4,0.1,0.5c0.1,0.2,0.1,0.3,0.1,0.4l0.2,0.5
	l0.2,0.5c0.2,0.6,0.5,1.1,0.8,1.6c0.6,0.9,1.2,1.7,2,2.4c0.7,0.8,1.5,1.4,2.4,2c0.5,0.3,1,0.6,1.6,0.8l0.5,0.2l0.5,0.2l0.4,0.1
	c0.2,0,0.4,0.1,0.5,0.1c0.2,0,0.3,0,0.5,0c0.6,0,1.2-0.2,1.7-0.5c0.5-0.2,0.9-0.6,1.1-1c0.1-0.2,0.1-0.4,0.2-0.6
	c0.1-0.2,0.1-0.4,0.1-0.6C25.4,22.6,25.4,22.5,25.4,22.5L25.4,22.5z"/>
</svg>
