<svg width="40" height="40" viewBox="0 0 40 40" fill="none" xmlns="http://www.w3.org/2000/svg">
<circle cx="20" cy="20" r="19.5" stroke="black"/>
<circle cx="20" cy="20" r="17" fill="#161616"/>
<path d="M27.9686 23.6231C27.9257 23.4956 27.6555 23.3077 27.158 23.0584C27.0247 22.9818 26.8322 22.8751 26.5852 22.7406C26.3358 22.6049 26.1097 22.4809 25.9079 22.3672C25.7038 22.2536 25.5137 22.1446 25.3374 22.0379C25.3107 22.0158 25.2191 21.9544 25.0707 21.8512C24.9234 21.748 24.797 21.6726 24.6926 21.6227C24.5906 21.5729 24.4885 21.5485 24.3888 21.5485C24.2485 21.5485 24.0699 21.6494 23.8565 21.8523C23.6432 22.0553 23.4483 22.2744 23.2721 22.5122C23.0935 22.7511 22.9056 22.9714 22.7062 23.1732C22.5067 23.375 22.3432 23.477 22.2168 23.477C22.153 23.477 22.0718 23.4584 21.9768 23.4237C21.8817 23.3889 21.8075 23.3576 21.7576 23.3332C21.71 23.3089 21.6242 23.259 21.5036 23.1836C21.3819 23.1094 21.3158 23.0676 21.2995 23.0607C20.3278 22.5215 19.4917 21.9034 18.797 21.2076C18.1012 20.5106 17.4832 19.6768 16.9416 18.7039C16.9347 18.6888 16.8941 18.6227 16.8198 18.501C16.7445 18.378 16.6946 18.2922 16.6691 18.2424C16.6436 18.1925 16.6146 18.1206 16.5786 18.0255C16.545 17.9293 16.5265 17.8481 16.5265 17.7855C16.5265 17.6579 16.6285 17.4944 16.8303 17.2949C17.0321 17.0966 17.2536 16.9076 17.4913 16.7302C17.729 16.5528 17.9493 16.3568 18.1511 16.1457C18.3552 15.9312 18.4549 15.7538 18.4549 15.6111C18.4549 15.5126 18.4306 15.4117 18.3807 15.3085C18.3309 15.2053 18.2543 15.0789 18.1511 14.9293C18.0491 14.7808 17.9853 14.6915 17.9656 14.6637C17.8589 14.4851 17.7476 14.2961 17.6339 14.0932C17.5214 13.8914 17.3962 13.6652 17.2605 13.4171C17.1272 13.1678 17.0205 12.9764 16.9416 12.8419C16.6946 12.3444 16.5067 12.0754 16.3769 12.0325C16.327 12.0104 16.2528 12 16.1531 12C15.9629 12 15.7112 12.0348 15.4039 12.1067C15.0931 12.1774 14.8508 12.2516 14.6745 12.3305C14.3185 12.4789 13.9405 12.9115 13.5439 13.6305C13.1809 14.2973 13 14.9583 13 15.6111C13 15.8036 13.0116 15.9892 13.0359 16.1701C13.0603 16.351 13.1067 16.5562 13.1705 16.7835C13.2342 17.0097 13.2864 17.1801 13.3247 17.2891C13.3653 17.3993 13.4383 17.5976 13.5439 17.8806C13.6506 18.1647 13.7132 18.3398 13.7341 18.4036C13.9834 19.0993 14.2779 19.7209 14.62 20.2671C15.179 21.1763 15.9455 22.1156 16.9161 23.085C17.8856 24.0545 18.8237 24.8199 19.734 25.3811C20.2802 25.7232 20.9029 26.0178 21.5976 26.2671C21.6613 26.288 21.8353 26.3506 22.1206 26.4573C22.4035 26.564 22.6006 26.6359 22.7097 26.6765C22.821 26.7147 22.9903 26.7669 23.2176 26.8307C23.4449 26.8945 23.6501 26.9397 23.831 26.9641C24.0096 26.9884 24.1975 27 24.3876 27C25.0417 27 25.7015 26.8191 26.3695 26.4584C27.0873 26.0595 27.5198 25.6838 27.6694 25.3278C27.7483 25.1492 27.8213 24.9068 27.8932 24.5984C27.964 24.2876 27.9999 24.0394 27.9999 23.8469C28.0011 23.7484 27.9895 23.6741 27.9686 23.6231Z" fill="white"/>
</svg>
