<svg width="236" height="153" viewBox="0 0 236 153" fill="none" xmlns="http://www.w3.org/2000/svg">
<rect width="236" height="153" fill="white"/>
<g clip-path="url(#clip0)">
<path d="M98.8651 55.0782C103.308 55.0782 105.05 56.7147 105.05 59.6241V61.417C105.05 64.3517 103.308 65.981 98.8651 65.981C96.7491 65.981 95.3838 65.8737 95.3838 65.8737V74.1325C95.0057 74.2156 94.6205 74.2613 94.2336 74.2689C93.837 74.265 93.442 74.2193 93.0547 74.1325V55.331C93.0547 55.331 95.357 55.0782 98.8651 55.0782ZM95.3838 64.3717H98.8651C101.732 64.3717 102.746 63.448 102.746 61.4097V59.6168C102.746 57.6057 101.73 56.6547 98.8651 56.6547H95.3838V64.3717Z" fill="#3C294B"/>
<path d="M110.59 72.6033H118.622C118.714 72.865 118.76 73.1416 118.756 73.4197C118.758 73.6882 118.713 73.955 118.622 74.2071H113.643C110.403 74.2071 108.268 74.0252 108.268 74.0252V55.2782C108.655 55.1915 109.05 55.1458 109.446 55.1418C109.833 55.1495 110.219 55.1952 110.597 55.2782L110.59 72.6033Z" fill="#3C294B"/>
<path d="M126.064 55.2691C126.586 55.1798 127.114 55.1342 127.643 55.1327C128.163 55.135 128.683 55.1806 129.196 55.2691L135.06 74.1252C134.7 74.2082 134.332 74.2539 133.962 74.2616C133.566 74.2529 133.171 74.2072 132.783 74.1252L131.232 69.1266H124.029L122.476 74.1252C122.097 74.2061 121.712 74.2517 121.325 74.2616C120.947 74.2551 120.57 74.2095 120.2 74.1252L126.064 55.2691ZM124.43 67.5228H130.83L127.646 57.1438L124.43 67.5228Z" fill="#3C294B"/>
<path d="M136.826 59.6167C136.826 56.7074 138.54 55.0509 143.199 55.0509C147.857 55.0509 149.384 56.7092 149.384 59.6167V59.9968C149.031 60.0812 148.671 60.1269 148.309 60.1331C147.957 60.1279 147.606 60.0821 147.264 59.9968V59.6167C147.264 57.6057 146.3 56.6547 143.195 56.6547C140.09 56.6547 139.151 57.6057 139.151 59.6167V69.7776C139.151 71.7886 140.169 72.7396 143.435 72.7396C146.917 72.7396 148.977 71.5723 148.977 71.545C149.092 71.8003 149.147 72.0791 149.138 72.3596C149.14 72.6483 149.085 72.9344 148.977 73.2015C148.977 73.2015 147.103 74.3434 143.435 74.3434C138.618 74.3434 136.822 72.6851 136.822 69.7776L136.826 59.6167Z" fill="#3C294B"/>
<path d="M154.789 72.6033H163.625C163.717 72.8653 163.762 73.1417 163.758 73.4197C163.76 73.688 163.715 73.9547 163.625 74.207H157.842C154.602 74.207 152.467 74.0252 152.467 74.0252V55.3873C152.467 55.3873 154.617 55.2054 157.842 55.2054H163.491C163.584 55.4665 163.629 55.7425 163.625 56.0201C163.628 56.2892 163.582 56.5564 163.491 56.8092H154.789V63.6552H162.608C162.703 63.9069 162.748 64.175 162.742 64.4444C162.746 64.7219 162.701 64.9979 162.608 65.259H154.789V72.6033Z" fill="#3C294B"/>
<path d="M128.184 78.802C128.184 78.802 129.796 78.6438 132.08 78.6438C134.868 78.6438 135.942 79.7148 135.942 81.5949V82.2459C135.942 83.4769 135.388 84.3206 134.089 84.6879C135.562 85.0516 136.167 85.9608 136.167 87.2191V88.0627C136.167 89.9793 135.024 91.0866 132.08 91.0866C129.794 91.0866 128.184 90.9284 128.184 90.9284V78.802ZM129.69 84.197H132.08C133.847 84.197 134.453 83.5642 134.453 82.2459V81.5949C134.453 80.3221 133.847 79.6802 132.08 79.6802H129.69V84.197ZM129.69 90.0665H132.08C134.003 90.0665 134.678 89.4156 134.678 88.0664V87.2227C134.678 85.888 134.003 85.2225 132.08 85.2225H129.69V90.0665Z" fill="#3C294B"/>
<path d="M138.066 81.5786C138.066 79.6984 139.261 78.6256 142.291 78.6256C145.321 78.6256 146.518 79.6984 146.518 81.5786V88.15C146.518 90.032 145.323 91.103 142.291 91.103C139.26 91.103 138.066 90.032 138.066 88.15V81.5786ZM139.573 88.15C139.573 89.452 140.29 90.0665 142.291 90.0665C144.292 90.0665 145.011 89.452 145.011 88.15V81.5786C145.011 80.2785 144.318 79.6621 142.291 79.6621C140.265 79.6621 139.573 80.2785 139.573 81.5786V88.15Z" fill="#3C294B"/>
<path d="M148.595 81.5786C148.595 79.6984 149.79 78.6256 152.821 78.6256C155.853 78.6256 157.046 79.6984 157.046 81.5786V88.15C157.046 90.032 155.851 91.103 152.821 91.103C149.792 91.103 148.595 90.032 148.595 88.15V81.5786ZM150.102 88.15C150.102 89.452 150.818 90.0665 152.821 90.0665C154.824 90.0665 155.539 89.452 155.539 88.15V81.5786C155.539 80.2785 154.846 79.6621 152.821 79.6621C150.797 79.6621 150.102 80.2785 150.102 81.5786V88.15Z" fill="#3C294B"/>
<path d="M160.492 82.404C160.492 84.8642 166.865 83.6351 166.865 87.3245V88.15C166.865 90.0483 165.808 91.103 162.882 91.103C159.852 91.103 158.917 90.012 158.917 88.15V87.9136C159.152 87.8603 159.393 87.8311 159.634 87.8263C159.879 87.8288 160.122 87.858 160.361 87.9136V88.1591C160.361 89.4774 160.985 90.0756 162.869 90.0756C164.754 90.0756 165.363 89.4774 165.363 88.1591V87.3336C165.363 84.6806 158.99 85.9625 158.99 82.4131V81.5876C158.99 79.6893 160.03 78.6346 162.886 78.6346C165.831 78.6346 166.713 79.7075 166.713 81.5876V81.8331C166.474 81.887 166.231 81.9162 165.987 81.9204C165.742 81.9179 165.498 81.8887 165.259 81.8331V81.5876C165.259 80.2875 164.67 79.6711 162.886 79.6711C161.101 79.6711 160.479 80.3039 160.479 81.5876L160.492 82.404Z" fill="#3C294B"/>
<path d="M173.167 79.7512V90.963C172.923 91.0163 172.674 91.0455 172.424 91.0503C172.167 91.0478 171.911 91.0185 171.66 90.963V79.7512H168.256C168.195 79.588 168.166 79.4146 168.17 79.2402C168.168 79.0606 168.197 78.882 168.256 78.7129H176.534C176.593 78.882 176.622 79.0606 176.62 79.2402C176.622 79.4144 176.592 79.5874 176.534 79.7512H173.167Z" fill="#3C294B"/>
<path d="M86.9789 55H83.3848V99H86.9789V55Z" fill="#3C294B"/>
<path d="M100.429 78.2128H86.0098V97.7326H100.429C102.803 97.7254 105.077 96.7652 106.756 95.0617C108.434 93.3583 109.38 91.0499 109.388 88.6409V87.3099C109.382 84.8999 108.436 82.5902 106.758 80.8855C105.079 79.1809 102.804 78.22 100.429 78.2128Z" fill="#3C294B"/>
<path d="M100.429 99.0054H84.7559V76.9399H100.429C103.137 76.9428 105.733 78.0357 107.648 79.9788C109.562 81.9219 110.639 84.5565 110.642 87.3044V88.6409C110.639 91.3889 109.562 94.0234 107.648 95.9665C105.733 97.9096 103.137 99.0025 100.429 99.0054ZM87.2642 96.4597H100.429C102.473 96.4597 104.432 95.636 105.877 94.1697C107.322 92.7033 108.134 90.7146 108.134 88.6409V87.3099C108.134 85.2362 107.322 83.2475 105.877 81.7811C104.432 80.3148 102.473 79.4911 100.429 79.4911H87.2642V96.4597Z" fill="#3C294B"/>
<path d="M86.9629 78.1512H70.7501C67.9 78.1478 65.1676 76.9973 63.1523 74.952C61.137 72.9067 60.0033 70.1336 60 67.2412V65.9138C60.0033 63.0213 61.137 60.2482 63.1523 58.203C65.1676 56.1577 67.9 55.0072 70.7501 55.0038H86.9629V78.1512ZM70.7501 58.6404C68.8493 58.6404 67.0265 59.4067 65.6824 60.7708C64.3384 62.1348 63.5834 63.9848 63.5834 65.9138V67.243C63.5834 69.172 64.3384 71.022 65.6824 72.386C67.0265 73.75 68.8493 74.5163 70.7501 74.5163H83.3796V58.6404H70.7501Z" fill="#3C294B"/>
<path d="M75.2134 60.7841H72.7051V71.6941H75.2134V60.7841Z" fill="#3C294B"/>
<path d="M79.334 67.512V64.9663H68.5839V67.512H79.334Z" fill="#3C294B"/>
<path d="M96.6214 84.786C97.314 84.786 97.8755 84.2162 97.8755 83.5132C97.8755 82.8102 97.314 82.2404 96.6214 82.2404C95.9287 82.2404 95.3672 82.8102 95.3672 83.5132C95.3672 84.2162 95.9287 84.786 96.6214 84.786Z" fill="white"/>
<path d="M100.758 88.9846C101.451 88.9846 102.012 88.4148 102.012 87.7118C102.012 87.0088 101.451 86.439 100.758 86.439C100.065 86.439 99.5039 87.0088 99.5039 87.7118C99.5039 88.4148 100.065 88.9846 100.758 88.9846Z" fill="white"/>
<path d="M92.5169 88.9846C93.2095 88.9846 93.771 88.4148 93.771 87.7118C93.771 87.0088 93.2095 86.439 92.5169 86.439C91.8242 86.439 91.2627 87.0088 91.2627 87.7118C91.2627 88.4148 91.8242 88.9846 92.5169 88.9846Z" fill="white"/>
<path d="M96.593 93.1213C97.2857 93.1213 97.8472 92.5515 97.8472 91.8485C97.8472 91.1455 97.2857 90.5757 96.593 90.5757C95.9004 90.5757 95.3389 91.1455 95.3389 91.8485C95.3389 92.5515 95.9004 93.1213 96.593 93.1213Z" fill="white"/>
<path d="M118.195 86.4299V91.0684C118.093 91.0906 117.99 91.1028 117.886 91.1048C117.78 91.1037 117.675 91.0915 117.571 91.0684V86.4299H116.161C116.135 86.3626 116.123 86.291 116.125 86.2189C116.124 86.1446 116.136 86.0707 116.161 86.0007H119.585C119.61 86.0707 119.622 86.1446 119.621 86.2189C119.621 86.2909 119.609 86.3623 119.585 86.4299H118.195Z" fill="#3C294B"/>
<path d="M120.202 87.1863C120.202 86.408 120.697 85.9644 121.949 85.9644C123.201 85.9644 123.698 86.408 123.698 87.1863V89.9138C123.698 90.6902 123.203 91.1339 121.949 91.1339C120.695 91.1339 120.202 90.6902 120.202 89.9138V87.1863ZM120.824 89.9138C120.824 90.4593 121.118 90.7047 121.949 90.7047C122.78 90.7047 123.074 90.4502 123.074 89.9138V87.1863C123.074 86.6408 122.788 86.3935 121.949 86.3935C121.111 86.3935 120.824 86.648 120.824 87.1863V89.9138Z" fill="#3C294B"/>
<path d="M116.318 98.0454V95.887H116.044C116.031 95.8528 116.025 95.8163 116.026 95.7797C116.025 95.742 116.031 95.7044 116.044 95.6688H116.897C116.91 95.7041 116.917 95.7418 116.916 95.7797C116.917 95.8165 116.91 95.8529 116.897 95.887H116.626V98.0454H116.897C116.911 98.0812 116.917 98.1196 116.916 98.1581C116.917 98.1948 116.91 98.2312 116.897 98.2654H116.038C116.026 98.231 116.02 98.1947 116.021 98.1581C116.02 98.1198 116.026 98.0816 116.038 98.0454H116.318Z" fill="#3C294B"/>
<path d="M118.715 95.887V98.2509C118.663 98.262 118.61 98.268 118.557 98.269C118.503 98.2686 118.45 98.2625 118.398 98.2509V95.887H117.681C117.667 95.8531 117.66 95.8165 117.661 95.7797C117.661 95.7418 117.667 95.7041 117.681 95.6688H119.428C119.44 95.7044 119.446 95.742 119.446 95.7797C119.446 95.8163 119.44 95.8526 119.428 95.887H118.715Z" fill="#3C294B"/>
<path d="M120.311 96.4326C120.285 96.4434 120.258 96.4496 120.23 96.4507C120.204 96.4498 120.178 96.4437 120.153 96.4326C120.273 96.2012 120.328 95.9407 120.311 95.6798C120.391 95.6556 120.476 95.6556 120.556 95.6798C120.556 96.2253 120.311 96.4326 120.311 96.4326Z" fill="#3C294B"/>
<path d="M121.782 96.447C121.782 96.9671 123.127 96.707 123.127 97.4853V97.6671C123.127 98.069 122.903 98.2908 122.285 98.2908C121.667 98.2908 121.448 98.0599 121.448 97.6671V97.6162C121.499 97.6039 121.55 97.5972 121.602 97.5962C121.654 97.5968 121.706 97.6035 121.756 97.6162V97.6671C121.756 97.9453 121.887 98.0726 122.294 98.0726C122.701 98.0726 122.821 97.9453 122.821 97.6671V97.4853C122.821 96.9252 121.475 97.1962 121.475 96.447V96.2652C121.475 95.8652 121.695 95.6433 122.297 95.6433C122.899 95.6433 123.106 95.8688 123.106 96.2652V96.3179C123.055 96.3291 123.005 96.3352 122.953 96.3361C122.901 96.3356 122.85 96.3295 122.799 96.3179V96.2779C122.799 96.0033 122.674 95.8742 122.297 95.8742C121.921 95.8742 121.79 96.007 121.79 96.2779L121.782 96.447Z" fill="#3C294B"/>
<path d="M126.271 97.1871V98.2563C126.22 98.2673 126.167 98.2734 126.115 98.2744C126.062 98.2741 126.009 98.268 125.957 98.2563V97.1871L125.16 95.6778C125.274 95.6536 125.391 95.6536 125.504 95.6778L126.115 96.8798L126.721 95.6778C126.78 95.6667 126.84 95.6606 126.9 95.6597C126.956 95.6608 127.013 95.6669 127.068 95.6778L126.271 97.1871Z" fill="#3C294B"/>
<path d="M127.838 96.2779C127.838 95.8815 128.091 95.656 128.734 95.656C129.377 95.656 129.63 95.8815 129.63 96.2779V97.6653C129.63 98.0635 129.377 98.289 128.734 98.289C128.091 98.289 127.838 98.0635 127.838 97.6653V96.2779ZM128.157 97.6653C128.157 97.9398 128.306 98.0708 128.73 98.0708C129.155 98.0708 129.303 97.9398 129.303 97.6653V96.2779C129.303 96.0033 129.158 95.8742 128.73 95.8742C128.302 95.8742 128.157 96.0033 128.157 96.2779V97.6653Z" fill="#3C294B"/>
<path d="M132.323 97.6599C132.323 98.0581 132.078 98.2836 131.445 98.2836C130.813 98.2836 130.569 98.0581 130.569 97.6599V95.6797C130.622 95.6681 130.675 95.662 130.729 95.6615C130.782 95.6625 130.835 95.6686 130.886 95.6797V97.6599C130.886 97.9344 131.033 98.0653 131.445 98.0653C131.858 98.0653 132.008 97.9344 132.008 97.6599V95.6797C132.112 95.6554 132.22 95.6554 132.323 95.6797V97.6599Z" fill="#3C294B"/>
<path d="M134.097 97.1417H134.079C133.789 97.1417 133.602 97.1272 133.602 97.1272V98.2545C133.551 98.2655 133.499 98.2716 133.446 98.2727C133.392 98.2722 133.338 98.2661 133.285 98.2545V95.687C133.285 95.687 133.599 95.6543 134.079 95.6543C134.684 95.6543 134.923 95.8761 134.923 96.2725V96.518C134.923 96.8362 134.772 97.0453 134.403 97.1144L135.018 98.2545C134.963 98.2659 134.908 98.272 134.853 98.2727C134.797 98.2717 134.742 98.2656 134.688 98.2545L134.097 97.1417ZM133.602 96.9217H134.079C134.469 96.9217 134.616 96.7962 134.616 96.518V96.278C134.616 96.0034 134.478 95.8743 134.079 95.8743H133.602V96.9217Z" fill="#3C294B"/>
<path d="M137.909 95.6543C138.516 95.6543 138.753 95.8761 138.753 96.2725V96.518C138.753 96.918 138.516 97.1417 137.909 97.1417C137.62 97.1417 137.434 97.1272 137.434 97.1272V98.2545C137.382 98.2656 137.329 98.2717 137.276 98.2727C137.222 98.2722 137.168 98.2661 137.115 98.2545V95.687C137.115 95.687 137.431 95.6543 137.909 95.6543ZM137.434 96.9271H137.909C138.299 96.9271 138.446 96.8017 138.446 96.5235V96.278C138.446 96.0034 138.307 95.8743 137.909 95.8743H137.434V96.9271Z" fill="#3C294B"/>
<path d="M140.01 98.0454H141.106C141.12 98.0814 141.126 98.1196 141.126 98.1582C141.126 98.1949 141.119 98.2313 141.106 98.2654H140.427C139.984 98.2654 139.692 98.24 139.692 98.24V95.6798C139.797 95.6557 139.905 95.6557 140.01 95.6798V98.0454Z" fill="#3C294B"/>
<path d="M142.622 95.6797C142.694 95.6678 142.765 95.6617 142.837 95.6615C142.908 95.6618 142.979 95.6679 143.049 95.6797L143.85 98.2544C143.8 98.2655 143.75 98.2716 143.699 98.2726C143.646 98.2714 143.592 98.2653 143.54 98.2544L143.327 97.5708H142.338L142.124 98.2544C142.073 98.2651 142.021 98.2712 141.969 98.2726C141.917 98.2718 141.865 98.2657 141.814 98.2544L142.622 95.6797ZM142.399 97.3526H143.273L142.837 95.9361L142.399 97.3526Z" fill="#3C294B"/>
<path d="M144.592 96.2779C144.592 95.8815 144.825 95.656 145.461 95.656C146.097 95.656 146.306 95.8815 146.306 96.2779V96.3306C146.258 96.3418 146.209 96.3479 146.16 96.3488C146.111 96.3481 146.063 96.342 146.016 96.3306V96.2779C146.016 96.0033 145.885 95.8742 145.461 95.8742C145.036 95.8742 144.909 96.0033 144.909 96.2779V97.6653C144.909 97.9398 145.049 98.0708 145.495 98.0708C145.756 98.0807 146.016 98.0244 146.251 97.9071C146.266 97.9419 146.274 97.9799 146.272 98.018C146.273 98.0573 146.265 98.0962 146.251 98.1326C146.016 98.2478 145.756 98.3016 145.495 98.289C144.835 98.289 144.599 98.0635 144.599 97.6653L144.592 96.2779Z" fill="#3C294B"/>
<path d="M147.545 98.0454H148.75C148.763 98.0816 148.769 98.1198 148.768 98.1581C148.768 98.1947 148.762 98.231 148.75 98.2654H147.96C147.518 98.2654 147.226 98.24 147.226 98.24V95.6943C147.226 95.6943 147.518 95.6688 147.96 95.6688H148.732C148.745 95.7044 148.751 95.742 148.75 95.7797C148.751 95.8163 148.745 95.8526 148.732 95.887H147.545V96.8235H148.62C148.633 96.8575 148.64 96.894 148.639 96.9307C148.64 96.9692 148.633 97.0075 148.62 97.0435H147.545V98.0454Z" fill="#3C294B"/>
<path d="M151.187 98.2545C151.135 98.2656 151.082 98.2717 151.029 98.2727C150.975 98.2721 150.921 98.2661 150.868 98.2545V95.6943C150.868 95.6943 151.162 95.6688 151.603 95.6688H152.346C152.359 95.7044 152.365 95.742 152.364 95.7797C152.365 95.8163 152.359 95.8526 152.346 95.887H151.187V96.8235H152.224C152.238 96.8575 152.245 96.894 152.244 96.9307C152.245 96.9692 152.238 97.0075 152.224 97.0435H151.187V98.2545Z" fill="#3C294B"/>
<path d="M153.22 96.2779C153.22 95.8815 153.472 95.656 154.116 95.656C154.759 95.656 155.011 95.8815 155.011 96.2779V97.6653C155.011 98.0635 154.761 98.289 154.116 98.289C153.471 98.289 153.22 98.0635 153.22 97.6653V96.2779ZM153.537 97.6653C153.537 97.9398 153.687 98.0708 154.112 98.0708C154.537 98.0708 154.685 97.9398 154.685 97.6653V96.2779C154.685 96.0033 154.538 95.8742 154.112 95.8742C153.686 95.8742 153.537 96.0033 153.537 96.2779V97.6653Z" fill="#3C294B"/>
<path d="M156.76 97.1417H156.742C156.453 97.1417 156.267 97.1272 156.267 97.1272V98.2545C156.215 98.2656 156.163 98.2717 156.11 98.2727C156.055 98.2722 156.001 98.2661 155.948 98.2545V95.687C155.948 95.687 156.264 95.6543 156.742 95.6543C157.349 95.6543 157.586 95.8761 157.586 96.2725V96.518C157.586 96.8362 157.437 97.0453 157.068 97.1144L157.681 98.2545C157.627 98.2659 157.571 98.272 157.516 98.2727C157.461 98.2716 157.407 98.2655 157.353 98.2545L156.76 97.1417ZM156.267 96.9217H156.742C157.133 96.9217 157.279 96.7962 157.279 96.518V96.278C157.279 96.0034 157.14 95.8743 156.742 95.8743H156.267V96.9217Z" fill="#3C294B"/>
<path d="M161.276 95.9979L160.739 98.2545C160.668 98.2661 160.596 98.2722 160.524 98.2726C160.452 98.2724 160.381 98.2663 160.311 98.2545L159.649 95.6797C159.7 95.6688 159.752 95.6627 159.803 95.6615C159.858 95.6626 159.912 95.6687 159.965 95.6797L160.534 97.9599L161.086 95.6797C161.149 95.6673 161.212 95.6612 161.276 95.6615C161.341 95.6614 161.406 95.6675 161.47 95.6797L162.025 97.9599L162.591 95.6797C162.643 95.6686 162.696 95.6625 162.749 95.6615C162.801 95.6624 162.852 95.6684 162.903 95.6797L162.247 98.2545C162.105 98.2787 161.96 98.2787 161.817 98.2545L161.276 95.9979Z" fill="#3C294B"/>
<path d="M163.913 98.0454V95.887H163.639C163.626 95.8528 163.62 95.8163 163.621 95.7797C163.621 95.742 163.627 95.7044 163.639 95.6688H164.499C164.512 95.7044 164.518 95.742 164.517 95.7797C164.517 95.8163 164.511 95.8526 164.499 95.887H164.229V98.0454H164.499C164.512 98.0815 164.518 98.1197 164.517 98.1581C164.517 98.1947 164.511 98.231 164.499 98.2654H163.639C163.627 98.231 163.621 98.1947 163.621 98.1581C163.621 98.1198 163.627 98.0816 163.639 98.0454H163.913Z" fill="#3C294B"/>
<path d="M165.368 95.6797C165.413 95.668 165.46 95.6619 165.506 95.6615C165.552 95.6622 165.598 95.6683 165.642 95.6797L166.866 97.6798V95.6797C166.915 95.6682 166.966 95.6621 167.017 95.6615C167.067 95.6621 167.116 95.6682 167.165 95.6797V98.2544C167.121 98.2659 167.076 98.272 167.031 98.2726C166.985 98.2719 166.939 98.2658 166.895 98.2544L165.671 96.2543V98.2544C165.622 98.2659 165.571 98.272 165.52 98.2726C165.469 98.2717 165.418 98.2656 165.368 98.2544V95.6797Z" fill="#3C294B"/>
<path d="M168.122 95.6797C168.168 95.6681 168.215 95.662 168.262 95.6615C168.307 95.6621 168.352 95.6682 168.396 95.6797L169.622 97.6798V95.6797C169.72 95.6555 169.823 95.6555 169.921 95.6797V98.2544C169.832 98.2787 169.739 98.2787 169.65 98.2544L168.427 96.2543V98.2544C168.377 98.2659 168.327 98.272 168.276 98.2726C168.224 98.2718 168.173 98.2657 168.122 98.2544V95.6797Z" fill="#3C294B"/>
<path d="M171.068 98.0454V95.887H170.793C170.781 95.8528 170.774 95.8163 170.775 95.7797C170.775 95.742 170.781 95.7044 170.793 95.6688H171.653C171.666 95.7044 171.672 95.742 171.671 95.7797C171.672 95.8163 171.666 95.8526 171.653 95.887H171.383V98.0454H171.653C171.666 98.0815 171.672 98.1197 171.671 98.1581C171.671 98.1947 171.665 98.231 171.653 98.2654H170.793C170.781 98.231 170.775 98.1947 170.775 98.1581C170.775 98.1198 170.781 98.0816 170.793 98.0454H171.068Z" fill="#3C294B"/>
<path d="M172.523 95.6797C172.569 95.668 172.615 95.6619 172.661 95.6615C172.707 95.6622 172.753 95.6683 172.798 95.6797L174.021 97.6798V95.6797C174.071 95.6682 174.121 95.6621 174.172 95.6615C174.222 95.6621 174.272 95.6682 174.321 95.6797V98.2544C174.233 98.2787 174.14 98.2787 174.052 98.2544L172.826 96.2543V98.2544C172.777 98.2658 172.728 98.2719 172.678 98.2726C172.626 98.2718 172.574 98.2657 172.523 98.2544V95.6797Z" fill="#3C294B"/>
<path d="M177 98.1162C176.73 98.2286 176.44 98.2843 176.147 98.2799C175.519 98.2799 175.27 98.058 175.27 97.6598V96.2779C175.27 95.8815 175.508 95.656 176.147 95.656C176.787 95.656 177 95.8815 177 96.2779V96.3306C176.953 96.342 176.905 96.3481 176.857 96.3488C176.807 96.3483 176.758 96.3422 176.71 96.3306V96.2779C176.71 96.0033 176.576 95.8742 176.147 95.8742C175.719 95.8742 175.588 96.0033 175.588 96.2779V97.6653C175.588 97.9398 175.735 98.0708 176.147 98.0708C176.335 98.0761 176.522 98.042 176.696 97.9708V97.1198H176.201C176.188 97.0845 176.181 97.0468 176.181 97.0089C176.18 96.9721 176.187 96.9355 176.201 96.9016H176.364C176.753 96.9016 177.009 96.927 177.009 96.927L177 98.1162Z" fill="#3C294B"/>
</g>
<defs>
<clipPath id="clip0">
<rect width="117" height="44" fill="white" transform="translate(60 55)"/>
</clipPath>
</defs>
</svg>
