<svg version="1.1" id="Слой_1" xmlns="http://www.w3.org/2000/svg" xmlns:xlink="http://www.w3.org/1999/xlink" x="0px" y="0px"
	 viewBox="0 0 1920 1080" style="enable-background:new 0 0 1920 1080;" xml:space="preserve">
<g>
	<path class="st0" d="M0.5,1079.5V0.5h1919v1079H0.5z M960.5,752l55.4-148.1l168.2-54.4l-175.2-62.4L960.5,347l-50.4,146.1
		l-172.2,46.3l171.2,67.5L960.5,752z" fill="#6CE539"/>
	<path d="M1919,1v1078H1V1H1919 M909.7,492.7l-170.5,45.9l-2.9,0.8l2.8,1.1l169.6,66.8l50.8,143.6l0.9,2.6l1-2.6l54.8-146.5
		l166.5-53.9l2.8-0.9l-2.8-1l-173.5-61.8l-47.8-138.5l-0.9-2.7l-0.9,2.7L909.7,492.7 M1920,0H0v1080h1920V0L1920,0z M960.5,750.5
		l-51-144l-170-67l171-46l50-145l48,139l174,62l-167,54L960.5,750.5L960.5,750.5z"/>
</g>
</svg>
