<svg width="1920" height="1080" viewBox="0 0 1920 1080" fill="none" xmlns="http://www.w3.org/2000/svg">
	<path class="st0" d="M977.5,553.6l4.8,16.5l6.2-13.4l1.1-12.4L977.5,553.6z" fill="#98BC24"/>
	<path class="st1" d="M985.1,507.4l-7.3,16l-5.7-19.7L985.1,507.4z" fill="#D0D821"/>
	<path class="st2" d="M989.6,544.3l-1.7-3.1l-10.1-18.2l-0.3,30.6L989.6,544.3z" fill="#B4CE0D"/>
	<path class="st3" d="M982.3,570.1l-4.8-16.6l-8.4,25.8L982.3,570.1z" fill="#7DA305"/>
	<path class="st0" d="M989.6,544.3l-4.7-21.6l0.2-15.4l-7.3,15.8L989.6,544.3z" fill="#98BC24"/>
	<path class="st4" d="M949.2,579.3l6.7-21.9l13.2,21.9H949.2z" fill="#A35F05"/>
	<path class="st5" d="M955.9,557.4l13.2,21.9l8.4-25.6L955.9,557.4z" fill="#99B22F"/>
	<path class="st6" d="M935.1,569.6l20.8-12.3l-6.7,21.9L935.1,569.6z" fill="#BC540D"/>
	<path class="st7" d="M942.4,543.7l13.5,13.7l-20.8,12.3L942.4,543.7z" fill="#E56915"/>
	<path class="st8" d="M929.2,555l13.2-11.3l-7.3,25.9L929.2,555" fill="#FA7C0D"/>
	<path class="st9" d="M964,530.8l-8.1,26.6l-13.5-13.5L964,530.8z" fill="#E6DF53"/>
	<path class="st2" d="M977.5,553.6L964,530.8l-8.1,26.6L977.5,553.6z" fill="#B4CE0D"/>
	<path class="st0" d="M977.8,523.2l-0.3,30.4L963.7,531L977.8,523.2z" fill="#98BC24"/>
	<path class="st10" d="M958.6,517.8l13.7-14.1l-8.4,27.5L958.6,517.8z" fill="#DCE939"/>
	<path class="st11" d="M942.4,543.9l16.2-26.1l5.3,13L942.4,543.9z" fill="#FBEF69"/>
	<path class="st12" d="M929.2,555l4-14l5-11.3l4.2,14.1L929.2,555" fill="#FFAE5B"/>
	<path class="st13" d="M958.6,517.8l-20.3,12l4.2,14.1L958.6,517.8z" fill="#C5DA13"/>
	<path class="st2" d="M962.9,501l-4.3,16.8l-20.3,12l16.3-15.5L962.9,501" fill="#B4CE0D"/>
	<path class="st14" d="M962.9,501l9.3,2.6l-13.7,14.1L962.9,501" fill="#CDD128"/>
	<path class="st15" d="M963.8,531l8.4-27.3l5.6,19.6L963.8,531z" fill="#B8CE19"/>
	<path class="st16" d="M971.5,501.2l5.1,1.4l0.8,2.6l-8.5-2.5L971.5,501.2" fill="#B08A1B"/>
</svg>