<?xml version="1.0" encoding="utf-8"?>
<!-- Generator: Adobe Illustrator 21.1.0, SVG Export Plug-In . SVG Version: 6.00 Build 0)  -->
<svg version="1.1" id="Слой_1" xmlns="http://www.w3.org/2000/svg" xmlns:xlink="http://www.w3.org/1999/xlink" x="0px" y="0px"
	 viewBox="0 0 2000 1300" style="enable-background:new 0 0 2000 1300;" xml:space="preserve">
<style type="text/css">
	.st0{fill:#98BC24;}
	.st1{fill:#D0D821;}
	.st2{fill:#B4CE0D;}
	.st3{fill:#7DA305;}
	.st4{fill:#A35F05;}
	.st5{fill:#99B22F;}
	.st6{fill:#BC540D;}
	.st7{fill:#E56915;}
	.st8{fill:#FA7C0D;}
	.st9{fill:#E6DF53;}
	.st10{fill:#DCE939;}
	.st11{fill:#FBEF69;}
	.st12{fill:#FFAE5B;}
	.st13{fill:#C5DA13;}
	.st14{fill:#CDD128;}
	.st15{fill:#B8CE19;}
	.st16{fill:#B08A1B;}
</style>
<path class="st0" d="M1018,663.1l4.8,16.5l6.2-13.4l1.1-12.4L1018,663.1z"/>
<path class="st1" d="M1025.6,616.9l-7.3,16l-5.7-19.7L1025.6,616.9z"/>
<path class="st2" d="M1030.1,653.8l-1.7-3.1l-10.1-18.2l-0.3,30.6L1030.1,653.8z"/>
<path class="st3" d="M1022.8,679.6L1018,663l-8.4,25.8L1022.8,679.6z"/>
<path class="st0" d="M1030.1,653.8l-4.7-21.6l0.2-15.4l-7.3,15.8L1030.1,653.8z"/>
<path class="st4" d="M989.7,688.8l6.7-21.9l13.2,21.9H989.7z"/>
<path class="st5" d="M996.4,666.9l13.2,21.9l8.4-25.6L996.4,666.9z"/>
<path class="st6" d="M975.6,679.1l20.8-12.3l-6.7,21.9L975.6,679.1z"/>
<path class="st7" d="M982.9,653.2l13.5,13.7l-20.8,12.3L982.9,653.2z"/>
<path class="st8" d="M969.7,664.5l13.2-11.3l-7.3,25.9L969.7,664.5z"/>
<path class="st9" d="M1004.5,640.3l-8.1,26.6l-13.5-13.5L1004.5,640.3z"/>
<path class="st2" d="M1018,663.1l-13.5-22.8l-8.1,26.6L1018,663.1z"/>
<path class="st0" d="M1018.3,632.7l-0.3,30.4l-13.8-22.7L1018.3,632.7z"/>
<path class="st10" d="M999.1,627.3l13.7-14.1l-8.4,27.5L999.1,627.3z"/>
<path class="st11" d="M982.9,653.4l16.2-26.1l5.3,13L982.9,653.4z"/>
<path class="st12" d="M978.7,639.2l4.2,14.1l-13.2,11.2l4-14L978.7,639.2z"/>
<path class="st13" d="M999.1,627.3l-20.3,12l4.2,14.1L999.1,627.3z"/>
<path class="st2" d="M978.7,639.2l16.3-15.5l8.4-13.2l-4.3,16.8L978.7,639.2z"/>
<path class="st14" d="M1003.4,610.5l9.3,2.6l-13.7,14.1L1003.4,610.5z"/>
<path class="st15" d="M1004.3,640.5l8.4-27.3l5.6,19.6L1004.3,640.5z"/>
<path class="st16" d="M1012,610.7l5.1,1.4l0.8,2.6l-8.5-2.5L1012,610.7z"/>
</svg>
