<?xml version="1.0" encoding="utf-8"?>
<!-- Generator: Adobe Illustrator 21.1.0, SVG Export Plug-In . SVG Version: 6.00 Build 0)  -->
<svg version="1.1" id="Слой_1" xmlns="http://www.w3.org/2000/svg" xmlns:xlink="http://www.w3.org/1999/xlink" x="0px" y="0px"
	 viewBox="0 0 1920 1080" style="enable-background:new 0 0 1920 1080;" xml:space="preserve">
<style type="text/css">
	.st0{fill:#6CE539;}
</style>
<g>
	<path class="st0" d="M960.3,1079.5l131.5-416.6l827.6-122.8v539.3H960.3z M0.5,1079.5V541.2L798.1,662l160.4,417.5H0.5z M0.5,0.5
		h960.1L798.1,427L0.5,539.9V0.5z M1093.9,423L962.3,0.5h957.2v538.4L1093.9,423z"/>
	<path d="M1919,1v537.3l-824.7-115.7L963,1H1919 M959.9,1L797.8,426.6L1,539.3V1H959.9 M1919,540.7V1079H961l131.2-415.6L1919,540.7
		 M1,541.7l796.8,120.7L957.9,1079H1V541.7 M961.5-0.5L961.3,0h0.3L961.5-0.5L961.5-0.5z M1920,0H961.7l131.8,423.5L1920,539.4V0
		L1920,0z M961.3,0H0v540.4l798.5-112.9L961.3,0L961.3,0z M1920,539.4v0.1l0.5-0.1L1920,539.4L1920,539.4z M1920,539.6l-828.5,122.9
		L959.7,1080H1920V539.6L1920,539.6z M0,540.4l-0.5,0.1l0.5,0.1V540.4L0,540.4z M0,540.6V1080h959.3L798.5,661.5L0,540.6L0,540.6z
		 M959.7,1080h-0.4l0.2,0.5L959.7,1080L959.7,1080z"/>
</g>
</svg>
