<?xml version="1.0" encoding="utf-8"?>
<!-- Generator: Adobe Illustrator 21.1.0, SVG Export Plug-In . SVG Version: 6.00 Build 0)  -->
<svg version="1.1" id="Слой_1" xmlns="http://www.w3.org/2000/svg" xmlns:xlink="http://www.w3.org/1999/xlink" x="0px" y="0px"
	 viewBox="0 0 2000 1300" style="enable-background:new 0 0 2000 1300;" xml:space="preserve">
<style type="text/css">
	.st0{fill:#98BC24;}
	.st1{fill:#D0D821;}
	.st2{fill:#B4CE0D;}
	.st3{fill:#7DA305;}
	.st4{fill:#A35F05;}
	.st5{fill:#99B22F;}
	.st6{fill:#BC540D;}
	.st7{fill:#E56915;}
	.st8{fill:#FA7C0D;}
	.st9{fill:#E6DF53;}
	.st10{fill:#DCE939;}
	.st11{fill:#FBEF69;}
	.st12{fill:#FFAE5B;}
	.st13{fill:#C5DA13;}
	.st14{fill:#CDD128;}
	.st15{fill:#B8CE19;}
	.st16{fill:#B08A1B;}
</style>
<path class="st0" d="M1911.5,1287.5l4.8,16.5l6.2-13.4l1.1-12.4L1911.5,1287.5z"/>
<path class="st1" d="M863.5,10.8l-7.3,16l-5.7-19.7L863.5,10.8z"/>
<path class="st2" d="M1592.2,32.8l-1.7-3.1l-10.1-18.2l-0.3,30.6L1592.2,32.8z"/>
<path class="st3" d="M1513.1,1283.8l-4.8-16.6l-8.4,25.8L1513.1,1283.8z"/>
<path class="st0" d="M1265.2,45.3l-4.7-21.6l0.2-15.4l-7.3,15.8L1265.2,45.3z"/>
<path class="st4" d="M895,1302l6.7-21.9l13.2,21.9H895z"/>
<path class="st5" d="M1138,1282l13.2,21.9l8.4-25.6L1138,1282z"/>
<path class="st6" d="M587.6,1292.4l20.8-12.3l-6.7,21.9L587.6,1292.4z"/>
<path class="st7" d="M312.6,1278.1l13.5,13.7l-20.8,12.3L312.6,1278.1z"/>
<path class="st8" d="M22.6,1276.5l13.2-11.3l-7.3,25.9L22.6,1276.5z"/>
<path class="st9" d="M776.1,1266.8l-8.1,26.6l-13.5-13.5L776.1,1266.8z"/>
<path class="st2" d="M1345.6,1289.7l-13.5-22.8l-8.1,26.6L1345.6,1289.7z"/>
<path class="st0" d="M1968.7,154.9l-0.3,30.4l-13.8-22.7L1968.7,154.9z"/>
<path class="st10" d="M393.5,15.3l13.7-14.1l-8.4,27.5L393.5,15.3z"/>
<path class="st11" d="M11.9,782.5L28,756.4l5.3,13L11.9,782.5z"/>
<path class="st12" d="M25,1083.2l4.2,14.1L16,1108.5l4-14L25,1083.2z"/>
<path class="st13" d="M32.8,500.4l-20.3,12l4.2,14.1L32.8,500.4z"/>
<path class="st2" d="M16.9,382.9l16.3-15.5l8.4-13.2l-4.3,16.8L16.9,382.9z"/>
<path class="st14" d="M20.1,146.5l9.3,2.6l-13.7,14.1L20.1,146.5z"/>
<path class="st15" d="M201.7,42.3l8.4-27.3l5.6,19.6L201.7,42.3z"/>
<path class="st16" d="M622.6,12.9l5.1,1.4l0.8,2.6l-8.5-2.5L622.6,12.9z"/>
</svg>
