<svg width="236" height="153" viewBox="0 0 236 153" fill="none" xmlns="http://www.w3.org/2000/svg">
<rect width="236" height="153" fill="white"/>
<path d="M96.0819 73.4473H98.3733C100.045 73.4473 100.851 72.2636 100.851 71.0799C100.851 69.8962 100.045 68.5256 98.3733 68.5256H95.3388V80.3627H93.4189V66.532H98.3733C101.346 66.532 102.832 68.8994 102.832 71.0799C102.832 73.0112 101.656 74.8802 99.3023 75.254L103.575 80.425H101.036L96.0819 74.4441V73.4473Z" fill="#163551"/>
<path d="M115.095 75.5655H106.177C106.177 77.6214 108.158 78.8674 109.707 78.8674C111.007 78.8674 112.184 78.3067 112.865 77.123H114.847C114.042 79.4281 111.874 80.6118 109.707 80.6118C106.982 80.6118 104.257 78.8051 104.257 75.1294C104.257 71.516 106.92 69.647 109.707 69.647C112.308 69.647 114.847 71.3291 115.095 74.631C115.157 74.9425 115.157 75.254 115.095 75.5655ZM113.113 73.9457C112.741 72.0767 111.255 71.3291 109.707 71.3291C108.158 71.3291 106.61 72.0767 106.239 73.9457H113.113Z" fill="#163551"/>
<path d="M128.533 69.7716V80.3626H126.614V78.9297C125.87 80.1134 124.136 80.4872 122.836 80.5495C119.182 80.5495 117.2 77.9329 117.2 75.0671C117.2 72.2013 119.244 69.647 122.836 69.647C124.136 69.647 125.685 69.9585 126.614 71.2045V69.7716H128.533ZM122.836 71.3291C120.544 71.3914 119.182 73.0112 119.182 75.0671C119.182 77.123 120.606 78.9297 123.022 78.8674C124.756 78.8051 126.675 77.5591 126.675 75.0671C126.614 72.5128 124.632 71.2668 122.836 71.3291Z" fill="#163551"/>
<path d="M133.179 80.3627H131.259V66.6566H133.179V80.3627Z" fill="#163551"/>
<path d="M138.876 80.3627V68.401H134.727V66.532H144.883V68.401H140.796V80.3627H138.876Z" fill="#163551"/>
<path d="M157.455 69.7716V80.3626H155.535V78.9297C154.792 80.1134 153.058 80.4872 151.758 80.5495C148.104 80.5495 146.122 77.9329 146.122 75.0671C146.122 72.2013 148.166 69.647 151.758 69.647C153.058 69.647 154.606 69.9585 155.535 71.2045V69.7716H157.455ZM151.696 71.3291C149.404 71.3914 148.042 73.0112 148.042 75.0671C148.042 77.123 149.466 78.9297 151.882 78.8674C153.616 78.8051 155.535 77.5591 155.535 75.0671C155.535 72.5128 153.492 71.2668 151.696 71.3291Z" fill="#163551"/>
<path d="M163.957 74.1949C165.939 74.3195 168.169 74.9425 168.169 77.3722C168.169 79.8642 165.753 80.5495 163.772 80.5495C161.604 80.5495 159.56 79.615 159.437 77.123H161.356C161.418 78.3067 162.533 78.9297 163.895 78.8674C164.824 78.8674 166.311 78.5559 166.311 77.3099C166.311 76.1262 164.701 75.9393 163.772 75.877C161.914 75.8147 159.622 75.1917 159.622 72.8243C159.622 70.3945 161.79 69.5223 163.834 69.5223C165.939 69.5223 167.735 70.3945 167.921 72.6374H166.063C165.939 71.7029 164.948 71.2667 163.834 71.2667C162.657 71.2667 161.604 71.7029 161.604 72.8243C161.48 74.1949 162.967 74.1326 163.957 74.1949Z" fill="#163551"/>
<path d="M172.255 74.8802L173.866 72.9489L176.776 69.8338H179.068L174.856 74.3818L179.377 80.238V80.4249H177.21L173.68 75.7524L172.317 77.2476V80.4872H170.397V66.7811H172.317V74.8802H172.255Z" fill="#163551"/>
<path d="M191.392 75.5655H182.475C182.475 77.6214 184.456 78.8674 186.005 78.8674C187.305 78.8674 188.482 78.3067 189.163 77.123H191.145C190.34 79.4281 188.172 80.6118 186.005 80.6118C183.28 80.6118 180.555 78.8051 180.555 75.1294C180.555 71.516 183.218 69.647 186.005 69.647C188.606 69.647 191.145 71.3291 191.392 74.631C191.454 74.9425 191.454 75.254 191.392 75.5655ZM189.411 73.9457C189.039 72.0767 187.553 71.3291 186.005 71.3291C184.456 71.3291 182.908 72.0767 182.536 73.9457H189.411Z" fill="#163551"/>
<path d="M195.79 69.8339V71.1423C196.78 69.7093 198.329 69.3978 200.001 69.7716V71.4538C197.833 70.8307 195.79 72.3883 195.79 74.6934V80.425H193.932V69.8339H195.79Z" fill="#163551"/>
<path d="M94.1611 91.7636C94.1611 90.0192 95.152 88.9601 96.6383 88.9601C97.8769 88.9601 98.8059 89.7077 98.9297 90.8291H98.1247C98.0008 90.1438 97.3815 89.6454 96.6383 89.6454C95.6475 89.6454 95.0281 90.4553 95.0281 91.7013C95.0281 92.9473 95.6475 93.7572 96.6383 93.7572C97.3815 93.7572 97.9389 93.3834 98.1247 92.6981H98.9917C98.8059 93.8195 97.9389 94.5048 96.7003 94.5048C95.152 94.5671 94.1611 93.508 94.1611 91.7636Z" fill="black"/>
<path d="M110.821 94.5048H107.477V89.0223H108.344V93.7572H110.883V94.5048H110.821Z" fill="black"/>
<path d="M119.862 92.5112C119.862 93.3211 120.358 93.8195 121.225 93.8195C122.092 93.8195 122.587 93.2588 122.587 92.5112V89.0223H123.454V92.5735C123.454 93.7572 122.649 94.5671 121.287 94.5671C119.924 94.5671 119.119 93.7572 119.119 92.5735V89.0223H119.986V92.5112H119.862Z" fill="black"/>
<path d="M132.124 94.5048V89.0223H134.292C135.282 89.0223 135.902 89.583 135.902 90.3929C135.902 90.9536 135.468 91.5144 134.911 91.5767C135.654 91.639 136.149 92.1997 136.149 92.885C136.149 93.8195 135.468 94.4425 134.292 94.4425H132.124V94.5048ZM132.929 91.3898H133.858C134.601 91.3898 134.973 91.0782 134.973 90.5175C134.973 90.0191 134.601 89.7076 134.044 89.7076H132.929V91.3898ZM134.106 93.8195C134.849 93.8195 135.282 93.508 135.282 92.885C135.282 92.3243 134.849 92.0128 134.044 92.0128H132.929V93.8195H134.106Z" fill="black"/>
<path d="M54.5881 84.2875L54.2166 83.9137C52.916 82.6054 52.916 80.5495 54.2166 79.2412L70.3803 62.9808C66.8503 59.3051 61.8959 57 56.3841 57C45.6702 57 37 65.722 37 76.5C37 87.278 45.6702 96 56.3841 96C56.6938 96 57.0034 96 57.3131 96H75.7063V77.4968C75.7063 77.1853 75.7063 76.8115 75.7063 76.5C75.7063 73.8834 75.2109 71.3291 74.22 69.0863L59.2329 84.2875C57.9324 85.5335 55.8267 85.5335 54.5881 84.2875ZM51.3678 81.0479L47.9616 77.6214C46.5992 76.2508 46.5992 74.008 47.9616 72.5751C49.3241 71.2045 51.5536 71.2045 52.978 72.5751L55.5171 75.1294L52.978 77.6214C52.978 77.6214 51.5536 78.992 51.3678 81.0479Z" fill="url(#paint0_linear)"/>
<defs>
<linearGradient id="paint0_linear" x1="42.6774" y1="62.7152" x2="75.9515" y2="95.7915" gradientUnits="userSpaceOnUse">
<stop stop-color="#0071E0"/>
<stop offset="0.2369" stop-color="#006FDC"/>
<stop offset="0.4697" stop-color="#006AD0"/>
<stop offset="0.7009" stop-color="#0060BD"/>
<stop offset="0.9298" stop-color="#0054A1"/>
<stop offset="1" stop-color="#004F97"/>
</linearGradient>
</defs>
</svg>
