<svg width="236" height="153" viewBox="0 0 236 153" fill="none" xmlns="http://www.w3.org/2000/svg">
<rect width="236" height="153" fill="white"/>
<g clip-path="url(#clip0)">
<path d="M88.9834 83.5848V65.0251H97.09C97.8941 65.0173 98.689 65.1963 99.4117 65.5477C100.103 65.8837 100.722 66.3499 101.235 66.9204C101.744 67.49 102.148 68.1448 102.429 68.8547C102.713 69.5567 102.86 70.3065 102.861 71.0635C102.862 71.6747 102.772 72.2826 102.595 72.8676C102.425 73.4303 102.178 73.9668 101.861 74.4618C101.549 74.9455 101.159 75.3739 100.705 75.7291C100.259 76.0818 99.7521 76.3517 99.2099 76.5262L103.601 83.5848H100.269L96.2233 77.1284H91.9211V83.5848H88.9834ZM91.922 74.537H97.0633C97.4607 74.5426 97.8532 74.4485 98.2046 74.2634C98.5493 74.0771 98.8492 73.8184 99.0837 73.5052C99.3359 73.1688 99.5308 72.7933 99.6606 72.3938C99.8026 71.9637 99.8735 71.5136 99.8704 71.0609C99.8727 70.6063 99.7882 70.1555 99.6215 69.7324C99.4662 69.3322 99.2444 68.961 98.9655 68.6342C98.7024 68.3271 98.3818 68.0741 98.0215 67.8893C97.6772 67.7098 97.2946 67.6156 96.906 67.6148H91.922V74.537Z" fill="black"/>
<path d="M118.89 80.997V83.5848H106.115V65.0251H118.655V67.613H109.056V72.8933H117.372V75.3244H109.056V80.997H118.89Z" fill="black"/>
<path d="M133.924 82.2253C133.223 82.6961 132.459 83.0655 131.654 83.3226C130.819 83.5879 129.947 83.7203 129.07 83.715C127.812 83.7309 126.568 83.4534 125.437 82.9046C124.37 82.3847 123.412 81.6662 122.616 80.7879C121.824 79.9073 121.205 78.8857 120.793 77.7767C120.369 76.6665 120.151 75.4885 120.15 74.3005C120.147 73.0828 120.378 71.8758 120.833 70.7455C121.272 69.6402 121.909 68.6233 122.712 67.744C123.509 66.8716 124.472 66.1652 125.545 65.6654C126.666 65.1457 127.89 64.8824 129.126 64.8949C130.386 64.8792 131.631 65.1611 132.76 65.7177C133.828 66.2477 134.781 66.9803 135.567 67.8742C136.346 68.7652 136.96 69.7877 137.379 70.8934C137.802 71.9905 138.019 73.1554 138.021 74.3306C138.027 75.5334 137.805 76.7264 137.365 77.8467C136.938 78.9378 136.315 79.9429 135.529 80.8136L137.969 83.5848H135.135L133.924 82.2253ZM129.097 81.074C129.648 81.0779 130.196 80.9988 130.723 80.8393C131.216 80.6895 131.684 80.4694 132.114 80.1857L129.468 77.1284H132.3L133.639 78.6703C134.098 78.0512 134.444 77.3566 134.662 76.6183C134.888 75.8678 135.003 75.0885 135.004 74.3049C135.007 73.4379 134.865 72.5764 134.583 71.756C134.317 70.972 133.913 70.2417 133.389 69.5995C132.879 68.9758 132.245 68.4633 131.527 68.0939C130.776 67.7135 129.943 67.5208 129.101 67.5324C128.156 67.5324 127.316 67.7284 126.581 68.1204C125.859 68.5004 125.223 69.0254 124.715 69.6624C124.2 70.3116 123.805 71.0461 123.547 71.8322C123.001 73.4572 123.005 75.2159 123.56 76.8379C123.823 77.627 124.228 78.3622 124.754 79.0077C125.267 79.6341 125.906 80.1469 126.629 80.5133C127.395 80.8951 128.241 81.0877 129.097 81.0749V81.074Z" fill="black"/>
<path d="M141.296 65.0251L146.91 79.8988L152.499 65.0251H155.621L148.17 83.5848H145.651L138.179 65.0251H141.296Z" fill="black"/>
<path d="M170.468 80.997V83.5848H157.692V65.0251H170.233V67.613H160.633V72.8933H168.95V75.3244H160.633V80.997H170.468Z" fill="black"/>
<path d="M183.928 69.3904C183.7 69.1561 183.445 68.95 183.168 68.7766C182.797 68.5382 182.407 68.332 182 68.1602C181.526 67.9598 181.034 67.8024 180.531 67.6899C179.994 67.5672 179.444 67.5057 178.892 67.5066C177.648 67.5066 176.734 67.733 176.15 68.1859C175.566 68.6388 175.273 69.2664 175.272 70.0688C175.272 70.5211 175.363 70.8913 175.546 71.1794C175.764 71.4978 176.057 71.7581 176.4 71.9375C176.856 72.1844 177.341 72.3773 177.842 72.5123C178.419 72.6776 179.092 72.8562 179.863 73.0481C180.729 73.252 181.583 73.5051 182.42 73.8062C183.111 74.0479 183.761 74.3915 184.349 74.8256C184.865 75.2186 185.283 75.7263 185.568 76.3082C185.857 76.8915 186.001 77.6001 186 78.4337C186 79.3749 185.821 80.1853 185.463 80.8649C185.117 81.5296 184.612 82.0995 183.993 82.5246C183.336 82.9683 182.602 83.2874 181.829 83.466C180.961 83.6715 180.071 83.7723 179.179 83.7662C177.785 83.7698 176.4 83.5537 175.073 83.1259C173.78 82.7137 172.569 82.0814 171.492 81.2572L172.831 78.7473C173.132 79.0325 173.462 79.2866 173.815 79.5054C174.288 79.8079 174.789 80.0662 175.31 80.2768C175.911 80.5228 176.529 80.7239 177.16 80.8781C177.837 81.0453 178.533 81.1286 179.232 81.1261C180.387 81.1261 181.279 80.9257 181.908 80.5248C182.537 80.1239 182.852 79.5314 182.852 78.7473C182.852 78.2749 182.734 77.8829 182.496 77.5711C182.224 77.2274 181.879 76.9467 181.487 76.7484C180.976 76.4833 180.44 76.2685 179.887 76.1071C179.257 75.9158 178.54 75.7157 177.736 75.5067C176.913 75.2957 176.103 75.0382 175.309 74.7353C174.686 74.5047 174.106 74.1734 173.591 73.7549C173.149 73.3889 172.795 72.9289 172.554 72.4087C172.317 71.895 172.199 71.2721 172.199 70.54C172.199 69.6336 172.374 68.8277 172.724 68.1221C173.062 67.4309 173.55 66.8236 174.153 66.3446C174.789 65.8489 175.516 65.4804 176.292 65.2597C177.161 65.0089 178.063 64.8857 178.968 64.8939C180.158 64.8819 181.34 65.0854 182.457 65.4944C183.457 65.8602 184.402 66.3618 185.264 66.985L183.928 69.3904Z" fill="black"/>
<path d="M89.8239 88.5011H88.8896V88.176H91.1474V88.5037H90.215V91.2492H89.8239V88.5011Z" fill="black"/>
<path d="M94.96 88.176H95.3546V89.4602H96.7866V88.176H97.1759V91.2448H96.7866V89.7968H95.3546V91.2421H94.96V88.176Z" fill="black"/>
<path d="M101.283 88.176H103.061V88.5037H101.681V89.4673H102.845V89.7994H101.681V90.9127H103.108V91.2448H101.287L101.283 88.176Z" fill="black"/>
<path d="M111.255 88.176H111.649V89.7153H111.658L112.94 88.176H113.384L112.417 89.346L113.529 91.2448H113.093L112.173 89.6506L111.648 90.2706V91.2448H111.253L111.255 88.176Z" fill="black"/>
<path d="M117.235 88.176H119.013V88.5037H117.633V89.4673H118.797V89.7994H117.633V90.9127H119.056V91.2448H117.234L117.235 88.176Z" fill="black"/>
<path d="M123.473 90.0536L122.544 88.176H122.966L123.361 89.0413C123.459 89.2663 123.553 89.4841 123.661 89.7109H123.68C123.783 89.4815 123.891 89.268 123.985 89.0413L124.384 88.176H124.787L123.867 90.0536V91.2421H123.477L123.473 90.0536Z" fill="black"/>
<path d="M133.345 88.5011H132.41V88.176H134.669V88.5037H133.734V91.2492H133.344L133.345 88.5011Z" fill="black"/>
<path d="M138.19 89.694C138.19 88.7118 138.734 88.1176 139.51 88.1176C140.285 88.1176 140.824 88.7163 140.824 89.694C140.824 90.6718 140.279 91.2979 139.51 91.2979C138.74 91.2979 138.19 90.6806 138.19 89.694ZM140.42 89.694C140.42 88.9315 140.059 88.4585 139.51 88.4585C138.96 88.4585 138.594 88.9315 138.594 89.694C138.594 90.4566 138.955 90.9569 139.51 90.9569C140.064 90.9569 140.42 90.461 140.42 89.694Z" fill="black"/>
<path d="M148.667 88.176H149.071L149.395 89.8464C149.455 90.1785 149.517 90.5053 149.578 90.8374H149.597C149.663 90.5053 149.737 90.1732 149.813 89.8464L150.239 88.176H150.595L151.022 89.8464C151.092 90.1687 151.167 90.5053 151.242 90.8374H151.262C151.322 90.5053 151.379 90.1732 151.439 89.8464L151.764 88.176H152.143L151.505 91.2448H151.031L150.567 89.3973C150.515 89.1582 150.463 88.9386 150.421 88.7003H150.402C150.351 88.9386 150.299 89.1582 150.247 89.3973L149.787 91.2448H149.322L148.667 88.176Z" fill="black"/>
<path d="M155.934 88.176H156.328V91.2448H155.934V88.176Z" fill="black"/>
<path d="M160.431 88.176H160.835L161.952 90.1032L162.286 90.74H162.304C162.286 90.4309 162.253 90.0846 162.253 89.7658V88.176H162.623V91.2448H162.218L161.112 89.3105L160.778 88.6791H160.756C160.775 88.9873 160.803 89.315 160.803 89.6373V91.2421H160.432L160.431 88.176Z" fill="black"/>
<path d="M166.73 88.176H167.135L168.252 90.1032L168.586 90.74H168.604C168.586 90.4309 168.553 90.0846 168.553 89.7658V88.176H168.923V91.2448H168.52L167.407 89.3132L167.074 88.6817H167.055C167.074 88.9899 167.102 89.3176 167.102 89.64V91.2448H166.73V88.176Z" fill="black"/>
<path d="M173.03 88.176H173.424V91.2448H173.03V88.176Z" fill="black"/>
<path d="M177.527 88.176H177.931L179.048 90.1032L179.382 90.74H179.4C179.382 90.4309 179.349 90.0846 179.349 89.7658V88.176H179.719V91.2448H179.316L178.204 89.3132L177.87 88.6817H177.851C177.87 88.9899 177.898 89.3176 177.898 89.64V91.2448H177.527V88.176Z" fill="black"/>
<path d="M185.072 88.1175C185.237 88.1163 185.401 88.1494 185.553 88.2146C185.705 88.2799 185.842 88.3759 185.954 88.4965L185.728 88.7445C185.648 88.652 185.547 88.5784 185.434 88.5289C185.322 88.4795 185.199 88.4554 185.076 88.4584C184.454 88.4584 184.053 88.9358 184.053 89.6983C184.053 90.4609 184.419 90.9569 185.076 90.9569C185.278 90.9635 185.476 90.8989 185.635 90.7744V89.9773H184.982V89.6541H185.992V90.9453C185.729 91.1809 185.386 91.3076 185.033 91.2996C184.226 91.2996 183.649 90.7106 183.649 89.7054C183.649 88.7206 184.245 88.1175 185.072 88.1175Z" fill="black"/>
<path d="M62.5889 82.6115V90.693C65.354 91.2492 68.2221 90.9882 70.8403 89.942L65.6626 82.6115H62.5889Z" fill="black"/>
<path d="M70.8408 89.9419L71.7875 91.2819L78.5918 91.3341L75.335 87.0724C74.0297 88.2999 72.5054 89.2731 70.8408 89.9419Z" fill="#6AB0DB"/>
<path d="M65.4606 62.3026C62.6481 62.2992 59.8967 63.1206 57.5496 64.6647H66.6517C72.177 64.6647 76.7414 66.5024 76.7414 72.4371C76.7414 75.3438 75.5636 77.4118 73.705 78.7367L69.8428 75.5891C70.6926 74.9692 70.9361 73.6956 70.9361 72.4371C70.9361 69.9865 69.2544 69.1443 66.1717 69.1443H63.1656V69.7306L57.3736 64.7798C55.4721 66.0672 53.9078 67.7897 52.8116 69.8032C51.7154 71.8166 51.1193 74.0625 51.0732 76.3526C51.0271 78.6428 51.5323 80.9106 52.5465 82.9663C53.5607 85.022 55.0544 86.8057 56.9025 88.168V66.6467L62.5913 71.7118V78.1319H65.4686C66.9068 78.1319 68.0268 77.8325 68.7984 77.2462L71.5281 79.6738L72.7014 80.7188C72.5829 80.8068 72.4623 80.8912 72.3396 80.9721C72.217 81.053 72.0896 81.1307 71.9574 81.2051C71.6982 81.356 71.4312 81.4931 71.1574 81.616L75.3352 87.0725C77.4328 85.1025 78.8883 82.5502 79.5129 79.7464C80.1376 76.9425 79.9027 74.0163 78.8385 71.3471C77.7744 68.6778 75.9302 66.3885 73.5449 64.7759C71.1596 63.1633 68.3432 62.3016 65.4606 62.3026Z" fill="black"/>
<path d="M79.9098 71.3052H80.5071C79.8221 69.0017 78.568 66.9061 76.8599 65.2103C75.1517 63.5145 73.0439 62.2727 70.7295 61.5985V62.1937C72.8895 62.8512 74.8553 64.0252 76.4554 65.6134C78.0556 67.2016 79.2415 69.1556 79.9098 71.3052Z" fill="black"/>
<path d="M50.5877 80.988H50.002C50.6034 83.6138 51.934 86.0181 53.8417 87.9262C55.7494 89.8343 58.1573 91.1693 60.7903 91.7788V91.1925C58.3109 90.5938 56.0459 89.3239 54.2454 87.5231C52.4449 85.7223 51.1791 83.4607 50.5877 80.988Z" fill="black"/>
<path d="M60.8523 93.0328C59.791 92.7753 58.7641 92.3936 57.7928 91.8956L57.6523 92.466C59.8543 93.5676 62.3016 94.0919 64.7634 93.9893L64.9056 93.4119C63.5431 93.4852 62.1773 93.3574 60.8523 93.0328Z" fill="black"/>
<path d="M71.9646 60.5136C72.9768 60.9235 73.9366 61.4514 74.8241 62.0865L75.0463 61.5427C73.0305 60.1316 70.6867 59.2564 68.2366 59L68.0117 59.5518C69.3698 59.6759 70.7019 60 71.9646 60.5136Z" fill="black"/>
</g>
<defs>
<clipPath id="clip0">
<rect width="136" height="35" fill="white" transform="translate(50 59)"/>
</clipPath>
</defs>
</svg>
