<svg width="520" height="344" viewBox="0 0 520 344" fill="none" xmlns="http://www.w3.org/2000/svg">
<rect x="2" y="2" width="516" height="340" rx="13" fill="white" fill-opacity="0.89" stroke="black" stroke-width="4"/>
<path d="M44.793 45.8066V43.8174L38.2783 47.2764V48.8145L44.793 52.1572V50.168L40.3018 48.0557V47.9873L44.793 45.8066ZM47.2539 42.1357L47.418 48.7529H49.1406L49.3047 42.1357H47.2539ZM48.2793 52.1709C48.9014 52.1709 49.3936 51.6992 49.3936 51.0977C49.3936 50.4961 48.9014 50.0244 48.2793 50.0244C47.6572 50.0244 47.165 50.4961 47.165 51.0977C47.165 51.6992 47.6572 52.1709 48.2793 52.1709ZM51.3145 42.1357V52H55.0811C58.041 52 59.7842 50.1611 59.7842 47.0303C59.7842 43.8994 58.041 42.1357 55.0811 42.1357H51.3145ZM53.3789 43.8379H54.835C56.6533 43.8379 57.6787 44.9727 57.6787 47.0371C57.6787 49.1699 56.6807 50.291 54.835 50.291H53.3789V43.8379ZM65.5674 41.9648C62.6416 41.9648 60.8096 43.9268 60.8096 47.0713C60.8096 50.209 62.6416 52.1709 65.5674 52.1709C68.4863 52.1709 70.3252 50.209 70.3252 47.0713C70.3252 43.9268 68.4863 41.9648 65.5674 41.9648ZM65.5674 43.6875C67.1807 43.6875 68.2129 45 68.2129 47.0713C68.2129 49.1357 67.1807 50.4414 65.5674 50.4414C63.9473 50.4414 62.915 49.1357 62.915 47.0713C62.915 45 63.9541 43.6875 65.5674 43.6875ZM76.0195 52.1709C78.4395 52.1709 80.1279 50.7764 80.3604 48.5752H78.3506C78.1318 49.7441 77.25 50.4619 76.0264 50.4619C74.4473 50.4619 73.4561 49.1631 73.4561 47.0576C73.4561 44.9795 74.4609 43.6738 76.0195 43.6738C77.2227 43.6738 78.1523 44.4668 78.3438 45.6768H80.3535C80.1963 43.4688 78.3916 41.9648 76.0195 41.9648C73.1621 41.9648 71.3506 43.8857 71.3506 47.0645C71.3506 50.25 73.1484 52.1709 76.0195 52.1709ZM85.7471 52V43.8379H88.6045V42.1357H80.832V43.8379H83.6826V52H85.7471ZM94.6133 52V48.3154L98.0518 42.1357H95.8369L93.6221 46.3467H93.5742L91.3662 42.1357H89.1172L92.5488 48.3154V52H94.6133ZM99.0566 42.1357V52H101.121V48.8896H102.967C105.045 48.8896 106.487 47.5361 106.487 45.5127C106.487 43.4824 105.093 42.1357 103.069 42.1357H99.0566ZM101.121 43.7695H102.522C103.705 43.7695 104.389 44.3984 104.389 45.5195C104.389 46.6475 103.698 47.2764 102.516 47.2764H101.121V43.7695ZM114.246 50.291H109.775V47.8027H113.993V46.2168H109.775V43.8379H114.246V42.1357H107.711V52H114.246V50.291ZM127.084 52V42.1357H125.02V46.1416H120.576V42.1357H118.512V52H120.576V47.8438H125.02V52H127.084ZM133.147 52V43.8379H136.005V42.1357H128.232V43.8379H131.083V52H133.147ZM147.592 52V42.1357H145.199L142.396 49.1289H142.342L139.539 42.1357H137.146V52H138.985V45.3418H139.04L141.72 51.9043H143.019L145.698 45.3418H145.753V52H147.592ZM155.61 50.291H151.297V42.1357H149.232V52H155.61V50.291ZM157.292 45.7998L161.776 47.9873V48.0557L157.292 50.1611V52.1504L163.807 48.8145V47.2695L157.292 43.8174V45.7998Z" fill="#6F6F6F"/>
<path d="M44.793 65.8066V63.8174L38.2783 67.2764V68.8145L44.793 72.1572V70.168L40.3018 68.0557V67.9873L44.793 65.8066ZM55.457 72V62.1357H53.3926V66.1416H48.9492V62.1357H46.8848V72H48.9492V67.8438H53.3926V72H55.457ZM61.5205 72V63.8379H64.3779V62.1357H56.6055V63.8379H59.4561V72H61.5205ZM75.9648 72V62.1357H73.5723L70.7695 69.1289H70.7148L67.9121 62.1357H65.5195V72H67.3584V65.3418H67.4131L70.0928 71.9043H71.3916L74.0713 65.3418H74.126V72H75.9648ZM83.9834 70.291H79.6699V62.1357H77.6055V72H83.9834V70.291ZM132.737 70.4961V68.7803H125.573V70.4961H132.737ZM132.737 67.3037V65.5879H125.573V67.3037H132.737ZM136.135 65.9844V62.1357H134.426V65.9844H136.135ZM139.3 65.9844V62.1357H137.591V65.9844H139.3ZM160.525 65.9844V62.1357H158.816V65.9844H160.525ZM163.69 65.9844V62.1357H161.981V65.9844H163.69ZM165.714 65.7998L170.198 67.9873V68.0557L165.714 70.1611V72.1504L172.229 68.8145V67.2695L165.714 63.8174V65.7998ZM44.793 85.8066V83.8174L38.2783 87.2764V88.8145L44.793 92.1572V90.168L40.3018 88.0557V87.9873L44.793 85.8066ZM55.457 92V82.1357H53.3926V86.1416H48.9492V82.1357H46.8848V92H48.9492V87.8438H53.3926V92H55.457ZM63.6328 90.291H59.1621V87.8027H63.3799V86.2168H59.1621V83.8379H63.6328V82.1357H57.0977V92H63.6328V90.291ZM71.583 92H73.7773L70.3457 82.1357H67.9189L64.4941 92H66.6133L67.3652 89.6074H70.8311L71.583 92ZM69.0742 84.0225H69.1221L70.3867 88.0625H67.8096L69.0742 84.0225ZM74.7891 82.1357V92H78.5557C81.5156 92 83.2588 90.1611 83.2588 87.0303C83.2588 83.8994 81.5156 82.1357 78.5557 82.1357H74.7891ZM76.8535 83.8379H78.3096C80.1279 83.8379 81.1533 84.9727 81.1533 87.0371C81.1533 89.1699 80.1553 90.291 78.3096 90.291H76.8535V83.8379ZM85.0498 85.7998L89.5342 87.9873V88.0557L85.0498 90.1611V92.1504L91.5645 88.8145V87.2695L85.0498 83.8174V85.7998ZM50.3438 105.807V103.817L43.8291 107.276V108.814L50.3438 112.157V110.168L45.8525 108.056V107.987L50.3438 105.807ZM62.8809 112V102.136H60.4883L57.6855 109.129H57.6309L54.8281 102.136H52.4355V112H54.2744V105.342H54.3291L57.0088 111.904H58.3076L60.9873 105.342H61.042V112H62.8809ZM71.0566 110.291H66.5859V107.803H70.8037V106.217H66.5859V103.838H71.0566V102.136H64.5215V112H71.0566V110.291ZM76.9697 112V103.838H79.8271V102.136H72.0547V103.838H74.9053V112H76.9697ZM86.0889 112H88.2832L84.8516 102.136H82.4248L79 112H81.1191L81.8711 109.607H85.3369L86.0889 112ZM83.5801 104.022H83.6279L84.8926 108.062H82.3154L83.5801 104.022ZM163.485 110.496V108.78H156.321V110.496H163.485ZM163.485 107.304V105.588H156.321V107.304H163.485ZM166.883 105.984V102.136H165.174V105.984H166.883ZM170.048 105.984V102.136H168.339V105.984H170.048ZM214.584 105.984V102.136H212.875V105.984H214.584ZM217.749 105.984V102.136H216.04V105.984H217.749ZM219.772 105.8L224.257 107.987V108.056L219.772 110.161V112.15L226.287 108.814V107.27L219.772 103.817V105.8ZM50.3438 125.807V123.817L43.8291 127.276V128.814L50.3438 132.157V130.168L45.8525 128.056V127.987L50.3438 125.807ZM56.8584 132V123.838H59.7158V122.136H51.9434V123.838H54.7939V132H56.8584ZM62.9219 132V122.136H60.8574V132H62.9219ZM68.9854 132V123.838H71.8428V122.136H64.0703V123.838H66.9209V132H68.9854ZM79.3623 130.291H75.0488V122.136H72.9844V132H79.3623V130.291ZM87.1211 130.291H82.6504V127.803H86.8682V126.217H82.6504V123.838H87.1211V122.136H80.5859V132H87.1211V130.291ZM89.0693 125.8L93.5537 127.987V128.056L89.0693 130.161V132.15L95.584 128.814V127.27L89.0693 123.817V125.8ZM247.971 125.807V123.817L241.456 127.276V128.814L247.971 132.157V130.168L243.479 128.056V127.987L247.971 125.807ZM251.088 134.119L254.588 122.136H252.749L249.242 134.119H251.088ZM260.036 132V123.838H262.894V122.136H255.121V123.838H257.972V132H260.036ZM266.1 132V122.136H264.035V132H266.1ZM272.163 132V123.838H275.021V122.136H267.248V123.838H270.099V132H272.163ZM282.54 130.291H278.227V122.136H276.162V132H282.54V130.291ZM290.299 130.291H285.828V127.803H290.046V126.217H285.828V123.838H290.299V122.136H283.764V132H290.299V130.291ZM292.247 125.8L296.731 127.987V128.056L292.247 130.161V132.15L298.762 128.814V127.27L292.247 123.817V125.8ZM50.3438 145.807V143.817L43.8291 147.276V148.814L50.3438 152.157V150.168L45.8525 148.056V147.987L50.3438 145.807ZM62.8809 152V142.136H60.4883L57.6855 149.129H57.6309L54.8281 142.136H52.4355V152H54.2744V145.342H54.3291L57.0088 151.904H58.3076L60.9873 145.342H61.042V152H62.8809ZM71.0566 150.291H66.5859V147.803H70.8037V146.217H66.5859V143.838H71.0566V142.136H64.5215V152H71.0566V150.291ZM76.9697 152V143.838H79.8271V142.136H72.0547V143.838H74.9053V152H76.9697ZM86.0889 152H88.2832L84.8516 142.136H82.4248L79 152H81.1191L81.8711 149.607H85.3369L86.0889 152ZM83.5801 144.022H83.6279L84.8926 148.062H82.3154L83.5801 144.022ZM182.845 150.496V148.78H175.681V150.496H182.845ZM182.845 147.304V145.588H175.681V147.304H182.845ZM186.242 145.984V142.136H184.533V145.984H186.242ZM189.407 145.984V142.136H187.698V145.984H189.407ZM318.395 145.984V142.136H316.686V145.984H318.395ZM321.56 145.984V142.136H319.851V145.984H321.56ZM330.262 152.171C332.682 152.171 334.37 150.776 334.603 148.575H332.593C332.374 149.744 331.492 150.462 330.269 150.462C328.689 150.462 327.698 149.163 327.698 147.058C327.698 144.979 328.703 143.674 330.262 143.674C331.465 143.674 332.395 144.467 332.586 145.677H334.596C334.438 143.469 332.634 141.965 330.262 141.965C327.404 141.965 325.593 143.886 325.593 147.064C325.593 150.25 327.391 152.171 330.262 152.171ZM340.331 141.965C337.405 141.965 335.573 143.927 335.573 147.071C335.573 150.209 337.405 152.171 340.331 152.171C343.25 152.171 345.089 150.209 345.089 147.071C345.089 143.927 343.25 141.965 340.331 141.965ZM340.331 143.688C341.944 143.688 342.977 145 342.977 147.071C342.977 149.136 341.944 150.441 340.331 150.441C338.711 150.441 337.679 149.136 337.679 147.071C337.679 145 338.718 143.688 340.331 143.688ZM348.397 152V145.54H348.459L353.073 152H354.782V142.136H352.807V148.562H352.752L348.145 142.136H346.422V152H348.397ZM360.853 152V143.838H363.71V142.136H355.938V143.838H358.788V152H360.853ZM371.387 150.291H366.916V147.803H371.134V146.217H366.916V143.838H371.387V142.136H364.852V152H371.387V150.291ZM374.853 152V145.54H374.914L379.528 152H381.237V142.136H379.262V148.562H379.207L374.6 142.136H372.877V152H374.853ZM387.308 152V143.838H390.165V142.136H382.393V143.838H385.243V152H387.308ZM397.985 150.496V148.78H390.821V150.496H397.985ZM397.985 147.304V145.588H390.821V147.304H397.985ZM401.383 145.984V142.136H399.674V145.984H401.383ZM404.548 145.984V142.136H402.839V145.984H404.548ZM464.574 145.984V142.136H462.865V145.984H464.574ZM467.739 145.984V142.136H466.03V145.984H467.739ZM469.763 145.8L474.247 147.987V148.056L469.763 150.161V152.15L476.277 148.814V147.27L469.763 143.817V145.8ZM50.3438 165.807V163.817L43.8291 167.276V168.814L50.3438 172.157V170.168L45.8525 168.056V167.987L50.3438 165.807ZM62.8809 172V162.136H60.4883L57.6855 169.129H57.6309L54.8281 162.136H52.4355V172H54.2744V165.342H54.3291L57.0088 171.904H58.3076L60.9873 165.342H61.042V172H62.8809ZM71.0566 170.291H66.5859V167.803H70.8037V166.217H66.5859V163.838H71.0566V162.136H64.5215V172H71.0566V170.291ZM76.9697 172V163.838H79.8271V162.136H72.0547V163.838H74.9053V172H76.9697ZM86.0889 172H88.2832L84.8516 162.136H82.4248L79 172H81.1191L81.8711 169.607H85.3369L86.0889 172ZM83.5801 164.022H83.6279L84.8926 168.062H82.3154L83.5801 164.022ZM139.149 170.496V168.78H131.985V170.496H139.149ZM139.149 167.304V165.588H131.985V167.304H139.149ZM142.547 165.984V162.136H140.838V165.984H142.547ZM145.712 165.984V162.136H144.003V165.984H145.712ZM220.244 165.984V162.136H218.535V165.984H220.244ZM223.409 165.984V162.136H221.7V165.984H223.409ZM300.45 170.496V168.78H293.286V170.496H300.45ZM300.45 167.304V165.588H293.286V167.304H300.45ZM303.848 165.984V162.136H302.139V165.984H303.848ZM307.013 165.984V162.136H305.304V165.984H307.013ZM151.57 185.984V182.136H149.861V185.984H151.57ZM154.735 185.984V182.136H153.026V185.984H154.735ZM156.759 185.8L161.243 187.987V188.056L156.759 190.161V192.15L163.273 188.814V187.27L156.759 183.817V185.8Z" fill="#1AAAA1"/>
<path d="M94.3604 70.291H90.0469V62.1357H87.9824V72H94.3604V70.291ZM102.044 72H104.238L100.807 62.1357H98.3799L94.9551 72H97.0742L97.8262 69.6074H101.292L102.044 72ZM99.5352 64.0225H99.583L100.848 68.0625H98.2705L99.5352 64.0225ZM107.226 72V65.54H107.287L111.901 72H113.61V62.1357H111.635V68.5615H111.58L106.973 62.1357H105.25V72H107.226ZM124.076 67.8574V66.7432H119.92V68.2471H122.066L122.06 68.4043C122.019 69.6279 121.082 70.4551 119.735 70.4551C118.095 70.4551 117.056 69.1494 117.056 67.0098C117.056 64.9111 118.033 63.6738 119.66 63.6738C120.774 63.6738 121.615 64.2891 121.916 65.3213H123.987C123.693 63.3252 121.957 61.9648 119.653 61.9648C116.755 61.9648 114.95 63.8789 114.95 67.0371C114.95 70.2432 116.755 72.1709 119.701 72.1709C122.449 72.1709 124.076 70.5439 124.076 67.8574ZM96.4316 112.171C98.8516 112.171 100.54 110.776 100.772 108.575H98.7627C98.5439 109.744 97.6621 110.462 96.4385 110.462C94.8594 110.462 93.8682 109.163 93.8682 107.058C93.8682 104.979 94.873 103.674 96.4316 103.674C97.6348 103.674 98.5645 104.467 98.7559 105.677H100.766C100.608 103.469 98.8037 101.965 96.4316 101.965C93.5742 101.965 91.7627 103.886 91.7627 107.064C91.7627 110.25 93.5605 112.171 96.4316 112.171ZM110.623 112V102.136H108.559V106.142H104.115V102.136H102.051V112H104.115V107.844H108.559V112H110.623ZM118.724 112H120.918L117.486 102.136H115.06L111.635 112H113.754L114.506 109.607H117.972L118.724 112ZM116.215 104.022H116.263L117.527 108.062H114.95L116.215 104.022ZM123.994 103.749H125.751C126.776 103.749 127.419 104.364 127.419 105.321C127.419 106.299 126.811 106.894 125.771 106.894H123.994V103.749ZM123.994 108.391H125.648L127.487 112H129.825L127.747 108.083C128.882 107.639 129.538 106.545 129.538 105.28C129.538 103.332 128.239 102.136 125.97 102.136H121.93V112H123.994V108.391ZM130.529 109.19C130.591 111.043 132.102 112.171 134.474 112.171C136.921 112.171 138.473 110.961 138.473 109.047C138.473 107.543 137.611 106.695 135.636 106.271L134.439 106.019C133.305 105.759 132.826 105.417 132.826 104.809C132.826 104.077 133.51 103.592 134.528 103.592C135.561 103.592 136.292 104.098 136.36 104.932H138.295C138.261 103.147 136.818 101.965 134.521 101.965C132.32 101.965 130.748 103.168 130.748 104.986C130.748 106.429 131.644 107.352 133.462 107.741L134.747 108.021C135.937 108.288 136.408 108.644 136.408 109.286C136.408 110.011 135.656 110.537 134.556 110.537C133.462 110.537 132.614 110.004 132.519 109.19H130.529ZM146.279 110.291H141.809V107.803H146.026V106.217H141.809V103.838H146.279V102.136H139.744V112H146.279V110.291ZM152.192 112V103.838H155.05V102.136H147.277V103.838H150.128V112H152.192ZM97.6758 122.136V132H99.7402V128.89H101.586C103.664 128.89 105.106 127.536 105.106 125.513C105.106 123.482 103.712 122.136 101.688 122.136H97.6758ZM99.7402 123.77H101.142C102.324 123.77 103.008 124.398 103.008 125.52C103.008 126.647 102.317 127.276 101.135 127.276H99.7402V123.77ZM111.86 132H114.055L110.623 122.136H108.196L104.771 132H106.891L107.643 129.607H111.108L111.86 132ZM109.352 124.022H109.399L110.664 128.062H108.087L109.352 124.022ZM115.066 122.136V132H117.131V128.89H118.977C121.055 128.89 122.497 127.536 122.497 125.513C122.497 123.482 121.103 122.136 119.079 122.136H115.066ZM117.131 123.77H118.532C119.715 123.77 120.398 124.398 120.398 125.52C120.398 126.647 119.708 127.276 118.525 127.276H117.131V123.77ZM129.251 132H131.445L128.014 122.136H125.587L122.162 132H124.281L125.033 129.607H128.499L129.251 132ZM126.742 124.022H126.79L128.055 128.062H125.478L126.742 124.022ZM135.957 132V128.315L139.396 122.136H137.181L134.966 126.347H134.918L132.71 122.136H130.461L133.893 128.315V132H135.957ZM145.493 132H147.688L144.256 122.136H141.829L138.404 132H140.523L141.275 129.607H144.741L145.493 132ZM142.984 124.022H143.032L144.297 128.062H141.72L142.984 124.022ZM157.381 125.26H157.442L159.315 132H161.264L163.882 122.136H161.742L160.184 129.279H160.129L158.283 122.136H156.54L154.694 129.279H154.64L153.088 122.136H150.948L153.56 132H155.508L157.381 125.26ZM171.531 130.291H167.061V127.803H171.278V126.217H167.061V123.838H171.531V122.136H164.996V132H171.531V130.291ZM177.39 132C179.495 132 180.801 130.913 180.801 129.177C180.801 127.871 179.816 126.894 178.477 126.791V126.736C179.522 126.579 180.329 125.677 180.329 124.597C180.329 123.086 179.167 122.136 177.314 122.136H173.021V132H177.39ZM175.086 123.674H176.781C177.745 123.674 178.299 124.125 178.299 124.918C178.299 125.752 177.67 126.237 176.569 126.237H175.086V123.674ZM175.086 130.462V127.598H176.815C178.032 127.598 178.695 128.09 178.695 129.013C178.695 129.956 178.053 130.462 176.863 130.462H175.086ZM191.212 132H193.406L189.975 122.136H187.548L184.123 132H186.242L186.994 129.607H190.46L191.212 132ZM188.703 124.022H188.751L190.016 128.062H187.438L188.703 124.022ZM202.758 127.857V126.743H198.602V128.247H200.748L200.741 128.404C200.7 129.628 199.764 130.455 198.417 130.455C196.776 130.455 195.737 129.149 195.737 127.01C195.737 124.911 196.715 123.674 198.342 123.674C199.456 123.674 200.297 124.289 200.598 125.321H202.669C202.375 123.325 200.639 121.965 198.335 121.965C195.437 121.965 193.632 123.879 193.632 127.037C193.632 130.243 195.437 132.171 198.383 132.171C201.131 132.171 202.758 130.544 202.758 127.857ZM210.66 130.291H206.189V127.803H210.407V126.217H206.189V123.838H210.66V122.136H204.125V132H210.66V130.291ZM214.126 132V125.54H214.188L218.802 132H220.511V122.136H218.535V128.562H218.48L213.873 122.136H212.15V132H214.126ZM226.52 132.171C228.939 132.171 230.628 130.776 230.86 128.575H228.851C228.632 129.744 227.75 130.462 226.526 130.462C224.947 130.462 223.956 129.163 223.956 127.058C223.956 124.979 224.961 123.674 226.52 123.674C227.723 123.674 228.652 124.467 228.844 125.677H230.854C230.696 123.469 228.892 121.965 226.52 121.965C223.662 121.965 221.851 123.886 221.851 127.064C221.851 130.25 223.648 132.171 226.52 132.171ZM236.555 132V128.315L239.993 122.136H237.778L235.563 126.347H235.516L233.308 122.136H231.059L234.49 128.315V132H236.555ZM100.643 152V142.136H98.5781V146.142H94.1348V142.136H92.0703V152H94.1348V147.844H98.5781V152H100.643ZM106.706 152V143.838H109.563V142.136H101.791V143.838H104.642V152H106.706ZM115.128 152V143.838H117.985V142.136H110.213V143.838H113.063V152H115.128ZM119.127 142.136V152H121.191V148.89H123.037C125.115 148.89 126.558 147.536 126.558 145.513C126.558 143.482 125.163 142.136 123.14 142.136H119.127ZM121.191 143.77H122.593C123.775 143.77 124.459 144.398 124.459 145.52C124.459 146.647 123.769 147.276 122.586 147.276H121.191V143.77ZM132.19 148.862V147.119H127.699V148.862H132.19ZM140.4 150.291H135.93V147.803H140.147V146.217H135.93V143.838H140.4V142.136H133.865V152H140.4V150.291ZM146.341 152.171C146.963 152.171 147.537 152.082 148.063 151.897L148.768 152.93H150.771L149.52 151.043C150.538 150.202 151.092 148.808 151.092 147.071C151.092 143.934 149.26 141.965 146.341 141.965C143.415 141.965 141.583 143.934 141.583 147.071C141.583 150.236 143.415 152.171 146.341 152.171ZM146.341 150.462C144.721 150.462 143.688 149.136 143.688 147.071C143.688 145 144.721 143.667 146.341 143.667C147.954 143.667 148.986 145 148.986 147.071C148.986 148.021 148.727 148.808 148.262 149.341L147.831 148.753H145.965L147.045 150.366C146.826 150.428 146.594 150.462 146.341 150.462ZM154.496 142.136H152.432V148.514C152.432 150.688 154.038 152.171 156.567 152.171C159.09 152.171 160.696 150.688 160.696 148.514V142.136H158.632V148.309C158.632 149.573 157.887 150.4 156.567 150.4C155.241 150.4 154.496 149.573 154.496 148.309V142.136ZM164.408 152V142.136H162.344V152H164.408ZM171.224 152L174.539 142.136H172.29L170.034 149.874H169.986L167.73 142.136H165.42L168.735 152H171.224ZM94.0459 172V165.54H94.1074L98.7217 172H100.431V162.136H98.4551V168.562H98.4004L93.793 162.136H92.0703V172H94.0459ZM108.538 172H110.732L107.301 162.136H104.874L101.449 172H103.568L104.32 169.607H107.786L108.538 172ZM106.029 164.022H106.077L107.342 168.062H104.765L106.029 164.022ZM122.189 172V162.136H119.797L116.994 169.129H116.939L114.137 162.136H111.744V172H113.583V165.342H113.638L116.317 171.904H117.616L120.296 165.342H120.351V172H122.189ZM130.365 170.291H125.895V167.803H130.112V166.217H125.895V163.838H130.365V162.136H123.83V172H130.365V170.291ZM232.111 172.171C234.531 172.171 236.22 170.776 236.452 168.575H234.442C234.224 169.744 233.342 170.462 232.118 170.462C230.539 170.462 229.548 169.163 229.548 167.058C229.548 164.979 230.553 163.674 232.111 163.674C233.314 163.674 234.244 164.467 234.436 165.677H236.445C236.288 163.469 234.483 161.965 232.111 161.965C229.254 161.965 227.442 163.886 227.442 167.064C227.442 170.25 229.24 172.171 232.111 172.171ZM242.181 161.965C239.255 161.965 237.423 163.927 237.423 167.071C237.423 170.209 239.255 172.171 242.181 172.171C245.1 172.171 246.938 170.209 246.938 167.071C246.938 163.927 245.1 161.965 242.181 161.965ZM242.181 163.688C243.794 163.688 244.826 165 244.826 167.071C244.826 169.136 243.794 170.441 242.181 170.441C240.561 170.441 239.528 169.136 239.528 167.071C239.528 165 240.567 163.688 242.181 163.688ZM250.247 172V165.54H250.309L254.923 172H256.632V162.136H254.656V168.562H254.602L249.994 162.136H248.271V172H250.247ZM262.702 172V163.838H265.56V162.136H257.787V163.838H260.638V172H262.702ZM273.236 170.291H268.766V167.803H272.983V166.217H268.766V163.838H273.236V162.136H266.701V172H273.236V170.291ZM276.702 172V165.54H276.764L281.378 172H283.087V162.136H281.111V168.562H281.057L276.449 162.136H274.727V172H276.702ZM289.157 172V163.838H292.015V162.136H284.242V163.838H287.093V172H289.157Z" fill="black"/>
<path d="M147.4 70.291H142.93V67.8027H147.147V66.2168H142.93V63.8379H147.4V62.1357H140.865V72H147.4V70.291ZM150.866 72V65.54H150.928L155.542 72H157.251V62.1357H155.275V68.5615H155.221L150.613 62.1357H148.891V72H150.866ZM173.678 102.136H171.613V108.514C171.613 110.688 173.22 112.171 175.749 112.171C178.271 112.171 179.878 110.688 179.878 108.514V102.136H177.813V108.309C177.813 109.573 177.068 110.4 175.749 110.4C174.423 110.4 173.678 109.573 173.678 108.309V102.136ZM185.948 112V103.838H188.806V102.136H181.033V103.838H183.884V112H185.948ZM192.012 112V108.117H196.024V106.483H192.012V103.838H196.407V102.136H189.947V112H192.012ZM202.149 108.862V107.119H197.658V108.862H202.149ZM207.57 112.219C209.942 112.219 211.569 111.043 211.569 109.334C211.569 108.035 210.633 107.03 209.252 106.798V106.757C210.4 106.483 211.166 105.602 211.166 104.528C211.166 103.011 209.689 101.917 207.57 101.917C205.458 101.917 203.968 103.018 203.968 104.521C203.968 105.608 204.74 106.49 205.889 106.757V106.798C204.515 107.023 203.571 108.028 203.571 109.327C203.571 111.036 205.178 112.219 207.57 112.219ZM207.57 110.715C206.483 110.715 205.725 110.065 205.725 109.177C205.725 108.288 206.483 107.639 207.57 107.639C208.657 107.639 209.409 108.288 209.409 109.177C209.409 110.065 208.657 110.715 207.57 110.715ZM207.57 106.135C206.654 106.135 206.012 105.561 206.012 104.774C206.012 103.988 206.654 103.407 207.57 103.407C208.479 103.407 209.129 103.981 209.129 104.774C209.129 105.561 208.479 106.135 207.57 106.135ZM190.446 152H192.675L194.849 148.548H194.903L197.063 152H199.415L196.229 147.092V147.044L199.456 142.136H197.152L195.04 145.69H194.985L192.894 142.136H190.467L193.577 147.003V147.058L190.446 152ZM204.474 148.862V147.119H199.982V148.862H204.474ZM208.213 142.136H206.148V148.514C206.148 150.688 207.755 152.171 210.284 152.171C212.807 152.171 214.413 150.688 214.413 148.514V142.136H212.349V148.309C212.349 149.573 211.604 150.4 210.284 150.4C208.958 150.4 208.213 149.573 208.213 148.309V142.136ZM222.315 152H224.51L221.078 142.136H218.651L215.227 152H217.346L218.098 149.607H221.563L222.315 152ZM219.807 144.022H219.854L221.119 148.062H218.542L219.807 144.022ZM229.726 148.862V147.119H225.234V148.862H229.726ZM235.762 152.171C238.182 152.171 239.87 150.776 240.103 148.575H238.093C237.874 149.744 236.992 150.462 235.769 150.462C234.189 150.462 233.198 149.163 233.198 147.058C233.198 144.979 234.203 143.674 235.762 143.674C236.965 143.674 237.895 144.467 238.086 145.677H240.096C239.938 143.469 238.134 141.965 235.762 141.965C232.904 141.965 231.093 143.886 231.093 147.064C231.093 150.25 232.891 152.171 235.762 152.171ZM245.831 141.965C242.905 141.965 241.073 143.927 241.073 147.071C241.073 150.209 242.905 152.171 245.831 152.171C248.75 152.171 250.589 150.209 250.589 147.071C250.589 143.927 248.75 141.965 245.831 141.965ZM245.831 143.688C247.444 143.688 248.477 145 248.477 147.071C248.477 149.136 247.444 150.441 245.831 150.441C244.211 150.441 243.179 149.136 243.179 147.071C243.179 145 244.218 143.688 245.831 143.688ZM262.367 152V142.136H259.975L257.172 149.129H257.117L254.314 142.136H251.922V152H253.761V145.342H253.815L256.495 151.904H257.794L260.474 145.342H260.528V152H262.367ZM264.008 142.136V152H266.072V148.89H267.918C269.996 148.89 271.438 147.536 271.438 145.513C271.438 143.482 270.044 142.136 268.021 142.136H264.008ZM266.072 143.77H267.474C268.656 143.77 269.34 144.398 269.34 145.52C269.34 146.647 268.649 147.276 267.467 147.276H266.072V143.77ZM278.192 152H280.387L276.955 142.136H274.528L271.104 152H273.223L273.975 149.607H277.44L278.192 152ZM275.684 144.022H275.731L276.996 148.062H274.419L275.684 144.022ZM284.481 152V143.838H287.339V142.136H279.566V143.838H282.417V152H284.481ZM290.545 152V142.136H288.48V152H290.545ZM296.554 152C298.659 152 299.965 150.913 299.965 149.177C299.965 147.871 298.98 146.894 297.641 146.791V146.736C298.687 146.579 299.493 145.677 299.493 144.597C299.493 143.086 298.331 142.136 296.479 142.136H292.186V152H296.554ZM294.25 143.674H295.945C296.909 143.674 297.463 144.125 297.463 144.918C297.463 145.752 296.834 146.237 295.733 146.237H294.25V143.674ZM294.25 150.462V147.598H295.979C297.196 147.598 297.859 148.09 297.859 149.013C297.859 149.956 297.217 150.462 296.027 150.462H294.25ZM307.519 150.291H303.205V142.136H301.141V152H307.519V150.291ZM315.277 150.291H310.807V147.803H315.024V146.217H310.807V143.838H315.277V142.136H308.742V152H315.277V150.291ZM408.178 152V142.136H406.113V152H408.178ZM416.354 150.291H411.883V147.803H416.101V146.217H411.883V143.838H416.354V142.136H409.818V152H416.354V150.291ZM425.138 150.496V148.78H417.974V150.496H425.138ZM425.138 147.304V145.588H417.974V147.304H425.138ZM433.443 150.291H428.973V147.803H433.19V146.217H428.973V143.838H433.443V142.136H426.908V152H433.443V150.291ZM434.934 142.136V152H438.7C441.66 152 443.403 150.161 443.403 147.03C443.403 143.899 441.66 142.136 438.7 142.136H434.934ZM436.998 143.838H438.454C440.272 143.838 441.298 144.973 441.298 147.037C441.298 149.17 440.3 150.291 438.454 150.291H436.998V143.838ZM453.555 147.857V146.743H449.398V148.247H451.545L451.538 148.404C451.497 149.628 450.561 150.455 449.214 150.455C447.573 150.455 446.534 149.149 446.534 147.01C446.534 144.911 447.512 143.674 449.139 143.674C450.253 143.674 451.094 144.289 451.395 145.321H453.466C453.172 143.325 451.436 141.965 449.132 141.965C446.233 141.965 444.429 143.879 444.429 147.037C444.429 150.243 446.233 152.171 449.18 152.171C451.928 152.171 453.555 150.544 453.555 147.857ZM461.457 150.291H456.986V147.803H461.204V146.217H456.986V143.838H461.457V142.136H454.922V152H461.457V150.291ZM152.452 172L155.768 162.136H153.519L151.263 169.874H151.215L148.959 162.136H146.648L149.964 172H152.452ZM158.844 172V162.136H156.779V172H158.844ZM167.02 170.291H162.549V167.803H166.767V166.217H162.549V163.838H167.02V162.136H160.484V172H167.02V170.291ZM174.416 165.26H174.478L176.351 172H178.299L180.917 162.136H178.777L177.219 169.279H177.164L175.318 162.136H173.575L171.729 169.279H171.675L170.123 162.136H167.983L170.595 172H172.543L174.416 165.26ZM182.031 162.136V172H184.096V168.89H185.941C188.02 168.89 189.462 167.536 189.462 165.513C189.462 163.482 188.067 162.136 186.044 162.136H182.031ZM184.096 163.77H185.497C186.68 163.77 187.363 164.398 187.363 165.52C187.363 166.647 186.673 167.276 185.49 167.276H184.096V163.77ZM195.136 161.965C192.21 161.965 190.378 163.927 190.378 167.071C190.378 170.209 192.21 172.171 195.136 172.171C198.055 172.171 199.894 170.209 199.894 167.071C199.894 163.927 198.055 161.965 195.136 161.965ZM195.136 163.688C196.749 163.688 197.781 165 197.781 167.071C197.781 169.136 196.749 170.441 195.136 170.441C193.516 170.441 192.483 169.136 192.483 167.071C192.483 165 193.522 163.688 195.136 163.688ZM203.291 163.749H205.048C206.073 163.749 206.716 164.364 206.716 165.321C206.716 166.299 206.107 166.894 205.068 166.894H203.291V163.749ZM203.291 168.391H204.945L206.784 172H209.122L207.044 168.083C208.179 167.639 208.835 166.545 208.835 165.28C208.835 163.332 207.536 162.136 205.267 162.136H201.227V172H203.291V168.391ZM214.618 172V163.838H217.476V162.136H209.703V163.838H212.554V172H214.618ZM314.484 165.26H314.546L316.419 172H318.367L320.985 162.136H318.846L317.287 169.279H317.232L315.387 162.136H313.644L311.798 169.279H311.743L310.191 162.136H308.052L310.663 172H312.611L314.484 165.26ZM324.164 172V162.136H322.1V172H324.164ZM325.805 162.136V172H329.571C332.531 172 334.274 170.161 334.274 167.03C334.274 163.899 332.531 162.136 329.571 162.136H325.805ZM327.869 163.838H329.325C331.144 163.838 332.169 164.973 332.169 167.037C332.169 169.17 331.171 170.291 329.325 170.291H327.869V163.838ZM339.483 172V163.838H342.341V162.136H334.568V163.838H337.419V172H339.483ZM352.055 172V162.136H349.99V166.142H345.547V162.136H343.482V172H345.547V167.844H349.99V172H352.055ZM360.989 170.496V168.78H353.825V170.496H360.989ZM360.989 167.304V165.588H353.825V167.304H360.989ZM362.76 162.136V172H366.526C369.486 172 371.229 170.161 371.229 167.03C371.229 163.899 369.486 162.136 366.526 162.136H362.76ZM364.824 163.838H366.28C368.099 163.838 369.124 164.973 369.124 167.037C369.124 169.17 368.126 170.291 366.28 170.291H364.824V163.838ZM379.098 170.291H374.627V167.803H378.845V166.217H374.627V163.838H379.098V162.136H372.562V172H379.098V170.291ZM385.763 172L389.078 162.136H386.829L384.573 169.874H384.525L382.27 162.136H379.959L383.274 172H385.763ZM392.154 172V162.136H390.09V172H392.154ZM398.156 172.171C400.576 172.171 402.265 170.776 402.497 168.575H400.487C400.269 169.744 399.387 170.462 398.163 170.462C396.584 170.462 395.593 169.163 395.593 167.058C395.593 164.979 396.598 163.674 398.156 163.674C399.359 163.674 400.289 164.467 400.48 165.677H402.49C402.333 163.469 400.528 161.965 398.156 161.965C395.299 161.965 393.487 163.886 393.487 167.064C393.487 170.25 395.285 172.171 398.156 172.171ZM410.311 170.291H405.84V167.803H410.058V166.217H405.84V163.838H410.311V162.136H403.775V172H410.311V170.291ZM416.278 168.862V167.119H411.787V168.862H416.278ZM423.449 165.26H423.511L425.384 172H427.332L429.95 162.136H427.811L426.252 169.279H426.197L424.352 162.136H422.608L420.763 169.279H420.708L419.156 162.136H417.017L419.628 172H421.576L423.449 165.26ZM433.129 172V162.136H431.064V172H433.129ZM434.77 162.136V172H438.536C441.496 172 443.239 170.161 443.239 167.03C443.239 163.899 441.496 162.136 438.536 162.136H434.77ZM436.834 163.838H438.29C440.108 163.838 441.134 164.973 441.134 167.037C441.134 169.17 440.136 170.291 438.29 170.291H436.834V163.838ZM448.448 172V163.838H451.306V162.136H443.533V163.838H446.384V172H448.448ZM461.02 172V162.136H458.955V166.142H454.512V162.136H452.447V172H454.512V167.844H458.955V172H461.02ZM463.959 174.16L464.875 170.305H462.975L462.462 174.16H463.959ZM39.8848 192V182.136H37.8203V192H39.8848ZM43.501 192V185.54H43.5625L48.1768 192H49.8857V182.136H47.9102V188.562H47.8555L43.248 182.136H41.5254V192H43.501ZM53.5977 192V182.136H51.5332V192H53.5977ZM59.6611 192V183.838H62.5186V182.136H54.7461V183.838H57.5967V192H59.6611ZM65.7246 192V182.136H63.6602V192H65.7246ZM73.8252 192H76.0195L72.5879 182.136H70.1611L66.7363 192H68.8555L69.6074 189.607H73.0732L73.8252 192ZM71.3164 184.022H71.3643L72.6289 188.062H70.0518L71.3164 184.022ZM83.4092 190.291H79.0957V182.136H77.0312V192H83.4092V190.291ZM88.7002 188.862V187.119H84.209V188.862H88.7002ZM90.0059 189.19C90.0674 191.043 91.5781 192.171 93.9502 192.171C96.3975 192.171 97.9492 190.961 97.9492 189.047C97.9492 187.543 97.0879 186.695 95.1123 186.271L93.916 186.019C92.7812 185.759 92.3027 185.417 92.3027 184.809C92.3027 184.077 92.9863 183.592 94.0049 183.592C95.0371 183.592 95.7686 184.098 95.8369 184.932H97.7715C97.7373 183.147 96.2949 181.965 93.998 181.965C91.7969 181.965 90.2246 183.168 90.2246 184.986C90.2246 186.429 91.1201 187.352 92.9385 187.741L94.2236 188.021C95.4131 188.288 95.8848 188.644 95.8848 189.286C95.8848 190.011 95.1328 190.537 94.0322 190.537C92.9385 190.537 92.0908 190.004 91.9951 189.19H90.0059ZM103.582 192.171C106.002 192.171 107.69 190.776 107.923 188.575H105.913C105.694 189.744 104.812 190.462 103.589 190.462C102.01 190.462 101.019 189.163 101.019 187.058C101.019 184.979 102.023 183.674 103.582 183.674C104.785 183.674 105.715 184.467 105.906 185.677H107.916C107.759 183.469 105.954 181.965 103.582 181.965C100.725 181.965 98.9131 183.886 98.9131 187.064C98.9131 190.25 100.711 192.171 103.582 192.171ZM115.319 192H117.514L114.082 182.136H111.655L108.23 192H110.35L111.102 189.607H114.567L115.319 192ZM112.811 184.022H112.858L114.123 188.062H111.546L112.811 184.022ZM124.903 190.291H120.59V182.136H118.525V192H124.903V190.291ZM132.662 190.291H128.191V187.803H132.409V186.217H128.191V183.838H132.662V182.136H126.127V192H132.662V190.291ZM141.446 190.496V188.78H134.282V190.496H141.446ZM141.446 187.304V185.588H134.282V187.304H141.446ZM145.562 192H147.605V182.136H145.555L143.005 183.906V185.766L145.521 184.029H145.562V192Z" fill="#FA7C0D"/>
</svg>
