<svg width="40" height="40" viewBox="0 0 40 40" fill="none" xmlns="http://www.w3.org/2000/svg">
<circle cx="20" cy="20" r="19.5" stroke="black"/>
<circle cx="20" cy="20" r="17" fill="#161616"/>
<path d="M27.3731 20.5858C27.4299 20.2312 27.4589 19.8697 27.4589 19.5C27.4589 15.6561 24.3441 12.54 20.5006 12.54C20.1309 12.54 19.7671 12.5701 19.4137 12.6258C18.7717 12.2294 18.0151 12 17.2051 12C14.883 12 13 13.882 13 16.2054C13 17.0166 13.2294 17.771 13.6257 18.4142C13.5724 18.7699 13.5411 19.1292 13.5411 19.5C13.5411 23.3439 16.6559 26.4588 20.4994 26.4588C20.8691 26.4588 21.2317 26.431 21.5852 26.3742C22.2283 26.7694 22.9838 27 23.7937 27C26.117 27 28 25.1169 28 22.7946C28 21.9845 27.7694 21.2278 27.3731 20.5858ZM23.8042 22.6648C23.5098 23.0889 23.0776 23.4203 22.5133 23.6579C21.9455 23.8966 21.2781 24.016 20.5041 24.016C19.5782 24.016 18.8123 23.8538 18.2074 23.5258C17.7775 23.2917 17.4276 22.9777 17.1599 22.5848C16.8911 22.192 16.7543 21.8084 16.7543 21.4329C16.7543 21.2116 16.8401 21.0204 17.0035 20.8628C17.1669 20.7052 17.3812 20.6275 17.6327 20.6275C17.8389 20.6275 18.0151 20.689 18.1599 20.813C18.3048 20.9358 18.4253 21.1143 18.5226 21.3507C18.6408 21.6242 18.7694 21.8536 18.905 22.0355C19.0406 22.2163 19.2306 22.367 19.4774 22.4852C19.7207 22.6034 20.0452 22.6613 20.4531 22.6613C21.0081 22.6613 21.4577 22.5419 21.8019 22.3044C22.1472 22.0645 22.3129 21.7736 22.3129 21.4214C22.3129 21.1398 22.2225 20.9173 22.0394 20.7434C21.8552 20.5673 21.6165 20.4329 21.3187 20.3413C21.0209 20.2463 20.6199 20.1466 20.1194 20.04C19.4461 19.8928 18.883 19.7225 18.4264 19.5255C17.9699 19.3285 17.606 19.0596 17.3372 18.7178C17.0672 18.3748 16.9328 17.9472 16.9328 17.4407C16.9328 16.9587 17.0742 16.5264 17.3592 16.151C17.6443 15.7743 18.0568 15.4858 18.5921 15.2853C19.1275 15.0848 19.7567 14.984 20.4786 14.984C21.0545 14.984 21.555 15.0501 21.9768 15.1833C22.3975 15.3166 22.7486 15.4939 23.029 15.7152C23.3071 15.9366 23.5133 16.1695 23.6431 16.4152C23.7729 16.6597 23.8389 16.8996 23.8389 17.1337C23.8389 17.3515 23.7543 17.5485 23.5898 17.7212C23.4241 17.8939 23.2155 17.9831 22.971 17.9819C22.7497 17.9819 22.5759 17.9309 22.4565 17.8232C22.3384 17.7177 22.2167 17.552 22.0834 17.3191C21.9143 16.9969 21.7138 16.7443 21.4797 16.5635C21.2491 16.3862 20.8737 16.2947 20.3488 16.2958C19.8644 16.2958 19.4774 16.3943 19.1831 16.5878C18.8888 16.7848 18.7486 17.0131 18.7474 17.2797C18.7486 17.4489 18.7961 17.5902 18.8934 17.7108C18.9919 17.8324 19.1286 17.9379 19.3059 18.0283C19.4832 18.1187 19.6616 18.1882 19.8413 18.2392C20.0232 18.2902 20.3268 18.3655 20.7462 18.4628C21.2723 18.5776 21.7509 18.7039 22.1796 18.8429C22.6095 18.982 22.9745 19.15 23.2769 19.3494C23.5817 19.5487 23.8204 19.8025 23.9896 20.1095C24.1599 20.4155 24.2457 20.7909 24.2457 21.2325C24.2457 21.7644 24.0985 22.2418 23.8042 22.6648Z" fill="white"/>
</svg>
