<svg width="236" height="153" viewBox="0 0 236 153" fill="none" xmlns="http://www.w3.org/2000/svg">
<rect width="236" height="153" fill="white"/>
<g clip-path="url(#clip0)">
<path d="M105.059 64.873V65.1311L105.318 65.1647C106.46 65.2892 107.609 65.3482 108.759 65.3415C111.149 65.3591 113.534 65.0974 115.861 64.5617L116.078 64.5084V63.2827H115.793C115.745 63.2827 110.851 63.1929 109.269 62.9349C107.845 62.7021 107.547 62.4468 107.262 61.2351C106.977 59.9785 105.241 55.673 103.997 53.4824L103.914 53.3365H102.585L102.71 53.7068C102.73 53.7741 105.241 61.2323 105.059 64.873Z" fill="url(#paint0_linear)"/>
<path d="M96.2968 69.1982L96.1147 69.0299C96.0748 68.9906 91.9786 65.1928 86.8862 63.3837L86.6015 63.2799L86.2314 64.5617L86.4136 64.6739C86.4136 64.6739 87.4982 65.3471 88.6425 66.2306C89.4964 66.8814 90.4984 67.7481 91.6513 68.8083C92.7244 69.79 92.7187 70.0845 92.2206 71.0214C91.6086 72.1798 90.4244 76.3338 90.228 78.8751L90.2138 79.0349L91.156 79.6772L91.2812 79.3379C91.3097 79.2677 93.9456 72.3256 96.1431 69.3861L96.2968 69.1982Z" fill="url(#paint1_linear)"/>
<path d="M98.9619 63.8801L99.201 63.9531L99.3063 63.7287C99.332 63.6782 101.658 58.635 101.754 53.3001V53L100.405 53.0673L100.357 53.2721C100.357 53.2721 100.058 54.5034 99.5796 55.8554C99.2266 56.8455 98.7256 58.0712 98.0738 59.5017C97.5699 60.6097 97.3081 60.7583 96.5366 60.7583C96.4029 60.7583 96.252 60.7583 96.104 60.7583C95.788 60.7415 95.3781 60.7331 94.9141 60.7331C92.7991 60.7331 89.8131 60.9014 87.7721 61.3754L87.5529 61.4259V62.5703H87.8376C87.9116 62.5562 95.4265 62.7806 98.9619 63.8801Z" fill="url(#paint2_linear)"/>
<path d="M116.571 64.9656L116.249 65.1928C116.183 65.2405 109.702 69.8125 106.118 70.7184L105.865 70.7829L105.907 71.0382C105.907 71.0887 106.838 76.2104 109.608 80.7824L109.725 80.9731L110.917 80.6085L110.838 80.3448C110.838 80.2971 109.46 75.6663 109.244 74.0983C109.047 72.6959 109.207 72.3341 110.297 71.7086C111.387 71.0831 115.088 68.1604 116.844 66.3372L116.961 66.2194L116.571 64.9656Z" fill="url(#paint3_linear)"/>
<path d="M100.623 73.6608L100.484 73.442L100.251 73.5626C100.205 73.5878 95.5509 76.0421 91.9955 80.0643L91.8475 80.2298L92.5762 81.2424L92.8097 81.0713C92.8097 81.0713 93.8543 80.3027 95.2121 79.5005C96.0319 79.0342 96.8767 78.6119 97.7427 78.2355C97.9904 78.1233 98.221 78.0196 98.4287 77.9186L98.6309 77.8232C99.277 77.5175 99.667 77.3324 99.9716 77.3324C100.276 77.3324 100.495 77.4782 100.962 77.8933C101.939 78.7516 105.875 81.2816 108.178 82.3587L108.329 82.4288L109.414 81.6715L109.095 81.4415C109.038 81.3938 102.61 76.7461 100.623 73.6608Z" fill="url(#paint4_linear)"/>
<path d="M58.1306 74.8079C58.3315 75.2023 58.6241 75.5445 58.9845 75.8065C59.3673 76.0701 59.797 76.2604 60.2512 76.3674C60.7412 76.4919 61.2454 76.5541 61.7514 76.5526C62.1326 76.5515 62.5132 76.5224 62.89 76.4656C63.2844 76.4128 63.6683 76.3012 64.0286 76.1346C64.3691 75.9765 64.6688 75.7444 64.9053 75.4559C65.148 75.1405 65.2718 74.7518 65.2555 74.3563C65.2639 74.1421 65.227 73.9285 65.1471 73.729C65.0673 73.5296 64.9461 73.3487 64.7915 73.1979C64.4348 72.8761 64.0168 72.6272 63.5618 72.4658C63.0064 72.2511 62.4355 72.0777 61.8538 71.9469C61.2191 71.7983 60.5786 71.6356 59.9267 71.4533C59.2661 71.2929 58.6159 71.0934 57.9797 70.8558C57.3675 70.6313 56.792 70.3195 56.2718 69.9302C55.7679 69.5486 55.3533 69.0645 55.0563 68.511C54.732 67.8729 54.5736 67.1655 54.5951 66.4522C54.5735 65.6302 54.776 64.8175 55.1815 64.0989C55.5695 63.4421 56.0979 62.8764 56.7301 62.4412C57.3825 61.9899 58.1112 61.6565 58.882 61.4567C59.6639 61.2389 60.472 61.1257 61.2845 61.1201C62.1904 61.1174 63.0935 61.2209 63.9745 61.4286C64.7902 61.6186 65.5625 61.9573 66.2518 62.4272C66.9146 62.884 67.4588 63.4885 67.8401 64.1914C68.254 64.996 68.4566 65.89 68.4294 66.7916H64.6378C64.6234 66.3367 64.5078 65.8905 64.299 65.4845C64.1185 65.158 63.8558 64.8827 63.5362 64.6851C63.2025 64.4818 62.834 64.3402 62.4488 64.2672C62.0078 64.1758 61.5587 64.1279 61.1081 64.1241C60.7886 64.125 60.47 64.1579 60.1573 64.2223C59.8538 64.2854 59.5644 64.4023 59.3033 64.5673C59.0494 64.7269 58.8322 64.9371 58.6657 65.1844C58.4888 65.4648 58.4015 65.7912 58.4152 66.1212C58.4009 66.4145 58.47 66.7059 58.6145 66.9627C58.8159 67.2288 59.0891 67.4339 59.403 67.5545C59.9291 67.7804 60.4738 67.9615 61.0312 68.0958C61.722 68.2828 62.6272 68.5138 63.7468 68.7886C64.0798 68.8532 64.541 68.971 65.1359 69.1449C65.7621 69.3384 66.3558 69.6219 66.8979 69.9863C67.4974 70.3816 68.0088 70.8931 68.4009 71.4897C68.8541 72.2189 69.0771 73.0644 69.0414 73.9188C69.0483 74.692 68.8851 75.4575 68.5632 76.1627C68.2388 76.8616 67.7511 77.4748 67.1399 77.9522C66.4482 78.4874 65.6573 78.8846 64.8114 79.1218C63.7663 79.4185 62.6823 79.5603 61.5948 79.5426C60.6286 79.5444 59.6662 79.4237 58.7312 79.1835C57.8485 78.9662 57.0158 78.5855 56.2775 78.0616C55.5676 77.5522 54.9893 76.8854 54.5894 76.115C54.1549 75.244 53.9475 74.28 53.986 73.3101H57.8061C57.7915 73.8277 57.9028 74.3413 58.1306 74.8079Z" fill="#01427A"/>
<path d="M69.9698 64.7945V61.5409H84.6096V64.7945H79.2552V79.1471H75.3241V64.7945H69.9698Z" fill="#01427A"/>
<path d="M128.219 61.5408C128.958 61.5296 129.693 61.6591 130.382 61.9223C130.998 62.1595 131.56 62.5162 132.033 62.9713C132.488 63.4079 132.846 63.932 133.086 64.5112C133.33 65.1114 133.452 65.7525 133.448 66.3989C133.472 67.3367 133.243 68.264 132.785 69.086C132.286 69.8892 131.522 70.4984 130.621 70.811V70.8558C131.062 70.9667 131.472 71.1727 131.822 71.4589C132.138 71.7301 132.401 72.0562 132.597 72.421C132.804 72.8108 132.951 73.2285 133.035 73.6607C133.125 74.0996 133.188 74.5437 133.223 74.9902C133.24 75.2707 133.257 75.5989 133.274 75.9776C133.291 76.3562 133.32 76.7433 133.36 77.136C133.398 77.5144 133.466 77.8895 133.562 78.2579C133.638 78.5817 133.779 78.8875 133.974 79.1583H130.043C129.809 78.5162 129.675 77.8429 129.645 77.1612C129.594 76.3908 129.519 75.6513 129.42 74.9426C129.286 74.0226 129.001 73.3466 128.566 72.9202C128.13 72.4939 127.427 72.2779 126.437 72.2779H122.508V79.1583H118.58V61.5408H128.219ZM126.815 69.5067C127.719 69.5067 128.394 69.3085 128.842 68.9121C129.295 68.5194 129.52 67.8771 129.52 66.9907C129.52 66.1044 129.295 65.5153 128.842 65.1283C128.389 64.7412 127.718 64.5477 126.815 64.5477H122.511V69.5067H126.815Z" fill="#01427A"/>
<path d="M136.502 61.5409H147.712V62.4777H137.601V69.5292H146.71V70.466H137.601V79.1611H136.502V61.5409Z" fill="#01427A"/>
<path d="M149.366 61.5409H150.465V79.1471H149.366V61.5409Z" fill="#01427A"/>
<path d="M165.281 66.57C165.264 65.8887 165.098 65.219 164.794 64.6066C164.508 64.0578 164.102 63.5787 163.604 63.2041C163.069 62.8134 162.462 62.5278 161.817 62.3627C161.074 62.1686 160.308 62.0743 159.539 62.0822C158.997 62.087 158.456 62.1453 157.925 62.2561C157.361 62.3675 156.819 62.5713 156.323 62.8591C155.832 63.1466 155.417 63.5433 155.11 64.0175C154.787 64.5584 154.628 65.1796 154.652 65.8071C154.623 66.4239 154.808 67.0321 155.176 67.5321C155.542 67.9919 156.012 68.3616 156.548 68.6119C157.172 68.901 157.827 69.1202 158.5 69.2655C159.233 69.4282 159.975 69.5843 160.726 69.7339C161.478 69.8835 162.225 70.0602 162.967 70.264C163.654 70.4533 164.312 70.7366 164.919 71.1055C165.491 71.4466 165.972 71.9168 166.323 72.4771C166.693 73.1265 166.875 73.8642 166.847 74.6088C166.876 75.4227 166.667 76.2278 166.246 76.9284C165.859 77.5399 165.343 78.0615 164.732 78.4571C164.112 78.8539 163.426 79.1389 162.705 79.2986C162.005 79.4673 161.288 79.5549 160.567 79.5594C159.572 79.5656 158.58 79.4535 157.612 79.2256C156.745 79.0271 155.928 78.6579 155.21 78.1401C154.522 77.6322 153.968 76.9683 153.596 76.2048C153.177 75.3006 152.982 74.3114 153.027 73.3185H154.128C154.054 74.1589 154.2 75.004 154.552 75.7728C154.875 76.422 155.351 76.9849 155.941 77.4137C156.569 77.8563 157.281 78.1701 158.034 78.3365C158.862 78.5285 159.71 78.6227 160.561 78.617C161.136 78.6111 161.709 78.5443 162.269 78.4178C162.863 78.2921 163.43 78.0673 163.946 77.7531C164.458 77.4387 164.893 77.0174 165.221 76.5189C165.582 75.9418 165.76 75.272 165.734 74.5948C165.762 73.9509 165.579 73.3151 165.21 72.7828C164.843 72.3059 164.367 71.9215 163.821 71.6609C163.2 71.3558 162.544 71.1241 161.868 70.9709C161.143 70.7969 160.396 70.6361 159.628 70.4884C158.876 70.3398 158.136 70.1687 157.402 69.9723C156.716 69.7953 156.058 69.5264 155.446 69.1729C154.897 68.8447 154.431 68.3978 154.083 67.8658C153.705 67.2454 153.518 66.5302 153.545 65.8071C153.523 65.0525 153.709 64.3062 154.083 63.6473C154.429 63.0624 154.908 62.565 155.483 62.1944C156.078 61.8151 156.735 61.54 157.424 61.3809C158.12 61.2095 158.834 61.1219 159.551 61.1201C160.433 61.1144 161.311 61.2181 162.167 61.4286C162.931 61.6141 163.652 61.9406 164.293 62.3907C164.907 62.8315 165.409 63.4079 165.756 64.0736C166.145 64.8495 166.359 65.6993 166.383 66.5644L165.281 66.57Z" fill="#01427A"/>
<path d="M169.386 61.5409H170.487V69.5292H181.899V61.5409H183.001V79.1471H181.899V70.466H170.487V79.1611H169.386V61.5409Z" fill="#01427A"/>
<path d="M103.556 88.3078H104.487V90.9613H104.535C104.691 90.509 104.928 90.0881 105.235 89.7187C105.536 89.3578 105.891 89.0447 106.289 88.7903C106.692 88.531 107.134 88.336 107.598 88.2125C108.068 88.0838 108.554 88.0187 109.041 88.0189C109.677 88.0037 110.311 88.0928 110.917 88.2826C111.38 88.4334 111.808 88.6716 112.178 88.9838C112.494 89.26 112.755 89.5909 112.95 89.9599C113.132 90.3078 113.268 90.6773 113.354 91.0594C113.431 91.4131 113.48 91.7723 113.499 92.1337C113.516 92.4787 113.525 92.7816 113.525 93.0369V100.711H112.594V92.8574C112.594 92.5516 112.568 92.1646 112.52 91.6989C112.47 91.2292 112.325 90.7742 112.093 90.361C111.833 89.9111 111.462 89.533 111.014 89.2615C110.407 88.9257 109.716 88.7672 109.021 88.8043C108.364 88.7961 107.713 88.9311 107.114 89.1998C106.566 89.4514 106.08 89.818 105.691 90.2741C105.285 90.7569 104.981 91.3148 104.797 91.9149C104.586 92.5908 104.483 93.2947 104.49 94.0018V100.711H103.556V88.3078Z" fill="#01427A"/>
<path d="M116.61 94.6301V94.7759C116.604 95.4776 116.7 96.1766 116.895 96.8515C117.075 97.4778 117.37 98.0663 117.766 98.5877C118.151 99.0855 118.647 99.4895 119.215 99.7686C119.846 100.07 120.541 100.219 121.242 100.203C122.502 100.203 123.501 99.878 124.239 99.2273C125.019 98.4993 125.55 97.5505 125.759 96.5121H126.69C126.413 97.9595 125.813 99.0693 124.891 99.8415C123.969 100.614 122.748 101 121.23 101C120.391 101.019 119.558 100.85 118.794 100.506C118.118 100.191 117.523 99.7288 117.054 99.1543C116.574 98.5532 116.22 97.8638 116.012 97.1264C115.779 96.3049 115.664 95.4551 115.671 94.602C115.667 93.7573 115.787 92.9165 116.027 92.1057C116.243 91.3461 116.605 90.6341 117.091 90.0076C117.567 89.4 118.173 88.9046 118.868 88.5575C119.647 88.1805 120.507 87.9947 121.375 88.0161C122.182 87.9998 122.983 88.1648 123.715 88.4986C124.377 88.8064 124.96 89.2558 125.423 89.8141C125.889 90.388 126.242 91.0424 126.465 91.7438C126.705 92.5056 126.824 93.2994 126.818 94.0971C126.818 94.1785 126.818 94.2682 126.818 94.3776C126.818 94.487 126.818 94.5655 126.818 94.6301H116.61ZM125.867 93.8335C125.838 93.1819 125.722 92.5369 125.523 91.9149C125.338 91.3339 125.043 90.7931 124.652 90.3217C124.268 89.8639 123.791 89.4903 123.251 89.225C122.667 88.9433 122.023 88.8029 121.373 88.8155C120.684 88.8005 120.002 88.9446 119.38 89.2363C118.823 89.5073 118.33 89.8893 117.931 90.3582C117.528 90.8322 117.219 91.3764 117.02 91.9626C116.81 92.5714 116.678 93.2037 116.627 93.8447L125.867 93.8335Z" fill="#01427A"/>
<path d="M133.604 89.1044H130.863V97.7659C130.848 98.1674 130.905 98.5682 131.034 98.9496C131.134 99.2204 131.318 99.453 131.56 99.6143C131.818 99.7735 132.111 99.8697 132.414 99.8948C132.801 99.9273 133.19 99.9348 133.578 99.9173V100.714C133.118 100.749 132.655 100.749 132.195 100.714C131.777 100.682 131.371 100.558 131.008 100.352C130.651 100.135 130.365 99.8201 130.185 99.4461C129.959 98.9207 129.871 98.3477 129.929 97.78V89.1044H127.609V88.3079H129.935V84.4455H130.866V88.3079H133.607L133.604 89.1044Z" fill="#01427A"/>
<path d="M138.455 99.648H138.503L141.919 88.3079H143.169L146.621 99.648H146.681L150.208 88.3079H151.236L147.194 100.711H146.055L142.602 89.4663H142.551L139.075 100.711H137.9L133.914 88.3079H134.916L138.455 99.648Z" fill="#01427A"/>
<path d="M151.973 94.5095C151.966 93.663 152.094 92.8207 152.351 92.0131C152.587 91.2622 152.965 90.5618 153.464 89.9487C153.958 89.3564 154.577 88.8777 155.278 88.5463C156.056 88.2041 156.899 88.0272 157.751 88.0272C158.604 88.0272 159.446 88.2041 160.225 88.5463C160.926 88.8769 161.546 89.3558 162.038 89.9487C162.537 90.5618 162.915 91.2622 163.151 92.0131C163.408 92.8207 163.536 93.663 163.53 94.5095C163.535 95.3605 163.408 96.2072 163.151 97.0198C162.918 97.7712 162.54 98.4712 162.038 99.0814C161.545 99.6735 160.926 100.152 160.225 100.484C159.446 100.826 158.604 101.003 157.751 101.003C156.899 101.003 156.056 100.826 155.278 100.484C154.577 100.151 153.958 99.6729 153.464 99.0814C152.962 98.4712 152.584 97.7712 152.351 97.0198C152.095 96.2072 151.967 95.3605 151.973 94.5095ZM152.904 94.5095C152.901 95.2325 153.007 95.9518 153.22 96.644C153.419 97.3009 153.734 97.918 154.15 98.4672C154.556 98.9951 155.075 99.428 155.67 99.735C156.319 100.043 157.031 100.203 157.751 100.203C158.472 100.203 159.183 100.043 159.832 99.735C160.427 99.4274 160.946 98.9946 161.352 98.4672C161.769 97.918 162.084 97.3009 162.283 96.644C162.704 95.2512 162.704 93.7677 162.283 92.3749C162.084 91.718 161.769 91.1009 161.352 90.5518C160.946 90.0244 160.427 89.5915 159.832 89.284C159.183 88.9756 158.472 88.8154 157.751 88.8154C157.031 88.8154 156.319 88.9756 155.67 89.284C155.075 89.5909 154.556 90.0238 154.15 90.5518C153.734 91.1009 153.419 91.718 153.22 92.3749C153.007 93.0671 152.901 93.7865 152.904 94.5095Z" fill="#01427A"/>
<path d="M166.641 91.051H166.715C166.838 90.6326 167.051 90.2452 167.339 89.9151C167.652 89.5518 168.025 89.2419 168.44 88.9979C168.891 88.7337 169.378 88.5353 169.886 88.4088C170.426 88.2712 170.983 88.2099 171.54 88.2265V89.1437C170.976 89.0847 170.406 89.1342 169.861 89.2896C169.177 89.4816 168.557 89.8472 168.062 90.3498C167.849 90.5731 167.649 90.8071 167.461 91.051C167.287 91.281 167.144 91.5317 167.034 91.7971C166.912 92.0929 166.822 92.4002 166.764 92.7143C166.692 93.1137 166.652 93.5178 166.641 93.9232V100.703H165.711V88.3079H166.641V91.051Z" fill="#01427A"/>
<path d="M172.568 83.4778H173.499V94.8937L181.261 88.305H182.608L177.1 92.9387L183.001 100.708H181.725L176.362 93.6371L173.499 96.0269V100.708H172.568V83.4778Z" fill="#01427A"/>
</g>
<defs>
<linearGradient id="paint0_linear" x1="99.0666" y1="44.4114" x2="121.894" y2="84.9068" gradientUnits="userSpaceOnUse">
<stop stop-color="#28A7E5"/>
<stop offset="0.48" stop-color="#0063A7"/>
<stop offset="1" stop-color="#01427A"/>
</linearGradient>
<linearGradient id="paint1_linear" x1="2546.53" y1="275.377" x2="3007.45" y2="1850.15" gradientUnits="userSpaceOnUse">
<stop stop-color="#28A7E5"/>
<stop offset="0.48" stop-color="#0063A7"/>
<stop offset="1" stop-color="#01427A"/>
</linearGradient>
<linearGradient id="paint2_linear" x1="2546.53" y1="275.377" x2="3007.45" y2="1850.15" gradientUnits="userSpaceOnUse">
<stop stop-color="#28A7E5"/>
<stop offset="0.48" stop-color="#0063A7"/>
<stop offset="1" stop-color="#01427A"/>
</linearGradient>
<linearGradient id="paint3_linear" x1="2546.53" y1="275.377" x2="3007.45" y2="1850.15" gradientUnits="userSpaceOnUse">
<stop stop-color="#28A7E5"/>
<stop offset="0.48" stop-color="#0063A7"/>
<stop offset="1" stop-color="#01427A"/>
</linearGradient>
<linearGradient id="paint4_linear" x1="2546.53" y1="275.377" x2="3007.45" y2="1850.15" gradientUnits="userSpaceOnUse">
<stop stop-color="#28A7E5"/>
<stop offset="0.48" stop-color="#0063A7"/>
<stop offset="1" stop-color="#01427A"/>
</linearGradient>
<clipPath id="clip0">
<rect width="129" height="48" fill="white" transform="translate(54 53)"/>
</clipPath>
</defs>
</svg>
