<svg width="59" height="399" viewBox="0 0 59 399" fill="none" xmlns="http://www.w3.org/2000/svg">
<path d="M41.9453 398.422C52.5312 398.07 58.9766 389.437 58.9766 375.883C58.9766 361.898 52.0625 353.031 41.125 353.031C32.5312 353.031 27.6875 357.953 25.2656 369.242L23.8203 376.078C22.3359 382.562 20.3828 385.297 16.9062 385.297C12.7266 385.297 9.95312 381.391 9.95312 375.57C9.95312 369.672 12.8437 365.492 17.6094 365.102L17.6094 354.047C7.41406 354.242 0.656248 362.484 0.656249 375.609C0.656249 388.187 7.53125 397.172 17.9219 397.172C26.1641 397.172 31.4375 392.055 33.6641 381.664L35.2656 374.32C36.7891 367.523 38.8203 364.828 42.4922 364.828C46.6328 364.828 49.6406 369.125 49.6406 375.414C49.6406 381.664 46.5937 386.508 41.9453 387.055L41.9453 398.422Z" fill="#FF6900"/>
<path d="M58 320.492L11.3594 320.492L11.3594 304.164L1.63281 304.164L1.63281 348.578L11.3594 348.578L11.3594 332.289L58 332.289L58 320.492ZM10.8516 285.844L10.8516 275.805C10.8516 269.945 14.3672 266.273 19.8359 266.273C25.4219 266.273 28.8203 269.75 28.8203 275.687L28.8203 285.844L10.8516 285.844ZM37.375 285.844L37.375 276.391L58 265.883L58 252.523L35.6172 264.398C33.0781 257.914 26.8281 254.164 19.6016 254.164C8.46874 254.164 1.63281 261.586 1.63281 274.555L1.63281 297.641L58 297.641L58 285.844L37.375 285.844ZM58 209.477L58 196.937L1.6328 216.547L1.63281 230.414L58 249.984L58 237.875L44.3281 233.578L44.3281 213.773L58 209.477ZM12.4141 223.812L12.4141 223.539L35.5 216.312L35.5 231.039L12.4141 223.812ZM58 173.539L11.3594 173.539L11.3594 157.211L1.6328 157.211L1.6328 201.625L11.3594 201.625L11.3594 185.336L58 185.336L58 173.539ZM48.2344 113.344L48.2344 138.891L34.0156 138.891L34.0156 114.789L24.9531 114.789L24.9531 138.891L11.3594 138.891L11.3594 113.344L1.6328 113.344L1.6328 150.687L58 150.687L58 113.344L48.2344 113.344ZM34.3281 54.4375L27.9609 54.4375L27.9609 78.1875L36.5547 78.1875L36.5547 65.9219L37.4531 65.9609C44.4453 66.1953 49.1719 71.5469 49.1719 79.2422C49.1719 88.6172 41.7109 94.5547 29.4844 94.5547C17.4922 94.5547 10.4219 88.9687 10.4219 79.6719C10.4219 73.3047 13.9375 68.5 19.8359 66.7812L19.8359 54.9453C8.42967 56.625 0.656235 66.5469 0.656236 79.7109C0.656237 96.2734 11.5937 106.586 29.6406 106.586C47.9609 106.586 58.9765 96.2734 58.9765 79.4375C58.9765 63.7344 49.6797 54.4375 34.3281 54.4375ZM58 19.9844L36.9453 19.9844L1.63279 0.335937L1.6328 12.9922L25.6953 25.6484L25.6953 25.9219L1.6328 38.5391L1.6328 51.3906L36.9453 31.7812L58 31.7812L58 19.9844Z" fill="black"/>
</svg>
