<svg width="236" height="153" viewBox="0 0 236 153" fill="none" xmlns="http://www.w3.org/2000/svg">
<rect width="236" height="153" fill="white"/>
<path fill-rule="evenodd" clip-rule="evenodd" d="M118.23 83.2471H121.901V86.7073H118.196L118.23 83.2471ZM111.67 83.2798H115.375V86.7073L111.67 86.642C111.636 86.642 111.67 83.2798 111.67 83.2798ZM108.814 89.0903H115.341L115.375 90.4287H118.23L118.264 89.0903H124.79V80.9294H124.552L108.814 80.9621V89.0903Z" fill="#1E1C57"/>
<path fill-rule="evenodd" clip-rule="evenodd" d="M164.755 83.2471L170.284 83.2798V85.4016L164.721 85.3689L164.755 83.2471ZM164.755 87.7846L170.317 87.8172V90.4287H173.149V80.9294H161.923V90.4287H164.755V87.7846Z" fill="#1E1C57"/>
<path fill-rule="evenodd" clip-rule="evenodd" d="M159.129 67.1876H166.402L166.357 73.5138L159.129 73.4702C159.129 73.4266 159.129 67.1876 159.129 67.1876ZM155.447 76.6115H170.128V64.0898L155.447 64.1335V76.6115Z" fill="#1E1C57"/>
<path fill-rule="evenodd" clip-rule="evenodd" d="M128.344 83.2145L133.725 83.2471L133.693 88.0783H128.311L128.344 83.2145ZM125.653 90.4287H136.448V80.9294H125.815H125.653V90.4287Z" fill="#1E1C57"/>
<path fill-rule="evenodd" clip-rule="evenodd" d="M120.011 71.6814H123.927L123.881 76.6115H108.814V64.0898H123.881V68.9327L120.149 68.9764L120.057 67.1439H112.639V73.5138H120.011V71.6814Z" fill="#1E1C57"/>
<path fill-rule="evenodd" clip-rule="evenodd" d="M140.248 83.3387L145.602 83.2737L145.636 85.8104H140.248V83.3387ZM140.248 88.2171H148.538V80.9646C145.982 80.9646 139.384 80.867 137.312 80.9971V90.3961L140.248 90.4287V88.2171Z" fill="#1E1C57"/>
<path fill-rule="evenodd" clip-rule="evenodd" d="M143.898 67.1794L150.546 67.2663V70.5263L143.898 70.5698V67.1794ZM143.898 73.6993L154.152 73.6559V64.1803C151.241 64.0064 143.681 64.1368 140.335 64.1368V76.6115H143.898V75.7857V73.6993Z" fill="#1E1C57"/>
<path fill-rule="evenodd" clip-rule="evenodd" d="M152.177 87.112L155.083 90.1389C156.128 89.5914 157.402 87.7238 158.316 87.1764L158.382 90.4287L161.06 90.3965L161.027 80.9294L155.345 86.4036C154.594 86.1138 150.512 81.7667 149.401 80.9294V90.3965L152.144 90.3643L152.177 87.112Z" fill="#1E1C57"/>
<path fill-rule="evenodd" clip-rule="evenodd" d="M182.055 71.2015L182.099 76.6115L185.672 76.5243V64.1335L182.099 64.0898V67.493L175.083 69.7617L174.996 64.0898H171.423V76.6115L174.996 76.5679L175.04 73.5575L182.055 71.2015Z" fill="#1E1C57"/>
<path fill-rule="evenodd" clip-rule="evenodd" d="M123.971 67.1003L129.671 67.1439V76.5243C130.997 76.6115 132.057 76.6988 133.339 76.437L133.383 67.1439H139.039V64.0898H123.927V67.1003H123.971Z" fill="#1E1C57"/>
<path d="M182.649 61.0674H174.014V62.7945H182.649V61.0674Z" fill="#1E1C57"/>
<path fill-rule="evenodd" clip-rule="evenodd" d="M174.014 83.2392L178.415 83.2717V90.3636C179.456 90.4287 180.263 90.4937 181.271 90.2985L181.304 83.2392H185.672V80.9294H174.014C174.014 80.9294 174.014 83.2392 174.014 83.2392Z" fill="#1E1C57"/>
<path fill-rule="evenodd" clip-rule="evenodd" d="M80.3214 80.6495L72.8584 76.5L65.4395 80.6495L72.8142 84.7549L80.3214 80.6495Z" fill="#1E1C57"/>
<path fill-rule="evenodd" clip-rule="evenodd" d="M65.4839 80.6054L65.4397 72.3063L72.9028 76.4558C72.8586 76.5 65.4839 80.6054 65.4839 80.6054ZM58.3741 73.2775L58.5507 68.3775L51.1318 64.2279V88.6838L58.3741 84.5342C58.3741 84.5784 58.3741 73.2775 58.3741 73.2775Z" fill="#EE3A24"/>
<path fill-rule="evenodd" clip-rule="evenodd" d="M80.2331 72.3505L72.8583 68.2009L65.4395 72.3505L72.8583 76.5L80.2331 72.3505Z" fill="#1E1C57"/>
<path fill-rule="evenodd" clip-rule="evenodd" d="M72.9028 92.7451L58.3741 84.5784L51.1318 88.6838L72.8586 101L94.6737 88.7721L87.873 84.3577L72.9028 92.7451Z" fill="#1E1C57"/>
<path fill-rule="evenodd" clip-rule="evenodd" d="M72.9028 60.2991L58.5507 68.3775L51.1318 64.2279L72.8586 52L94.7179 64.2279L87.3431 68.3775L72.9028 60.2991Z" fill="#1E1C57"/>
<path fill-rule="evenodd" clip-rule="evenodd" d="M80.2341 72.3505L80.2783 80.6496L72.8594 76.5L80.2341 72.3505Z" fill="#EE3A24"/>
</svg>
