<svg xmlns="http://www.w3.org/2000/svg" viewBox="0 0 12.06 11.82"><defs><style>.cls-1{fill:#becd16;}</style></defs><title>support2</title><g id="Слой_2" data-name="Слой 2"><g id="Слой_1-2" data-name="Слой 1"><path class="cls-1" d="M10.41,4.55l-.31-.72a13,13,0,0,0,.65-1.66l-.94-.92a13.09,13.09,0,0,0-1.67.67l-.74-.3A12.83,12.83,0,0,0,6.67,0H5.34a12.19,12.19,0,0,0-.7,1.62l-.74.3a13.63,13.63,0,0,0-1.7-.63l-.94.92A12.13,12.13,0,0,0,2,3.84l-.3.72A14.15,14.15,0,0,0,0,5.28v1.3a12.77,12.77,0,0,0,1.66.68L2,8a13.08,13.08,0,0,0-.65,1.66l.93.92A13.45,13.45,0,0,0,3.92,9.9l.74.3a12.81,12.81,0,0,0,.74,1.62H6.73a12.59,12.59,0,0,0,.69-1.62l.74-.3a13.49,13.49,0,0,0,1.69.63l.94-.92A12.4,12.4,0,0,0,10.11,8l.31-.72a13.66,13.66,0,0,0,1.65-.73V5.23a12.61,12.61,0,0,0-1.65-.68ZM8,5.91A1.94,1.94,0,1,1,6,4,1.92,1.92,0,0,1,8,5.91Z"/></g></g></svg>