<?xml version="1.0" encoding="utf-8"?>
<!-- Generator: Adobe Illustrator 16.0.0, SVG Export Plug-In . SVG Version: 6.00 Build 0)  -->
<!DOCTYPE svg PUBLIC "-//W3C//DTD SVG 1.1//EN" "http://www.w3.org/Graphics/SVG/1.1/DTD/svg11.dtd">
<svg version="1.1" id="Слой_1" xmlns="http://www.w3.org/2000/svg" xmlns:xlink="http://www.w3.org/1999/xlink" x="0px" y="0px"
	 width="12.066px" height="11.816px" viewBox="0 0 12.066 11.816" enable-background="new 0 0 12.066 11.816" xml:space="preserve">
<path d="M10.41,4.554l-0.306-0.723c0,0,0.709-1.6,0.646-1.663L9.813,1.252C9.747,1.19,8.147,1.919,8.147,1.919L7.41,1.622
	C7.41,1.622,6.759,0,6.668,0H5.344C5.251,0,4.648,1.624,4.648,1.624l-0.736,0.3c0,0-1.632-0.694-1.695-0.632L1.281,2.209
	c-0.067,0.062,0.68,1.629,0.68,1.629L1.657,4.562C1.657,4.562,0,5.2,0,5.284v1.299c0,0.091,1.659,0.684,1.659,0.684l0.306,0.721
	c0,0-0.709,1.598-0.646,1.659l0.935,0.919c0.065,0.06,1.665-0.67,1.665-0.67l0.74,0.298c0,0,0.649,1.622,0.74,1.622h1.326
	c0.09,0,0.694-1.625,0.694-1.625l0.738-0.299c0,0,1.63,0.695,1.692,0.632l0.938-0.917c0.065-0.062-0.682-1.629-0.682-1.629
	l0.305-0.724c0,0,1.654-0.639,1.654-0.726V5.233C12.07,5.144,10.41,4.554,10.41,4.554L10.41,4.554z M7.971,5.907
	c0,1.045-0.869,1.893-1.936,1.893C4.968,7.8,4.1,6.953,4.1,5.907c0-1.043,0.868-1.892,1.936-1.892
	C7.102,4.015,7.971,4.864,7.971,5.907L7.971,5.907z M7.971,5.907"/>
</svg>
