<svg width="59" height="537" viewBox="0 0 59 537" fill="none" xmlns="http://www.w3.org/2000/svg">
<path d="M58 508.039L11.3594 508.039L11.3594 491.711L1.63281 491.711L1.63281 536.125L11.3594 536.125L11.3594 519.836L58 519.836L58 508.039Z" fill="#95B540"/>
<path d="M48.2344 447.844L48.2344 473.391L34.0156 473.391L34.0156 449.289L24.9531 449.289L24.9531 473.391L11.3594 473.391L11.3594 447.844L1.63281 447.844L1.63281 485.187L58 485.187L58 447.844L48.2344 447.844ZM58.9766 414.406C58.9766 400.578 51.0078 390.93 38.4297 389.602L38.4297 401.086C45.1094 402.336 49.2109 407.375 49.2109 414.367C49.2109 423.391 41.7891 429.055 29.7578 429.055C17.8828 429.055 10.4219 423.312 10.4219 414.406C10.4219 407.531 14.9531 402.219 21.8672 401.125L21.8672 389.641C9.24999 390.539 0.656244 400.852 0.656245 414.406C0.656245 430.734 11.6328 441.086 29.7969 441.086C48 441.086 58.9766 430.812 58.9766 414.406ZM58 333.312L1.6328 333.312L1.6328 345.109L24.5234 345.109L24.5234 370.5L1.63281 370.5L1.63281 382.297L58 382.297L58 370.5L34.25 370.5L34.25 345.109L58 345.109L58 333.312ZM58 312.648L21.0859 312.648L21.0859 312.297L58 285.93L58 276.164L1.6328 276.164L1.6328 287.453L38.3516 287.453L38.3516 287.766L1.6328 314.094L1.6328 323.937L58 323.937L58 312.648ZM0.656237 241.32C0.656238 258.039 11.8672 268.508 29.8359 268.508C47.7656 268.508 58.9766 258.039 58.9765 241.32C58.9765 224.641 47.7656 214.133 29.8359 214.133C11.8672 214.133 0.656236 224.641 0.656237 241.32ZM10.5 241.32C10.5 232.102 18 226.203 29.8359 226.203C41.6328 226.203 49.0937 232.102 49.0937 241.32C49.0937 250.578 41.6328 256.477 29.8359 256.477C18 256.477 10.5 250.539 10.5 241.32ZM48.2344 170.07L48.2344 194.719L1.6328 194.719L1.6328 206.516L58 206.516L58 170.07L48.2344 170.07ZM0.656233 139.992C0.656233 156.711 11.8672 167.18 29.8359 167.18C47.7656 167.18 58.9765 156.711 58.9765 139.992C58.9765 123.312 47.7656 112.805 29.8359 112.805C11.8672 112.805 0.656232 123.312 0.656233 139.992ZM10.5 139.992C10.5 130.773 18 124.875 29.8359 124.875C41.6328 124.875 49.0937 130.773 49.0937 139.992C49.0937 149.25 41.6328 155.148 29.8359 155.148C18 155.148 10.5 149.211 10.5 139.992ZM34.3281 54.7969L27.9609 54.7969L27.9609 78.5469L36.5547 78.5469L36.5547 66.2812L37.4531 66.3203C44.4453 66.5547 49.1719 71.9062 49.1719 79.6016C49.1719 88.9766 41.7109 94.9141 29.4844 94.9141C17.4922 94.9141 10.4219 89.3281 10.4219 80.0312C10.4219 73.6641 13.9375 68.8594 19.8359 67.1406L19.8359 55.3047C8.42967 56.9844 0.656229 66.9062 0.65623 80.0703C0.656231 96.6328 11.5937 106.945 29.6406 106.945C47.9609 106.945 58.9765 96.6328 58.9765 79.7969C58.9765 64.0937 49.6797 54.7969 34.3281 54.7969ZM58 20.3437L36.9453 20.3437L1.63279 0.695312L1.63279 13.3516L25.6953 26.0078L25.6953 26.2812L1.63279 38.8984L1.63279 51.75L36.9453 32.1406L58 32.1406L58 20.3437Z" fill="black"/>
</svg>
