<svg width="15" height="15" viewBox="0 0 15 15" fill="none" xmlns="http://www.w3.org/2000/svg">
<g clip-path="url(#clip0)">
<path d="M0.264945 7.23345L3.72125 8.51753L5.05905 12.8001C5.14465 13.0744 5.4816 13.1758 5.70525 12.9938L7.63185 11.4304C7.8338 11.2666 8.12145 11.2584 8.3325 11.4109L11.8074 13.9222C12.0467 14.0953 12.3856 13.9648 12.4456 13.677L14.9912 1.48872C15.0567 1.17437 14.7464 0.912129 14.4457 1.02789L0.260895 6.4748C-0.0891559 6.60918 -0.0861059 7.10251 0.264945 7.23345ZM4.84345 7.83398L11.5984 3.69274C11.7198 3.61854 11.8447 3.78193 11.7404 3.87819L6.16565 9.03638C5.9697 9.21794 5.8433 9.46092 5.8075 9.72465L5.6176 11.1255C5.59245 11.3125 5.3285 11.3311 5.27665 11.1501L4.5463 8.59562C4.46265 8.30426 4.58455 7.99305 4.84345 7.83398Z" fill="black"/>
</g>
<defs>
<clipPath id="clip0">
<rect width="15" height="15" fill="white"/>
</clipPath>
</defs>
</svg>
