<svg width="236" height="153" viewBox="0 0 236 153" fill="none" xmlns="http://www.w3.org/2000/svg">
<rect width="236" height="153" fill="white"/>
<g clip-path="url(#clip0)">
<path d="M114.519 58.6208V61.1621H116.633V62.0587H114.519V68.6693C114.486 69.0996 114.593 69.5291 114.825 69.8975C114.95 70.0399 115.108 70.1509 115.287 70.2211C115.465 70.2914 115.659 70.3186 115.851 70.3007C116.157 70.289 116.462 70.258 116.764 70.2078L116.813 71.0991C116.422 71.2139 116.013 71.2659 115.605 71.253C114.831 71.253 114.267 71.0328 113.914 70.5978C113.562 70.1627 113.387 69.5181 113.387 68.6693V62.0534H111.508V61.1621H113.387V58.6262L114.519 58.6208Z" fill="black"/>
<path d="M120.097 62.8332C120.444 62.2649 120.934 61.7919 121.522 61.4591C122.099 61.1361 122.754 60.9685 123.42 60.9737C124.514 60.9737 125.329 61.2726 125.865 61.8703C126.401 62.468 126.675 63.3655 126.686 64.5628V71.0646H125.564V64.5548C125.564 63.6688 125.365 63.011 124.982 62.5759C124.599 62.1409 123.994 61.926 123.158 61.926C122.48 61.9183 121.823 62.1439 121.301 62.5627C120.745 63.0146 120.331 63.6095 120.108 64.279V71.0646H118.984V57.0052H120.108L120.097 62.8332Z" fill="black"/>
<path d="M133.539 71.2423C132.709 71.2517 131.893 71.0358 131.182 70.6189C130.476 70.2033 129.907 69.6016 129.541 68.8841C129.143 68.1095 128.942 67.2534 128.956 66.3879V65.9953C128.941 65.1064 129.136 64.2261 129.527 63.4222C129.879 62.6938 130.428 62.072 131.116 61.6236C131.769 61.196 132.539 60.9678 133.326 60.9684C133.881 60.9447 134.435 61.0432 134.945 61.2563C135.456 61.4695 135.91 61.7918 136.274 62.1993C137.003 63.0216 137.368 64.1437 137.368 65.5655V66.1783H130.083V66.3879C130.047 67.4109 130.402 68.4106 131.081 69.1944C131.384 69.5528 131.767 69.84 132.201 70.0343C132.634 70.2286 133.108 70.3251 133.586 70.3165C134.137 70.3279 134.684 70.2181 135.186 69.9956C135.683 69.7551 136.115 69.4043 136.446 68.9716L137.155 69.5022C136.323 70.6623 135.118 71.2423 133.539 71.2423ZM133.332 61.9022C132.927 61.8953 132.526 61.9728 132.155 62.1293C131.784 62.2858 131.452 62.5177 131.182 62.8094C130.568 63.4893 130.195 64.3433 130.121 65.2446H136.247V65.1411C136.255 64.2952 135.958 63.4731 135.407 62.8173C135.155 62.5227 134.837 62.2877 134.478 62.13C134.118 61.9723 133.726 61.8962 133.332 61.9075V61.9022Z" fill="black"/>
<path d="M121.26 86.4874H115.605V95.9364H112.413V72.5687H120.385C123.098 72.5687 125.184 73.1682 126.645 74.3673C128.105 75.5663 128.834 77.3091 128.833 79.5957C128.863 80.9569 128.436 82.2907 127.618 83.3971C126.764 84.5148 125.588 85.3622 124.238 85.8322L129.894 95.7454V95.939H126.486L121.26 86.4874ZM115.605 83.9753H120.483C122.06 83.9753 123.315 83.5792 124.246 82.7869C124.709 82.3907 125.074 81.8992 125.316 81.3485C125.558 80.7978 125.67 80.2017 125.644 79.6037C125.644 78.1588 125.2 77.05 124.312 76.2772C123.424 75.5044 122.142 75.1135 120.467 75.1047H115.605V83.9753Z" fill="black"/>
<path d="M136.689 95.9364H133.514V72.5687H136.689V95.9364Z" fill="black"/>
<path d="M142.495 95.9364V72.5688H149.294C151.236 72.5324 153.154 72.9974 154.851 73.9163C156.455 74.8112 157.752 76.1455 158.578 77.7521C159.483 79.5255 159.939 81.4823 159.91 83.4607V84.9542C159.91 87.156 159.472 89.0862 158.595 90.7451C157.769 92.3621 156.461 93.7006 154.84 94.5862C153.097 95.5018 151.142 95.9711 149.16 95.9497L142.495 95.9364ZM145.67 75.0994V93.4163H149.02C151.467 93.4163 153.371 92.678 154.733 91.2013C156.095 89.7247 156.776 87.6219 156.776 84.8932V83.5271C156.776 80.8744 156.138 78.8114 154.862 77.3383C153.586 75.8652 151.762 75.1189 149.392 75.0994H145.67Z" fill="black"/>
<path d="M178.312 85.1399H167.89V93.4163H180.011V95.9364H164.704V72.5687H179.836V75.0888H167.89V82.6225H178.323L178.312 85.1399Z" fill="black"/>
<path d="M94.6615 74.4574L90.6988 77.1101L96.8411 85.726L91.8638 89.0631L75.0887 65.5417L84.056 59.5227C85.4554 58.5461 87.0089 57.7963 88.6559 57.3024H56V78.3515L72.2555 67.4436L75.0559 71.3696L67.672 76.3328L81.6494 95.9283L81.54 96.0026H105.264V79.9962L94.6615 74.4574Z" fill="#ED5E00"/>
<path d="M87.898 73.1894L91.9099 70.497C93.1588 69.6587 93.9054 68.7002 94.1497 67.6214C94.394 66.5427 94.1278 65.4595 93.3511 64.3719C92.5617 63.263 91.6164 62.6078 90.5152 62.4062C89.414 62.2046 88.1952 62.5521 86.8588 63.4487L82.8633 66.1306L87.898 73.1894Z" fill="#ED5E00"/>
<path d="M98.0495 60.6448C99.1926 62.2488 99.7906 63.8262 99.8435 65.3772C99.8963 66.9281 99.4241 68.5074 98.4269 70.1149L105.264 73.5767V57.3024H93.7422C95.4068 57.8418 96.8425 58.9559 98.0495 60.6448Z" fill="#ED5E00"/>
<path d="M56 84.1557V96H74.3366L62.6865 79.6674L56 84.1557Z" fill="#ED5E00"/>
</g>
<defs>
<clipPath id="clip0">
<rect width="124" height="39" fill="white" transform="translate(56 57)"/>
</clipPath>
</defs>
</svg>
