<?xml version="1.0" encoding="utf-8"?>
<!-- Generator: Adobe Illustrator 16.0.0, SVG Export Plug-In . SVG Version: 6.00 Build 0)  -->
<!DOCTYPE svg PUBLIC "-//W3C//DTD SVG 1.1//EN" "http://www.w3.org/Graphics/SVG/1.1/DTD/svg11.dtd">
<svg version="1.1" id="Слой_1" xmlns="http://www.w3.org/2000/svg" xmlns:xlink="http://www.w3.org/1999/xlink" x="0px" y="0px"
	 width="18.333px" height="17.838px" viewBox="0 0 18.333 17.838" enable-background="new 0 0 18.333 17.838" xml:space="preserve">
<g>
	<path d="M15.572,4.946c-0.471,0.209-0.977,0.35-1.51,0.414c0.543-0.326,0.96-0.841,1.156-1.455
		c-0.508,0.301-1.07,0.521-1.669,0.638c-0.479-0.511-1.163-0.829-1.919-0.829c-1.451,0-2.629,1.177-2.629,2.628
		c0,0.206,0.023,0.407,0.068,0.599C6.886,6.831,4.949,5.784,3.652,4.194c-0.227,0.388-0.355,0.84-0.355,1.322
		c0,0.911,0.464,1.716,1.17,2.188C4.035,7.69,3.63,7.571,3.275,7.375c0,0.011,0,0.022,0,0.033c0,1.273,0.906,2.336,2.107,2.577
		c-0.22,0.061-0.451,0.092-0.691,0.092c-0.169,0-0.334-0.016-0.494-0.047c0.334,1.044,1.305,1.805,2.455,1.825
		c-0.9,0.706-2.033,1.126-3.264,1.126c-0.213,0-0.423-0.013-0.628-0.037c1.163,0.746,2.545,1.181,4.03,1.181
		c4.834,0,7.478-4.005,7.478-7.479c0-0.114-0.003-0.228-0.007-0.34C14.774,5.936,15.221,5.472,15.572,4.946L15.572,4.946z
		 M15.572,4.946"/>
</g>
</svg>
