<svg width="124" height="29" viewBox="0 0 124 29" fill="none" xmlns="http://www.w3.org/2000/svg">
<path d="M2.77358 9.24528L13.4057 0L22.6509 9.24528V24.5H4.62264L0 16.6415L2.77358 9.24528Z" fill="#008BCF"/>
<path d="M0 16.6416L22.6509 9.24536V24.5001H4.62264L0 16.6416Z" fill="#FAE644"/>
<path d="M97.5 23V19.0625L98.7188 17.7188L102.945 23H104.742L99.6953 16.7188L104.328 11.7266H102.555L97.5781 17.2266H97.5V11.7266H96.0938V23H97.5ZM106.164 26.0391C107.633 26.0391 108.305 25.4688 109 23.5703L112.195 14.875H110.766L108.516 21.6406H108.492L106.242 14.875H104.789L107.789 23.0078L107.602 23.5781C107.289 24.5234 106.867 24.8906 106.109 24.8906C105.938 24.8906 105.727 24.8828 105.578 24.8516V25.9922C105.727 26.0234 106 26.0391 106.164 26.0391ZM113.344 23H114.703V14.875H113.344V23ZM114.023 13.5078C114.492 13.5078 114.875 13.125 114.875 12.6641C114.875 12.1953 114.492 11.8203 114.023 11.8203C113.562 11.8203 113.18 12.1953 113.18 12.6641C113.18 13.125 113.562 13.5078 114.023 13.5078ZM123.203 14.875H121.789L119.539 21.5547H119.508L117.266 14.875H115.836L118.828 23H120.219L123.203 14.875Z" fill="#888888"/>
<path d="M35.6875 11.7266H34.2812V19.0469C34.2812 21.4531 35.9609 23.1875 38.7578 23.1875C41.5547 23.1875 43.2344 21.4531 43.2344 19.0469V11.7266H41.8281V18.9531C41.8281 20.6562 40.7109 21.8906 38.7578 21.8906C36.8047 21.8906 35.6875 20.6562 35.6875 18.9531V11.7266ZM46.6406 18.4844V11.7266H45.2812V23H46.6406V19.9375L47.3984 19.2188L50.4141 23H51.9922L48.3594 18.3828L51.8828 14.875H50.2344L46.6406 18.4844ZM52.9766 23H54.3359V17.9375C54.3359 16.7891 55.0234 16.0312 56.0781 16.0312C56.4062 16.0312 56.6953 16.0703 56.8047 16.1094V14.7891C56.6953 14.7734 56.4922 14.7344 56.2578 14.7344C55.3047 14.7344 54.5547 15.3047 54.2891 16.2031H54.2578V14.875H52.9766V23ZM60.4375 21.9844C59.4609 21.9844 58.8125 21.4766 58.8125 20.7031C58.8125 19.9375 59.4375 19.4531 60.5312 19.3828L62.7031 19.25V19.9141C62.7031 21.0859 61.7188 21.9844 60.4375 21.9844ZM60.1328 23.1406C61.2266 23.1406 62.2578 22.5312 62.7422 21.6016H62.7734V23H64.0625V17.3828C64.0625 15.7656 62.8594 14.7344 60.9531 14.7344C59.0312 14.7344 57.8281 15.8125 57.7344 17.2188H59.0469C59.2188 16.4219 59.875 15.9297 60.9219 15.9297C62.0469 15.9297 62.7031 16.5234 62.7031 17.5156V18.1953L60.375 18.3281C58.5 18.4375 57.4297 19.3125 57.4297 20.7031C57.4297 22.1641 58.5156 23.1406 60.1328 23.1406ZM65.8594 23H67.2188V14.875H65.8594V23ZM66.5391 13.5078C67.0078 13.5078 67.3906 13.125 67.3906 12.6641C67.3906 12.1953 67.0078 11.8203 66.5391 11.8203C66.0781 11.8203 65.6953 12.1953 65.6953 12.6641C65.6953 13.125 66.0781 13.5078 66.5391 13.5078ZM69.0547 23H70.4141V18.2188C70.4141 16.8438 71.25 15.9375 72.5312 15.9375C73.7812 15.9375 74.3984 16.6562 74.3984 17.9688V23H75.7578V17.7266C75.7578 15.8828 74.7266 14.7344 72.9453 14.7344C71.6875 14.7344 70.8203 15.2969 70.3672 16.1719H70.3359V14.875H69.0547V23ZM80.75 15.9141C82.0312 15.9141 82.8828 16.8828 82.9141 18.2422H78.5C78.5859 16.8906 79.4766 15.9141 80.75 15.9141ZM82.8828 20.6719C82.6562 21.4375 81.8984 21.9609 80.8672 21.9609C79.4062 21.9609 78.4922 20.9375 78.4922 19.3828V19.3047H84.3203V18.7891C84.3203 16.3281 82.9688 14.7344 80.7734 14.7344C78.5312 14.7344 77.0938 16.4453 77.0938 18.9688C77.0938 21.5234 78.5078 23.1406 80.8359 23.1406C82.6094 23.1406 83.9844 22.0938 84.2188 20.6719H82.8828Z" fill="black"/>
</svg>
