<svg width="166" height="36" viewBox="0 0 166 36" fill="none" xmlns="http://www.w3.org/2000/svg">
<path d="M38.3081 9.38525H36.6479V20.8477C36.6479 24.644 39.2236 27.2808 43.4595 27.2808C47.6953 27.2808 50.2832 24.644 50.2832 20.8477V9.38525H48.6108V20.75C48.6108 23.7041 46.6943 25.7305 43.4595 25.7305C40.2368 25.7305 38.3081 23.7041 38.3081 20.75V9.38525ZM55.0439 20.3105V9.38525H53.4204V27H55.0439V22.0806L56.46 20.7744L61.5381 27H63.4302L57.6196 19.7856L63.3203 14.3047H61.3184L55.0439 20.3105ZM65.0049 27H66.6162V19.0898C66.6162 17.0391 67.7637 15.6353 69.5703 15.6353C70.1196 15.6353 70.5713 15.7207 70.7788 15.8184V14.2314C70.5835 14.1826 70.2051 14.0972 69.7778 14.0972C68.2153 14.0972 67.0312 15.0127 66.5674 16.563H66.5308V14.3047H65.0049V27ZM76.2231 25.8159C74.502 25.8159 73.3179 24.8638 73.3179 23.4844C73.3179 22.0806 74.4287 21.2139 76.4307 21.0796L80.1904 20.8232V22.2271C80.1904 24.2412 78.4448 25.8159 76.2231 25.8159ZM75.8936 27.2075C77.7856 27.2075 79.519 26.1577 80.2271 24.583H80.2637V27H81.8018V18.3086C81.8018 15.7207 79.9829 14.0972 77.0898 14.0972C74.1968 14.0972 72.3291 15.7085 72.146 17.979H73.7085C73.9893 16.4409 75.1855 15.5254 77.0532 15.5254C79.0308 15.5254 80.1904 16.624 80.1904 18.4551V19.5537L76.2354 19.7979C73.3057 19.9932 71.6821 21.3115 71.6821 23.4844C71.6821 25.7061 73.3911 27.2075 75.8936 27.2075ZM84.6216 27H86.2329V14.3047H84.6216V27ZM85.4272 11.7412C86.0254 11.7412 86.5137 11.2651 86.5137 10.667C86.5137 10.0811 86.0254 9.60498 85.4272 9.60498C84.8413 9.60498 84.353 10.0811 84.353 10.667C84.353 11.2651 84.8413 11.7412 85.4272 11.7412ZM89.126 27H90.7373V19.4805C90.7373 17.1245 92.2144 15.5376 94.4116 15.5376C96.5356 15.5376 97.7563 16.8071 97.7563 19.0288V27H99.3677V18.7725C99.3677 15.8916 97.6587 14.0972 94.8755 14.0972C92.8247 14.0972 91.3354 15.1104 90.6885 16.6484H90.6519V14.3047H89.126V27ZM107.107 15.5132C109.402 15.5132 110.928 17.2588 110.964 19.7612H103.127C103.262 17.2588 104.836 15.5132 107.107 15.5132ZM110.867 23.3989C110.513 24.7905 109.182 25.7915 107.266 25.7915C104.739 25.7915 103.115 24.0093 103.115 21.1406V21.043H112.625V20.3594C112.625 16.5752 110.5 14.0972 107.131 14.0972C103.689 14.0972 101.455 16.7461 101.455 20.689C101.455 24.7173 103.665 27.2075 107.229 27.2075C110.024 27.2075 112.087 25.5962 112.466 23.3989H110.867Z" fill="black"/>
<path d="M126.956 27V20.7134L129.128 18.3574L136.123 27H138.259L130.3 17.1733L137.539 9.38525H135.427L127.053 18.5161H126.956V9.38525H125.295V27H126.956ZM140.444 31.5898C142.532 31.5898 143.435 30.7598 144.546 27.769L149.539 14.3047H147.842L143.972 25.3887H143.936L140.078 14.3047H138.345L143.105 27.0854L142.764 28.0376C142.202 29.6245 141.567 30.2104 140.408 30.2104C140.151 30.2104 139.834 30.186 139.639 30.1372V31.5166C139.822 31.5532 140.188 31.5898 140.444 31.5898ZM151.248 27H152.859V14.3047H151.248V27ZM152.053 11.7412C152.651 11.7412 153.14 11.2651 153.14 10.667C153.14 10.0811 152.651 9.60498 152.053 9.60498C151.467 9.60498 150.979 10.0811 150.979 10.667C150.979 11.2651 151.467 11.7412 152.053 11.7412ZM165.713 14.3047H164.028L160.159 25.3032H160.122L156.265 14.3047H154.556L159.28 27H161.001L165.713 14.3047Z" fill="#888888"/>
<path d="M2.09434 14.9811L10.1226 8L17.1038 14.9811V26.5H3.49057L0 20.566L2.09434 14.9811Z" fill="#008BCF"/>
<path d="M0 20.5664L17.1038 14.9814V26.5003H3.49057L0 20.5664Z" fill="#FAE644"/>
</svg>
