<svg width="236" height="153" viewBox="0 0 236 153" fill="none" xmlns="http://www.w3.org/2000/svg">
<rect width="236" height="153" fill="white"/>
<g clip-path="url(#clip0)">
<path d="M101.536 69.1705H11V97.0029H101.536V69.1705Z" fill="white"/>
<path d="M20.0342 76.4441V75.5854H24.1276L28.3183 86.1481H28.6046L32.7953 75.5854H36.7742V76.4441L30.8173 90.7081H26.0942L20.0342 76.4441Z" fill="#262424"/>
<path d="M40.535 73.8965C41.7459 73.8965 42.513 74.6637 42.513 75.8746C42.513 77.0854 41.7459 77.8526 40.535 77.8526C39.3242 77.8526 38.5312 77.1083 38.5312 75.8746C38.5312 74.6408 39.3242 73.8965 40.535 73.8965ZM38.5799 79.0863H42.4901V90.7225H38.5799V79.0863Z" fill="#262424"/>
<path d="M56.8952 83.4001H52.8476C52.7073 82.7246 51.8228 82.0748 50.8438 82.0748C49.9106 82.0748 49.2351 82.361 49.2351 82.9593C49.2351 84.7742 57.0326 82.9364 57.0326 87.2875C57.0326 89.4286 54.797 90.9858 51.1673 90.9858C48.2131 90.9858 45.5367 89.5546 44.7695 87.1701V86.4487H48.8171C49.0748 87.2875 50.0738 87.8457 51.0528 87.8457C52.1978 87.8457 52.8218 87.4277 52.8218 86.9382C52.8218 85.507 45.1188 87.0527 45.1188 82.6444C45.1188 80.5491 47.446 78.8058 50.7951 78.8058C54.0527 78.8058 56.1939 80.5033 56.8923 82.6902L56.8952 83.4001Z" fill="#262424"/>
<path d="M61.3856 73.8965C62.5965 73.8965 63.3636 74.6637 63.3636 75.8746C63.3636 77.0854 62.5965 77.8526 61.3856 77.8526C60.1748 77.8526 59.3818 77.1083 59.3818 75.8746C59.3818 74.6408 60.1776 73.8965 61.3856 73.8965ZM59.4334 79.0863H63.3407V90.7225H59.4334V79.0863Z" fill="#262424"/>
<path d="M70.8814 79.0949H73.2544V82.7246H70.8814V85.5184C70.8814 86.6119 71.3938 87.2359 72.4186 87.2359C72.5331 87.2359 73.0226 87.1872 73.1399 87.1643V90.794C72.511 90.9174 71.8716 90.9797 71.2306 90.9801C68.0647 90.9801 66.9712 88.5842 66.9712 85.5585V82.7188H65.5771V79.0949H66.9712V76.759L70.8814 75.5969V79.0949Z" fill="#262424"/>
<path d="M208.881 69.1705H82.958V97.0029H208.881V69.1705Z" fill="#FAE644"/>
<path d="M90.5723 83.5862V75.5711H94.5283V83.9154C94.5283 86.1252 95.6218 87.2187 97.8774 87.3132C100.136 87.2187 101.229 86.1252 101.229 83.9154V75.5854H105.185V83.6005C105.185 88.5584 102.509 91.0001 97.8774 91.0001C93.2459 91.0001 90.5723 88.5441 90.5723 83.5862Z" fill="#262424"/>
<path d="M117.695 81.7485V82.1664L123.792 89.8466V90.7053H119.381L114.749 84.6768L112.797 86.609V90.7053H108.838V75.5826H112.797V81.8172L118.914 75.5826H123.01V76.4413L117.695 81.7485Z" fill="#262424"/>
<path d="M126.107 75.5826H134.718C137.835 75.5826 140.14 77.3974 140.14 80.3058C140.159 81.2699 139.869 82.215 139.313 83.0022C138.756 83.7895 137.961 84.3774 137.045 84.6797V84.82L140.744 89.8466V90.7053H136.392L132.763 85.4698H130.063V90.7053H126.107V75.5826ZM130.063 79.2581V81.7943H134.718C135.602 81.7943 136.184 81.3305 136.184 80.5147C136.184 79.6989 135.611 79.2581 134.718 79.2581H130.063Z" fill="#262424"/>
<path d="M148.052 75.5826H152.755L158.944 89.8466V90.7053H154.848L153.849 88.2378H146.958L145.959 90.7053H141.98V89.8466L148.052 75.5826ZM148.355 84.7971H152.452L150.565 80.1426H150.216L148.355 84.7971Z" fill="#262424"/>
<path d="M161.226 75.5826H165.182V90.7082H161.226V75.5826Z" fill="#262424"/>
<path d="M173.42 80.4804H173.162V90.6967H169.221V75.5826H174.828L181.126 85.7961H181.381V75.5826H185.337V90.7082H179.749L173.42 80.4804Z" fill="#262424"/>
<path d="M189.293 75.5826H201.742V79.0176H193.249V81.113H201.324V84.548H193.249V87.2474H201.788V90.6824H189.293V75.5826Z" fill="#262424"/>
<path d="M225.87 69.9176C225.871 67.1647 225.055 64.4735 223.526 62.1843C221.997 59.8951 219.823 58.1108 217.28 57.0571C214.737 56.0034 211.938 55.7275 209.238 56.2644C206.538 56.8013 204.058 58.1269 202.112 60.0735C200.165 62.0201 198.839 64.5002 198.302 67.2003C197.766 69.9003 198.041 72.6989 199.095 75.2421C200.149 77.7853 201.933 79.959 204.222 81.488C206.512 83.0171 209.203 83.8329 211.956 83.8324C213.783 83.8324 215.592 83.4725 217.281 82.7732C218.969 82.0739 220.503 81.0489 221.795 79.7568C223.087 78.4647 224.112 76.9308 224.811 75.2426C225.51 73.5543 225.87 71.7449 225.87 69.9176Z" fill="#008BCF"/>
<path d="M203.345 69.036H203.256V72.5282H201.902V67.3585H203.823L205.979 70.8508H206.067V67.3585H207.416V72.5282H205.509L203.345 69.036Z" fill="white"/>
<path d="M213.63 68.7898C213.495 68.4641 213.291 68.1713 213.032 67.931C212.77 67.691 212.461 67.5069 212.125 67.39C211.383 67.1317 210.576 67.1317 209.835 67.39C209.501 67.5083 209.194 67.6923 208.933 67.931C208.675 68.1713 208.471 68.4641 208.335 68.7898C208.049 69.5105 208.049 70.3133 208.335 71.034C208.471 71.3593 208.675 71.652 208.933 71.8928C209.195 72.1314 209.501 72.3162 209.835 72.4366C210.576 72.6949 211.383 72.6949 212.125 72.4366C212.46 72.3176 212.769 72.1327 213.032 71.8928C213.29 71.652 213.494 71.3593 213.63 71.034C213.917 70.3133 213.917 69.5105 213.63 68.7898ZM212.068 70.9853C211.762 71.2314 211.382 71.3656 210.99 71.3656C210.598 71.3656 210.217 71.2314 209.912 70.9853C209.652 70.69 209.508 70.3098 209.508 69.9162C209.508 69.5225 209.652 69.1424 209.912 68.847C210.217 68.601 210.598 68.4668 210.99 68.4668C211.382 68.4668 211.762 68.601 212.068 68.847C212.326 69.1432 212.469 69.523 212.469 69.9162C212.469 70.3093 212.326 70.6891 212.068 70.9853Z" fill="white"/>
<path d="M214.005 67.6505V67.3585H215.373L216.232 70.5474H216.318L217.297 67.3585H218.754L219.733 70.5474H219.819L220.68 67.3585H222.009V67.6505L220.6 72.5282H219.031L218.053 69.4797H217.935L216.988 72.5282H215.453L214.005 67.6505Z" fill="white"/>
</g>
<defs>
<clipPath id="clip0">
<rect width="214.87" height="41" fill="white" transform="translate(11 56)"/>
</clipPath>
</defs>
</svg>
