<?xml version="1.0" encoding="utf-8"?>
<!-- Generator: Adobe Illustrator 16.0.0, SVG Export Plug-In . SVG Version: 6.00 Build 0)  -->
<!DOCTYPE svg PUBLIC "-//W3C//DTD SVG 1.1//EN" "http://www.w3.org/Graphics/SVG/1.1/DTD/svg11.dtd">
<svg version="1.1" id="Слой_1" xmlns="http://www.w3.org/2000/svg" xmlns:xlink="http://www.w3.org/1999/xlink" x="0px" y="0px"
	 width="18.333px" height="17.838px" viewBox="0 0 18.333 17.838" enable-background="new 0 0 18.333 17.838" xml:space="preserve">
<g>
	<g>
		<defs>
			<rect id="SVGID_1_" x="0.832" y="4.156" width="16.67" height="9.525"/>
		</defs>
		<clipPath id="SVGID_2_">
			<use xlink:href="#SVGID_1_"  overflow="visible"/>
		</clipPath>
		<path clip-path="url(#SVGID_2_)" d="M17.307,12.689c-0.02-0.043-0.039-0.079-0.057-0.107c-0.287-0.518-0.836-1.152-1.646-1.905
			l-0.018-0.018l-0.008-0.008l-0.01-0.009h-0.008c-0.369-0.351-0.602-0.586-0.699-0.707c-0.178-0.23-0.219-0.463-0.121-0.699
			c0.07-0.179,0.328-0.555,0.777-1.13c0.234-0.305,0.422-0.549,0.559-0.733c0.996-1.322,1.426-2.167,1.295-2.535L17.32,4.752
			c-0.035-0.052-0.125-0.099-0.268-0.142C16.908,4.567,16.725,4.56,16.5,4.589l-2.484,0.017c-0.039-0.014-0.098-0.013-0.172,0.005
			c-0.074,0.017-0.111,0.026-0.111,0.026l-0.043,0.022l-0.035,0.025c-0.029,0.017-0.061,0.047-0.094,0.091
			c-0.035,0.043-0.064,0.093-0.086,0.151c-0.271,0.695-0.578,1.342-0.924,1.94c-0.213,0.356-0.408,0.666-0.586,0.927
			c-0.18,0.262-0.328,0.455-0.449,0.578s-0.229,0.223-0.326,0.297c-0.1,0.075-0.174,0.106-0.225,0.095
			c-0.053-0.012-0.102-0.023-0.146-0.035c-0.082-0.051-0.146-0.122-0.195-0.211c-0.049-0.089-0.082-0.201-0.098-0.337
			c-0.018-0.135-0.027-0.251-0.031-0.349c-0.002-0.098-0.002-0.236,0.004-0.414c0.006-0.178,0.01-0.299,0.01-0.362
			c0-0.219,0.004-0.456,0.012-0.711c0.01-0.256,0.016-0.458,0.021-0.608s0.01-0.307,0.01-0.475c0-0.166-0.01-0.297-0.031-0.392
			c-0.02-0.094-0.049-0.187-0.09-0.276c-0.041-0.089-0.1-0.158-0.178-0.207c-0.076-0.049-0.174-0.088-0.287-0.117
			C9.66,4.201,9.271,4.163,8.801,4.157C7.73,4.146,7.045,4.215,6.738,4.364C6.617,4.427,6.51,4.514,6.412,4.623
			C6.309,4.75,6.293,4.818,6.367,4.83c0.346,0.052,0.59,0.175,0.734,0.37l0.051,0.104c0.041,0.075,0.082,0.207,0.121,0.396
			C7.314,5.891,7.34,6.1,7.352,6.33c0.027,0.42,0.027,0.779,0,1.078C7.322,7.707,7.295,7.94,7.27,8.106
			C7.244,8.273,7.205,8.408,7.152,8.512C7.102,8.616,7.066,8.679,7.049,8.702S7.018,8.739,7.006,8.745
			C6.932,8.773,6.854,8.788,6.773,8.788S6.596,8.748,6.48,8.667C6.365,8.586,6.246,8.476,6.123,8.335
			C6,8.194,5.859,7.998,5.703,7.744C5.549,7.491,5.389,7.193,5.221,6.848l-0.137-0.25C4.996,6.437,4.879,6.203,4.73,5.895
			C4.58,5.587,4.447,5.29,4.334,5.002C4.287,4.882,4.219,4.79,4.127,4.726L4.084,4.7C4.055,4.678,4.008,4.653,3.945,4.627
			C3.881,4.601,3.816,4.583,3.746,4.571L1.385,4.588c-0.242,0-0.406,0.055-0.492,0.164L0.857,4.804
			C0.842,4.833,0.832,4.879,0.832,4.941c0,0.064,0.018,0.141,0.053,0.233C1.229,5.985,1.604,6.767,2.01,7.52
			c0.404,0.753,0.756,1.359,1.055,1.819c0.301,0.46,0.604,0.894,0.914,1.302c0.313,0.409,0.518,0.67,0.617,0.785
			c0.102,0.115,0.18,0.201,0.238,0.258l0.215,0.208c0.139,0.138,0.34,0.303,0.607,0.496s0.564,0.382,0.889,0.569
			c0.324,0.187,0.703,0.339,1.135,0.457c0.43,0.118,0.85,0.165,1.258,0.142H9.93c0.201-0.017,0.354-0.081,0.457-0.189l0.033-0.042
			c0.023-0.035,0.045-0.088,0.066-0.16c0.02-0.072,0.029-0.151,0.029-0.237c-0.006-0.247,0.014-0.47,0.057-0.668
			c0.043-0.198,0.092-0.347,0.146-0.448c0.055-0.101,0.115-0.186,0.186-0.255c0.068-0.069,0.117-0.11,0.146-0.125
			c0.029-0.014,0.051-0.024,0.068-0.03c0.139-0.046,0.301-0.001,0.488,0.134c0.186,0.136,0.361,0.302,0.525,0.5
			c0.164,0.199,0.361,0.421,0.59,0.668c0.23,0.247,0.432,0.431,0.604,0.552l0.174,0.103c0.115,0.069,0.264,0.132,0.447,0.19
			c0.186,0.058,0.346,0.072,0.482,0.043l2.209-0.034c0.217,0,0.387-0.036,0.508-0.108c0.121-0.072,0.193-0.15,0.215-0.236
			c0.023-0.086,0.025-0.184,0.006-0.294C17.346,12.809,17.326,12.733,17.307,12.689L17.307,12.689z M17.307,12.689"/>
	</g>
</g>
</svg>
