<?xml version="1.0" encoding="utf-8"?>
<!-- Generator: Adobe Illustrator 16.0.0, SVG Export Plug-In . SVG Version: 6.00 Build 0)  -->
<!DOCTYPE svg PUBLIC "-//W3C//DTD SVG 1.1//EN" "http://www.w3.org/Graphics/SVG/1.1/DTD/svg11.dtd">
<svg version="1.1" id="Слой_1" xmlns="http://www.w3.org/2000/svg" xmlns:xlink="http://www.w3.org/1999/xlink" x="0px" y="0px"
	 width="14.172px" height="14.172px" viewBox="0 0 14.172 14.172" enable-background="new 0 0 14.172 14.172" xml:space="preserve">
<g>
	<path d="M13.777,9.417c0.255-0.73,0.395-1.515,0.395-2.331s-0.14-1.601-0.395-2.331c-0.006-0.021-0.014-0.043-0.023-0.064
		C12.771,1.958,10.152,0,7.086,0C4.019,0,1.4,1.958,0.416,4.69C0.408,4.712,0.4,4.733,0.395,4.755C0.139,5.485,0,6.27,0,7.086
		s0.139,1.601,0.395,2.331C0.4,9.438,0.408,9.46,0.416,9.481c0.984,2.732,3.603,4.69,6.67,4.69c3.066,0,5.685-1.958,6.668-4.69
		C13.764,9.46,13.771,9.438,13.777,9.417L13.777,9.417z M7.086,13.156c-0.27,0-0.705-0.488-1.068-1.579
		c-0.176-0.526-0.316-1.132-0.419-1.791h2.974c-0.102,0.659-0.242,1.264-0.418,1.791C7.791,12.668,7.355,13.156,7.086,13.156
		L7.086,13.156z M5.475,8.771C5.426,8.229,5.4,7.664,5.4,7.086s0.025-1.144,0.074-1.685h3.221C8.744,5.942,8.77,6.508,8.77,7.086
		S8.744,8.229,8.695,8.771H5.475z M1.016,7.086c0-0.585,0.082-1.149,0.238-1.685h3.202C4.408,5.954,4.385,6.521,4.385,7.086
		s0.023,1.132,0.071,1.685H1.254C1.098,8.235,1.016,7.671,1.016,7.086L1.016,7.086z M7.086,1.016c0.27,0,0.705,0.488,1.068,1.579
		C8.33,3.121,8.471,3.727,8.572,4.386H5.599c0.103-0.659,0.243-1.265,0.419-1.791C6.381,1.504,6.816,1.016,7.086,1.016L7.086,1.016z
		 M9.715,5.401h3.203c0.154,0.535,0.238,1.1,0.238,1.685s-0.084,1.149-0.238,1.685H9.715c0.047-0.553,0.071-1.119,0.071-1.685
		S9.762,5.954,9.715,5.401L9.715,5.401z M12.521,4.386H9.598C9.417,3.14,9.107,2.021,8.672,1.227
		C10.358,1.684,11.755,2.851,12.521,4.386L12.521,4.386z M5.498,1.227C5.063,2.021,4.754,3.14,4.572,4.386H1.65
		C2.416,2.851,3.813,1.684,5.498,1.227L5.498,1.227z M1.65,9.786h2.922c0.182,1.246,0.491,2.364,0.926,3.159
		C3.813,12.488,2.416,11.321,1.65,9.786L1.65,9.786z M8.672,12.945c0.436-0.795,0.745-1.913,0.926-3.159h2.923
		C11.755,11.321,10.358,12.488,8.672,12.945L8.672,12.945z M8.672,12.945"/>
</g>
</svg>
