<svg xmlns="http://www.w3.org/2000/svg" viewBox="0 0 14.17 14.17"><defs><style>.cls-1{fill:#becd16;}</style></defs><title>website2</title><g id="Слой_2" data-name="Слой 2"><g id="Слой_1-2" data-name="Слой 1"><path class="cls-1" d="M13.78,9.42a7.08,7.08,0,0,0,0-4.66l0-.06a7.09,7.09,0,0,0-13.34,0l0,.07a7.08,7.08,0,0,0,0,4.66l0,.06a7.09,7.09,0,0,0,13.34,0l0-.06ZM7.09,13.16c-.27,0-.7-.49-1.07-1.58A11.12,11.12,0,0,1,5.6,9.79h3a11,11,0,0,1-.42,1.79c-.36,1.09-.8,1.58-1.07,1.58ZM5.47,8.77c0-.54-.07-1.11-.07-1.68s0-1.14.07-1.68H8.69c0,.54.08,1.11.08,1.68s0,1.14-.08,1.68ZM1,7.09A6,6,0,0,1,1.25,5.4h3.2c0,.55-.07,1.12-.07,1.68s0,1.13.07,1.68H1.25A6,6,0,0,1,1,7.09ZM7.09,1c.27,0,.7.49,1.07,1.58a10.91,10.91,0,0,1,.42,1.79h-3A11.12,11.12,0,0,1,6,2.6C6.38,1.5,6.82,1,7.09,1ZM9.72,5.4h3.2a6.08,6.08,0,0,1,0,3.37H9.72c0-.55.07-1.12.07-1.68S9.76,6,9.72,5.4Zm2.81-1H9.6a9.74,9.74,0,0,0-.93-3.16,6.1,6.1,0,0,1,3.85,3.16Zm-7-3.16a9.77,9.77,0,0,0-.93,3.16H1.65A6.1,6.1,0,0,1,5.5,1.23ZM1.65,9.79H4.57a9.78,9.78,0,0,0,.93,3.16A6.1,6.1,0,0,1,1.65,9.79Zm7,3.16A9.73,9.73,0,0,0,9.6,9.79h2.92a6.1,6.1,0,0,1-3.85,3.16Z"/></g></g></svg>