<svg width="15" height="16" viewBox="0 0 15 16" fill="none" xmlns="http://www.w3.org/2000/svg">
<path d="M8.79718 5.65198C8.76283 5.62 8.72729 5.62 8.66095 5.62C8.6266 5.62 8.5567 5.62 8.52472 5.65198L4.53601 9.64069C4.46612 9.7094 4.46612 9.81246 4.53601 9.88117L5.76212 11.1416C5.83201 11.2092 5.93389 11.2092 6.00023 11.1416L9.99131 7.15174C10.0233 7.11857 10.0233 7.08303 10.0233 7.01551C10.0233 6.94798 10.0233 6.91481 9.99131 6.87928L8.79718 5.65198Z" fill="white"/>
<path d="M7.50118 0.674072C3.3407 0.674072 0 4.01478 0 8.17526C0 12.3334 3.3407 15.6741 7.50118 15.6741C11.6605 15.6741 15 12.3334 15 8.17526C15 4.01478 11.6605 0.674072 7.50118 0.674072ZM11.8311 7.25479L6.58071 12.5051C6.51319 12.5739 6.44448 12.607 6.3426 12.607H3.40941C3.20447 12.607 3.06824 12.4708 3.06824 12.2658V9.33266C3.06824 9.23078 3.10378 9.16325 3.1713 9.09454L8.42284 3.843C8.49155 3.77429 8.5567 3.73994 8.66095 3.73994C8.76283 3.73994 8.83036 3.77429 8.89907 3.843L11.8323 6.77619C11.901 6.84371 11.9329 6.91242 11.9329 7.01312C11.9318 7.11737 11.8998 7.18608 11.8311 7.25479Z" fill="white"/>
</svg>
