<svg width="15" height="15" viewBox="0 0 15 15" fill="none" xmlns="http://www.w3.org/2000/svg">
<path d="M12.7873 2.0225C11.3737 0.718612 9.49545 0 7.49948 0C5.50455 0 3.62629 0.717432 2.21161 2.0225C0.786513 3.337 0 5.08929 0 6.95721C0 8.73899 0.716717 10.4181 2.02097 11.7102C1.99806 11.7704 1.9793 11.8329 1.9668 11.899L1.53761 14.2896C1.48656 14.5728 1.55636 14.7428 1.62199 14.8348C1.69803 14.941 1.81263 15 1.94284 15C2.04077 15 2.14598 14.967 2.25641 14.9021L4.75241 13.433C5.61602 13.7492 6.5442 13.9144 7.50052 13.9144C9.49649 13.9144 11.3747 13.197 12.7884 11.8931C14.2145 10.5786 15 8.82513 15 6.95721C15 5.08929 14.2135 3.337 12.7873 2.0225ZM4.02007 8.41095C3.40128 8.41095 2.89916 7.8422 2.89916 7.14246C2.89916 6.44273 3.40128 5.8728 4.02007 5.8728C4.63678 5.8728 5.1389 6.44273 5.1389 7.14246C5.1389 7.8422 4.63678 8.41095 4.02007 8.41095ZM7.48073 8.41095C6.86298 8.41095 6.3619 7.8422 6.3619 7.14246C6.3619 6.44273 6.86298 5.8728 7.48073 5.8728C8.09952 5.8728 8.60164 6.44273 8.60164 7.14246C8.60164 7.8422 8.09952 8.41095 7.48073 8.41095ZM10.9445 8.41095C10.3257 8.41095 9.8236 7.8422 9.8236 7.14246C9.8236 6.44273 10.3257 5.8728 10.9445 5.8728C11.5623 5.8728 12.0633 6.44273 12.0633 7.14246C12.0633 7.8422 11.5612 8.41095 10.9445 8.41095Z" fill="#282828"/>
</svg>
