<svg width="15" height="16" viewBox="0 0 15 16" fill="none" xmlns="http://www.w3.org/2000/svg">
<path d="M12.7873 2.69657C11.3737 1.39268 9.49545 0.674072 7.49948 0.674072C5.50455 0.674072 3.62629 1.3915 2.21161 2.69657C0.786513 4.01108 0 5.76336 0 7.63128C0 9.41306 0.716717 11.0922 2.02097 12.3843C1.99806 12.4444 1.9793 12.507 1.9668 12.5731L1.53761 14.9637C1.48656 15.2469 1.55636 15.4168 1.62199 15.5089C1.69803 15.6151 1.81263 15.6741 1.94284 15.6741C2.04077 15.6741 2.14598 15.641 2.25641 15.5761L4.75241 14.107C5.61602 14.4233 6.5442 14.5885 7.50052 14.5885C9.49649 14.5885 11.3747 13.8711 12.7884 12.5672C14.2145 11.2527 15 9.4992 15 7.63128C15 5.76336 14.2135 4.01108 12.7873 2.69657ZM4.02007 9.08502C3.40128 9.08502 2.89916 8.51627 2.89916 7.81654C2.89916 7.1168 3.40128 6.54687 4.02007 6.54687C4.63678 6.54687 5.1389 7.1168 5.1389 7.81654C5.1389 8.51627 4.63678 9.08502 4.02007 9.08502ZM7.48073 9.08502C6.86298 9.08502 6.3619 8.51627 6.3619 7.81654C6.3619 7.1168 6.86298 6.54687 7.48073 6.54687C8.09952 6.54687 8.60164 7.1168 8.60164 7.81654C8.60164 8.51627 8.09952 9.08502 7.48073 9.08502ZM10.9445 9.08502C10.3257 9.08502 9.8236 8.51627 9.8236 7.81654C9.8236 7.1168 10.3257 6.54687 10.9445 6.54687C11.5623 6.54687 12.0633 7.1168 12.0633 7.81654C12.0633 8.51627 11.5612 9.08502 10.9445 9.08502Z" fill="white"/>
</svg>
