<?xml version="1.0" encoding="utf-8"?>
<!-- Generator: Adobe Illustrator 21.1.0, SVG Export Plug-In . SVG Version: 6.00 Build 0)  -->
<svg version="1.1" id="Слой_1" xmlns="http://www.w3.org/2000/svg" xmlns:xlink="http://www.w3.org/1999/xlink" x="0px" y="0px"
	 viewBox="0 0 37.9 37.9" style="enable-background:new 0 0 37.9 37.9;" xml:space="preserve">
<style type="text/css">
	.st0{fill:none;stroke:#000000;stroke-miterlimit:10;}
	.st1{fill:#BECD16;}
</style>
<title>chat_hov</title>
<circle class="st0" cx="18.9" cy="18.9" r="18.4"/>
<circle cx="18.9" cy="18.9" r="15"/>
<path class="st1" d="M24,14.3c-1.4-1.1-3.2-1.7-5.1-1.7c-1.8,0-3.6,0.6-5.1,1.7c-1.3,1-2.1,2.5-2.1,4.2c0,1.6,0.7,3,1.9,4
	c0,0.1,0,0.1-0.1,0.2l-0.4,2c0,0.2,0,0.3,0.1,0.5c0.1,0.1,0.2,0.1,0.3,0.1c0.1,0,0.2,0,0.3-0.1l2.4-1.2c0.9,0.3,1.7,0.4,2.6,0.4
	c1.8,0,3.6-0.6,5.1-1.7c1.3-1,2.1-2.5,2.1-4.2C26.1,16.8,25.3,15.3,24,14.3z M15.6,19.7c-0.6,0-1.1-0.5-1.1-1.1s0.5-1.1,1.1-1.1
	s1.1,0.5,1.1,1.1l0,0C16.7,19.2,16.2,19.7,15.6,19.7z M18.9,19.7c-0.6,0-1.1-0.5-1.1-1.1s0.5-1.1,1.1-1.1S20,18,20,18.6l0,0
	C20,19.2,19.5,19.7,18.9,19.7z M22.2,19.7c-0.6,0-1.1-0.5-1.1-1.1s0.5-1.1,1.1-1.1s1.1,0.5,1.1,1.1l0,0
	C23.3,19.2,22.8,19.7,22.2,19.7z"/>
</svg>
