<svg width="19" height="15" viewBox="0 0 19 15" fill="none" xmlns="http://www.w3.org/2000/svg">
<path d="M18.8822 7.21489L14.0331 2.36578C13.8823 2.21499 13.6155 2.21499 13.4647 2.36578L12.4134 3.41706C12.2564 3.57408 12.2564 3.82861 12.4134 3.98563L15.9272 7.49897L12.4136 11.0129C12.2566 11.1699 12.2566 11.4245 12.4136 11.5815L13.4649 12.6328C13.5403 12.7082 13.6426 12.7508 13.7492 12.7508C13.8555 12.7508 13.9581 12.7082 14.0335 12.6328L18.8822 7.78386C19.0392 7.62664 19.0392 7.37191 18.8822 7.21489Z" fill="black"/>
<path d="M6.58619 11.0129L3.07304 7.49931L6.58679 3.98596C6.66218 3.91057 6.7046 3.80844 6.7046 3.70168C6.7046 3.59512 6.66238 3.49279 6.58679 3.41739L5.5355 2.36611C5.46011 2.29071 5.35777 2.24829 5.25122 2.24829C5.14466 2.24829 5.04233 2.29071 4.96693 2.36611L0.117612 7.21482C-0.0394076 7.37184 -0.0394076 7.62637 0.117612 7.78359L4.96673 12.6325C5.04212 12.7079 5.14446 12.7505 5.25101 12.7505C5.35757 12.7505 5.45991 12.7079 5.5353 12.6325L6.58659 11.5812C6.74361 11.4244 6.74361 11.1699 6.58619 11.0129Z" fill="black"/>
<path d="M12.2574 0.734271C12.2063 0.640582 12.1203 0.571018 12.0181 0.540861L11.1659 0.289348C10.9532 0.226218 10.7292 0.348255 10.6665 0.561167L6.71003 13.9597C6.67987 14.0621 6.69153 14.172 6.7424 14.2655C6.79326 14.3594 6.87952 14.4288 6.98165 14.4591L7.8339 14.7106C7.8719 14.7219 7.9103 14.7273 7.94789 14.7273C8.1214 14.7273 8.28164 14.6139 8.33331 14.4388L12.2898 1.04007C12.3199 0.937733 12.3085 0.827759 12.2574 0.734271Z" fill="black"/>
</svg>
