<svg width="9" height="16" viewBox="0 0 9 16" fill="none" xmlns="http://www.w3.org/2000/svg">
<path d="M7.80399 0.884511L5.85922 0.882019C3.674 0.882019 2.26121 2.33219 2.26121 4.57471V6.27654H0.303987C0.137043 6.27654 0 6.41233 0 6.58177V9.04855C0 9.21674 0.137043 9.35378 0.303987 9.35378H2.26121V15.5768C2.26121 15.7462 2.39826 15.882 2.56645 15.882H5.11919C5.28738 15.882 5.42442 15.7462 5.42442 15.5768V9.35503H7.71179C7.88123 9.35503 8.01703 9.21798 8.01703 9.04979L8.01952 6.58302C8.01952 6.50328 7.98588 6.42479 7.92982 6.36748C7.87126 6.31018 7.79402 6.27778 7.71304 6.27778H5.42442V4.8326C5.42442 4.13866 5.58887 3.78734 6.49211 3.78734H7.80274C7.97342 3.78734 8.10922 3.65029 8.10922 3.48086V1.19224C8.11047 1.02405 7.97342 0.885757 7.80399 0.884511Z" fill="black"/>
</svg>
