<svg width="61" height="79" viewBox="0 0 61 79" fill="none" xmlns="http://www.w3.org/2000/svg">
<path d="M48.5072 52.6466L53.3215 69.1084L59.5335 55.7526L60.6206 43.3286L48.5072 52.6466Z" fill="#98BC24"/>
<path d="M56.117 6.36731L48.8179 22.3632L43.0717 2.64008L56.117 6.36731Z" fill="#D0D821"/>
<path d="M60.6206 43.3286L58.9123 40.2226L48.8178 22.0525L48.5072 52.6466L60.6206 43.3286Z" fill="#B4CE0D"/>
<path d="M53.3215 69.1084L48.5072 52.4913L40.121 78.271L53.3215 69.1084Z" fill="#7DA305"/>
<path d="M60.6206 43.3286L55.9616 21.742L56.1169 6.36731L48.8178 22.2078L60.6206 43.3286Z" fill="#98BC24"/>
<path d="M20.2427 78.271L26.9206 56.3738L40.1211 78.271H20.2427Z" fill="#A35F05"/>
<path d="M26.9206 56.3738L40.121 78.271L48.5072 52.6466L26.9206 56.3738Z" fill="#99B22F"/>
<path d="M6.11043 68.6424L26.9206 56.3738L20.2427 78.271L6.11043 68.6424Z" fill="#BC540D"/>
<path d="M13.4095 42.7074L26.9206 56.3738L6.11043 68.6424L13.4095 42.7074Z" fill="#E56915"/>
<path d="M0.209045 54.0443L13.4095 42.7074L6.11041 68.6424L0.209045 54.0443Z" fill="#FA7C0D"/>
<path d="M34.9961 29.8175L26.9205 56.3738L13.4095 42.8627L34.9961 29.8175Z" fill="#E6DF53"/>
<path d="M48.5072 52.6466L34.9962 29.8175L26.9206 56.3738L48.5072 52.6466Z" fill="#B4CE0D"/>
<path d="M48.8178 22.2078L48.5072 52.6466L34.6855 29.9728L48.8178 22.2078Z" fill="#98BC24"/>
<path d="M29.5607 16.7724L43.227 2.64008L34.8409 30.1281L29.5607 16.7724Z" fill="#DCE939"/>
<path d="M13.4095 42.8627L29.5606 16.7723L34.8408 29.8175L13.4095 42.8627Z" fill="#FBEF69"/>
<path d="M9.21641 28.7305L13.4095 42.8627L0.209045 54.0443L4.2468 40.0673L9.21641 28.7305Z" fill="#FFAE5B"/>
<path d="M29.5607 16.7723L9.21644 28.7304L13.4095 42.8627L29.5607 16.7723Z" fill="#C5DA13"/>
<path d="M9.21644 28.7304L25.5229 13.2005L33.9091 0L29.5607 16.7724L9.21644 28.7304Z" fill="#B4CE0D"/>
<path d="M33.9091 0L43.227 2.64007L29.5607 16.7723L33.9091 0Z" fill="#CDD128"/>
<path d="M34.8409 29.9728L43.227 2.64008L48.8178 22.2078L34.8409 29.9728Z" fill="#B8CE19"/>
<path d="M42.4506 0.155304L47.5755 1.55299L48.352 4.19306L39.8105 1.7083L42.4506 0.155304Z" fill="#B08A1B"/>
</svg>
