<svg width="430" height="107" viewBox="0 0 430 107" fill="none" xmlns="http://www.w3.org/2000/svg">
<path d="M2.17188 75.2034V1.2401H34.842C37.9649 1.2401 41.0877 1.96522 43.9704 3.17377C46.8531 4.38232 49.2553 6.07428 51.177 8.24967C53.0988 10.4251 54.7804 12.8422 55.7413 15.501C56.9424 18.1598 57.4228 20.8186 57.4228 23.7191C57.4228 26.6196 56.9424 29.5202 55.7413 32.179C54.7804 34.8378 53.0988 37.2549 51.177 39.4303C49.2553 41.6057 46.8531 43.2976 44.2106 44.5062C41.5682 45.7147 38.6855 46.4399 35.3224 46.4399H4.09365V75.4451H2.17188V75.2034ZM4.33387 44.0228H35.5626C38.6855 44.0228 41.328 43.5394 43.7302 42.3308C46.1324 41.1223 48.2944 39.672 49.9759 37.7383C51.6575 35.8046 52.8586 33.6292 53.8195 31.2121C54.7804 28.795 55.2608 26.3779 55.2608 23.7191C55.2608 21.0603 54.7804 18.6432 53.5793 16.2261C52.6184 13.809 51.177 11.6336 49.2553 9.69995C47.3335 7.76627 45.1715 6.31601 42.7693 5.10746C40.3671 3.8989 37.7246 3.41547 34.842 3.41547H4.33387V44.0228Z" fill="white" stroke="white" stroke-width="0.5669" stroke-miterlimit="10"/>
<path d="M97.7799 1.24175H99.9419L134.774 75.205H132.372L119.88 48.8586H77.8415L65.35 75.205H62.9478L97.7799 1.24175ZM118.679 46.6832L98.7407 4.38397L78.5621 46.6832H118.679Z" fill="white" stroke="white" stroke-width="0.5669" stroke-miterlimit="10"/>
<path d="M147.986 75.205V1.24175H180.656C183.779 1.24175 186.902 1.96687 189.785 3.17542C192.668 4.38397 195.07 6.07594 196.991 8.25133C198.913 10.4267 200.595 12.8438 201.556 15.5026C202.757 18.1614 203.237 20.8203 203.237 23.7208C203.237 26.6213 202.757 29.5218 201.556 32.1806C200.595 34.8394 198.913 37.2565 196.991 39.4319C195.07 41.6073 192.668 43.2993 190.025 44.5078C187.383 45.7164 184.5 46.4415 181.137 46.4415H149.908V75.4467H147.986V75.205ZM150.148 44.0244H181.377C184.5 44.0244 187.142 43.541 189.545 42.3325C191.947 41.1239 194.109 39.6736 195.79 37.74C197.472 35.8063 198.673 33.6309 199.634 31.2138C200.595 28.7967 201.075 26.3796 201.075 23.7208C201.075 21.062 200.595 18.6449 199.394 16.2278C198.433 13.8107 196.991 11.6353 195.07 9.7016C193.148 7.76792 190.986 6.31766 188.584 5.10911C186.182 3.90056 183.539 3.41713 180.656 3.41713H150.148V44.0244Z" fill="white" stroke="white" stroke-width="0.5669" stroke-miterlimit="10"/>
<path d="M243.594 1.24175H245.516L280.348 75.205H277.946L265.454 48.8586H223.656L211.164 75.205H208.762L243.594 1.24175ZM264.494 46.6832L244.555 4.38397L224.377 46.6832H264.494Z" fill="white" stroke="white" stroke-width="0.5669" stroke-miterlimit="10"/>
<path d="M287.795 1.24172L318.783 44.0244L349.772 1.24172H352.414L319.985 46.4415V74.9633H317.822V46.1998L285.393 1H287.795V1.24172Z" fill="white" stroke="white" stroke-width="0.5669" stroke-miterlimit="10"/>
<path d="M392.051 1.24175H393.973L428.805 75.205H426.403L413.911 48.8586H372.112L359.621 75.205H357.219L392.051 1.24175ZM412.95 46.6832L393.012 4.14227L372.833 46.4415H412.95V46.6832Z" fill="white" stroke="white" stroke-width="0.5669" stroke-miterlimit="10"/>
<path d="M0.482422 105.902V91.3995H5.52707C6.72818 91.3995 7.68906 91.6412 8.64995 91.8829C9.61084 92.3664 10.3315 92.8498 10.8119 93.3332C11.2924 94.0583 11.7728 94.7835 12.0131 95.7503C12.2533 96.7171 12.4935 97.684 12.4935 98.6508C12.4935 99.8594 12.2533 100.826 12.0131 101.551C11.7728 102.518 11.2924 103.243 10.5717 103.727C9.85106 104.452 9.13039 104.935 8.40973 105.177C7.44884 105.419 6.48796 105.66 5.52707 105.66H0.482422V105.902ZM10.8119 98.6508C10.8119 97.9257 10.8119 96.9588 10.5717 96.4754C10.3315 95.7503 10.0913 95.2669 9.61084 94.7834C9.13039 94.3 8.64995 93.8166 7.92929 93.5749C7.20862 93.3332 6.48796 93.0915 5.76729 93.0915H2.40419V104.452H5.52707C6.24774 104.452 7.20862 104.21 7.68906 103.968C8.40973 103.727 8.89017 103.243 9.37061 102.76C9.85106 102.276 10.0913 101.551 10.3315 101.068C10.5717 100.101 10.8119 99.3759 10.8119 98.6508Z" fill="white"/>
<path d="M35.5547 105.902V91.3995H37.4765V105.902H35.5547Z" fill="white"/>
<path d="M71.348 103.968C70.1469 105.419 68.7056 106.144 67.0241 106.144C66.0632 106.144 65.1023 105.902 64.3816 105.419C63.661 104.935 62.9403 104.452 62.2196 103.727C61.7392 103.002 61.2587 102.276 60.7783 101.31C60.5381 100.343 60.2979 99.6176 60.2979 98.6508C60.2979 97.684 60.5381 96.7171 60.7783 95.7503C61.0185 94.7835 61.499 94.0583 62.2196 93.3332C62.7001 92.6081 63.4207 92.1246 64.3816 91.6412C65.1023 91.1578 66.0632 91.1578 67.0241 91.1578C68.4654 91.1578 69.6665 91.3995 70.3871 92.1246C71.348 92.6081 72.0687 93.5749 72.5491 94.3L71.1078 95.2669C70.6274 94.5417 70.1469 93.8166 69.4263 93.3332C68.7056 92.8498 67.9849 92.6081 67.0241 92.6081C66.3034 92.6081 65.5827 92.8498 65.1023 93.0915C64.6218 93.3332 63.9012 93.8166 63.6609 94.3C63.4207 94.7835 62.9403 95.5086 62.7001 96.2337C62.4598 96.9588 62.4598 97.684 62.4598 98.4091C62.4598 99.1342 62.7001 99.8594 62.9403 100.584C63.1805 101.31 63.661 101.793 63.9012 102.518C64.3816 103.002 64.8621 103.485 65.5827 103.727C66.3034 103.968 66.7838 104.21 67.5045 104.21C69.186 104.21 70.3871 103.485 71.8285 102.035V100.101H68.7056V98.6508H73.2698V105.902H71.8285V103.968H71.348Z" fill="white"/>
<path d="M96.0908 105.902V91.3995H98.0126V105.902H96.0908Z" fill="white"/>
<path d="M132.123 92.8498H127.079V105.66H125.157V92.8498H120.112V91.1578H131.883V92.8498H132.123Z" fill="white"/>
<path d="M159.028 91.3995H160.47L166.475 105.902H164.554L162.872 101.551H156.626L154.945 105.902H153.023L159.028 91.3995ZM162.392 100.101L159.749 93.3332L157.107 100.101H162.392Z" fill="white"/>
<path d="M188.576 105.902V91.3995H190.498V104.21H198.665V105.902H188.576Z" fill="white"/>
<path d="M250.793 91.3995H252.234L258.24 105.902H256.318L254.637 101.551H248.631L246.95 105.902H245.028L250.793 91.3995ZM254.156 100.101L251.514 93.3332L248.871 100.101H254.156Z" fill="white"/>
<path d="M290.67 103.968C289.469 105.419 288.027 106.144 286.346 106.144C285.385 106.144 284.424 105.902 283.703 105.419C282.983 104.935 282.262 104.452 281.541 103.727C281.061 103.002 280.581 102.276 280.1 101.31C279.86 100.343 279.62 99.6176 279.62 98.6508C279.62 97.684 279.86 96.7171 280.1 95.7503C280.34 94.7835 280.821 94.0583 281.541 93.3332C282.022 92.6081 282.743 92.1246 283.703 91.6412C284.424 91.1578 285.385 91.1578 286.346 91.1578C287.787 91.1578 288.988 91.3995 289.709 92.1246C290.67 92.6081 291.39 93.5749 291.871 94.3L290.43 95.2669C289.949 94.5417 289.469 93.8166 288.748 93.3332C288.027 92.8498 287.307 92.6081 286.346 92.6081C285.625 92.6081 284.904 92.8498 284.424 93.0915C283.944 93.3332 283.223 93.8166 282.983 94.3C282.743 94.7835 282.262 95.5086 282.022 96.2337C281.782 96.9588 281.782 97.684 281.782 98.4091C281.782 99.1342 282.022 99.8594 282.262 100.584C282.502 101.31 282.983 101.793 283.223 102.518C283.463 103.243 284.184 103.485 284.905 103.727C285.625 103.968 286.106 104.21 286.826 104.21C288.508 104.21 289.709 103.485 291.15 102.035V100.101H288.027V98.6508H292.592V105.902H291.15V103.968H290.67Z" fill="white"/>
<path d="M325.262 104.21V105.902H315.413V91.3995H325.021V93.0915H317.334V97.684H324.061V99.1342H317.334V104.21H325.262Z" fill="white"/>
<path d="M349.765 94.7834V105.902H347.843V91.3995H349.284L358.172 102.76V91.3995H360.094V105.902H358.653L349.765 94.7834Z" fill="white"/>
<path d="M383.155 98.4091C383.155 97.4422 383.395 96.7171 383.636 95.7503C383.876 94.7834 384.356 94.0583 385.077 93.3332C385.557 92.608 386.278 92.1246 387.239 91.6412C388.2 91.1578 389.161 90.9161 390.122 90.9161C391.323 90.9161 392.524 91.1578 393.485 91.8829C394.446 92.3663 395.166 93.3332 395.647 94.0583L394.205 95.0251C393.965 94.5417 393.725 94.0583 393.485 93.8166C393.245 93.5749 392.764 93.3332 392.524 93.0915C392.284 92.8498 391.803 92.8498 391.323 92.608C390.842 92.608 390.602 92.3663 390.122 92.3663C389.401 92.3663 388.68 92.608 387.96 92.8497C387.239 93.0915 386.759 93.5749 386.518 94.0583C386.038 94.5417 385.798 95.2669 385.557 95.992C385.317 96.7171 385.317 97.4423 385.317 97.9257C385.317 98.6508 385.557 99.3759 385.798 100.101C386.038 100.826 386.278 101.31 386.759 102.035C387.239 102.518 387.719 103.002 388.44 103.243C389.161 103.485 389.641 103.727 390.362 103.727C390.842 103.727 391.083 103.727 391.563 103.485C392.043 103.485 392.284 103.243 392.764 103.002C393.245 102.76 393.485 102.518 393.725 102.276C393.965 102.035 394.205 101.551 394.446 101.068L395.887 101.793C395.647 102.276 395.407 102.76 394.926 103.243C394.446 103.727 393.965 103.968 393.485 104.21C393.004 104.452 392.524 104.694 391.803 104.935C391.323 105.177 390.602 105.177 390.122 105.177C389.161 105.177 388.2 104.935 387.479 104.452C386.759 103.968 386.038 103.485 385.317 102.76C384.597 102.035 384.356 101.31 383.876 100.343C383.396 100.343 383.155 99.3759 383.155 98.4091Z" fill="white"/>
<path d="M418.948 91.3995L423.272 98.8925L427.596 91.3995H429.518L423.993 100.584V105.902H422.071V100.584L416.546 91.3995H418.948Z" fill="white"/>
</svg>
