<svg width="15" height="15" viewBox="0 0 15 15" fill="none" xmlns="http://www.w3.org/2000/svg">
<path d="M14.9686 11.6231C14.9257 11.4956 14.6555 11.3077 14.158 11.0584C14.0247 10.9818 13.8322 10.8751 13.5852 10.7406C13.3358 10.6049 13.1097 10.4809 12.9079 10.3672C12.7038 10.2536 12.5137 10.1446 12.3374 10.0379C12.3107 10.0158 12.2191 9.95439 12.0707 9.85118C11.9234 9.74797 11.797 9.67259 11.6926 9.62273C11.5906 9.57286 11.4885 9.54851 11.3888 9.54851C11.2485 9.54851 11.0699 9.6494 10.8565 9.85234C10.6432 10.0553 10.4483 10.2744 10.2721 10.5122C10.0935 10.7511 9.90563 10.9714 9.70617 11.1732C9.50671 11.375 9.3432 11.477 9.2168 11.477C9.15302 11.477 9.07185 11.4584 8.97676 11.4237C8.88167 11.3889 8.80745 11.3576 8.75759 11.3332C8.71004 11.3089 8.62423 11.259 8.50363 11.1836C8.38186 11.1094 8.31576 11.0676 8.29953 11.0607C7.32775 10.5215 6.49165 9.90336 5.79703 9.20758C5.10125 8.51063 4.48316 7.67685 3.94161 6.7039C3.93465 6.68883 3.89407 6.62273 3.81985 6.50097C3.74447 6.37804 3.69461 6.29223 3.6691 6.24237C3.64358 6.1925 3.61459 6.1206 3.57864 6.02551C3.54501 5.92926 3.52646 5.84809 3.52646 5.78547C3.52646 5.6579 3.62851 5.49439 3.83028 5.29494C4.03206 5.09664 4.25355 4.90761 4.49128 4.73019C4.729 4.55276 4.94934 4.35678 5.15111 4.14573C5.35521 3.93119 5.45494 3.75377 5.45494 3.61113C5.45494 3.51256 5.43059 3.41167 5.38072 3.30847C5.33086 3.20526 5.25432 3.07886 5.15111 2.92926C5.04906 2.78083 4.98528 2.69153 4.96557 2.6637C4.85888 2.48512 4.74756 2.2961 4.63391 2.09316C4.52143 1.89138 4.39619 1.66525 4.26051 1.41709C4.12715 1.16776 4.02047 0.976421 3.94161 0.841902C3.69461 0.344414 3.50675 0.075377 3.37687 0.0324702C3.327 0.0104369 3.25278 0 3.15306 0C2.96288 0 2.71123 0.0347893 2.40393 0.106687C2.09315 0.177426 1.85078 0.251643 1.67452 0.330499C1.31851 0.478933 0.940467 0.911481 0.54387 1.63046C0.180904 2.29726 0 2.95825 0 3.61113C0 3.80363 0.0115965 3.98918 0.0359489 4.17008C0.0603013 4.35099 0.106687 4.55624 0.170467 4.78353C0.234247 5.00966 0.286431 5.18013 0.324699 5.28914C0.365286 5.3993 0.438343 5.5976 0.54387 5.88056C0.650557 6.16467 0.713178 6.33978 0.734051 6.40356C0.983373 7.09934 1.27792 7.72091 1.62001 8.26711C2.17896 9.17627 2.94548 10.1156 3.9161 11.085C4.88556 12.0545 5.8237 12.8199 6.73402 13.3811C7.28021 13.7232 7.90293 14.0178 8.59756 14.2671C8.66134 14.288 8.83528 14.3506 9.12055 14.4573C9.40351 14.564 9.60064 14.6359 9.70965 14.6765C9.82098 14.7147 9.99028 14.7669 10.2176 14.8307C10.4449 14.8945 10.6501 14.9397 10.831 14.9641C11.0096 14.9884 11.1975 15 11.3876 15C12.0417 15 12.7015 14.8191 13.3695 14.4584C14.0873 14.0595 14.5198 13.6838 14.6694 13.3278C14.7483 13.1492 14.8213 12.9068 14.8932 12.5984C14.964 12.2876 14.9999 12.0394 14.9999 11.8469C15.0011 11.7484 14.9895 11.6741 14.9686 11.6231Z" fill="#282828"/>
</svg>
