<svg width="15" height="15" viewBox="0 0 15 15" fill="none" xmlns="http://www.w3.org/2000/svg">
<path d="M14.3731 8.58583C14.4299 8.23123 14.4589 7.86967 14.4589 7.5C14.4589 3.65613 11.3441 0.540019 7.50058 0.540019C7.13094 0.540019 6.76709 0.570148 6.41367 0.625772C5.77173 0.22945 5.01506 0 4.2051 0C1.88297 0 0 1.88195 0 4.20542C0 5.01661 0.229432 5.77101 0.625724 6.41417C0.572422 6.76993 0.541136 7.12917 0.541136 7.5C0.541136 11.3439 3.65585 14.4588 7.49942 14.4588C7.86906 14.4588 8.23175 14.431 8.58517 14.3742C9.22827 14.7694 9.98378 15 10.7937 15C13.117 15 15 13.1169 15 10.7946C15 9.98455 14.7694 9.22783 14.3731 8.58583ZM10.8042 10.6648C10.5098 11.0889 10.0776 11.4203 9.51333 11.6579C8.94554 11.8966 8.2781 12.016 7.50406 12.016C6.57822 12.016 5.81228 11.8538 5.20742 11.5258C4.77752 11.2917 4.42758 10.9777 4.15991 10.5848C3.89108 10.192 3.75435 9.8084 3.75435 9.43294C3.75435 9.2116 3.84009 9.0204 4.00348 8.86279C4.16686 8.70519 4.38123 8.62755 4.63268 8.62755C4.83893 8.62755 5.01506 8.68897 5.15991 8.81296C5.30475 8.9358 5.42526 9.11426 5.5226 9.35066C5.64079 9.62415 5.76941 9.8536 5.90498 10.0355C6.04056 10.2163 6.23059 10.367 6.47741 10.4852C6.72074 10.6034 7.04519 10.6613 7.45307 10.6613C8.00811 10.6613 8.45771 10.542 8.80185 10.3044C9.14716 10.0645 9.31286 9.77364 9.31286 9.42135C9.31286 9.13975 9.22248 8.91726 9.0394 8.74343C8.85516 8.56729 8.61646 8.43287 8.31866 8.34132C8.02086 8.24629 7.61993 8.14663 7.11935 8.04002C6.44612 7.89285 5.88297 7.7225 5.42642 7.52549C4.96987 7.32849 4.60603 7.05964 4.3372 6.71778C4.06721 6.37477 3.93279 5.94716 3.93279 5.44074C3.93279 4.95867 4.07416 4.52642 4.35921 4.15096C4.64426 3.77434 5.05678 3.48578 5.59212 3.28531C6.12746 3.08483 6.75666 2.98401 7.47856 2.98401C8.05446 2.98401 8.55504 3.05006 8.97683 3.18333C9.39745 3.31659 9.74855 3.4939 10.029 3.71523C10.3071 3.93657 10.5133 4.1695 10.6431 4.41517C10.7729 4.65969 10.8389 4.89957 10.8389 5.13365C10.8389 5.35151 10.7543 5.54852 10.5898 5.72118C10.4241 5.89385 10.2155 5.98308 9.97103 5.98192C9.74971 5.98192 9.5759 5.93093 9.45655 5.82316C9.33835 5.71771 9.21669 5.55199 9.08343 5.31907C8.91425 4.99691 8.71379 4.74428 8.47972 4.5635C8.24913 4.3862 7.8737 4.29465 7.34878 4.29581C6.86443 4.29581 6.4774 4.39431 6.18308 4.58784C5.88876 4.78484 5.74855 5.01313 5.74739 5.27967C5.74855 5.44886 5.79606 5.59023 5.8934 5.71075C5.99189 5.83243 6.12862 5.93789 6.30591 6.02828C6.4832 6.11867 6.66164 6.18819 6.84125 6.23918C7.02317 6.29017 7.32677 6.3655 7.74623 6.46284C8.27231 6.57756 8.75087 6.70388 9.17961 6.84294C9.6095 6.982 9.97451 7.15003 10.2769 7.34935C10.5817 7.54867 10.8204 7.80246 10.9896 8.10955C11.1599 8.41548 11.2457 8.79095 11.2457 9.23246C11.2457 9.76437 11.0985 10.2418 10.8042 10.6648Z" fill="#282828"/>
</svg>
