<svg width="32" height="32" viewBox="0 0 32 32" fill="none" xmlns="http://www.w3.org/2000/svg">
<rect width="32" height="32" rx="5" fill="white"/>
<path d="M22.2793 20.8333L24.0015 26.7222L26.2237 21.9444L26.6126 17.5L22.2793 20.8333Z" fill="#98BC24"/>
<path d="M24.9997 4.2778L22.3886 10L20.333 2.94446L24.9997 4.2778Z" fill="#D0D821"/>
<path d="M26.6126 17.5L26.0015 16.3889L22.3904 9.88892L22.2793 20.8334L26.6126 17.5Z" fill="#B4CE0D"/>
<path d="M24.0005 26.7222L22.2783 20.7778L19.2783 30L24.0005 26.7222Z" fill="#7DA305"/>
<path d="M26.6119 17.4999L24.9452 9.77773L25.0008 4.27774L22.3896 9.94439L26.6119 17.4999Z" fill="#98BC24"/>
<path d="M12.167 30L14.5559 22.1666L19.2781 30H12.167Z" fill="#A35F05"/>
<path d="M14.5566 22.1667L19.2789 30L22.2789 20.8333L14.5566 22.1667Z" fill="#99B22F"/>
<path d="M7.1123 26.5555L14.5567 22.1666L12.1679 30L7.1123 26.5555Z" fill="#BC540D"/>
<path d="M9.72342 17.2778L14.5567 22.1666L7.1123 26.5555L9.72342 17.2778Z" fill="#E56915"/>
<path d="M5 21.3333L9.72222 17.2778L7.1111 26.5555L5 21.3333Z" fill="#FA7C0D"/>
<path d="M17.4439 12.6667L14.555 22.1667L9.72168 17.3333L17.4439 12.6667Z" fill="#E6DF53"/>
<path d="M22.2789 20.8333L17.4455 12.6667L14.5566 22.1667L22.2789 20.8333Z" fill="#B4CE0D"/>
<path d="M22.3905 9.94446L22.2794 20.8333L17.335 12.7222L22.3905 9.94446Z" fill="#98BC24"/>
<path d="M15.5 8.00001L20.3889 2.94446L17.3889 12.7778L15.5 8.00001Z" fill="#DCE939"/>
<path d="M9.72168 17.3333L15.4995 7.99994L17.3883 12.6666L9.72168 17.3333Z" fill="#FBEF69"/>
<path d="M8.22221 12.2778L9.72222 17.3333L5 21.3333L6.44443 16.3333L8.22221 12.2778Z" fill="#FFAE5B"/>
<path d="M15.5004 7.99994L8.22266 12.2777L9.72266 17.3333L15.5004 7.99994Z" fill="#C5DA13"/>
<path d="M8.22266 12.2778L14.056 6.72222L17.056 2L15.5004 7.99999L8.22266 12.2778Z" fill="#B4CE0D"/>
<path d="M17.0555 2L20.3889 2.94443L15.5 7.99999L17.0555 2Z" fill="#CDD128"/>
<path d="M17.3887 12.7222L20.3887 2.94446L22.3887 9.94446L17.3887 12.7222Z" fill="#B8CE19"/>
<path d="M20.1114 2.05557L21.9448 2.55557L22.2225 3.5L19.167 2.61113L20.1114 2.05557Z" fill="#B08A1B"/>
</svg>
