<?xml version="1.0" standalone="no"?>
<!DOCTYPE svg PUBLIC "-//W3C//DTD SVG 20010904//EN"
 "http://www.w3.org/TR/2001/REC-SVG-20010904/DTD/svg10.dtd">
<svg version="1.0" xmlns="http://www.w3.org/2000/svg"
 width="700.000000pt" height="700.000000pt" viewBox="0 0 700.000000 700.000000"
 preserveAspectRatio="xMidYMid meet">
<metadata>
Created by potrace 1.11, written by Peter Selinger 2001-2013
</metadata>
<g transform="translate(0.000000,700.000000) scale(0.100000,-0.100000)"
fill="#000000" stroke="none">
<path d="M3696 6508 c-18 -29 -165 -260 -325 -513 -242 -381 -303 -470 -355
-520 -71 -68 -374 -357 -475 -453 -62 -60 -256 -244 -436 -415 -187 -177 -315
-303 -315 -310 0 -3 -11 -30 -24 -59 -181 -396 -380 -871 -392 -934 -1 -6 -14
-51 -29 -99 -15 -49 -28 -96 -30 -105 -2 -8 -15 -55 -30 -105 -22 -76 -62
-214 -170 -590 -19 -68 -20 -76 -8 -106 6 -14 81 -199 167 -411 85 -212 160
-398 167 -414 6 -16 15 -38 20 -49 5 -11 29 -68 52 -128 l43 -107 100 -68 c56
-37 159 -107 230 -155 167 -114 321 -219 573 -391 l204 -139 779 -1 c428 -1
779 1 780 4 2 3 41 31 88 63 47 32 119 82 160 111 41 28 120 83 176 122 55 38
213 147 352 243 l251 175 80 170 c44 94 98 212 121 261 24 50 58 124 77 165
20 41 61 131 93 200 32 69 71 154 88 190 22 48 32 86 37 145 3 44 8 103 10
130 10 99 14 151 20 230 3 44 8 96 10 115 3 19 7 69 10 110 3 41 10 111 14
155 11 104 7 185 -12 260 -9 33 -18 78 -22 100 -3 22 -10 56 -15 75 -8 28 -82
372 -96 443 -2 10 -5 26 -8 35 -3 9 -7 28 -10 42 -2 14 -25 120 -49 235 -25
116 -48 221 -51 235 -7 34 -35 161 -41 185 -3 11 -7 34 -11 50 -3 17 -12 59
-21 95 -12 51 -15 121 -13 325 1 143 2 417 3 609 l2 348 -35 13 c-19 7 -152
46 -295 85 -143 40 -265 78 -271 84 -6 6 -21 49 -34 96 -13 47 -28 90 -34 96
-9 8 -141 48 -266 79 -8 3 -41 11 -73 20 l-58 16 -102 -61 c-56 -33 -108 -58
-116 -55 -8 3 -46 14 -85 25 -39 10 -134 37 -211 59 -77 23 -143 41 -148 41
-4 0 -22 -24 -41 -52z m94 -2293 c0 -2 -13 -11 -30 -20 -38 -19 -40 -11 -2 9
31 17 32 18 32 11z m-130 -80 c0 -2 -13 -11 -30 -20 -38 -19 -40 -11 -2 9 31
17 32 18 32 11z"/>
</g>
</svg>
